G04 #@! TF.FileFunction,Copper,L2,Bot,Signal*
%FSLAX46Y46*%
G04 Gerber Fmt 4.6, Leading zero omitted, Abs format (unit mm)*
G04 Created by KiCad (PCBNEW 4.0.7) date Mon Feb 12 17:44:01 2018*
%MOMM*%
%LPD*%
G01*
G04 APERTURE LIST*
%ADD10C,0.100000*%
%ADD11R,1.700000X1.700000*%
%ADD12O,1.700000X1.700000*%
%ADD13C,2.500000*%
%ADD14C,2.000000*%
%ADD15O,3.048000X1.727200*%
%ADD16C,1.727200*%
%ADD17R,2.500000X1.500000*%
%ADD18O,2.500000X1.500000*%
%ADD19O,3.500000X2.200000*%
%ADD20C,0.600000*%
%ADD21C,0.800000*%
%ADD22C,0.250000*%
%ADD23C,0.152400*%
%ADD24C,0.500000*%
%ADD25C,0.750000*%
%ADD26C,0.200000*%
%ADD27C,0.300000*%
G04 APERTURE END LIST*
D10*
D11*
X73000000Y-150500000D03*
D12*
X73000000Y-147960000D03*
D11*
X140000000Y-106000000D03*
D12*
X142540000Y-106000000D03*
X140000000Y-108540000D03*
X142540000Y-108540000D03*
X140000000Y-111080000D03*
X142540000Y-111080000D03*
X140000000Y-113620000D03*
X142540000Y-113620000D03*
X140000000Y-116160000D03*
X142540000Y-116160000D03*
X140000000Y-118700000D03*
X142540000Y-118700000D03*
D13*
X142000000Y-131000000D03*
D14*
X137000000Y-133500000D03*
X137000000Y-136000000D03*
X137000000Y-128500000D03*
X137000000Y-126000000D03*
D15*
X128500000Y-147500000D03*
X128500000Y-142500000D03*
X141000000Y-147500000D03*
X141000000Y-142500000D03*
X128500000Y-164500000D03*
X128500000Y-159500000D03*
X141000000Y-164500000D03*
X141000000Y-159500000D03*
D16*
X88628138Y-160628138D02*
X87694192Y-159694192D01*
X92163672Y-157092604D02*
X91229726Y-156158658D01*
X97466973Y-169466973D02*
X96533027Y-168533027D01*
X101002507Y-165931439D02*
X100068561Y-164997493D01*
X102628138Y-158371862D02*
X101694192Y-159305808D01*
X99092604Y-154836328D02*
X98158658Y-155770274D01*
X111466973Y-149533027D02*
X110533027Y-150466973D01*
X107931439Y-145997493D02*
X106997493Y-146931439D01*
X100371862Y-144371862D02*
X101305808Y-145305808D01*
X96836328Y-147907396D02*
X97770274Y-148841342D01*
X91533027Y-135533027D02*
X92466973Y-136466973D01*
X87997493Y-139068561D02*
X88931439Y-140002507D01*
X81628138Y-158371862D02*
X80694192Y-159305808D01*
X78092604Y-154836328D02*
X77158658Y-155770274D01*
X90466973Y-149533027D02*
X89533027Y-150466973D01*
X86931439Y-145997493D02*
X85997493Y-146931439D01*
D17*
X73500000Y-138000000D03*
D18*
X73500000Y-140000000D03*
X73500000Y-142000000D03*
D19*
X73500000Y-135900000D03*
X73500000Y-144100000D03*
D11*
X117320000Y-129780000D03*
D12*
X114780000Y-129780000D03*
X112240000Y-129780000D03*
X109700000Y-129780000D03*
X107160000Y-129780000D03*
X104620000Y-129780000D03*
X102080000Y-129780000D03*
X99540000Y-129780000D03*
X97000000Y-129780000D03*
X94460000Y-129780000D03*
X91920000Y-129780000D03*
X89380000Y-129780000D03*
X86840000Y-129780000D03*
X84300000Y-129780000D03*
X81760000Y-129780000D03*
X79220000Y-129780000D03*
D11*
X117320000Y-112000000D03*
D12*
X114780000Y-112000000D03*
X112240000Y-112000000D03*
X109700000Y-112000000D03*
X107160000Y-112000000D03*
X104620000Y-112000000D03*
X102080000Y-112000000D03*
X99540000Y-112000000D03*
X97000000Y-112000000D03*
X94460000Y-112000000D03*
X91920000Y-112000000D03*
X89380000Y-112000000D03*
X86840000Y-112000000D03*
X84300000Y-112000000D03*
X81760000Y-112000000D03*
X79220000Y-112000000D03*
X76680000Y-112000000D03*
X74140000Y-112000000D03*
D20*
X81580000Y-140900000D03*
X100830000Y-135170000D03*
X109060000Y-142970000D03*
X113060000Y-144480000D03*
X112530000Y-147620000D03*
X99450000Y-133790000D03*
X121070000Y-153250000D03*
X140900000Y-153470000D03*
X144000000Y-169390000D03*
X122870000Y-169450000D03*
X124500000Y-166600000D03*
X104550000Y-135170000D03*
X111650000Y-141040000D03*
X117400000Y-145010000D03*
X117630000Y-155790000D03*
X105520000Y-169100000D03*
X114520000Y-169450000D03*
X127190000Y-132930000D03*
X133730000Y-137300000D03*
X127060000Y-130640000D03*
X133650000Y-128730000D03*
X133850000Y-125730000D03*
X134780000Y-123790000D03*
X138460000Y-121360000D03*
X101040000Y-131330000D03*
X104320000Y-132630000D03*
X124070000Y-132650000D03*
X128460000Y-137360000D03*
X83950000Y-127590000D03*
X94710000Y-127410000D03*
X98510000Y-126590000D03*
X104810000Y-126430000D03*
X113750000Y-124180000D03*
X120700000Y-121700000D03*
X128300000Y-124330000D03*
X129530000Y-120060000D03*
X123080000Y-119000000D03*
X120230000Y-115620000D03*
X84470000Y-115440000D03*
X79190000Y-115850000D03*
X125580000Y-104470000D03*
X129500000Y-107500000D03*
X79250000Y-164750000D03*
X82500000Y-109000000D03*
X88500000Y-110000000D03*
X81000000Y-109000000D03*
X79500000Y-109000000D03*
X132500000Y-103500000D03*
X126500000Y-108000000D03*
X107500000Y-102500000D03*
X104500000Y-106000000D03*
X103000000Y-106000000D03*
X101500000Y-106000000D03*
X86850000Y-104950000D03*
X90800000Y-105950000D03*
X124450000Y-149550000D03*
X114500000Y-149600000D03*
X143390000Y-148420000D03*
X143360000Y-146660000D03*
D21*
X132750000Y-118020000D03*
X122460000Y-113480000D03*
X122540000Y-115970000D03*
X71860000Y-105050000D03*
X121920000Y-109500000D03*
X85480000Y-105520000D03*
X87930000Y-109030000D03*
X78680000Y-140010000D03*
D20*
X112920000Y-106570000D03*
X112920000Y-107970000D03*
X86910000Y-105750000D03*
X86840000Y-107880000D03*
X122590000Y-104970000D03*
X121660000Y-105890000D03*
X124640000Y-112520000D03*
X126220000Y-112550000D03*
X125320000Y-124860000D03*
X125260000Y-132820000D03*
X126090000Y-132850000D03*
X126130000Y-124880000D03*
X97360000Y-126640000D03*
D22*
X81760000Y-129780000D02*
X81760000Y-140720000D01*
X81760000Y-140720000D02*
X81580000Y-140900000D01*
X109060000Y-142970000D02*
X110570000Y-144480000D01*
X110570000Y-144480000D02*
X113060000Y-144480000D01*
X104550000Y-135170000D02*
X100830000Y-135170000D01*
X100830000Y-135170000D02*
X99450000Y-133790000D01*
X117630000Y-155790000D02*
X118530000Y-155790000D01*
X118530000Y-155790000D02*
X121070000Y-153250000D01*
X140900000Y-153470000D02*
X140920000Y-153450000D01*
X122870000Y-169450000D02*
X143940000Y-169450000D01*
X143940000Y-169450000D02*
X144000000Y-169390000D01*
X122990000Y-169540000D02*
X122960000Y-169540000D01*
X122960000Y-169540000D02*
X122880000Y-169460000D01*
X122880000Y-169460000D02*
X122870000Y-169450000D01*
X114520000Y-169450000D02*
X122870000Y-169450000D01*
X104320000Y-134940000D02*
X104550000Y-135170000D01*
X111650000Y-141040000D02*
X111730000Y-140960000D01*
X111730000Y-140960000D02*
X113350000Y-140960000D01*
X113350000Y-140960000D02*
X117400000Y-145010000D01*
X117630000Y-155790000D02*
X117460000Y-155960000D01*
X117460000Y-155960000D02*
X117460000Y-157160000D01*
X117460000Y-157160000D02*
X105520000Y-169100000D01*
X104320000Y-134940000D02*
X104320000Y-132630000D01*
X124500000Y-167820000D02*
X124500000Y-166600000D01*
X122870000Y-169450000D02*
X124500000Y-167820000D01*
X133730000Y-137300000D02*
X128520000Y-137300000D01*
X127060000Y-132800000D02*
X127190000Y-132930000D01*
X129530000Y-120060000D02*
X137160000Y-120060000D01*
X131740000Y-130640000D02*
X127060000Y-130640000D01*
X133650000Y-128730000D02*
X131740000Y-130640000D01*
X133850000Y-124720000D02*
X133850000Y-125730000D01*
X134780000Y-123790000D02*
X133850000Y-124720000D01*
X137160000Y-120060000D02*
X138460000Y-121360000D01*
X127060000Y-130640000D02*
X127060000Y-132800000D01*
X124050000Y-132630000D02*
X104320000Y-132630000D01*
X124070000Y-132650000D02*
X124050000Y-132630000D01*
X128520000Y-137300000D02*
X128460000Y-137360000D01*
X83950000Y-127590000D02*
X83940000Y-127590000D01*
X123080000Y-119000000D02*
X123080000Y-119320000D01*
X96420000Y-125700000D02*
X94710000Y-127410000D01*
X97620000Y-125700000D02*
X96420000Y-125700000D01*
X98510000Y-126590000D02*
X97620000Y-125700000D01*
X107130000Y-124110000D02*
X104810000Y-126430000D01*
X113680000Y-124110000D02*
X107130000Y-124110000D01*
X113750000Y-124180000D02*
X113680000Y-124110000D01*
X123080000Y-119320000D02*
X120700000Y-121700000D01*
X128300000Y-121290000D02*
X128300000Y-124330000D01*
X129530000Y-120060000D02*
X128300000Y-121290000D01*
X123080000Y-118470000D02*
X123080000Y-119000000D01*
X120230000Y-115620000D02*
X123080000Y-118470000D01*
X83940000Y-115970000D02*
X84470000Y-115440000D01*
X79310000Y-115970000D02*
X83940000Y-115970000D01*
X79190000Y-115850000D02*
X79310000Y-115970000D01*
D23*
X73000000Y-158500000D02*
X73000000Y-150500000D01*
X79250000Y-164750000D02*
X73000000Y-158500000D01*
X82500000Y-109000000D02*
X82500000Y-109500000D01*
X83000000Y-110000000D02*
X88500000Y-110000000D01*
X82500000Y-109500000D02*
X83000000Y-110000000D01*
D22*
X143360000Y-146660000D02*
X143390000Y-146690000D01*
X143390000Y-146690000D02*
X143390000Y-148420000D01*
X86464466Y-146464466D02*
X86464466Y-141535534D01*
X86464466Y-141535534D02*
X88464466Y-139535534D01*
D24*
X140000000Y-118700000D02*
X142540000Y-118700000D01*
X122540000Y-113560000D02*
X122540000Y-115970000D01*
X122460000Y-113480000D02*
X122540000Y-113560000D01*
X138050000Y-118700000D02*
X140000000Y-118700000D01*
X137310000Y-117960000D02*
X138050000Y-118700000D01*
X132810000Y-117960000D02*
X137310000Y-117960000D01*
X132750000Y-118020000D02*
X132810000Y-117960000D01*
D25*
X120460000Y-108040000D02*
X121920000Y-109500000D01*
X120460000Y-100080000D02*
X120460000Y-108040000D01*
X117440000Y-97060000D02*
X120460000Y-100080000D01*
X75380000Y-97060000D02*
X117440000Y-97060000D01*
X71860000Y-100580000D02*
X75380000Y-97060000D01*
X71860000Y-105050000D02*
X71860000Y-100580000D01*
D24*
X85790000Y-109030000D02*
X87930000Y-109030000D01*
X85470000Y-108710000D02*
X85790000Y-109030000D01*
X85470000Y-105530000D02*
X85470000Y-108710000D01*
X85480000Y-105520000D02*
X85470000Y-105530000D01*
X78670000Y-140000000D02*
X78680000Y-140010000D01*
X73500000Y-140000000D02*
X78670000Y-140000000D01*
D22*
X112940000Y-106590000D02*
X112920000Y-106570000D01*
X112940000Y-107950000D02*
X112940000Y-106590000D01*
X112920000Y-107970000D02*
X112940000Y-107950000D01*
D23*
X86840000Y-105820000D02*
X86840000Y-107880000D01*
X86910000Y-105750000D02*
X86840000Y-105820000D01*
D22*
X86840000Y-107880000D02*
X86850000Y-107880000D01*
D26*
X121680000Y-105880000D02*
X122590000Y-104970000D01*
X121670000Y-105880000D02*
X121680000Y-105880000D01*
X121660000Y-105890000D02*
X121670000Y-105880000D01*
X124640000Y-112520000D02*
X124640000Y-112530000D01*
X126200000Y-112530000D02*
X124640000Y-112530000D01*
X124640000Y-112530000D02*
X124620000Y-112530000D01*
X126220000Y-112550000D02*
X126200000Y-112530000D01*
D22*
X125320000Y-124860000D02*
X125620000Y-125160000D01*
X125620000Y-125160000D02*
X125620000Y-132330000D01*
X125620000Y-132330000D02*
X125260000Y-132690000D01*
X125260000Y-132690000D02*
X125260000Y-132820000D01*
X126090000Y-124920000D02*
X126090000Y-132850000D01*
X126130000Y-124880000D02*
X126090000Y-124920000D01*
X97360000Y-126640000D02*
X97000000Y-127000000D01*
X97000000Y-127000000D02*
X97000000Y-129780000D01*
D27*
G36*
X144369179Y-32608720D02*
X144682156Y-32817844D01*
X144891280Y-33130821D01*
X144975000Y-33551707D01*
X144975000Y-34411646D01*
X144738919Y-33840285D01*
X144162748Y-33263108D01*
X143409559Y-32950357D01*
X142594019Y-32949645D01*
X141840285Y-33261081D01*
X141263108Y-33837252D01*
X140950357Y-34590441D01*
X140949645Y-35405981D01*
X141261081Y-36159715D01*
X141837252Y-36736892D01*
X142590441Y-37049643D01*
X143405981Y-37050355D01*
X144159715Y-36738919D01*
X144736892Y-36162748D01*
X144975000Y-35589320D01*
X144975000Y-125060314D01*
X144709774Y-124950182D01*
X144292058Y-124949818D01*
X143906000Y-125109334D01*
X143610372Y-125404446D01*
X143450182Y-125790226D01*
X143449818Y-126207942D01*
X143609334Y-126594000D01*
X143904446Y-126889628D01*
X144290226Y-127049818D01*
X144707942Y-127050182D01*
X144975000Y-126939836D01*
X144975000Y-135060314D01*
X144709774Y-134950182D01*
X144292058Y-134949818D01*
X143906000Y-135109334D01*
X143610372Y-135404446D01*
X143450182Y-135790226D01*
X143449818Y-136207942D01*
X143609334Y-136594000D01*
X143904446Y-136889628D01*
X144290226Y-137049818D01*
X144707942Y-137050182D01*
X144975000Y-136939836D01*
X144975000Y-170948294D01*
X144929341Y-171177837D01*
X144828602Y-171328604D01*
X144677838Y-171429341D01*
X144448294Y-171475000D01*
X71551706Y-171475000D01*
X71322163Y-171429341D01*
X71171396Y-171328602D01*
X71070659Y-171177838D01*
X71025000Y-170948294D01*
X71025000Y-168505681D01*
X95192082Y-168505681D01*
X95292073Y-169008374D01*
X95576826Y-169434536D01*
X96565463Y-170423174D01*
X96991626Y-170707927D01*
X97494319Y-170807918D01*
X97997012Y-170707927D01*
X98423174Y-170423174D01*
X98707927Y-169997012D01*
X98807918Y-169494319D01*
X98707927Y-168991626D01*
X98423174Y-168565463D01*
X97434536Y-167576826D01*
X97008374Y-167292073D01*
X96505681Y-167192082D01*
X96002988Y-167292073D01*
X95576826Y-167576826D01*
X95292073Y-168002988D01*
X95192082Y-168505681D01*
X71025000Y-168505681D01*
X71025000Y-164970147D01*
X98727616Y-164970147D01*
X98827607Y-165472840D01*
X99112360Y-165899002D01*
X100100997Y-166887640D01*
X100527160Y-167172393D01*
X101029853Y-167272384D01*
X101532546Y-167172393D01*
X101958708Y-166887640D01*
X102243461Y-166461478D01*
X102343452Y-165958785D01*
X102243461Y-165456092D01*
X101958708Y-165029929D01*
X101428779Y-164500000D01*
X126487327Y-164500000D01*
X126587319Y-165002693D01*
X126872072Y-165428855D01*
X127298234Y-165713608D01*
X127800927Y-165813600D01*
X129199073Y-165813600D01*
X129701766Y-165713608D01*
X130127928Y-165428855D01*
X130412681Y-165002693D01*
X130512673Y-164500000D01*
X138987327Y-164500000D01*
X139087319Y-165002693D01*
X139372072Y-165428855D01*
X139798234Y-165713608D01*
X140300927Y-165813600D01*
X141699073Y-165813600D01*
X142201766Y-165713608D01*
X142627928Y-165428855D01*
X142912681Y-165002693D01*
X143012673Y-164500000D01*
X142912681Y-163997307D01*
X142627928Y-163571145D01*
X142201766Y-163286392D01*
X141699073Y-163186400D01*
X140300927Y-163186400D01*
X139798234Y-163286392D01*
X139372072Y-163571145D01*
X139087319Y-163997307D01*
X138987327Y-164500000D01*
X130512673Y-164500000D01*
X130412681Y-163997307D01*
X130127928Y-163571145D01*
X129701766Y-163286392D01*
X129199073Y-163186400D01*
X127800927Y-163186400D01*
X127298234Y-163286392D01*
X126872072Y-163571145D01*
X126587319Y-163997307D01*
X126487327Y-164500000D01*
X101428779Y-164500000D01*
X100970070Y-164041292D01*
X100543908Y-163756539D01*
X100041215Y-163656548D01*
X99538522Y-163756539D01*
X99112360Y-164041292D01*
X98827607Y-164467454D01*
X98727616Y-164970147D01*
X71025000Y-164970147D01*
X71025000Y-159333154D01*
X79353247Y-159333154D01*
X79453238Y-159835847D01*
X79737991Y-160262009D01*
X80164153Y-160546762D01*
X80666846Y-160646753D01*
X81169539Y-160546762D01*
X81595701Y-160262009D01*
X82190864Y-159666846D01*
X86353247Y-159666846D01*
X86453238Y-160169539D01*
X86737991Y-160595701D01*
X87726628Y-161584339D01*
X88152791Y-161869092D01*
X88655484Y-161969083D01*
X89158177Y-161869092D01*
X89584339Y-161584339D01*
X89869092Y-161158177D01*
X89969083Y-160655484D01*
X89869092Y-160152791D01*
X89584339Y-159726628D01*
X89190865Y-159333154D01*
X100353247Y-159333154D01*
X100453238Y-159835847D01*
X100737991Y-160262009D01*
X101164153Y-160546762D01*
X101666846Y-160646753D01*
X102169539Y-160546762D01*
X102595701Y-160262009D01*
X103357710Y-159500000D01*
X126487327Y-159500000D01*
X126587319Y-160002693D01*
X126872072Y-160428855D01*
X127298234Y-160713608D01*
X127800927Y-160813600D01*
X129199073Y-160813600D01*
X129701766Y-160713608D01*
X130127928Y-160428855D01*
X130412681Y-160002693D01*
X130512673Y-159500000D01*
X138987327Y-159500000D01*
X139087319Y-160002693D01*
X139372072Y-160428855D01*
X139798234Y-160713608D01*
X140300927Y-160813600D01*
X141699073Y-160813600D01*
X142201766Y-160713608D01*
X142627928Y-160428855D01*
X142912681Y-160002693D01*
X143012673Y-159500000D01*
X142912681Y-158997307D01*
X142627928Y-158571145D01*
X142201766Y-158286392D01*
X141699073Y-158186400D01*
X140300927Y-158186400D01*
X139798234Y-158286392D01*
X139372072Y-158571145D01*
X139087319Y-158997307D01*
X138987327Y-159500000D01*
X130512673Y-159500000D01*
X130412681Y-158997307D01*
X130127928Y-158571145D01*
X129701766Y-158286392D01*
X129199073Y-158186400D01*
X127800927Y-158186400D01*
X127298234Y-158286392D01*
X126872072Y-158571145D01*
X126587319Y-158997307D01*
X126487327Y-159500000D01*
X103357710Y-159500000D01*
X103584339Y-159273372D01*
X103869092Y-158847209D01*
X103969083Y-158344516D01*
X103869092Y-157841823D01*
X103584339Y-157415661D01*
X103158177Y-157130908D01*
X102655484Y-157030917D01*
X102152791Y-157130908D01*
X101726628Y-157415661D01*
X100737991Y-158404299D01*
X100453238Y-158830461D01*
X100353247Y-159333154D01*
X89190865Y-159333154D01*
X88595701Y-158737991D01*
X88169539Y-158453238D01*
X87666846Y-158353247D01*
X87164153Y-158453238D01*
X86737991Y-158737991D01*
X86453238Y-159164153D01*
X86353247Y-159666846D01*
X82190864Y-159666846D01*
X82584339Y-159273372D01*
X82869092Y-158847209D01*
X82969083Y-158344516D01*
X82869092Y-157841823D01*
X82584339Y-157415661D01*
X82158177Y-157130908D01*
X81655484Y-157030917D01*
X81152791Y-157130908D01*
X80726628Y-157415661D01*
X79737991Y-158404299D01*
X79453238Y-158830461D01*
X79353247Y-159333154D01*
X71025000Y-159333154D01*
X71025000Y-155797620D01*
X75817713Y-155797620D01*
X75917704Y-156300313D01*
X76202457Y-156726475D01*
X76628619Y-157011228D01*
X77131312Y-157111219D01*
X77634005Y-157011228D01*
X78060167Y-156726475D01*
X78655330Y-156131312D01*
X89888781Y-156131312D01*
X89988772Y-156634005D01*
X90273525Y-157060167D01*
X91262162Y-158048805D01*
X91688325Y-158333558D01*
X92191018Y-158433549D01*
X92693711Y-158333558D01*
X93119873Y-158048805D01*
X93404626Y-157622643D01*
X93504617Y-157119950D01*
X93404626Y-156617257D01*
X93119873Y-156191094D01*
X92726399Y-155797620D01*
X96817713Y-155797620D01*
X96917704Y-156300313D01*
X97202457Y-156726475D01*
X97628619Y-157011228D01*
X98131312Y-157111219D01*
X98634005Y-157011228D01*
X99060167Y-156726475D01*
X100048805Y-155737838D01*
X100333558Y-155311675D01*
X100433549Y-154808982D01*
X100333558Y-154306289D01*
X100048805Y-153880127D01*
X99622643Y-153595374D01*
X99119950Y-153495383D01*
X98617257Y-153595374D01*
X98191094Y-153880127D01*
X97202457Y-154868765D01*
X96917704Y-155294927D01*
X96817713Y-155797620D01*
X92726399Y-155797620D01*
X92131235Y-155202457D01*
X91705073Y-154917704D01*
X91202380Y-154817713D01*
X90699687Y-154917704D01*
X90273525Y-155202457D01*
X89988772Y-155628619D01*
X89888781Y-156131312D01*
X78655330Y-156131312D01*
X79048805Y-155737838D01*
X79333558Y-155311675D01*
X79433549Y-154808982D01*
X79333558Y-154306289D01*
X79048805Y-153880127D01*
X78622643Y-153595374D01*
X78119950Y-153495383D01*
X77617257Y-153595374D01*
X77191094Y-153880127D01*
X76202457Y-154868765D01*
X75917704Y-155294927D01*
X75817713Y-155797620D01*
X71025000Y-155797620D01*
X71025000Y-150768500D01*
X71492000Y-150768500D01*
X71492000Y-151480885D01*
X71592175Y-151722727D01*
X71777273Y-151907826D01*
X72019116Y-152008000D01*
X72731500Y-152008000D01*
X72896000Y-151843500D01*
X72896000Y-150604000D01*
X73104000Y-150604000D01*
X73104000Y-151843500D01*
X73268500Y-152008000D01*
X73980884Y-152008000D01*
X74222727Y-151907826D01*
X74407825Y-151722727D01*
X74508000Y-151480885D01*
X74508000Y-150768500D01*
X74343500Y-150604000D01*
X73104000Y-150604000D01*
X72896000Y-150604000D01*
X71656500Y-150604000D01*
X71492000Y-150768500D01*
X71025000Y-150768500D01*
X71025000Y-150494319D01*
X88192082Y-150494319D01*
X88292073Y-150997012D01*
X88576826Y-151423174D01*
X89002988Y-151707927D01*
X89505681Y-151807918D01*
X90008374Y-151707927D01*
X90434536Y-151423174D01*
X91363391Y-150494319D01*
X109192082Y-150494319D01*
X109292073Y-150997012D01*
X109576826Y-151423174D01*
X110002988Y-151707927D01*
X110505681Y-151807918D01*
X111008374Y-151707927D01*
X111434536Y-151423174D01*
X112423174Y-150434537D01*
X112707927Y-150008374D01*
X112807918Y-149505681D01*
X112707927Y-149002988D01*
X112423174Y-148576826D01*
X111997012Y-148292073D01*
X111494319Y-148192082D01*
X110991626Y-148292073D01*
X110565463Y-148576826D01*
X109576826Y-149565464D01*
X109292073Y-149991626D01*
X109192082Y-150494319D01*
X91363391Y-150494319D01*
X91423174Y-150434537D01*
X91707927Y-150008374D01*
X91807918Y-149505681D01*
X91707927Y-149002988D01*
X91423174Y-148576826D01*
X90997012Y-148292073D01*
X90494319Y-148192082D01*
X89991626Y-148292073D01*
X89565463Y-148576826D01*
X88576826Y-149565464D01*
X88292073Y-149991626D01*
X88192082Y-150494319D01*
X71025000Y-150494319D01*
X71025000Y-149519115D01*
X71492000Y-149519115D01*
X71492000Y-150231500D01*
X71656500Y-150396000D01*
X72896000Y-150396000D01*
X72896000Y-150376000D01*
X73104000Y-150376000D01*
X73104000Y-150396000D01*
X74343500Y-150396000D01*
X74508000Y-150231500D01*
X74508000Y-149519115D01*
X74407825Y-149277273D01*
X74222727Y-149092174D01*
X73980884Y-148992000D01*
X73775949Y-148992000D01*
X73944708Y-148879239D01*
X74226512Y-148457488D01*
X74325469Y-147960000D01*
X74226512Y-147462512D01*
X73944708Y-147040761D01*
X73822022Y-146958785D01*
X84656548Y-146958785D01*
X84756539Y-147461478D01*
X85041292Y-147887640D01*
X85467454Y-148172393D01*
X85970147Y-148272384D01*
X86472840Y-148172393D01*
X86899002Y-147887640D01*
X86906592Y-147880050D01*
X95495383Y-147880050D01*
X95595374Y-148382743D01*
X95880127Y-148808905D01*
X96868764Y-149797543D01*
X97294927Y-150082296D01*
X97797620Y-150182287D01*
X98300313Y-150082296D01*
X98726475Y-149797543D01*
X99011228Y-149371381D01*
X99111219Y-148868688D01*
X99011228Y-148365995D01*
X98726475Y-147939832D01*
X97745428Y-146958785D01*
X105656548Y-146958785D01*
X105756539Y-147461478D01*
X106041292Y-147887640D01*
X106467454Y-148172393D01*
X106970147Y-148272384D01*
X107472840Y-148172393D01*
X107899002Y-147887640D01*
X108286642Y-147500000D01*
X126487327Y-147500000D01*
X126587319Y-148002693D01*
X126872072Y-148428855D01*
X127298234Y-148713608D01*
X127800927Y-148813600D01*
X129199073Y-148813600D01*
X129701766Y-148713608D01*
X130127928Y-148428855D01*
X130412681Y-148002693D01*
X130512673Y-147500000D01*
X138987327Y-147500000D01*
X139087319Y-148002693D01*
X139372072Y-148428855D01*
X139798234Y-148713608D01*
X140300927Y-148813600D01*
X141699073Y-148813600D01*
X142201766Y-148713608D01*
X142627928Y-148428855D01*
X142640008Y-148410776D01*
X142639870Y-148568530D01*
X142753811Y-148844286D01*
X142964605Y-149055448D01*
X143240161Y-149169869D01*
X143538530Y-149170130D01*
X143814286Y-149056189D01*
X144025448Y-148845395D01*
X144139869Y-148569839D01*
X144140130Y-148271470D01*
X144026189Y-147995714D01*
X143965000Y-147934418D01*
X143965000Y-147115790D01*
X143995448Y-147085395D01*
X144109869Y-146809839D01*
X144110130Y-146511470D01*
X143996189Y-146235714D01*
X143785395Y-146024552D01*
X143509839Y-145910131D01*
X143211470Y-145909870D01*
X142935714Y-146023811D01*
X142724552Y-146234605D01*
X142610131Y-146510161D01*
X142610088Y-146559225D01*
X142201766Y-146286392D01*
X141699073Y-146186400D01*
X140300927Y-146186400D01*
X139798234Y-146286392D01*
X139372072Y-146571145D01*
X139087319Y-146997307D01*
X138987327Y-147500000D01*
X130512673Y-147500000D01*
X130412681Y-146997307D01*
X130127928Y-146571145D01*
X129701766Y-146286392D01*
X129199073Y-146186400D01*
X127800927Y-146186400D01*
X127298234Y-146286392D01*
X126872072Y-146571145D01*
X126587319Y-146997307D01*
X126487327Y-147500000D01*
X108286642Y-147500000D01*
X108887640Y-146899003D01*
X109172393Y-146472840D01*
X109272384Y-145970147D01*
X109172393Y-145467454D01*
X108887640Y-145041292D01*
X108461478Y-144756539D01*
X107958785Y-144656548D01*
X107456092Y-144756539D01*
X107029929Y-145041292D01*
X106041292Y-146029930D01*
X105756539Y-146456092D01*
X105656548Y-146958785D01*
X97745428Y-146958785D01*
X97737837Y-146951195D01*
X97311675Y-146666442D01*
X96808982Y-146566451D01*
X96306289Y-146666442D01*
X95880127Y-146951195D01*
X95595374Y-147377357D01*
X95495383Y-147880050D01*
X86906592Y-147880050D01*
X87887640Y-146899003D01*
X88172393Y-146472840D01*
X88272384Y-145970147D01*
X88172393Y-145467454D01*
X87887640Y-145041292D01*
X87461478Y-144756539D01*
X87039466Y-144672596D01*
X87039466Y-144344516D01*
X99030917Y-144344516D01*
X99130908Y-144847209D01*
X99415661Y-145273371D01*
X100404298Y-146262009D01*
X100830461Y-146546762D01*
X101333154Y-146646753D01*
X101835847Y-146546762D01*
X102262009Y-146262009D01*
X102546762Y-145835847D01*
X102646753Y-145333154D01*
X102546762Y-144830461D01*
X102262009Y-144404298D01*
X101273371Y-143415661D01*
X100847209Y-143130908D01*
X100344516Y-143030917D01*
X99841823Y-143130908D01*
X99415661Y-143415661D01*
X99130908Y-143841823D01*
X99030917Y-144344516D01*
X87039466Y-144344516D01*
X87039466Y-142500000D01*
X126487327Y-142500000D01*
X126587319Y-143002693D01*
X126872072Y-143428855D01*
X127298234Y-143713608D01*
X127800927Y-143813600D01*
X129199073Y-143813600D01*
X129701766Y-143713608D01*
X130127928Y-143428855D01*
X130412681Y-143002693D01*
X130512673Y-142500000D01*
X138987327Y-142500000D01*
X139087319Y-143002693D01*
X139372072Y-143428855D01*
X139798234Y-143713608D01*
X140300927Y-143813600D01*
X141699073Y-143813600D01*
X142201766Y-143713608D01*
X142627928Y-143428855D01*
X142912681Y-143002693D01*
X143012673Y-142500000D01*
X142912681Y-141997307D01*
X142627928Y-141571145D01*
X142201766Y-141286392D01*
X141699073Y-141186400D01*
X140300927Y-141186400D01*
X139798234Y-141286392D01*
X139372072Y-141571145D01*
X139087319Y-141997307D01*
X138987327Y-142500000D01*
X130512673Y-142500000D01*
X130412681Y-141997307D01*
X130127928Y-141571145D01*
X129701766Y-141286392D01*
X129199073Y-141186400D01*
X127800927Y-141186400D01*
X127298234Y-141286392D01*
X126872072Y-141571145D01*
X126587319Y-141997307D01*
X126487327Y-142500000D01*
X87039466Y-142500000D01*
X87039466Y-141773706D01*
X87942197Y-140870975D01*
X88029929Y-140958708D01*
X88456092Y-141243461D01*
X88958785Y-141343452D01*
X89461478Y-141243461D01*
X89887640Y-140958708D01*
X90172393Y-140532546D01*
X90272384Y-140029853D01*
X90172393Y-139527160D01*
X89887640Y-139100997D01*
X88899002Y-138112360D01*
X88472840Y-137827607D01*
X87970147Y-137727616D01*
X87467454Y-137827607D01*
X87041292Y-138112360D01*
X86756539Y-138538522D01*
X86656548Y-139041215D01*
X86756539Y-139543908D01*
X87041292Y-139970070D01*
X87129025Y-140057803D01*
X86057880Y-141128948D01*
X85933235Y-141315491D01*
X85889466Y-141535534D01*
X85889466Y-145181755D01*
X85041292Y-146029930D01*
X84756539Y-146456092D01*
X84656548Y-146958785D01*
X73822022Y-146958785D01*
X73522957Y-146758957D01*
X73025469Y-146660000D01*
X72974531Y-146660000D01*
X72477043Y-146758957D01*
X72055292Y-147040761D01*
X71773488Y-147462512D01*
X71674531Y-147960000D01*
X71773488Y-148457488D01*
X72055292Y-148879239D01*
X72224051Y-148992000D01*
X72019116Y-148992000D01*
X71777273Y-149092174D01*
X71592175Y-149277273D01*
X71492000Y-149519115D01*
X71025000Y-149519115D01*
X71025000Y-135900000D01*
X71256899Y-135900000D01*
X71374886Y-136493159D01*
X71710883Y-136996016D01*
X71826917Y-137073547D01*
X71791184Y-137250000D01*
X71791184Y-138750000D01*
X71822562Y-138916760D01*
X71921117Y-139069919D01*
X72071495Y-139172668D01*
X72100130Y-139178467D01*
X71858040Y-139540780D01*
X71766695Y-140000000D01*
X71858040Y-140459220D01*
X72118167Y-140848528D01*
X72344861Y-141000000D01*
X72118167Y-141151472D01*
X71858040Y-141540780D01*
X71766695Y-142000000D01*
X71858040Y-142459220D01*
X72064267Y-142767861D01*
X71710883Y-143003984D01*
X71374886Y-143506841D01*
X71256899Y-144100000D01*
X71374886Y-144693159D01*
X71710883Y-145196016D01*
X72213740Y-145532013D01*
X72806899Y-145650000D01*
X74193101Y-145650000D01*
X74786260Y-145532013D01*
X75289117Y-145196016D01*
X75625114Y-144693159D01*
X75743101Y-144100000D01*
X75625114Y-143506841D01*
X75289117Y-143003984D01*
X74935733Y-142767861D01*
X75141960Y-142459220D01*
X75233305Y-142000000D01*
X75141960Y-141540780D01*
X74881833Y-141151472D01*
X74655139Y-141000000D01*
X74881833Y-140848528D01*
X74981076Y-140700000D01*
X78167764Y-140700000D01*
X78197885Y-140730174D01*
X78510183Y-140859852D01*
X78848334Y-140860147D01*
X79160857Y-140731015D01*
X79400174Y-140492115D01*
X79529852Y-140179817D01*
X79530147Y-139841666D01*
X79401015Y-139529143D01*
X79162115Y-139289826D01*
X78849817Y-139160148D01*
X78511666Y-139159853D01*
X78199143Y-139288985D01*
X78188109Y-139300000D01*
X74981076Y-139300000D01*
X74901146Y-139180376D01*
X74916760Y-139177438D01*
X75069919Y-139078883D01*
X75172668Y-138928505D01*
X75208816Y-138750000D01*
X75208816Y-137250000D01*
X75177438Y-137083240D01*
X75171767Y-137074427D01*
X75289117Y-136996016D01*
X75625114Y-136493159D01*
X75743101Y-135900000D01*
X75664666Y-135505681D01*
X90192082Y-135505681D01*
X90292073Y-136008374D01*
X90576826Y-136434536D01*
X91565463Y-137423174D01*
X91991626Y-137707927D01*
X92494319Y-137807918D01*
X92997012Y-137707927D01*
X93423174Y-137423174D01*
X93707927Y-136997012D01*
X93807918Y-136494319D01*
X93707927Y-135991626D01*
X93423174Y-135565463D01*
X92434536Y-134576826D01*
X92008374Y-134292073D01*
X91505681Y-134192082D01*
X91002988Y-134292073D01*
X90576826Y-134576826D01*
X90292073Y-135002988D01*
X90192082Y-135505681D01*
X75664666Y-135505681D01*
X75625114Y-135306841D01*
X75289117Y-134803984D01*
X74786260Y-134467987D01*
X74193101Y-134350000D01*
X72806899Y-134350000D01*
X72213740Y-134467987D01*
X71710883Y-134803984D01*
X71374886Y-135306841D01*
X71256899Y-135900000D01*
X71025000Y-135900000D01*
X71025000Y-132968530D01*
X124509870Y-132968530D01*
X124623811Y-133244286D01*
X124834605Y-133455448D01*
X125110161Y-133569869D01*
X125408530Y-133570130D01*
X125649674Y-133470491D01*
X125664605Y-133485448D01*
X125940161Y-133599869D01*
X126238530Y-133600130D01*
X126514286Y-133486189D01*
X126725448Y-133275395D01*
X126839869Y-132999839D01*
X126840130Y-132701470D01*
X126726189Y-132425714D01*
X126665000Y-132364418D01*
X126665000Y-126287157D01*
X135549749Y-126287157D01*
X135770033Y-126820286D01*
X136177569Y-127228533D01*
X136228734Y-127249779D01*
X136179714Y-127270033D01*
X135771467Y-127677569D01*
X135550252Y-128210312D01*
X135549749Y-128787157D01*
X135770033Y-129320286D01*
X136177569Y-129728533D01*
X136710312Y-129949748D01*
X136792055Y-129949819D01*
X136406000Y-130109334D01*
X136110372Y-130404446D01*
X135950182Y-130790226D01*
X135949818Y-131207942D01*
X136109334Y-131594000D01*
X136404446Y-131889628D01*
X136790222Y-132049816D01*
X136712843Y-132049749D01*
X136179714Y-132270033D01*
X135771467Y-132677569D01*
X135550252Y-133210312D01*
X135549749Y-133787157D01*
X135770033Y-134320286D01*
X136177569Y-134728533D01*
X136228734Y-134749779D01*
X136179714Y-134770033D01*
X135771467Y-135177569D01*
X135550252Y-135710312D01*
X135549749Y-136287157D01*
X135770033Y-136820286D01*
X136177569Y-137228533D01*
X136710312Y-137449748D01*
X137287157Y-137450251D01*
X137820286Y-137229967D01*
X138228533Y-136822431D01*
X138449748Y-136289688D01*
X138449819Y-136207942D01*
X140949818Y-136207942D01*
X141109334Y-136594000D01*
X141404446Y-136889628D01*
X141790226Y-137049818D01*
X142207942Y-137050182D01*
X142594000Y-136890666D01*
X142889628Y-136595554D01*
X143049818Y-136209774D01*
X143050182Y-135792058D01*
X142890666Y-135406000D01*
X142595554Y-135110372D01*
X142209774Y-134950182D01*
X141792058Y-134949818D01*
X141406000Y-135109334D01*
X141110372Y-135404446D01*
X140950182Y-135790226D01*
X140949818Y-136207942D01*
X138449819Y-136207942D01*
X138450251Y-135712843D01*
X138229967Y-135179714D01*
X137822431Y-134771467D01*
X137771266Y-134750221D01*
X137820286Y-134729967D01*
X138228533Y-134322431D01*
X138449748Y-133789688D01*
X138450251Y-133212843D01*
X138229967Y-132679714D01*
X137881524Y-132330663D01*
X140816416Y-132330663D01*
X140942308Y-132632724D01*
X141647636Y-132913202D01*
X142406608Y-132902412D01*
X143057692Y-132632724D01*
X143183584Y-132330663D01*
X142000000Y-131147078D01*
X140816416Y-132330663D01*
X137881524Y-132330663D01*
X137822431Y-132271467D01*
X137289688Y-132050252D01*
X137207945Y-132050181D01*
X137594000Y-131890666D01*
X137889628Y-131595554D01*
X138049818Y-131209774D01*
X138050182Y-130792058D01*
X137990509Y-130647636D01*
X140086798Y-130647636D01*
X140097588Y-131406608D01*
X140367276Y-132057692D01*
X140669337Y-132183584D01*
X141852922Y-131000000D01*
X142147078Y-131000000D01*
X143330663Y-132183584D01*
X143632724Y-132057692D01*
X143913202Y-131352364D01*
X143902412Y-130593392D01*
X143632724Y-129942308D01*
X143330663Y-129816416D01*
X142147078Y-131000000D01*
X141852922Y-131000000D01*
X140669337Y-129816416D01*
X140367276Y-129942308D01*
X140086798Y-130647636D01*
X137990509Y-130647636D01*
X137890666Y-130406000D01*
X137595554Y-130110372D01*
X137209778Y-129950184D01*
X137287157Y-129950251D01*
X137820286Y-129729967D01*
X137881021Y-129669337D01*
X140816416Y-129669337D01*
X142000000Y-130852922D01*
X143183584Y-129669337D01*
X143057692Y-129367276D01*
X142352364Y-129086798D01*
X141593392Y-129097588D01*
X140942308Y-129367276D01*
X140816416Y-129669337D01*
X137881021Y-129669337D01*
X138228533Y-129322431D01*
X138449748Y-128789688D01*
X138450251Y-128212843D01*
X138229967Y-127679714D01*
X137822431Y-127271467D01*
X137771266Y-127250221D01*
X137820286Y-127229967D01*
X138228533Y-126822431D01*
X138449748Y-126289688D01*
X138449819Y-126207942D01*
X140949818Y-126207942D01*
X141109334Y-126594000D01*
X141404446Y-126889628D01*
X141790226Y-127049818D01*
X142207942Y-127050182D01*
X142594000Y-126890666D01*
X142889628Y-126595554D01*
X143049818Y-126209774D01*
X143050182Y-125792058D01*
X142890666Y-125406000D01*
X142595554Y-125110372D01*
X142209774Y-124950182D01*
X141792058Y-124949818D01*
X141406000Y-125109334D01*
X141110372Y-125404446D01*
X140950182Y-125790226D01*
X140949818Y-126207942D01*
X138449819Y-126207942D01*
X138450251Y-125712843D01*
X138229967Y-125179714D01*
X137822431Y-124771467D01*
X137289688Y-124550252D01*
X136712843Y-124549749D01*
X136179714Y-124770033D01*
X135771467Y-125177569D01*
X135550252Y-125710312D01*
X135549749Y-126287157D01*
X126665000Y-126287157D01*
X126665000Y-125405668D01*
X126765448Y-125305395D01*
X126879869Y-125029839D01*
X126880130Y-124731470D01*
X126766189Y-124455714D01*
X126555395Y-124244552D01*
X126279839Y-124130131D01*
X125981470Y-124129870D01*
X125747418Y-124226579D01*
X125745395Y-124224552D01*
X125469839Y-124110131D01*
X125171470Y-124109870D01*
X124895714Y-124223811D01*
X124684552Y-124434605D01*
X124570131Y-124710161D01*
X124569870Y-125008530D01*
X124683811Y-125284286D01*
X124894605Y-125495448D01*
X125045000Y-125557898D01*
X125045000Y-132091828D01*
X125035615Y-132101213D01*
X124835714Y-132183811D01*
X124624552Y-132394605D01*
X124510131Y-132670161D01*
X124509870Y-132968530D01*
X71025000Y-132968530D01*
X71025000Y-129754531D01*
X77920000Y-129754531D01*
X77920000Y-129805469D01*
X78018957Y-130302957D01*
X78300761Y-130724708D01*
X78722512Y-131006512D01*
X79220000Y-131105469D01*
X79717488Y-131006512D01*
X80139239Y-130724708D01*
X80392613Y-130345506D01*
X80531613Y-130654730D01*
X80959863Y-131058228D01*
X81421939Y-131249619D01*
X81656000Y-131119469D01*
X81656000Y-129884000D01*
X81636000Y-129884000D01*
X81636000Y-129676000D01*
X81656000Y-129676000D01*
X81656000Y-128440531D01*
X81864000Y-128440531D01*
X81864000Y-129676000D01*
X81884000Y-129676000D01*
X81884000Y-129884000D01*
X81864000Y-129884000D01*
X81864000Y-131119469D01*
X82098061Y-131249619D01*
X82560137Y-131058228D01*
X82988387Y-130654730D01*
X83127387Y-130345506D01*
X83380761Y-130724708D01*
X83802512Y-131006512D01*
X84300000Y-131105469D01*
X84797488Y-131006512D01*
X85219239Y-130724708D01*
X85501043Y-130302957D01*
X85570000Y-129956288D01*
X85638957Y-130302957D01*
X85920761Y-130724708D01*
X86342512Y-131006512D01*
X86840000Y-131105469D01*
X87337488Y-131006512D01*
X87759239Y-130724708D01*
X88041043Y-130302957D01*
X88110000Y-129956288D01*
X88178957Y-130302957D01*
X88460761Y-130724708D01*
X88882512Y-131006512D01*
X89380000Y-131105469D01*
X89877488Y-131006512D01*
X90299239Y-130724708D01*
X90581043Y-130302957D01*
X90650000Y-129956288D01*
X90718957Y-130302957D01*
X91000761Y-130724708D01*
X91422512Y-131006512D01*
X91920000Y-131105469D01*
X92417488Y-131006512D01*
X92839239Y-130724708D01*
X93121043Y-130302957D01*
X93190000Y-129956288D01*
X93258957Y-130302957D01*
X93540761Y-130724708D01*
X93962512Y-131006512D01*
X94460000Y-131105469D01*
X94957488Y-131006512D01*
X95379239Y-130724708D01*
X95661043Y-130302957D01*
X95730000Y-129956288D01*
X95798957Y-130302957D01*
X96080761Y-130724708D01*
X96502512Y-131006512D01*
X97000000Y-131105469D01*
X97497488Y-131006512D01*
X97919239Y-130724708D01*
X98201043Y-130302957D01*
X98270000Y-129956288D01*
X98338957Y-130302957D01*
X98620761Y-130724708D01*
X99042512Y-131006512D01*
X99540000Y-131105469D01*
X100037488Y-131006512D01*
X100459239Y-130724708D01*
X100741043Y-130302957D01*
X100810000Y-129956288D01*
X100878957Y-130302957D01*
X101160761Y-130724708D01*
X101582512Y-131006512D01*
X102080000Y-131105469D01*
X102577488Y-131006512D01*
X102999239Y-130724708D01*
X103281043Y-130302957D01*
X103350000Y-129956288D01*
X103418957Y-130302957D01*
X103700761Y-130724708D01*
X104122512Y-131006512D01*
X104620000Y-131105469D01*
X105117488Y-131006512D01*
X105539239Y-130724708D01*
X105821043Y-130302957D01*
X105890000Y-129956288D01*
X105958957Y-130302957D01*
X106240761Y-130724708D01*
X106662512Y-131006512D01*
X107160000Y-131105469D01*
X107657488Y-131006512D01*
X108079239Y-130724708D01*
X108361043Y-130302957D01*
X108430000Y-129956288D01*
X108498957Y-130302957D01*
X108780761Y-130724708D01*
X109202512Y-131006512D01*
X109700000Y-131105469D01*
X110197488Y-131006512D01*
X110619239Y-130724708D01*
X110901043Y-130302957D01*
X110970000Y-129956288D01*
X111038957Y-130302957D01*
X111320761Y-130724708D01*
X111742512Y-131006512D01*
X112240000Y-131105469D01*
X112737488Y-131006512D01*
X113159239Y-130724708D01*
X113441043Y-130302957D01*
X113510000Y-129956288D01*
X113578957Y-130302957D01*
X113860761Y-130724708D01*
X114282512Y-131006512D01*
X114780000Y-131105469D01*
X115277488Y-131006512D01*
X115699239Y-130724708D01*
X115981043Y-130302957D01*
X116011184Y-130151429D01*
X116011184Y-130630000D01*
X116042562Y-130796760D01*
X116141117Y-130949919D01*
X116291495Y-131052668D01*
X116470000Y-131088816D01*
X118170000Y-131088816D01*
X118336760Y-131057438D01*
X118489919Y-130958883D01*
X118592668Y-130808505D01*
X118628816Y-130630000D01*
X118628816Y-128930000D01*
X118597438Y-128763240D01*
X118498883Y-128610081D01*
X118348505Y-128507332D01*
X118170000Y-128471184D01*
X116470000Y-128471184D01*
X116303240Y-128502562D01*
X116150081Y-128601117D01*
X116047332Y-128751495D01*
X116011184Y-128930000D01*
X116011184Y-129408571D01*
X115981043Y-129257043D01*
X115699239Y-128835292D01*
X115277488Y-128553488D01*
X114780000Y-128454531D01*
X114282512Y-128553488D01*
X113860761Y-128835292D01*
X113578957Y-129257043D01*
X113510000Y-129603712D01*
X113441043Y-129257043D01*
X113159239Y-128835292D01*
X112737488Y-128553488D01*
X112240000Y-128454531D01*
X111742512Y-128553488D01*
X111320761Y-128835292D01*
X111038957Y-129257043D01*
X110970000Y-129603712D01*
X110901043Y-129257043D01*
X110619239Y-128835292D01*
X110197488Y-128553488D01*
X109700000Y-128454531D01*
X109202512Y-128553488D01*
X108780761Y-128835292D01*
X108498957Y-129257043D01*
X108430000Y-129603712D01*
X108361043Y-129257043D01*
X108079239Y-128835292D01*
X107657488Y-128553488D01*
X107160000Y-128454531D01*
X106662512Y-128553488D01*
X106240761Y-128835292D01*
X105958957Y-129257043D01*
X105890000Y-129603712D01*
X105821043Y-129257043D01*
X105539239Y-128835292D01*
X105117488Y-128553488D01*
X104620000Y-128454531D01*
X104122512Y-128553488D01*
X103700761Y-128835292D01*
X103418957Y-129257043D01*
X103350000Y-129603712D01*
X103281043Y-129257043D01*
X102999239Y-128835292D01*
X102577488Y-128553488D01*
X102080000Y-128454531D01*
X101582512Y-128553488D01*
X101160761Y-128835292D01*
X100878957Y-129257043D01*
X100810000Y-129603712D01*
X100741043Y-129257043D01*
X100459239Y-128835292D01*
X100037488Y-128553488D01*
X99540000Y-128454531D01*
X99042512Y-128553488D01*
X98620761Y-128835292D01*
X98338957Y-129257043D01*
X98270000Y-129603712D01*
X98201043Y-129257043D01*
X97919239Y-128835292D01*
X97575000Y-128605280D01*
X97575000Y-127362665D01*
X97784286Y-127276189D01*
X97995448Y-127065395D01*
X98109869Y-126789839D01*
X98110130Y-126491470D01*
X97996189Y-126215714D01*
X97785395Y-126004552D01*
X97509839Y-125890131D01*
X97211470Y-125889870D01*
X96935714Y-126003811D01*
X96724552Y-126214605D01*
X96610131Y-126490161D01*
X96610055Y-126576773D01*
X96593414Y-126593414D01*
X96468769Y-126779957D01*
X96425000Y-127000000D01*
X96425000Y-128605280D01*
X96080761Y-128835292D01*
X95798957Y-129257043D01*
X95730000Y-129603712D01*
X95661043Y-129257043D01*
X95379239Y-128835292D01*
X94957488Y-128553488D01*
X94460000Y-128454531D01*
X93962512Y-128553488D01*
X93540761Y-128835292D01*
X93258957Y-129257043D01*
X93190000Y-129603712D01*
X93121043Y-129257043D01*
X92839239Y-128835292D01*
X92417488Y-128553488D01*
X91920000Y-128454531D01*
X91422512Y-128553488D01*
X91000761Y-128835292D01*
X90718957Y-129257043D01*
X90650000Y-129603712D01*
X90581043Y-129257043D01*
X90299239Y-128835292D01*
X89877488Y-128553488D01*
X89380000Y-128454531D01*
X88882512Y-128553488D01*
X88460761Y-128835292D01*
X88178957Y-129257043D01*
X88110000Y-129603712D01*
X88041043Y-129257043D01*
X87759239Y-128835292D01*
X87337488Y-128553488D01*
X86840000Y-128454531D01*
X86342512Y-128553488D01*
X85920761Y-128835292D01*
X85638957Y-129257043D01*
X85570000Y-129603712D01*
X85501043Y-129257043D01*
X85219239Y-128835292D01*
X84797488Y-128553488D01*
X84300000Y-128454531D01*
X83802512Y-128553488D01*
X83380761Y-128835292D01*
X83127387Y-129214494D01*
X82988387Y-128905270D01*
X82560137Y-128501772D01*
X82098061Y-128310381D01*
X81864000Y-128440531D01*
X81656000Y-128440531D01*
X81421939Y-128310381D01*
X80959863Y-128501772D01*
X80531613Y-128905270D01*
X80392613Y-129214494D01*
X80139239Y-128835292D01*
X79717488Y-128553488D01*
X79220000Y-128454531D01*
X78722512Y-128553488D01*
X78300761Y-128835292D01*
X78018957Y-129257043D01*
X77920000Y-129754531D01*
X71025000Y-129754531D01*
X71025000Y-118188334D01*
X131899853Y-118188334D01*
X132028985Y-118500857D01*
X132267885Y-118740174D01*
X132580183Y-118869852D01*
X132918334Y-118870147D01*
X133230857Y-118741015D01*
X133312013Y-118660000D01*
X137020050Y-118660000D01*
X137555025Y-119194975D01*
X137782121Y-119346716D01*
X138050000Y-119400000D01*
X138908802Y-119400000D01*
X139055292Y-119619239D01*
X139477043Y-119901043D01*
X139974531Y-120000000D01*
X140025469Y-120000000D01*
X140522957Y-119901043D01*
X140944708Y-119619239D01*
X141091198Y-119400000D01*
X141448802Y-119400000D01*
X141595292Y-119619239D01*
X142017043Y-119901043D01*
X142514531Y-120000000D01*
X142565469Y-120000000D01*
X143062957Y-119901043D01*
X143484708Y-119619239D01*
X143766512Y-119197488D01*
X143865469Y-118700000D01*
X143766512Y-118202512D01*
X143484708Y-117780761D01*
X143105506Y-117527387D01*
X143414730Y-117388387D01*
X143818228Y-116960137D01*
X144009619Y-116498061D01*
X143879469Y-116264000D01*
X142644000Y-116264000D01*
X142644000Y-116284000D01*
X142436000Y-116284000D01*
X142436000Y-116264000D01*
X140104000Y-116264000D01*
X140104000Y-116284000D01*
X139896000Y-116284000D01*
X139896000Y-116264000D01*
X138660531Y-116264000D01*
X138530381Y-116498061D01*
X138721772Y-116960137D01*
X139125270Y-117388387D01*
X139434494Y-117527387D01*
X139055292Y-117780761D01*
X138908802Y-118000000D01*
X138339950Y-118000000D01*
X137804975Y-117465025D01*
X137577879Y-117313284D01*
X137310000Y-117260000D01*
X133136204Y-117260000D01*
X132919817Y-117170148D01*
X132581666Y-117169853D01*
X132269143Y-117298985D01*
X132029826Y-117537885D01*
X131900148Y-117850183D01*
X131899853Y-118188334D01*
X71025000Y-118188334D01*
X71025000Y-113648334D01*
X121609853Y-113648334D01*
X121738985Y-113960857D01*
X121840000Y-114062048D01*
X121840000Y-115467746D01*
X121819826Y-115487885D01*
X121690148Y-115800183D01*
X121689853Y-116138334D01*
X121818985Y-116450857D01*
X122057885Y-116690174D01*
X122370183Y-116819852D01*
X122708334Y-116820147D01*
X123020857Y-116691015D01*
X123260174Y-116452115D01*
X123389852Y-116139817D01*
X123390129Y-115821939D01*
X138530381Y-115821939D01*
X138660531Y-116056000D01*
X139896000Y-116056000D01*
X139896000Y-116036000D01*
X140104000Y-116036000D01*
X140104000Y-116056000D01*
X142436000Y-116056000D01*
X142436000Y-116036000D01*
X142644000Y-116036000D01*
X142644000Y-116056000D01*
X143879469Y-116056000D01*
X144009619Y-115821939D01*
X143818228Y-115359863D01*
X143414730Y-114931613D01*
X143105506Y-114792613D01*
X143484708Y-114539239D01*
X143766512Y-114117488D01*
X143865469Y-113620000D01*
X143766512Y-113122512D01*
X143484708Y-112700761D01*
X143062957Y-112418957D01*
X142716288Y-112350000D01*
X143062957Y-112281043D01*
X143484708Y-111999239D01*
X143766512Y-111577488D01*
X143865469Y-111080000D01*
X143766512Y-110582512D01*
X143484708Y-110160761D01*
X143062957Y-109878957D01*
X142716288Y-109810000D01*
X143062957Y-109741043D01*
X143484708Y-109459239D01*
X143766512Y-109037488D01*
X143865469Y-108540000D01*
X143766512Y-108042512D01*
X143484708Y-107620761D01*
X143062957Y-107338957D01*
X142716288Y-107270000D01*
X143062957Y-107201043D01*
X143484708Y-106919239D01*
X143766512Y-106497488D01*
X143865469Y-106000000D01*
X143766512Y-105502512D01*
X143484708Y-105080761D01*
X143062957Y-104798957D01*
X142565469Y-104700000D01*
X142514531Y-104700000D01*
X142017043Y-104798957D01*
X141595292Y-105080761D01*
X141313488Y-105502512D01*
X141308816Y-105526000D01*
X141308816Y-105150000D01*
X141277438Y-104983240D01*
X141178883Y-104830081D01*
X141028505Y-104727332D01*
X140850000Y-104691184D01*
X139150000Y-104691184D01*
X138983240Y-104722562D01*
X138830081Y-104821117D01*
X138727332Y-104971495D01*
X138691184Y-105150000D01*
X138691184Y-106850000D01*
X138722562Y-107016760D01*
X138821117Y-107169919D01*
X138971495Y-107272668D01*
X139150000Y-107308816D01*
X139628571Y-107308816D01*
X139477043Y-107338957D01*
X139055292Y-107620761D01*
X138773488Y-108042512D01*
X138674531Y-108540000D01*
X138773488Y-109037488D01*
X139055292Y-109459239D01*
X139477043Y-109741043D01*
X139823712Y-109810000D01*
X139477043Y-109878957D01*
X139055292Y-110160761D01*
X138773488Y-110582512D01*
X138674531Y-111080000D01*
X138773488Y-111577488D01*
X139055292Y-111999239D01*
X139477043Y-112281043D01*
X139823712Y-112350000D01*
X139477043Y-112418957D01*
X139055292Y-112700761D01*
X138773488Y-113122512D01*
X138674531Y-113620000D01*
X138773488Y-114117488D01*
X139055292Y-114539239D01*
X139434494Y-114792613D01*
X139125270Y-114931613D01*
X138721772Y-115359863D01*
X138530381Y-115821939D01*
X123390129Y-115821939D01*
X123390147Y-115801666D01*
X123261015Y-115489143D01*
X123240000Y-115468091D01*
X123240000Y-113818039D01*
X123309852Y-113649817D01*
X123310147Y-113311666D01*
X123181015Y-112999143D01*
X122942115Y-112759826D01*
X122722251Y-112668530D01*
X123889870Y-112668530D01*
X124003811Y-112944286D01*
X124214605Y-113155448D01*
X124490161Y-113269869D01*
X124788530Y-113270130D01*
X125064286Y-113156189D01*
X125140608Y-113080000D01*
X125689341Y-113080000D01*
X125794605Y-113185448D01*
X126070161Y-113299869D01*
X126368530Y-113300130D01*
X126644286Y-113186189D01*
X126855448Y-112975395D01*
X126969869Y-112699839D01*
X126970130Y-112401470D01*
X126856189Y-112125714D01*
X126645395Y-111914552D01*
X126369839Y-111800131D01*
X126071470Y-111799870D01*
X125795714Y-111913811D01*
X125729409Y-111980000D01*
X125160677Y-111980000D01*
X125065395Y-111884552D01*
X124789839Y-111770131D01*
X124491470Y-111769870D01*
X124215714Y-111883811D01*
X124004552Y-112094605D01*
X123890131Y-112370161D01*
X123889870Y-112668530D01*
X122722251Y-112668530D01*
X122629817Y-112630148D01*
X122291666Y-112629853D01*
X121979143Y-112758985D01*
X121739826Y-112997885D01*
X121610148Y-113310183D01*
X121609853Y-113648334D01*
X71025000Y-113648334D01*
X71025000Y-112338062D01*
X72670374Y-112338062D01*
X72911613Y-112874730D01*
X73339863Y-113278228D01*
X73801939Y-113469619D01*
X74036000Y-113339469D01*
X74036000Y-112104000D01*
X72800083Y-112104000D01*
X72670374Y-112338062D01*
X71025000Y-112338062D01*
X71025000Y-111661938D01*
X72670374Y-111661938D01*
X72800083Y-111896000D01*
X74036000Y-111896000D01*
X74036000Y-110660531D01*
X74244000Y-110660531D01*
X74244000Y-111896000D01*
X74264000Y-111896000D01*
X74264000Y-112104000D01*
X74244000Y-112104000D01*
X74244000Y-113339469D01*
X74478061Y-113469619D01*
X74940137Y-113278228D01*
X75368387Y-112874730D01*
X75507387Y-112565506D01*
X75760761Y-112944708D01*
X76182512Y-113226512D01*
X76680000Y-113325469D01*
X77177488Y-113226512D01*
X77599239Y-112944708D01*
X77881043Y-112522957D01*
X77950000Y-112176288D01*
X78018957Y-112522957D01*
X78300761Y-112944708D01*
X78722512Y-113226512D01*
X79220000Y-113325469D01*
X79717488Y-113226512D01*
X80139239Y-112944708D01*
X80421043Y-112522957D01*
X80490000Y-112176288D01*
X80558957Y-112522957D01*
X80840761Y-112944708D01*
X81262512Y-113226512D01*
X81760000Y-113325469D01*
X82257488Y-113226512D01*
X82679239Y-112944708D01*
X82961043Y-112522957D01*
X83030000Y-112176288D01*
X83098957Y-112522957D01*
X83380761Y-112944708D01*
X83802512Y-113226512D01*
X84300000Y-113325469D01*
X84797488Y-113226512D01*
X85219239Y-112944708D01*
X85501043Y-112522957D01*
X85570000Y-112176288D01*
X85638957Y-112522957D01*
X85920761Y-112944708D01*
X86342512Y-113226512D01*
X86840000Y-113325469D01*
X87337488Y-113226512D01*
X87759239Y-112944708D01*
X88041043Y-112522957D01*
X88110000Y-112176288D01*
X88178957Y-112522957D01*
X88460761Y-112944708D01*
X88882512Y-113226512D01*
X89380000Y-113325469D01*
X89877488Y-113226512D01*
X90299239Y-112944708D01*
X90581043Y-112522957D01*
X90650000Y-112176288D01*
X90718957Y-112522957D01*
X91000761Y-112944708D01*
X91422512Y-113226512D01*
X91920000Y-113325469D01*
X92417488Y-113226512D01*
X92839239Y-112944708D01*
X93121043Y-112522957D01*
X93190000Y-112176288D01*
X93258957Y-112522957D01*
X93540761Y-112944708D01*
X93962512Y-113226512D01*
X94460000Y-113325469D01*
X94957488Y-113226512D01*
X95379239Y-112944708D01*
X95661043Y-112522957D01*
X95730000Y-112176288D01*
X95798957Y-112522957D01*
X96080761Y-112944708D01*
X96502512Y-113226512D01*
X97000000Y-113325469D01*
X97497488Y-113226512D01*
X97919239Y-112944708D01*
X98201043Y-112522957D01*
X98270000Y-112176288D01*
X98338957Y-112522957D01*
X98620761Y-112944708D01*
X99042512Y-113226512D01*
X99540000Y-113325469D01*
X100037488Y-113226512D01*
X100459239Y-112944708D01*
X100741043Y-112522957D01*
X100810000Y-112176288D01*
X100878957Y-112522957D01*
X101160761Y-112944708D01*
X101582512Y-113226512D01*
X102080000Y-113325469D01*
X102577488Y-113226512D01*
X102999239Y-112944708D01*
X103281043Y-112522957D01*
X103350000Y-112176288D01*
X103418957Y-112522957D01*
X103700761Y-112944708D01*
X104122512Y-113226512D01*
X104620000Y-113325469D01*
X105117488Y-113226512D01*
X105539239Y-112944708D01*
X105821043Y-112522957D01*
X105890000Y-112176288D01*
X105958957Y-112522957D01*
X106240761Y-112944708D01*
X106662512Y-113226512D01*
X107160000Y-113325469D01*
X107657488Y-113226512D01*
X108079239Y-112944708D01*
X108361043Y-112522957D01*
X108430000Y-112176288D01*
X108498957Y-112522957D01*
X108780761Y-112944708D01*
X109202512Y-113226512D01*
X109700000Y-113325469D01*
X110197488Y-113226512D01*
X110619239Y-112944708D01*
X110901043Y-112522957D01*
X110970000Y-112176288D01*
X111038957Y-112522957D01*
X111320761Y-112944708D01*
X111742512Y-113226512D01*
X112240000Y-113325469D01*
X112737488Y-113226512D01*
X113159239Y-112944708D01*
X113441043Y-112522957D01*
X113510000Y-112176288D01*
X113578957Y-112522957D01*
X113860761Y-112944708D01*
X114282512Y-113226512D01*
X114780000Y-113325469D01*
X115277488Y-113226512D01*
X115699239Y-112944708D01*
X115981043Y-112522957D01*
X116011184Y-112371429D01*
X116011184Y-112850000D01*
X116042562Y-113016760D01*
X116141117Y-113169919D01*
X116291495Y-113272668D01*
X116470000Y-113308816D01*
X118170000Y-113308816D01*
X118336760Y-113277438D01*
X118489919Y-113178883D01*
X118592668Y-113028505D01*
X118628816Y-112850000D01*
X118628816Y-111150000D01*
X118597438Y-110983240D01*
X118498883Y-110830081D01*
X118348505Y-110727332D01*
X118170000Y-110691184D01*
X116470000Y-110691184D01*
X116303240Y-110722562D01*
X116150081Y-110821117D01*
X116047332Y-110971495D01*
X116011184Y-111150000D01*
X116011184Y-111628571D01*
X115981043Y-111477043D01*
X115699239Y-111055292D01*
X115277488Y-110773488D01*
X114780000Y-110674531D01*
X114282512Y-110773488D01*
X113860761Y-111055292D01*
X113578957Y-111477043D01*
X113510000Y-111823712D01*
X113441043Y-111477043D01*
X113159239Y-111055292D01*
X112737488Y-110773488D01*
X112240000Y-110674531D01*
X111742512Y-110773488D01*
X111320761Y-111055292D01*
X111038957Y-111477043D01*
X110970000Y-111823712D01*
X110901043Y-111477043D01*
X110619239Y-111055292D01*
X110197488Y-110773488D01*
X109700000Y-110674531D01*
X109202512Y-110773488D01*
X108780761Y-111055292D01*
X108498957Y-111477043D01*
X108430000Y-111823712D01*
X108361043Y-111477043D01*
X108079239Y-111055292D01*
X107657488Y-110773488D01*
X107160000Y-110674531D01*
X106662512Y-110773488D01*
X106240761Y-111055292D01*
X105958957Y-111477043D01*
X105890000Y-111823712D01*
X105821043Y-111477043D01*
X105539239Y-111055292D01*
X105117488Y-110773488D01*
X104620000Y-110674531D01*
X104122512Y-110773488D01*
X103700761Y-111055292D01*
X103418957Y-111477043D01*
X103350000Y-111823712D01*
X103281043Y-111477043D01*
X102999239Y-111055292D01*
X102577488Y-110773488D01*
X102080000Y-110674531D01*
X101582512Y-110773488D01*
X101160761Y-111055292D01*
X100878957Y-111477043D01*
X100810000Y-111823712D01*
X100741043Y-111477043D01*
X100459239Y-111055292D01*
X100037488Y-110773488D01*
X99540000Y-110674531D01*
X99042512Y-110773488D01*
X98620761Y-111055292D01*
X98338957Y-111477043D01*
X98270000Y-111823712D01*
X98201043Y-111477043D01*
X97919239Y-111055292D01*
X97497488Y-110773488D01*
X97000000Y-110674531D01*
X96502512Y-110773488D01*
X96080761Y-111055292D01*
X95798957Y-111477043D01*
X95730000Y-111823712D01*
X95661043Y-111477043D01*
X95379239Y-111055292D01*
X94957488Y-110773488D01*
X94460000Y-110674531D01*
X93962512Y-110773488D01*
X93540761Y-111055292D01*
X93258957Y-111477043D01*
X93190000Y-111823712D01*
X93121043Y-111477043D01*
X92839239Y-111055292D01*
X92417488Y-110773488D01*
X91920000Y-110674531D01*
X91422512Y-110773488D01*
X91000761Y-111055292D01*
X90718957Y-111477043D01*
X90650000Y-111823712D01*
X90581043Y-111477043D01*
X90299239Y-111055292D01*
X89877488Y-110773488D01*
X89380000Y-110674531D01*
X88882512Y-110773488D01*
X88460761Y-111055292D01*
X88178957Y-111477043D01*
X88110000Y-111823712D01*
X88041043Y-111477043D01*
X87759239Y-111055292D01*
X87337488Y-110773488D01*
X86840000Y-110674531D01*
X86342512Y-110773488D01*
X85920761Y-111055292D01*
X85638957Y-111477043D01*
X85570000Y-111823712D01*
X85501043Y-111477043D01*
X85219239Y-111055292D01*
X84797488Y-110773488D01*
X84300000Y-110674531D01*
X83802512Y-110773488D01*
X83380761Y-111055292D01*
X83098957Y-111477043D01*
X83030000Y-111823712D01*
X82961043Y-111477043D01*
X82679239Y-111055292D01*
X82257488Y-110773488D01*
X81760000Y-110674531D01*
X81262512Y-110773488D01*
X80840761Y-111055292D01*
X80558957Y-111477043D01*
X80490000Y-111823712D01*
X80421043Y-111477043D01*
X80139239Y-111055292D01*
X79717488Y-110773488D01*
X79220000Y-110674531D01*
X78722512Y-110773488D01*
X78300761Y-111055292D01*
X78018957Y-111477043D01*
X77950000Y-111823712D01*
X77881043Y-111477043D01*
X77599239Y-111055292D01*
X77177488Y-110773488D01*
X76680000Y-110674531D01*
X76182512Y-110773488D01*
X75760761Y-111055292D01*
X75507387Y-111434494D01*
X75368387Y-111125270D01*
X74940137Y-110721772D01*
X74478061Y-110530381D01*
X74244000Y-110660531D01*
X74036000Y-110660531D01*
X73801939Y-110530381D01*
X73339863Y-110721772D01*
X72911613Y-111125270D01*
X72670374Y-111661938D01*
X71025000Y-111661938D01*
X71025000Y-105254993D01*
X71138985Y-105530857D01*
X71377885Y-105770174D01*
X71690183Y-105899852D01*
X72028334Y-105900147D01*
X72340857Y-105771015D01*
X72423682Y-105688334D01*
X84629853Y-105688334D01*
X84758985Y-106000857D01*
X84770000Y-106011891D01*
X84770000Y-108710000D01*
X84823284Y-108977879D01*
X84975025Y-109204975D01*
X85295025Y-109524975D01*
X85522122Y-109676716D01*
X85790000Y-109730000D01*
X87427746Y-109730000D01*
X87447885Y-109750174D01*
X87760183Y-109879852D01*
X88098334Y-109880147D01*
X88410857Y-109751015D01*
X88650174Y-109512115D01*
X88779852Y-109199817D01*
X88780147Y-108861666D01*
X88651015Y-108549143D01*
X88412115Y-108309826D01*
X88099817Y-108180148D01*
X87761666Y-108179853D01*
X87479096Y-108296608D01*
X87589869Y-108029839D01*
X87590130Y-107731470D01*
X87476189Y-107455714D01*
X87366200Y-107345533D01*
X87366200Y-106718530D01*
X112169870Y-106718530D01*
X112283811Y-106994286D01*
X112365000Y-107075617D01*
X112365000Y-107464297D01*
X112284552Y-107544605D01*
X112170131Y-107820161D01*
X112169870Y-108118530D01*
X112283811Y-108394286D01*
X112494605Y-108605448D01*
X112770161Y-108719869D01*
X113068530Y-108720130D01*
X113344286Y-108606189D01*
X113555448Y-108395395D01*
X113669869Y-108119839D01*
X113670130Y-107821470D01*
X113556189Y-107545714D01*
X113515000Y-107504453D01*
X113515000Y-107035773D01*
X113555448Y-106995395D01*
X113669869Y-106719839D01*
X113670130Y-106421470D01*
X113556189Y-106145714D01*
X113345395Y-105934552D01*
X113069839Y-105820131D01*
X112771470Y-105819870D01*
X112495714Y-105933811D01*
X112284552Y-106144605D01*
X112170131Y-106420161D01*
X112169870Y-106718530D01*
X87366200Y-106718530D01*
X87366200Y-106354331D01*
X87545448Y-106175395D01*
X87659869Y-105899839D01*
X87660130Y-105601470D01*
X87546189Y-105325714D01*
X87335395Y-105114552D01*
X87059839Y-105000131D01*
X86761470Y-104999870D01*
X86485714Y-105113811D01*
X86305996Y-105293216D01*
X86201015Y-105039143D01*
X85962115Y-104799826D01*
X85649817Y-104670148D01*
X85311666Y-104669853D01*
X84999143Y-104798985D01*
X84759826Y-105037885D01*
X84630148Y-105350183D01*
X84629853Y-105688334D01*
X72423682Y-105688334D01*
X72580174Y-105532115D01*
X72709852Y-105219817D01*
X72710147Y-104881666D01*
X72685000Y-104820806D01*
X72685000Y-100921726D01*
X75721726Y-97885000D01*
X117098274Y-97885000D01*
X119635000Y-100421726D01*
X119635000Y-108040000D01*
X119697799Y-108355714D01*
X119876637Y-108623363D01*
X121174237Y-109920963D01*
X121198985Y-109980857D01*
X121437885Y-110220174D01*
X121750183Y-110349852D01*
X122088334Y-110350147D01*
X122400857Y-110221015D01*
X122640174Y-109982115D01*
X122769852Y-109669817D01*
X122770147Y-109331666D01*
X122641015Y-109019143D01*
X122402115Y-108779826D01*
X122341299Y-108754573D01*
X121285000Y-107698274D01*
X121285000Y-106546374D01*
X121510161Y-106639869D01*
X121808530Y-106640130D01*
X122084286Y-106526189D01*
X122295448Y-106315395D01*
X122339211Y-106210000D01*
X128475000Y-106210000D01*
X128514963Y-106410909D01*
X128628769Y-106581231D01*
X128799091Y-106695037D01*
X129000000Y-106735000D01*
X129200909Y-106695037D01*
X129371231Y-106581231D01*
X129485037Y-106410909D01*
X129525000Y-106210000D01*
X129485037Y-106009091D01*
X129371231Y-105838769D01*
X129200909Y-105724963D01*
X129000000Y-105685000D01*
X128799091Y-105724963D01*
X128628769Y-105838769D01*
X128514963Y-106009091D01*
X128475000Y-106210000D01*
X122339211Y-106210000D01*
X122409869Y-106039839D01*
X122409967Y-105927851D01*
X122617793Y-105720024D01*
X122738530Y-105720130D01*
X123014286Y-105606189D01*
X123225448Y-105395395D01*
X123339869Y-105119839D01*
X123340130Y-104821470D01*
X123226189Y-104545714D01*
X123015395Y-104334552D01*
X122739839Y-104220131D01*
X122441470Y-104219870D01*
X122165714Y-104333811D01*
X121954552Y-104544605D01*
X121840131Y-104820161D01*
X121840024Y-104942158D01*
X121642198Y-105139984D01*
X121511470Y-105139870D01*
X121285000Y-105233446D01*
X121285000Y-100080000D01*
X121222201Y-99764286D01*
X121043363Y-99496637D01*
X118023363Y-96476637D01*
X117755714Y-96297799D01*
X117440000Y-96235000D01*
X75380000Y-96235000D01*
X75064286Y-96297799D01*
X74796637Y-96476637D01*
X71276637Y-99996637D01*
X71097799Y-100264286D01*
X71035000Y-100580000D01*
X71035000Y-104820333D01*
X71025000Y-104844416D01*
X71025000Y-35588354D01*
X71261081Y-36159715D01*
X71837252Y-36736892D01*
X72590441Y-37049643D01*
X73405981Y-37050355D01*
X74159715Y-36738919D01*
X74736892Y-36162748D01*
X75049643Y-35409559D01*
X75050355Y-34594019D01*
X74738919Y-33840285D01*
X74162748Y-33263108D01*
X73409559Y-32950357D01*
X72594019Y-32949645D01*
X71840285Y-33261081D01*
X71263108Y-33837252D01*
X71025000Y-34410680D01*
X71025000Y-33051706D01*
X71070659Y-32822162D01*
X71171396Y-32671398D01*
X71322163Y-32570659D01*
X71551706Y-32525000D01*
X143948293Y-32525000D01*
X144369179Y-32608720D01*
X144369179Y-32608720D01*
G37*
X144369179Y-32608720D02*
X144682156Y-32817844D01*
X144891280Y-33130821D01*
X144975000Y-33551707D01*
X144975000Y-34411646D01*
X144738919Y-33840285D01*
X144162748Y-33263108D01*
X143409559Y-32950357D01*
X142594019Y-32949645D01*
X141840285Y-33261081D01*
X141263108Y-33837252D01*
X140950357Y-34590441D01*
X140949645Y-35405981D01*
X141261081Y-36159715D01*
X141837252Y-36736892D01*
X142590441Y-37049643D01*
X143405981Y-37050355D01*
X144159715Y-36738919D01*
X144736892Y-36162748D01*
X144975000Y-35589320D01*
X144975000Y-125060314D01*
X144709774Y-124950182D01*
X144292058Y-124949818D01*
X143906000Y-125109334D01*
X143610372Y-125404446D01*
X143450182Y-125790226D01*
X143449818Y-126207942D01*
X143609334Y-126594000D01*
X143904446Y-126889628D01*
X144290226Y-127049818D01*
X144707942Y-127050182D01*
X144975000Y-126939836D01*
X144975000Y-135060314D01*
X144709774Y-134950182D01*
X144292058Y-134949818D01*
X143906000Y-135109334D01*
X143610372Y-135404446D01*
X143450182Y-135790226D01*
X143449818Y-136207942D01*
X143609334Y-136594000D01*
X143904446Y-136889628D01*
X144290226Y-137049818D01*
X144707942Y-137050182D01*
X144975000Y-136939836D01*
X144975000Y-170948294D01*
X144929341Y-171177837D01*
X144828602Y-171328604D01*
X144677838Y-171429341D01*
X144448294Y-171475000D01*
X71551706Y-171475000D01*
X71322163Y-171429341D01*
X71171396Y-171328602D01*
X71070659Y-171177838D01*
X71025000Y-170948294D01*
X71025000Y-168505681D01*
X95192082Y-168505681D01*
X95292073Y-169008374D01*
X95576826Y-169434536D01*
X96565463Y-170423174D01*
X96991626Y-170707927D01*
X97494319Y-170807918D01*
X97997012Y-170707927D01*
X98423174Y-170423174D01*
X98707927Y-169997012D01*
X98807918Y-169494319D01*
X98707927Y-168991626D01*
X98423174Y-168565463D01*
X97434536Y-167576826D01*
X97008374Y-167292073D01*
X96505681Y-167192082D01*
X96002988Y-167292073D01*
X95576826Y-167576826D01*
X95292073Y-168002988D01*
X95192082Y-168505681D01*
X71025000Y-168505681D01*
X71025000Y-164970147D01*
X98727616Y-164970147D01*
X98827607Y-165472840D01*
X99112360Y-165899002D01*
X100100997Y-166887640D01*
X100527160Y-167172393D01*
X101029853Y-167272384D01*
X101532546Y-167172393D01*
X101958708Y-166887640D01*
X102243461Y-166461478D01*
X102343452Y-165958785D01*
X102243461Y-165456092D01*
X101958708Y-165029929D01*
X101428779Y-164500000D01*
X126487327Y-164500000D01*
X126587319Y-165002693D01*
X126872072Y-165428855D01*
X127298234Y-165713608D01*
X127800927Y-165813600D01*
X129199073Y-165813600D01*
X129701766Y-165713608D01*
X130127928Y-165428855D01*
X130412681Y-165002693D01*
X130512673Y-164500000D01*
X138987327Y-164500000D01*
X139087319Y-165002693D01*
X139372072Y-165428855D01*
X139798234Y-165713608D01*
X140300927Y-165813600D01*
X141699073Y-165813600D01*
X142201766Y-165713608D01*
X142627928Y-165428855D01*
X142912681Y-165002693D01*
X143012673Y-164500000D01*
X142912681Y-163997307D01*
X142627928Y-163571145D01*
X142201766Y-163286392D01*
X141699073Y-163186400D01*
X140300927Y-163186400D01*
X139798234Y-163286392D01*
X139372072Y-163571145D01*
X139087319Y-163997307D01*
X138987327Y-164500000D01*
X130512673Y-164500000D01*
X130412681Y-163997307D01*
X130127928Y-163571145D01*
X129701766Y-163286392D01*
X129199073Y-163186400D01*
X127800927Y-163186400D01*
X127298234Y-163286392D01*
X126872072Y-163571145D01*
X126587319Y-163997307D01*
X126487327Y-164500000D01*
X101428779Y-164500000D01*
X100970070Y-164041292D01*
X100543908Y-163756539D01*
X100041215Y-163656548D01*
X99538522Y-163756539D01*
X99112360Y-164041292D01*
X98827607Y-164467454D01*
X98727616Y-164970147D01*
X71025000Y-164970147D01*
X71025000Y-159333154D01*
X79353247Y-159333154D01*
X79453238Y-159835847D01*
X79737991Y-160262009D01*
X80164153Y-160546762D01*
X80666846Y-160646753D01*
X81169539Y-160546762D01*
X81595701Y-160262009D01*
X82190864Y-159666846D01*
X86353247Y-159666846D01*
X86453238Y-160169539D01*
X86737991Y-160595701D01*
X87726628Y-161584339D01*
X88152791Y-161869092D01*
X88655484Y-161969083D01*
X89158177Y-161869092D01*
X89584339Y-161584339D01*
X89869092Y-161158177D01*
X89969083Y-160655484D01*
X89869092Y-160152791D01*
X89584339Y-159726628D01*
X89190865Y-159333154D01*
X100353247Y-159333154D01*
X100453238Y-159835847D01*
X100737991Y-160262009D01*
X101164153Y-160546762D01*
X101666846Y-160646753D01*
X102169539Y-160546762D01*
X102595701Y-160262009D01*
X103357710Y-159500000D01*
X126487327Y-159500000D01*
X126587319Y-160002693D01*
X126872072Y-160428855D01*
X127298234Y-160713608D01*
X127800927Y-160813600D01*
X129199073Y-160813600D01*
X129701766Y-160713608D01*
X130127928Y-160428855D01*
X130412681Y-160002693D01*
X130512673Y-159500000D01*
X138987327Y-159500000D01*
X139087319Y-160002693D01*
X139372072Y-160428855D01*
X139798234Y-160713608D01*
X140300927Y-160813600D01*
X141699073Y-160813600D01*
X142201766Y-160713608D01*
X142627928Y-160428855D01*
X142912681Y-160002693D01*
X143012673Y-159500000D01*
X142912681Y-158997307D01*
X142627928Y-158571145D01*
X142201766Y-158286392D01*
X141699073Y-158186400D01*
X140300927Y-158186400D01*
X139798234Y-158286392D01*
X139372072Y-158571145D01*
X139087319Y-158997307D01*
X138987327Y-159500000D01*
X130512673Y-159500000D01*
X130412681Y-158997307D01*
X130127928Y-158571145D01*
X129701766Y-158286392D01*
X129199073Y-158186400D01*
X127800927Y-158186400D01*
X127298234Y-158286392D01*
X126872072Y-158571145D01*
X126587319Y-158997307D01*
X126487327Y-159500000D01*
X103357710Y-159500000D01*
X103584339Y-159273372D01*
X103869092Y-158847209D01*
X103969083Y-158344516D01*
X103869092Y-157841823D01*
X103584339Y-157415661D01*
X103158177Y-157130908D01*
X102655484Y-157030917D01*
X102152791Y-157130908D01*
X101726628Y-157415661D01*
X100737991Y-158404299D01*
X100453238Y-158830461D01*
X100353247Y-159333154D01*
X89190865Y-159333154D01*
X88595701Y-158737991D01*
X88169539Y-158453238D01*
X87666846Y-158353247D01*
X87164153Y-158453238D01*
X86737991Y-158737991D01*
X86453238Y-159164153D01*
X86353247Y-159666846D01*
X82190864Y-159666846D01*
X82584339Y-159273372D01*
X82869092Y-158847209D01*
X82969083Y-158344516D01*
X82869092Y-157841823D01*
X82584339Y-157415661D01*
X82158177Y-157130908D01*
X81655484Y-157030917D01*
X81152791Y-157130908D01*
X80726628Y-157415661D01*
X79737991Y-158404299D01*
X79453238Y-158830461D01*
X79353247Y-159333154D01*
X71025000Y-159333154D01*
X71025000Y-155797620D01*
X75817713Y-155797620D01*
X75917704Y-156300313D01*
X76202457Y-156726475D01*
X76628619Y-157011228D01*
X77131312Y-157111219D01*
X77634005Y-157011228D01*
X78060167Y-156726475D01*
X78655330Y-156131312D01*
X89888781Y-156131312D01*
X89988772Y-156634005D01*
X90273525Y-157060167D01*
X91262162Y-158048805D01*
X91688325Y-158333558D01*
X92191018Y-158433549D01*
X92693711Y-158333558D01*
X93119873Y-158048805D01*
X93404626Y-157622643D01*
X93504617Y-157119950D01*
X93404626Y-156617257D01*
X93119873Y-156191094D01*
X92726399Y-155797620D01*
X96817713Y-155797620D01*
X96917704Y-156300313D01*
X97202457Y-156726475D01*
X97628619Y-157011228D01*
X98131312Y-157111219D01*
X98634005Y-157011228D01*
X99060167Y-156726475D01*
X100048805Y-155737838D01*
X100333558Y-155311675D01*
X100433549Y-154808982D01*
X100333558Y-154306289D01*
X100048805Y-153880127D01*
X99622643Y-153595374D01*
X99119950Y-153495383D01*
X98617257Y-153595374D01*
X98191094Y-153880127D01*
X97202457Y-154868765D01*
X96917704Y-155294927D01*
X96817713Y-155797620D01*
X92726399Y-155797620D01*
X92131235Y-155202457D01*
X91705073Y-154917704D01*
X91202380Y-154817713D01*
X90699687Y-154917704D01*
X90273525Y-155202457D01*
X89988772Y-155628619D01*
X89888781Y-156131312D01*
X78655330Y-156131312D01*
X79048805Y-155737838D01*
X79333558Y-155311675D01*
X79433549Y-154808982D01*
X79333558Y-154306289D01*
X79048805Y-153880127D01*
X78622643Y-153595374D01*
X78119950Y-153495383D01*
X77617257Y-153595374D01*
X77191094Y-153880127D01*
X76202457Y-154868765D01*
X75917704Y-155294927D01*
X75817713Y-155797620D01*
X71025000Y-155797620D01*
X71025000Y-150768500D01*
X71492000Y-150768500D01*
X71492000Y-151480885D01*
X71592175Y-151722727D01*
X71777273Y-151907826D01*
X72019116Y-152008000D01*
X72731500Y-152008000D01*
X72896000Y-151843500D01*
X72896000Y-150604000D01*
X73104000Y-150604000D01*
X73104000Y-151843500D01*
X73268500Y-152008000D01*
X73980884Y-152008000D01*
X74222727Y-151907826D01*
X74407825Y-151722727D01*
X74508000Y-151480885D01*
X74508000Y-150768500D01*
X74343500Y-150604000D01*
X73104000Y-150604000D01*
X72896000Y-150604000D01*
X71656500Y-150604000D01*
X71492000Y-150768500D01*
X71025000Y-150768500D01*
X71025000Y-150494319D01*
X88192082Y-150494319D01*
X88292073Y-150997012D01*
X88576826Y-151423174D01*
X89002988Y-151707927D01*
X89505681Y-151807918D01*
X90008374Y-151707927D01*
X90434536Y-151423174D01*
X91363391Y-150494319D01*
X109192082Y-150494319D01*
X109292073Y-150997012D01*
X109576826Y-151423174D01*
X110002988Y-151707927D01*
X110505681Y-151807918D01*
X111008374Y-151707927D01*
X111434536Y-151423174D01*
X112423174Y-150434537D01*
X112707927Y-150008374D01*
X112807918Y-149505681D01*
X112707927Y-149002988D01*
X112423174Y-148576826D01*
X111997012Y-148292073D01*
X111494319Y-148192082D01*
X110991626Y-148292073D01*
X110565463Y-148576826D01*
X109576826Y-149565464D01*
X109292073Y-149991626D01*
X109192082Y-150494319D01*
X91363391Y-150494319D01*
X91423174Y-150434537D01*
X91707927Y-150008374D01*
X91807918Y-149505681D01*
X91707927Y-149002988D01*
X91423174Y-148576826D01*
X90997012Y-148292073D01*
X90494319Y-148192082D01*
X89991626Y-148292073D01*
X89565463Y-148576826D01*
X88576826Y-149565464D01*
X88292073Y-149991626D01*
X88192082Y-150494319D01*
X71025000Y-150494319D01*
X71025000Y-149519115D01*
X71492000Y-149519115D01*
X71492000Y-150231500D01*
X71656500Y-150396000D01*
X72896000Y-150396000D01*
X72896000Y-150376000D01*
X73104000Y-150376000D01*
X73104000Y-150396000D01*
X74343500Y-150396000D01*
X74508000Y-150231500D01*
X74508000Y-149519115D01*
X74407825Y-149277273D01*
X74222727Y-149092174D01*
X73980884Y-148992000D01*
X73775949Y-148992000D01*
X73944708Y-148879239D01*
X74226512Y-148457488D01*
X74325469Y-147960000D01*
X74226512Y-147462512D01*
X73944708Y-147040761D01*
X73822022Y-146958785D01*
X84656548Y-146958785D01*
X84756539Y-147461478D01*
X85041292Y-147887640D01*
X85467454Y-148172393D01*
X85970147Y-148272384D01*
X86472840Y-148172393D01*
X86899002Y-147887640D01*
X86906592Y-147880050D01*
X95495383Y-147880050D01*
X95595374Y-148382743D01*
X95880127Y-148808905D01*
X96868764Y-149797543D01*
X97294927Y-150082296D01*
X97797620Y-150182287D01*
X98300313Y-150082296D01*
X98726475Y-149797543D01*
X99011228Y-149371381D01*
X99111219Y-148868688D01*
X99011228Y-148365995D01*
X98726475Y-147939832D01*
X97745428Y-146958785D01*
X105656548Y-146958785D01*
X105756539Y-147461478D01*
X106041292Y-147887640D01*
X106467454Y-148172393D01*
X106970147Y-148272384D01*
X107472840Y-148172393D01*
X107899002Y-147887640D01*
X108286642Y-147500000D01*
X126487327Y-147500000D01*
X126587319Y-148002693D01*
X126872072Y-148428855D01*
X127298234Y-148713608D01*
X127800927Y-148813600D01*
X129199073Y-148813600D01*
X129701766Y-148713608D01*
X130127928Y-148428855D01*
X130412681Y-148002693D01*
X130512673Y-147500000D01*
X138987327Y-147500000D01*
X139087319Y-148002693D01*
X139372072Y-148428855D01*
X139798234Y-148713608D01*
X140300927Y-148813600D01*
X141699073Y-148813600D01*
X142201766Y-148713608D01*
X142627928Y-148428855D01*
X142640008Y-148410776D01*
X142639870Y-148568530D01*
X142753811Y-148844286D01*
X142964605Y-149055448D01*
X143240161Y-149169869D01*
X143538530Y-149170130D01*
X143814286Y-149056189D01*
X144025448Y-148845395D01*
X144139869Y-148569839D01*
X144140130Y-148271470D01*
X144026189Y-147995714D01*
X143965000Y-147934418D01*
X143965000Y-147115790D01*
X143995448Y-147085395D01*
X144109869Y-146809839D01*
X144110130Y-146511470D01*
X143996189Y-146235714D01*
X143785395Y-146024552D01*
X143509839Y-145910131D01*
X143211470Y-145909870D01*
X142935714Y-146023811D01*
X142724552Y-146234605D01*
X142610131Y-146510161D01*
X142610088Y-146559225D01*
X142201766Y-146286392D01*
X141699073Y-146186400D01*
X140300927Y-146186400D01*
X139798234Y-146286392D01*
X139372072Y-146571145D01*
X139087319Y-146997307D01*
X138987327Y-147500000D01*
X130512673Y-147500000D01*
X130412681Y-146997307D01*
X130127928Y-146571145D01*
X129701766Y-146286392D01*
X129199073Y-146186400D01*
X127800927Y-146186400D01*
X127298234Y-146286392D01*
X126872072Y-146571145D01*
X126587319Y-146997307D01*
X126487327Y-147500000D01*
X108286642Y-147500000D01*
X108887640Y-146899003D01*
X109172393Y-146472840D01*
X109272384Y-145970147D01*
X109172393Y-145467454D01*
X108887640Y-145041292D01*
X108461478Y-144756539D01*
X107958785Y-144656548D01*
X107456092Y-144756539D01*
X107029929Y-145041292D01*
X106041292Y-146029930D01*
X105756539Y-146456092D01*
X105656548Y-146958785D01*
X97745428Y-146958785D01*
X97737837Y-146951195D01*
X97311675Y-146666442D01*
X96808982Y-146566451D01*
X96306289Y-146666442D01*
X95880127Y-146951195D01*
X95595374Y-147377357D01*
X95495383Y-147880050D01*
X86906592Y-147880050D01*
X87887640Y-146899003D01*
X88172393Y-146472840D01*
X88272384Y-145970147D01*
X88172393Y-145467454D01*
X87887640Y-145041292D01*
X87461478Y-144756539D01*
X87039466Y-144672596D01*
X87039466Y-144344516D01*
X99030917Y-144344516D01*
X99130908Y-144847209D01*
X99415661Y-145273371D01*
X100404298Y-146262009D01*
X100830461Y-146546762D01*
X101333154Y-146646753D01*
X101835847Y-146546762D01*
X102262009Y-146262009D01*
X102546762Y-145835847D01*
X102646753Y-145333154D01*
X102546762Y-144830461D01*
X102262009Y-144404298D01*
X101273371Y-143415661D01*
X100847209Y-143130908D01*
X100344516Y-143030917D01*
X99841823Y-143130908D01*
X99415661Y-143415661D01*
X99130908Y-143841823D01*
X99030917Y-144344516D01*
X87039466Y-144344516D01*
X87039466Y-142500000D01*
X126487327Y-142500000D01*
X126587319Y-143002693D01*
X126872072Y-143428855D01*
X127298234Y-143713608D01*
X127800927Y-143813600D01*
X129199073Y-143813600D01*
X129701766Y-143713608D01*
X130127928Y-143428855D01*
X130412681Y-143002693D01*
X130512673Y-142500000D01*
X138987327Y-142500000D01*
X139087319Y-143002693D01*
X139372072Y-143428855D01*
X139798234Y-143713608D01*
X140300927Y-143813600D01*
X141699073Y-143813600D01*
X142201766Y-143713608D01*
X142627928Y-143428855D01*
X142912681Y-143002693D01*
X143012673Y-142500000D01*
X142912681Y-141997307D01*
X142627928Y-141571145D01*
X142201766Y-141286392D01*
X141699073Y-141186400D01*
X140300927Y-141186400D01*
X139798234Y-141286392D01*
X139372072Y-141571145D01*
X139087319Y-141997307D01*
X138987327Y-142500000D01*
X130512673Y-142500000D01*
X130412681Y-141997307D01*
X130127928Y-141571145D01*
X129701766Y-141286392D01*
X129199073Y-141186400D01*
X127800927Y-141186400D01*
X127298234Y-141286392D01*
X126872072Y-141571145D01*
X126587319Y-141997307D01*
X126487327Y-142500000D01*
X87039466Y-142500000D01*
X87039466Y-141773706D01*
X87942197Y-140870975D01*
X88029929Y-140958708D01*
X88456092Y-141243461D01*
X88958785Y-141343452D01*
X89461478Y-141243461D01*
X89887640Y-140958708D01*
X90172393Y-140532546D01*
X90272384Y-140029853D01*
X90172393Y-139527160D01*
X89887640Y-139100997D01*
X88899002Y-138112360D01*
X88472840Y-137827607D01*
X87970147Y-137727616D01*
X87467454Y-137827607D01*
X87041292Y-138112360D01*
X86756539Y-138538522D01*
X86656548Y-139041215D01*
X86756539Y-139543908D01*
X87041292Y-139970070D01*
X87129025Y-140057803D01*
X86057880Y-141128948D01*
X85933235Y-141315491D01*
X85889466Y-141535534D01*
X85889466Y-145181755D01*
X85041292Y-146029930D01*
X84756539Y-146456092D01*
X84656548Y-146958785D01*
X73822022Y-146958785D01*
X73522957Y-146758957D01*
X73025469Y-146660000D01*
X72974531Y-146660000D01*
X72477043Y-146758957D01*
X72055292Y-147040761D01*
X71773488Y-147462512D01*
X71674531Y-147960000D01*
X71773488Y-148457488D01*
X72055292Y-148879239D01*
X72224051Y-148992000D01*
X72019116Y-148992000D01*
X71777273Y-149092174D01*
X71592175Y-149277273D01*
X71492000Y-149519115D01*
X71025000Y-149519115D01*
X71025000Y-135900000D01*
X71256899Y-135900000D01*
X71374886Y-136493159D01*
X71710883Y-136996016D01*
X71826917Y-137073547D01*
X71791184Y-137250000D01*
X71791184Y-138750000D01*
X71822562Y-138916760D01*
X71921117Y-139069919D01*
X72071495Y-139172668D01*
X72100130Y-139178467D01*
X71858040Y-139540780D01*
X71766695Y-140000000D01*
X71858040Y-140459220D01*
X72118167Y-140848528D01*
X72344861Y-141000000D01*
X72118167Y-141151472D01*
X71858040Y-141540780D01*
X71766695Y-142000000D01*
X71858040Y-142459220D01*
X72064267Y-142767861D01*
X71710883Y-143003984D01*
X71374886Y-143506841D01*
X71256899Y-144100000D01*
X71374886Y-144693159D01*
X71710883Y-145196016D01*
X72213740Y-145532013D01*
X72806899Y-145650000D01*
X74193101Y-145650000D01*
X74786260Y-145532013D01*
X75289117Y-145196016D01*
X75625114Y-144693159D01*
X75743101Y-144100000D01*
X75625114Y-143506841D01*
X75289117Y-143003984D01*
X74935733Y-142767861D01*
X75141960Y-142459220D01*
X75233305Y-142000000D01*
X75141960Y-141540780D01*
X74881833Y-141151472D01*
X74655139Y-141000000D01*
X74881833Y-140848528D01*
X74981076Y-140700000D01*
X78167764Y-140700000D01*
X78197885Y-140730174D01*
X78510183Y-140859852D01*
X78848334Y-140860147D01*
X79160857Y-140731015D01*
X79400174Y-140492115D01*
X79529852Y-140179817D01*
X79530147Y-139841666D01*
X79401015Y-139529143D01*
X79162115Y-139289826D01*
X78849817Y-139160148D01*
X78511666Y-139159853D01*
X78199143Y-139288985D01*
X78188109Y-139300000D01*
X74981076Y-139300000D01*
X74901146Y-139180376D01*
X74916760Y-139177438D01*
X75069919Y-139078883D01*
X75172668Y-138928505D01*
X75208816Y-138750000D01*
X75208816Y-137250000D01*
X75177438Y-137083240D01*
X75171767Y-137074427D01*
X75289117Y-136996016D01*
X75625114Y-136493159D01*
X75743101Y-135900000D01*
X75664666Y-135505681D01*
X90192082Y-135505681D01*
X90292073Y-136008374D01*
X90576826Y-136434536D01*
X91565463Y-137423174D01*
X91991626Y-137707927D01*
X92494319Y-137807918D01*
X92997012Y-137707927D01*
X93423174Y-137423174D01*
X93707927Y-136997012D01*
X93807918Y-136494319D01*
X93707927Y-135991626D01*
X93423174Y-135565463D01*
X92434536Y-134576826D01*
X92008374Y-134292073D01*
X91505681Y-134192082D01*
X91002988Y-134292073D01*
X90576826Y-134576826D01*
X90292073Y-135002988D01*
X90192082Y-135505681D01*
X75664666Y-135505681D01*
X75625114Y-135306841D01*
X75289117Y-134803984D01*
X74786260Y-134467987D01*
X74193101Y-134350000D01*
X72806899Y-134350000D01*
X72213740Y-134467987D01*
X71710883Y-134803984D01*
X71374886Y-135306841D01*
X71256899Y-135900000D01*
X71025000Y-135900000D01*
X71025000Y-132968530D01*
X124509870Y-132968530D01*
X124623811Y-133244286D01*
X124834605Y-133455448D01*
X125110161Y-133569869D01*
X125408530Y-133570130D01*
X125649674Y-133470491D01*
X125664605Y-133485448D01*
X125940161Y-133599869D01*
X126238530Y-133600130D01*
X126514286Y-133486189D01*
X126725448Y-133275395D01*
X126839869Y-132999839D01*
X126840130Y-132701470D01*
X126726189Y-132425714D01*
X126665000Y-132364418D01*
X126665000Y-126287157D01*
X135549749Y-126287157D01*
X135770033Y-126820286D01*
X136177569Y-127228533D01*
X136228734Y-127249779D01*
X136179714Y-127270033D01*
X135771467Y-127677569D01*
X135550252Y-128210312D01*
X135549749Y-128787157D01*
X135770033Y-129320286D01*
X136177569Y-129728533D01*
X136710312Y-129949748D01*
X136792055Y-129949819D01*
X136406000Y-130109334D01*
X136110372Y-130404446D01*
X135950182Y-130790226D01*
X135949818Y-131207942D01*
X136109334Y-131594000D01*
X136404446Y-131889628D01*
X136790222Y-132049816D01*
X136712843Y-132049749D01*
X136179714Y-132270033D01*
X135771467Y-132677569D01*
X135550252Y-133210312D01*
X135549749Y-133787157D01*
X135770033Y-134320286D01*
X136177569Y-134728533D01*
X136228734Y-134749779D01*
X136179714Y-134770033D01*
X135771467Y-135177569D01*
X135550252Y-135710312D01*
X135549749Y-136287157D01*
X135770033Y-136820286D01*
X136177569Y-137228533D01*
X136710312Y-137449748D01*
X137287157Y-137450251D01*
X137820286Y-137229967D01*
X138228533Y-136822431D01*
X138449748Y-136289688D01*
X138449819Y-136207942D01*
X140949818Y-136207942D01*
X141109334Y-136594000D01*
X141404446Y-136889628D01*
X141790226Y-137049818D01*
X142207942Y-137050182D01*
X142594000Y-136890666D01*
X142889628Y-136595554D01*
X143049818Y-136209774D01*
X143050182Y-135792058D01*
X142890666Y-135406000D01*
X142595554Y-135110372D01*
X142209774Y-134950182D01*
X141792058Y-134949818D01*
X141406000Y-135109334D01*
X141110372Y-135404446D01*
X140950182Y-135790226D01*
X140949818Y-136207942D01*
X138449819Y-136207942D01*
X138450251Y-135712843D01*
X138229967Y-135179714D01*
X137822431Y-134771467D01*
X137771266Y-134750221D01*
X137820286Y-134729967D01*
X138228533Y-134322431D01*
X138449748Y-133789688D01*
X138450251Y-133212843D01*
X138229967Y-132679714D01*
X137881524Y-132330663D01*
X140816416Y-132330663D01*
X140942308Y-132632724D01*
X141647636Y-132913202D01*
X142406608Y-132902412D01*
X143057692Y-132632724D01*
X143183584Y-132330663D01*
X142000000Y-131147078D01*
X140816416Y-132330663D01*
X137881524Y-132330663D01*
X137822431Y-132271467D01*
X137289688Y-132050252D01*
X137207945Y-132050181D01*
X137594000Y-131890666D01*
X137889628Y-131595554D01*
X138049818Y-131209774D01*
X138050182Y-130792058D01*
X137990509Y-130647636D01*
X140086798Y-130647636D01*
X140097588Y-131406608D01*
X140367276Y-132057692D01*
X140669337Y-132183584D01*
X141852922Y-131000000D01*
X142147078Y-131000000D01*
X143330663Y-132183584D01*
X143632724Y-132057692D01*
X143913202Y-131352364D01*
X143902412Y-130593392D01*
X143632724Y-129942308D01*
X143330663Y-129816416D01*
X142147078Y-131000000D01*
X141852922Y-131000000D01*
X140669337Y-129816416D01*
X140367276Y-129942308D01*
X140086798Y-130647636D01*
X137990509Y-130647636D01*
X137890666Y-130406000D01*
X137595554Y-130110372D01*
X137209778Y-129950184D01*
X137287157Y-129950251D01*
X137820286Y-129729967D01*
X137881021Y-129669337D01*
X140816416Y-129669337D01*
X142000000Y-130852922D01*
X143183584Y-129669337D01*
X143057692Y-129367276D01*
X142352364Y-129086798D01*
X141593392Y-129097588D01*
X140942308Y-129367276D01*
X140816416Y-129669337D01*
X137881021Y-129669337D01*
X138228533Y-129322431D01*
X138449748Y-128789688D01*
X138450251Y-128212843D01*
X138229967Y-127679714D01*
X137822431Y-127271467D01*
X137771266Y-127250221D01*
X137820286Y-127229967D01*
X138228533Y-126822431D01*
X138449748Y-126289688D01*
X138449819Y-126207942D01*
X140949818Y-126207942D01*
X141109334Y-126594000D01*
X141404446Y-126889628D01*
X141790226Y-127049818D01*
X142207942Y-127050182D01*
X142594000Y-126890666D01*
X142889628Y-126595554D01*
X143049818Y-126209774D01*
X143050182Y-125792058D01*
X142890666Y-125406000D01*
X142595554Y-125110372D01*
X142209774Y-124950182D01*
X141792058Y-124949818D01*
X141406000Y-125109334D01*
X141110372Y-125404446D01*
X140950182Y-125790226D01*
X140949818Y-126207942D01*
X138449819Y-126207942D01*
X138450251Y-125712843D01*
X138229967Y-125179714D01*
X137822431Y-124771467D01*
X137289688Y-124550252D01*
X136712843Y-124549749D01*
X136179714Y-124770033D01*
X135771467Y-125177569D01*
X135550252Y-125710312D01*
X135549749Y-126287157D01*
X126665000Y-126287157D01*
X126665000Y-125405668D01*
X126765448Y-125305395D01*
X126879869Y-125029839D01*
X126880130Y-124731470D01*
X126766189Y-124455714D01*
X126555395Y-124244552D01*
X126279839Y-124130131D01*
X125981470Y-124129870D01*
X125747418Y-124226579D01*
X125745395Y-124224552D01*
X125469839Y-124110131D01*
X125171470Y-124109870D01*
X124895714Y-124223811D01*
X124684552Y-124434605D01*
X124570131Y-124710161D01*
X124569870Y-125008530D01*
X124683811Y-125284286D01*
X124894605Y-125495448D01*
X125045000Y-125557898D01*
X125045000Y-132091828D01*
X125035615Y-132101213D01*
X124835714Y-132183811D01*
X124624552Y-132394605D01*
X124510131Y-132670161D01*
X124509870Y-132968530D01*
X71025000Y-132968530D01*
X71025000Y-129754531D01*
X77920000Y-129754531D01*
X77920000Y-129805469D01*
X78018957Y-130302957D01*
X78300761Y-130724708D01*
X78722512Y-131006512D01*
X79220000Y-131105469D01*
X79717488Y-131006512D01*
X80139239Y-130724708D01*
X80392613Y-130345506D01*
X80531613Y-130654730D01*
X80959863Y-131058228D01*
X81421939Y-131249619D01*
X81656000Y-131119469D01*
X81656000Y-129884000D01*
X81636000Y-129884000D01*
X81636000Y-129676000D01*
X81656000Y-129676000D01*
X81656000Y-128440531D01*
X81864000Y-128440531D01*
X81864000Y-129676000D01*
X81884000Y-129676000D01*
X81884000Y-129884000D01*
X81864000Y-129884000D01*
X81864000Y-131119469D01*
X82098061Y-131249619D01*
X82560137Y-131058228D01*
X82988387Y-130654730D01*
X83127387Y-130345506D01*
X83380761Y-130724708D01*
X83802512Y-131006512D01*
X84300000Y-131105469D01*
X84797488Y-131006512D01*
X85219239Y-130724708D01*
X85501043Y-130302957D01*
X85570000Y-129956288D01*
X85638957Y-130302957D01*
X85920761Y-130724708D01*
X86342512Y-131006512D01*
X86840000Y-131105469D01*
X87337488Y-131006512D01*
X87759239Y-130724708D01*
X88041043Y-130302957D01*
X88110000Y-129956288D01*
X88178957Y-130302957D01*
X88460761Y-130724708D01*
X88882512Y-131006512D01*
X89380000Y-131105469D01*
X89877488Y-131006512D01*
X90299239Y-130724708D01*
X90581043Y-130302957D01*
X90650000Y-129956288D01*
X90718957Y-130302957D01*
X91000761Y-130724708D01*
X91422512Y-131006512D01*
X91920000Y-131105469D01*
X92417488Y-131006512D01*
X92839239Y-130724708D01*
X93121043Y-130302957D01*
X93190000Y-129956288D01*
X93258957Y-130302957D01*
X93540761Y-130724708D01*
X93962512Y-131006512D01*
X94460000Y-131105469D01*
X94957488Y-131006512D01*
X95379239Y-130724708D01*
X95661043Y-130302957D01*
X95730000Y-129956288D01*
X95798957Y-130302957D01*
X96080761Y-130724708D01*
X96502512Y-131006512D01*
X97000000Y-131105469D01*
X97497488Y-131006512D01*
X97919239Y-130724708D01*
X98201043Y-130302957D01*
X98270000Y-129956288D01*
X98338957Y-130302957D01*
X98620761Y-130724708D01*
X99042512Y-131006512D01*
X99540000Y-131105469D01*
X100037488Y-131006512D01*
X100459239Y-130724708D01*
X100741043Y-130302957D01*
X100810000Y-129956288D01*
X100878957Y-130302957D01*
X101160761Y-130724708D01*
X101582512Y-131006512D01*
X102080000Y-131105469D01*
X102577488Y-131006512D01*
X102999239Y-130724708D01*
X103281043Y-130302957D01*
X103350000Y-129956288D01*
X103418957Y-130302957D01*
X103700761Y-130724708D01*
X104122512Y-131006512D01*
X104620000Y-131105469D01*
X105117488Y-131006512D01*
X105539239Y-130724708D01*
X105821043Y-130302957D01*
X105890000Y-129956288D01*
X105958957Y-130302957D01*
X106240761Y-130724708D01*
X106662512Y-131006512D01*
X107160000Y-131105469D01*
X107657488Y-131006512D01*
X108079239Y-130724708D01*
X108361043Y-130302957D01*
X108430000Y-129956288D01*
X108498957Y-130302957D01*
X108780761Y-130724708D01*
X109202512Y-131006512D01*
X109700000Y-131105469D01*
X110197488Y-131006512D01*
X110619239Y-130724708D01*
X110901043Y-130302957D01*
X110970000Y-129956288D01*
X111038957Y-130302957D01*
X111320761Y-130724708D01*
X111742512Y-131006512D01*
X112240000Y-131105469D01*
X112737488Y-131006512D01*
X113159239Y-130724708D01*
X113441043Y-130302957D01*
X113510000Y-129956288D01*
X113578957Y-130302957D01*
X113860761Y-130724708D01*
X114282512Y-131006512D01*
X114780000Y-131105469D01*
X115277488Y-131006512D01*
X115699239Y-130724708D01*
X115981043Y-130302957D01*
X116011184Y-130151429D01*
X116011184Y-130630000D01*
X116042562Y-130796760D01*
X116141117Y-130949919D01*
X116291495Y-131052668D01*
X116470000Y-131088816D01*
X118170000Y-131088816D01*
X118336760Y-131057438D01*
X118489919Y-130958883D01*
X118592668Y-130808505D01*
X118628816Y-130630000D01*
X118628816Y-128930000D01*
X118597438Y-128763240D01*
X118498883Y-128610081D01*
X118348505Y-128507332D01*
X118170000Y-128471184D01*
X116470000Y-128471184D01*
X116303240Y-128502562D01*
X116150081Y-128601117D01*
X116047332Y-128751495D01*
X116011184Y-128930000D01*
X116011184Y-129408571D01*
X115981043Y-129257043D01*
X115699239Y-128835292D01*
X115277488Y-128553488D01*
X114780000Y-128454531D01*
X114282512Y-128553488D01*
X113860761Y-128835292D01*
X113578957Y-129257043D01*
X113510000Y-129603712D01*
X113441043Y-129257043D01*
X113159239Y-128835292D01*
X112737488Y-128553488D01*
X112240000Y-128454531D01*
X111742512Y-128553488D01*
X111320761Y-128835292D01*
X111038957Y-129257043D01*
X110970000Y-129603712D01*
X110901043Y-129257043D01*
X110619239Y-128835292D01*
X110197488Y-128553488D01*
X109700000Y-128454531D01*
X109202512Y-128553488D01*
X108780761Y-128835292D01*
X108498957Y-129257043D01*
X108430000Y-129603712D01*
X108361043Y-129257043D01*
X108079239Y-128835292D01*
X107657488Y-128553488D01*
X107160000Y-128454531D01*
X106662512Y-128553488D01*
X106240761Y-128835292D01*
X105958957Y-129257043D01*
X105890000Y-129603712D01*
X105821043Y-129257043D01*
X105539239Y-128835292D01*
X105117488Y-128553488D01*
X104620000Y-128454531D01*
X104122512Y-128553488D01*
X103700761Y-128835292D01*
X103418957Y-129257043D01*
X103350000Y-129603712D01*
X103281043Y-129257043D01*
X102999239Y-128835292D01*
X102577488Y-128553488D01*
X102080000Y-128454531D01*
X101582512Y-128553488D01*
X101160761Y-128835292D01*
X100878957Y-129257043D01*
X100810000Y-129603712D01*
X100741043Y-129257043D01*
X100459239Y-128835292D01*
X100037488Y-128553488D01*
X99540000Y-128454531D01*
X99042512Y-128553488D01*
X98620761Y-128835292D01*
X98338957Y-129257043D01*
X98270000Y-129603712D01*
X98201043Y-129257043D01*
X97919239Y-128835292D01*
X97575000Y-128605280D01*
X97575000Y-127362665D01*
X97784286Y-127276189D01*
X97995448Y-127065395D01*
X98109869Y-126789839D01*
X98110130Y-126491470D01*
X97996189Y-126215714D01*
X97785395Y-126004552D01*
X97509839Y-125890131D01*
X97211470Y-125889870D01*
X96935714Y-126003811D01*
X96724552Y-126214605D01*
X96610131Y-126490161D01*
X96610055Y-126576773D01*
X96593414Y-126593414D01*
X96468769Y-126779957D01*
X96425000Y-127000000D01*
X96425000Y-128605280D01*
X96080761Y-128835292D01*
X95798957Y-129257043D01*
X95730000Y-129603712D01*
X95661043Y-129257043D01*
X95379239Y-128835292D01*
X94957488Y-128553488D01*
X94460000Y-128454531D01*
X93962512Y-128553488D01*
X93540761Y-128835292D01*
X93258957Y-129257043D01*
X93190000Y-129603712D01*
X93121043Y-129257043D01*
X92839239Y-128835292D01*
X92417488Y-128553488D01*
X91920000Y-128454531D01*
X91422512Y-128553488D01*
X91000761Y-128835292D01*
X90718957Y-129257043D01*
X90650000Y-129603712D01*
X90581043Y-129257043D01*
X90299239Y-128835292D01*
X89877488Y-128553488D01*
X89380000Y-128454531D01*
X88882512Y-128553488D01*
X88460761Y-128835292D01*
X88178957Y-129257043D01*
X88110000Y-129603712D01*
X88041043Y-129257043D01*
X87759239Y-128835292D01*
X87337488Y-128553488D01*
X86840000Y-128454531D01*
X86342512Y-128553488D01*
X85920761Y-128835292D01*
X85638957Y-129257043D01*
X85570000Y-129603712D01*
X85501043Y-129257043D01*
X85219239Y-128835292D01*
X84797488Y-128553488D01*
X84300000Y-128454531D01*
X83802512Y-128553488D01*
X83380761Y-128835292D01*
X83127387Y-129214494D01*
X82988387Y-128905270D01*
X82560137Y-128501772D01*
X82098061Y-128310381D01*
X81864000Y-128440531D01*
X81656000Y-128440531D01*
X81421939Y-128310381D01*
X80959863Y-128501772D01*
X80531613Y-128905270D01*
X80392613Y-129214494D01*
X80139239Y-128835292D01*
X79717488Y-128553488D01*
X79220000Y-128454531D01*
X78722512Y-128553488D01*
X78300761Y-128835292D01*
X78018957Y-129257043D01*
X77920000Y-129754531D01*
X71025000Y-129754531D01*
X71025000Y-118188334D01*
X131899853Y-118188334D01*
X132028985Y-118500857D01*
X132267885Y-118740174D01*
X132580183Y-118869852D01*
X132918334Y-118870147D01*
X133230857Y-118741015D01*
X133312013Y-118660000D01*
X137020050Y-118660000D01*
X137555025Y-119194975D01*
X137782121Y-119346716D01*
X138050000Y-119400000D01*
X138908802Y-119400000D01*
X139055292Y-119619239D01*
X139477043Y-119901043D01*
X139974531Y-120000000D01*
X140025469Y-120000000D01*
X140522957Y-119901043D01*
X140944708Y-119619239D01*
X141091198Y-119400000D01*
X141448802Y-119400000D01*
X141595292Y-119619239D01*
X142017043Y-119901043D01*
X142514531Y-120000000D01*
X142565469Y-120000000D01*
X143062957Y-119901043D01*
X143484708Y-119619239D01*
X143766512Y-119197488D01*
X143865469Y-118700000D01*
X143766512Y-118202512D01*
X143484708Y-117780761D01*
X143105506Y-117527387D01*
X143414730Y-117388387D01*
X143818228Y-116960137D01*
X144009619Y-116498061D01*
X143879469Y-116264000D01*
X142644000Y-116264000D01*
X142644000Y-116284000D01*
X142436000Y-116284000D01*
X142436000Y-116264000D01*
X140104000Y-116264000D01*
X140104000Y-116284000D01*
X139896000Y-116284000D01*
X139896000Y-116264000D01*
X138660531Y-116264000D01*
X138530381Y-116498061D01*
X138721772Y-116960137D01*
X139125270Y-117388387D01*
X139434494Y-117527387D01*
X139055292Y-117780761D01*
X138908802Y-118000000D01*
X138339950Y-118000000D01*
X137804975Y-117465025D01*
X137577879Y-117313284D01*
X137310000Y-117260000D01*
X133136204Y-117260000D01*
X132919817Y-117170148D01*
X132581666Y-117169853D01*
X132269143Y-117298985D01*
X132029826Y-117537885D01*
X131900148Y-117850183D01*
X131899853Y-118188334D01*
X71025000Y-118188334D01*
X71025000Y-113648334D01*
X121609853Y-113648334D01*
X121738985Y-113960857D01*
X121840000Y-114062048D01*
X121840000Y-115467746D01*
X121819826Y-115487885D01*
X121690148Y-115800183D01*
X121689853Y-116138334D01*
X121818985Y-116450857D01*
X122057885Y-116690174D01*
X122370183Y-116819852D01*
X122708334Y-116820147D01*
X123020857Y-116691015D01*
X123260174Y-116452115D01*
X123389852Y-116139817D01*
X123390129Y-115821939D01*
X138530381Y-115821939D01*
X138660531Y-116056000D01*
X139896000Y-116056000D01*
X139896000Y-116036000D01*
X140104000Y-116036000D01*
X140104000Y-116056000D01*
X142436000Y-116056000D01*
X142436000Y-116036000D01*
X142644000Y-116036000D01*
X142644000Y-116056000D01*
X143879469Y-116056000D01*
X144009619Y-115821939D01*
X143818228Y-115359863D01*
X143414730Y-114931613D01*
X143105506Y-114792613D01*
X143484708Y-114539239D01*
X143766512Y-114117488D01*
X143865469Y-113620000D01*
X143766512Y-113122512D01*
X143484708Y-112700761D01*
X143062957Y-112418957D01*
X142716288Y-112350000D01*
X143062957Y-112281043D01*
X143484708Y-111999239D01*
X143766512Y-111577488D01*
X143865469Y-111080000D01*
X143766512Y-110582512D01*
X143484708Y-110160761D01*
X143062957Y-109878957D01*
X142716288Y-109810000D01*
X143062957Y-109741043D01*
X143484708Y-109459239D01*
X143766512Y-109037488D01*
X143865469Y-108540000D01*
X143766512Y-108042512D01*
X143484708Y-107620761D01*
X143062957Y-107338957D01*
X142716288Y-107270000D01*
X143062957Y-107201043D01*
X143484708Y-106919239D01*
X143766512Y-106497488D01*
X143865469Y-106000000D01*
X143766512Y-105502512D01*
X143484708Y-105080761D01*
X143062957Y-104798957D01*
X142565469Y-104700000D01*
X142514531Y-104700000D01*
X142017043Y-104798957D01*
X141595292Y-105080761D01*
X141313488Y-105502512D01*
X141308816Y-105526000D01*
X141308816Y-105150000D01*
X141277438Y-104983240D01*
X141178883Y-104830081D01*
X141028505Y-104727332D01*
X140850000Y-104691184D01*
X139150000Y-104691184D01*
X138983240Y-104722562D01*
X138830081Y-104821117D01*
X138727332Y-104971495D01*
X138691184Y-105150000D01*
X138691184Y-106850000D01*
X138722562Y-107016760D01*
X138821117Y-107169919D01*
X138971495Y-107272668D01*
X139150000Y-107308816D01*
X139628571Y-107308816D01*
X139477043Y-107338957D01*
X139055292Y-107620761D01*
X138773488Y-108042512D01*
X138674531Y-108540000D01*
X138773488Y-109037488D01*
X139055292Y-109459239D01*
X139477043Y-109741043D01*
X139823712Y-109810000D01*
X139477043Y-109878957D01*
X139055292Y-110160761D01*
X138773488Y-110582512D01*
X138674531Y-111080000D01*
X138773488Y-111577488D01*
X139055292Y-111999239D01*
X139477043Y-112281043D01*
X139823712Y-112350000D01*
X139477043Y-112418957D01*
X139055292Y-112700761D01*
X138773488Y-113122512D01*
X138674531Y-113620000D01*
X138773488Y-114117488D01*
X139055292Y-114539239D01*
X139434494Y-114792613D01*
X139125270Y-114931613D01*
X138721772Y-115359863D01*
X138530381Y-115821939D01*
X123390129Y-115821939D01*
X123390147Y-115801666D01*
X123261015Y-115489143D01*
X123240000Y-115468091D01*
X123240000Y-113818039D01*
X123309852Y-113649817D01*
X123310147Y-113311666D01*
X123181015Y-112999143D01*
X122942115Y-112759826D01*
X122722251Y-112668530D01*
X123889870Y-112668530D01*
X124003811Y-112944286D01*
X124214605Y-113155448D01*
X124490161Y-113269869D01*
X124788530Y-113270130D01*
X125064286Y-113156189D01*
X125140608Y-113080000D01*
X125689341Y-113080000D01*
X125794605Y-113185448D01*
X126070161Y-113299869D01*
X126368530Y-113300130D01*
X126644286Y-113186189D01*
X126855448Y-112975395D01*
X126969869Y-112699839D01*
X126970130Y-112401470D01*
X126856189Y-112125714D01*
X126645395Y-111914552D01*
X126369839Y-111800131D01*
X126071470Y-111799870D01*
X125795714Y-111913811D01*
X125729409Y-111980000D01*
X125160677Y-111980000D01*
X125065395Y-111884552D01*
X124789839Y-111770131D01*
X124491470Y-111769870D01*
X124215714Y-111883811D01*
X124004552Y-112094605D01*
X123890131Y-112370161D01*
X123889870Y-112668530D01*
X122722251Y-112668530D01*
X122629817Y-112630148D01*
X122291666Y-112629853D01*
X121979143Y-112758985D01*
X121739826Y-112997885D01*
X121610148Y-113310183D01*
X121609853Y-113648334D01*
X71025000Y-113648334D01*
X71025000Y-112338062D01*
X72670374Y-112338062D01*
X72911613Y-112874730D01*
X73339863Y-113278228D01*
X73801939Y-113469619D01*
X74036000Y-113339469D01*
X74036000Y-112104000D01*
X72800083Y-112104000D01*
X72670374Y-112338062D01*
X71025000Y-112338062D01*
X71025000Y-111661938D01*
X72670374Y-111661938D01*
X72800083Y-111896000D01*
X74036000Y-111896000D01*
X74036000Y-110660531D01*
X74244000Y-110660531D01*
X74244000Y-111896000D01*
X74264000Y-111896000D01*
X74264000Y-112104000D01*
X74244000Y-112104000D01*
X74244000Y-113339469D01*
X74478061Y-113469619D01*
X74940137Y-113278228D01*
X75368387Y-112874730D01*
X75507387Y-112565506D01*
X75760761Y-112944708D01*
X76182512Y-113226512D01*
X76680000Y-113325469D01*
X77177488Y-113226512D01*
X77599239Y-112944708D01*
X77881043Y-112522957D01*
X77950000Y-112176288D01*
X78018957Y-112522957D01*
X78300761Y-112944708D01*
X78722512Y-113226512D01*
X79220000Y-113325469D01*
X79717488Y-113226512D01*
X80139239Y-112944708D01*
X80421043Y-112522957D01*
X80490000Y-112176288D01*
X80558957Y-112522957D01*
X80840761Y-112944708D01*
X81262512Y-113226512D01*
X81760000Y-113325469D01*
X82257488Y-113226512D01*
X82679239Y-112944708D01*
X82961043Y-112522957D01*
X83030000Y-112176288D01*
X83098957Y-112522957D01*
X83380761Y-112944708D01*
X83802512Y-113226512D01*
X84300000Y-113325469D01*
X84797488Y-113226512D01*
X85219239Y-112944708D01*
X85501043Y-112522957D01*
X85570000Y-112176288D01*
X85638957Y-112522957D01*
X85920761Y-112944708D01*
X86342512Y-113226512D01*
X86840000Y-113325469D01*
X87337488Y-113226512D01*
X87759239Y-112944708D01*
X88041043Y-112522957D01*
X88110000Y-112176288D01*
X88178957Y-112522957D01*
X88460761Y-112944708D01*
X88882512Y-113226512D01*
X89380000Y-113325469D01*
X89877488Y-113226512D01*
X90299239Y-112944708D01*
X90581043Y-112522957D01*
X90650000Y-112176288D01*
X90718957Y-112522957D01*
X91000761Y-112944708D01*
X91422512Y-113226512D01*
X91920000Y-113325469D01*
X92417488Y-113226512D01*
X92839239Y-112944708D01*
X93121043Y-112522957D01*
X93190000Y-112176288D01*
X93258957Y-112522957D01*
X93540761Y-112944708D01*
X93962512Y-113226512D01*
X94460000Y-113325469D01*
X94957488Y-113226512D01*
X95379239Y-112944708D01*
X95661043Y-112522957D01*
X95730000Y-112176288D01*
X95798957Y-112522957D01*
X96080761Y-112944708D01*
X96502512Y-113226512D01*
X97000000Y-113325469D01*
X97497488Y-113226512D01*
X97919239Y-112944708D01*
X98201043Y-112522957D01*
X98270000Y-112176288D01*
X98338957Y-112522957D01*
X98620761Y-112944708D01*
X99042512Y-113226512D01*
X99540000Y-113325469D01*
X100037488Y-113226512D01*
X100459239Y-112944708D01*
X100741043Y-112522957D01*
X100810000Y-112176288D01*
X100878957Y-112522957D01*
X101160761Y-112944708D01*
X101582512Y-113226512D01*
X102080000Y-113325469D01*
X102577488Y-113226512D01*
X102999239Y-112944708D01*
X103281043Y-112522957D01*
X103350000Y-112176288D01*
X103418957Y-112522957D01*
X103700761Y-112944708D01*
X104122512Y-113226512D01*
X104620000Y-113325469D01*
X105117488Y-113226512D01*
X105539239Y-112944708D01*
X105821043Y-112522957D01*
X105890000Y-112176288D01*
X105958957Y-112522957D01*
X106240761Y-112944708D01*
X106662512Y-113226512D01*
X107160000Y-113325469D01*
X107657488Y-113226512D01*
X108079239Y-112944708D01*
X108361043Y-112522957D01*
X108430000Y-112176288D01*
X108498957Y-112522957D01*
X108780761Y-112944708D01*
X109202512Y-113226512D01*
X109700000Y-113325469D01*
X110197488Y-113226512D01*
X110619239Y-112944708D01*
X110901043Y-112522957D01*
X110970000Y-112176288D01*
X111038957Y-112522957D01*
X111320761Y-112944708D01*
X111742512Y-113226512D01*
X112240000Y-113325469D01*
X112737488Y-113226512D01*
X113159239Y-112944708D01*
X113441043Y-112522957D01*
X113510000Y-112176288D01*
X113578957Y-112522957D01*
X113860761Y-112944708D01*
X114282512Y-113226512D01*
X114780000Y-113325469D01*
X115277488Y-113226512D01*
X115699239Y-112944708D01*
X115981043Y-112522957D01*
X116011184Y-112371429D01*
X116011184Y-112850000D01*
X116042562Y-113016760D01*
X116141117Y-113169919D01*
X116291495Y-113272668D01*
X116470000Y-113308816D01*
X118170000Y-113308816D01*
X118336760Y-113277438D01*
X118489919Y-113178883D01*
X118592668Y-113028505D01*
X118628816Y-112850000D01*
X118628816Y-111150000D01*
X118597438Y-110983240D01*
X118498883Y-110830081D01*
X118348505Y-110727332D01*
X118170000Y-110691184D01*
X116470000Y-110691184D01*
X116303240Y-110722562D01*
X116150081Y-110821117D01*
X116047332Y-110971495D01*
X116011184Y-111150000D01*
X116011184Y-111628571D01*
X115981043Y-111477043D01*
X115699239Y-111055292D01*
X115277488Y-110773488D01*
X114780000Y-110674531D01*
X114282512Y-110773488D01*
X113860761Y-111055292D01*
X113578957Y-111477043D01*
X113510000Y-111823712D01*
X113441043Y-111477043D01*
X113159239Y-111055292D01*
X112737488Y-110773488D01*
X112240000Y-110674531D01*
X111742512Y-110773488D01*
X111320761Y-111055292D01*
X111038957Y-111477043D01*
X110970000Y-111823712D01*
X110901043Y-111477043D01*
X110619239Y-111055292D01*
X110197488Y-110773488D01*
X109700000Y-110674531D01*
X109202512Y-110773488D01*
X108780761Y-111055292D01*
X108498957Y-111477043D01*
X108430000Y-111823712D01*
X108361043Y-111477043D01*
X108079239Y-111055292D01*
X107657488Y-110773488D01*
X107160000Y-110674531D01*
X106662512Y-110773488D01*
X106240761Y-111055292D01*
X105958957Y-111477043D01*
X105890000Y-111823712D01*
X105821043Y-111477043D01*
X105539239Y-111055292D01*
X105117488Y-110773488D01*
X104620000Y-110674531D01*
X104122512Y-110773488D01*
X103700761Y-111055292D01*
X103418957Y-111477043D01*
X103350000Y-111823712D01*
X103281043Y-111477043D01*
X102999239Y-111055292D01*
X102577488Y-110773488D01*
X102080000Y-110674531D01*
X101582512Y-110773488D01*
X101160761Y-111055292D01*
X100878957Y-111477043D01*
X100810000Y-111823712D01*
X100741043Y-111477043D01*
X100459239Y-111055292D01*
X100037488Y-110773488D01*
X99540000Y-110674531D01*
X99042512Y-110773488D01*
X98620761Y-111055292D01*
X98338957Y-111477043D01*
X98270000Y-111823712D01*
X98201043Y-111477043D01*
X97919239Y-111055292D01*
X97497488Y-110773488D01*
X97000000Y-110674531D01*
X96502512Y-110773488D01*
X96080761Y-111055292D01*
X95798957Y-111477043D01*
X95730000Y-111823712D01*
X95661043Y-111477043D01*
X95379239Y-111055292D01*
X94957488Y-110773488D01*
X94460000Y-110674531D01*
X93962512Y-110773488D01*
X93540761Y-111055292D01*
X93258957Y-111477043D01*
X93190000Y-111823712D01*
X93121043Y-111477043D01*
X92839239Y-111055292D01*
X92417488Y-110773488D01*
X91920000Y-110674531D01*
X91422512Y-110773488D01*
X91000761Y-111055292D01*
X90718957Y-111477043D01*
X90650000Y-111823712D01*
X90581043Y-111477043D01*
X90299239Y-111055292D01*
X89877488Y-110773488D01*
X89380000Y-110674531D01*
X88882512Y-110773488D01*
X88460761Y-111055292D01*
X88178957Y-111477043D01*
X88110000Y-111823712D01*
X88041043Y-111477043D01*
X87759239Y-111055292D01*
X87337488Y-110773488D01*
X86840000Y-110674531D01*
X86342512Y-110773488D01*
X85920761Y-111055292D01*
X85638957Y-111477043D01*
X85570000Y-111823712D01*
X85501043Y-111477043D01*
X85219239Y-111055292D01*
X84797488Y-110773488D01*
X84300000Y-110674531D01*
X83802512Y-110773488D01*
X83380761Y-111055292D01*
X83098957Y-111477043D01*
X83030000Y-111823712D01*
X82961043Y-111477043D01*
X82679239Y-111055292D01*
X82257488Y-110773488D01*
X81760000Y-110674531D01*
X81262512Y-110773488D01*
X80840761Y-111055292D01*
X80558957Y-111477043D01*
X80490000Y-111823712D01*
X80421043Y-111477043D01*
X80139239Y-111055292D01*
X79717488Y-110773488D01*
X79220000Y-110674531D01*
X78722512Y-110773488D01*
X78300761Y-111055292D01*
X78018957Y-111477043D01*
X77950000Y-111823712D01*
X77881043Y-111477043D01*
X77599239Y-111055292D01*
X77177488Y-110773488D01*
X76680000Y-110674531D01*
X76182512Y-110773488D01*
X75760761Y-111055292D01*
X75507387Y-111434494D01*
X75368387Y-111125270D01*
X74940137Y-110721772D01*
X74478061Y-110530381D01*
X74244000Y-110660531D01*
X74036000Y-110660531D01*
X73801939Y-110530381D01*
X73339863Y-110721772D01*
X72911613Y-111125270D01*
X72670374Y-111661938D01*
X71025000Y-111661938D01*
X71025000Y-105254993D01*
X71138985Y-105530857D01*
X71377885Y-105770174D01*
X71690183Y-105899852D01*
X72028334Y-105900147D01*
X72340857Y-105771015D01*
X72423682Y-105688334D01*
X84629853Y-105688334D01*
X84758985Y-106000857D01*
X84770000Y-106011891D01*
X84770000Y-108710000D01*
X84823284Y-108977879D01*
X84975025Y-109204975D01*
X85295025Y-109524975D01*
X85522122Y-109676716D01*
X85790000Y-109730000D01*
X87427746Y-109730000D01*
X87447885Y-109750174D01*
X87760183Y-109879852D01*
X88098334Y-109880147D01*
X88410857Y-109751015D01*
X88650174Y-109512115D01*
X88779852Y-109199817D01*
X88780147Y-108861666D01*
X88651015Y-108549143D01*
X88412115Y-108309826D01*
X88099817Y-108180148D01*
X87761666Y-108179853D01*
X87479096Y-108296608D01*
X87589869Y-108029839D01*
X87590130Y-107731470D01*
X87476189Y-107455714D01*
X87366200Y-107345533D01*
X87366200Y-106718530D01*
X112169870Y-106718530D01*
X112283811Y-106994286D01*
X112365000Y-107075617D01*
X112365000Y-107464297D01*
X112284552Y-107544605D01*
X112170131Y-107820161D01*
X112169870Y-108118530D01*
X112283811Y-108394286D01*
X112494605Y-108605448D01*
X112770161Y-108719869D01*
X113068530Y-108720130D01*
X113344286Y-108606189D01*
X113555448Y-108395395D01*
X113669869Y-108119839D01*
X113670130Y-107821470D01*
X113556189Y-107545714D01*
X113515000Y-107504453D01*
X113515000Y-107035773D01*
X113555448Y-106995395D01*
X113669869Y-106719839D01*
X113670130Y-106421470D01*
X113556189Y-106145714D01*
X113345395Y-105934552D01*
X113069839Y-105820131D01*
X112771470Y-105819870D01*
X112495714Y-105933811D01*
X112284552Y-106144605D01*
X112170131Y-106420161D01*
X112169870Y-106718530D01*
X87366200Y-106718530D01*
X87366200Y-106354331D01*
X87545448Y-106175395D01*
X87659869Y-105899839D01*
X87660130Y-105601470D01*
X87546189Y-105325714D01*
X87335395Y-105114552D01*
X87059839Y-105000131D01*
X86761470Y-104999870D01*
X86485714Y-105113811D01*
X86305996Y-105293216D01*
X86201015Y-105039143D01*
X85962115Y-104799826D01*
X85649817Y-104670148D01*
X85311666Y-104669853D01*
X84999143Y-104798985D01*
X84759826Y-105037885D01*
X84630148Y-105350183D01*
X84629853Y-105688334D01*
X72423682Y-105688334D01*
X72580174Y-105532115D01*
X72709852Y-105219817D01*
X72710147Y-104881666D01*
X72685000Y-104820806D01*
X72685000Y-100921726D01*
X75721726Y-97885000D01*
X117098274Y-97885000D01*
X119635000Y-100421726D01*
X119635000Y-108040000D01*
X119697799Y-108355714D01*
X119876637Y-108623363D01*
X121174237Y-109920963D01*
X121198985Y-109980857D01*
X121437885Y-110220174D01*
X121750183Y-110349852D01*
X122088334Y-110350147D01*
X122400857Y-110221015D01*
X122640174Y-109982115D01*
X122769852Y-109669817D01*
X122770147Y-109331666D01*
X122641015Y-109019143D01*
X122402115Y-108779826D01*
X122341299Y-108754573D01*
X121285000Y-107698274D01*
X121285000Y-106546374D01*
X121510161Y-106639869D01*
X121808530Y-106640130D01*
X122084286Y-106526189D01*
X122295448Y-106315395D01*
X122339211Y-106210000D01*
X128475000Y-106210000D01*
X128514963Y-106410909D01*
X128628769Y-106581231D01*
X128799091Y-106695037D01*
X129000000Y-106735000D01*
X129200909Y-106695037D01*
X129371231Y-106581231D01*
X129485037Y-106410909D01*
X129525000Y-106210000D01*
X129485037Y-106009091D01*
X129371231Y-105838769D01*
X129200909Y-105724963D01*
X129000000Y-105685000D01*
X128799091Y-105724963D01*
X128628769Y-105838769D01*
X128514963Y-106009091D01*
X128475000Y-106210000D01*
X122339211Y-106210000D01*
X122409869Y-106039839D01*
X122409967Y-105927851D01*
X122617793Y-105720024D01*
X122738530Y-105720130D01*
X123014286Y-105606189D01*
X123225448Y-105395395D01*
X123339869Y-105119839D01*
X123340130Y-104821470D01*
X123226189Y-104545714D01*
X123015395Y-104334552D01*
X122739839Y-104220131D01*
X122441470Y-104219870D01*
X122165714Y-104333811D01*
X121954552Y-104544605D01*
X121840131Y-104820161D01*
X121840024Y-104942158D01*
X121642198Y-105139984D01*
X121511470Y-105139870D01*
X121285000Y-105233446D01*
X121285000Y-100080000D01*
X121222201Y-99764286D01*
X121043363Y-99496637D01*
X118023363Y-96476637D01*
X117755714Y-96297799D01*
X117440000Y-96235000D01*
X75380000Y-96235000D01*
X75064286Y-96297799D01*
X74796637Y-96476637D01*
X71276637Y-99996637D01*
X71097799Y-100264286D01*
X71035000Y-100580000D01*
X71035000Y-104820333D01*
X71025000Y-104844416D01*
X71025000Y-35588354D01*
X71261081Y-36159715D01*
X71837252Y-36736892D01*
X72590441Y-37049643D01*
X73405981Y-37050355D01*
X74159715Y-36738919D01*
X74736892Y-36162748D01*
X75049643Y-35409559D01*
X75050355Y-34594019D01*
X74738919Y-33840285D01*
X74162748Y-33263108D01*
X73409559Y-32950357D01*
X72594019Y-32949645D01*
X71840285Y-33261081D01*
X71263108Y-33837252D01*
X71025000Y-34410680D01*
X71025000Y-33051706D01*
X71070659Y-32822162D01*
X71171396Y-32671398D01*
X71322163Y-32570659D01*
X71551706Y-32525000D01*
X143948293Y-32525000D01*
X144369179Y-32608720D01*
M02*
