M48
;DRILL file {KiCad 4.0.7} date Mon Feb 12 17:46:43 2018
;FORMAT={-:-/ absolute / inch / decimal}
FMAT,2
INCH,TZ
T1C0.012
T2C0.020
T3C0.032
T4C0.035
T5C0.039
T6C0.047
T7C0.049
T8C0.055
T9C0.059
T10C0.047
T11C0.126
%
G90
G05
M72
T1
X3.1177Y-4.561
X3.1201Y-6.4862
X3.1299Y-4.2913
X3.189Y-4.2913
X3.2118Y-5.5472
X3.248Y-4.2913
X3.3051Y-5.0232
X3.3256Y-4.5449
X3.4189Y-4.2472
X3.4193Y-4.1319
X3.4217Y-4.1634
X3.4843Y-4.3307
X3.5748Y-4.1713
X3.7287Y-5.0161
X3.8331Y-4.9858
X3.8783Y-4.9839
X3.9154Y-5.2673
X3.9697Y-5.3217
X3.978Y-5.1705
X3.9961Y-4.1732
X4.0551Y-4.1732
X4.1071Y-5.2217
X4.1142Y-4.1732
X4.1161Y-5.3217
X4.1264Y-4.9776
X4.1543Y-6.6575
X4.2323Y-4.0354
X4.2937Y-5.6287
X4.3957Y-5.5528
X4.4303Y-5.8118
X4.4457Y-4.1957
X4.4457Y-4.2508
X4.4512Y-5.6882
X4.4783Y-4.889
X4.5079Y-5.8898
X4.5087Y-6.6713
X4.622Y-5.7091
X4.6311Y-6.1335
X4.7335Y-4.552
X4.752Y-4.7913
X4.7665Y-6.0335
X4.7898Y-4.1689
X4.8264Y-4.1327
X4.8374Y-6.6713
X4.8457Y-4.685
X4.8846Y-5.2224
X4.8996Y-5.8878
X4.9016Y-6.5591
X4.9071Y-4.4299
X4.9315Y-5.2291
X4.9339Y-4.9157
X4.9441Y-4.113
X4.9642Y-5.2303
X4.9657Y-4.9165
X4.9693Y-4.4311
X4.9803Y-4.252
X5.0024Y-5.1433
X5.0075Y-5.2335
X5.0512Y-4.8949
X5.0575Y-5.4079
X5.0984Y-4.2323
X5.0996Y-4.7268
X5.2165Y-4.0748
X5.2618Y-5.0681
X5.265Y-5.4055
X5.2697Y-4.95
X5.3063Y-4.8736
X5.4512Y-4.778
X5.5472Y-6.0421
X5.6441Y-5.774
X5.6453Y-5.8433
X5.6693Y-6.6689
T2
X2.8291Y-4.1358
X3.0976Y-5.5122
X3.3654Y-4.1543
X3.4618Y-4.2925
X4.8Y-4.311
X4.8213Y-4.4677
X4.8244Y-4.5657
X5.2264Y-4.6465
T3
X3.0561Y-6.1143
X3.1953Y-6.2535
X3.4041Y-5.7663
X3.4709Y-6.3056
X3.4829Y-5.4935
X3.5433Y-5.9055
X3.6101Y-6.1664
X3.622Y-5.3543
X3.8189Y-6.6535
X3.8308Y-5.8415
X3.8829Y-6.1143
X3.9581Y-6.5143
X3.97Y-5.7023
X4.0221Y-6.2535
X4.2309Y-5.7663
X4.3701Y-5.9055
X5.0591Y-5.6102
X5.0591Y-5.8071
X5.0591Y-6.2795
X5.0591Y-6.4764
X5.5512Y-5.6102
X5.5512Y-5.8071
X5.5512Y-6.2795
X5.5512Y-6.4764
T4
X2.8937Y-5.4331
X2.8937Y-5.5118
X2.8937Y-5.5906
T5
X2.874Y-5.8252
X2.874Y-5.9252
X2.9189Y-4.4094
X3.0189Y-4.4094
X3.1189Y-4.4094
X3.1189Y-5.1094
X3.2189Y-4.4094
X3.2189Y-5.1094
X3.3189Y-4.4094
X3.3189Y-5.1094
X3.4189Y-4.4094
X3.4189Y-5.1094
X3.5189Y-4.4094
X3.5189Y-5.1094
X3.6189Y-4.4094
X3.6189Y-5.1094
X3.7189Y-4.4094
X3.7189Y-5.1094
X3.8189Y-4.4094
X3.8189Y-5.1094
X3.9189Y-4.4094
X3.9189Y-5.1094
X4.0189Y-4.4094
X4.0189Y-5.1094
X4.1189Y-4.4094
X4.1189Y-5.1094
X4.2189Y-4.4094
X4.2189Y-5.1094
X4.3189Y-4.4094
X4.3189Y-5.1094
X4.4189Y-4.4094
X4.4189Y-5.1094
X4.5189Y-4.4094
X4.5189Y-5.1094
X4.6189Y-4.4094
X4.6189Y-5.1094
X5.5118Y-4.1732
X5.5118Y-4.2732
X5.5118Y-4.3732
X5.5118Y-4.4732
X5.5118Y-4.5732
X5.5118Y-4.6732
X5.6118Y-4.1732
X5.6118Y-4.2732
X5.6118Y-4.3732
X5.6118Y-4.4732
X5.6118Y-4.5732
X5.6118Y-4.6732
T6
X5.3937Y-4.9606
X5.3937Y-5.0591
X5.3937Y-5.3543
T7
X5.3937Y-5.2559
T8
X5.5906Y-5.1575
T9
X2.8937Y-5.3504
X2.8937Y-5.6732
T10
X5.3937Y-5.1575
X5.5906Y-4.9606
X5.5906Y-5.3543
X5.689Y-4.9606
X5.689Y-5.3543
T11
X2.874Y-1.378
X5.6299Y-1.378
T0
M30
