G04 #@! TF.FileFunction,Copper,L1,Top,Signal*
%FSLAX46Y46*%
G04 Gerber Fmt 4.6, Leading zero omitted, Abs format (unit mm)*
G04 Created by KiCad (PCBNEW 4.0.7) date Mon Feb 12 17:44:01 2018*
%MOMM*%
%LPD*%
G01*
G04 APERTURE LIST*
%ADD10C,0.100000*%
%ADD11R,1.400000X1.500000*%
%ADD12R,0.300000X1.000000*%
%ADD13R,1.700000X1.700000*%
%ADD14O,1.700000X1.700000*%
%ADD15R,1.250000X1.000000*%
%ADD16R,0.750000X0.800000*%
%ADD17R,1.000000X1.250000*%
%ADD18R,1.200000X0.900000*%
%ADD19C,2.500000*%
%ADD20C,2.000000*%
%ADD21R,1.000000X1.400000*%
%ADD22R,0.900000X0.500000*%
%ADD23R,0.500000X0.900000*%
%ADD24O,3.048000X1.727200*%
%ADD25C,1.727200*%
%ADD26R,2.500000X1.500000*%
%ADD27O,2.500000X1.500000*%
%ADD28O,3.500000X2.200000*%
%ADD29R,0.650000X1.060000*%
%ADD30C,0.600000*%
%ADD31C,0.800000*%
%ADD32C,0.200000*%
%ADD33C,0.250000*%
%ADD34C,0.500000*%
%ADD35C,0.152400*%
%ADD36C,0.750000*%
%ADD37C,0.300000*%
%ADD38C,0.180000*%
G04 APERTURE END LIST*
D10*
D11*
X85450000Y-100850000D03*
X115050000Y-100850000D03*
D12*
X87000000Y-104000000D03*
X87500000Y-104000000D03*
X88000000Y-104000000D03*
X88500000Y-104000000D03*
X89000000Y-104000000D03*
X89500000Y-104000000D03*
X90000000Y-104000000D03*
X90500000Y-104000000D03*
X91000000Y-104000000D03*
X91500000Y-104000000D03*
X92000000Y-104000000D03*
X92500000Y-104000000D03*
X93000000Y-104000000D03*
X93500000Y-104000000D03*
X94000000Y-104000000D03*
X94500000Y-104000000D03*
X95000000Y-104000000D03*
X95500000Y-104000000D03*
X96000000Y-104000000D03*
X96500000Y-104000000D03*
X97000000Y-104000000D03*
X97500000Y-104000000D03*
X98000000Y-104000000D03*
X98500000Y-104000000D03*
X99000000Y-104000000D03*
X99500000Y-104000000D03*
X100000000Y-104000000D03*
X100500000Y-104000000D03*
X101000000Y-104000000D03*
X101500000Y-104000000D03*
X102000000Y-104000000D03*
X102500000Y-104000000D03*
X103000000Y-104000000D03*
X103500000Y-104000000D03*
X104000000Y-104000000D03*
X104500000Y-104000000D03*
X105000000Y-104000000D03*
X105500000Y-104000000D03*
X106000000Y-104000000D03*
X106500000Y-104000000D03*
X107000000Y-104000000D03*
X107500000Y-104000000D03*
X108000000Y-104000000D03*
X108500000Y-104000000D03*
X109000000Y-104000000D03*
X109500000Y-104000000D03*
X110000000Y-104000000D03*
X110500000Y-104000000D03*
X111000000Y-104000000D03*
X111500000Y-104000000D03*
X112000000Y-104000000D03*
X112500000Y-104000000D03*
X113000000Y-104000000D03*
X113500000Y-104000000D03*
D13*
X73000000Y-150500000D03*
D14*
X73000000Y-147960000D03*
D15*
X125430000Y-111300000D03*
X125430000Y-109300000D03*
D16*
X128500000Y-104960000D03*
X128500000Y-106460000D03*
D15*
X132500000Y-106710000D03*
X132500000Y-104710000D03*
D17*
X94000000Y-106000000D03*
X92000000Y-106000000D03*
D18*
X132500000Y-108560000D03*
X132500000Y-111860000D03*
D13*
X140000000Y-106000000D03*
D14*
X142540000Y-106000000D03*
X140000000Y-108540000D03*
X142540000Y-108540000D03*
X140000000Y-111080000D03*
X142540000Y-111080000D03*
X140000000Y-113620000D03*
X142540000Y-113620000D03*
X140000000Y-116160000D03*
X142540000Y-116160000D03*
X140000000Y-118700000D03*
X142540000Y-118700000D03*
D19*
X142000000Y-131000000D03*
D20*
X137000000Y-133500000D03*
X137000000Y-136000000D03*
X137000000Y-128500000D03*
X137000000Y-126000000D03*
D21*
X131040000Y-115010000D03*
X125840000Y-115010000D03*
D22*
X123650000Y-110990000D03*
X123650000Y-109490000D03*
X127000000Y-106460000D03*
X127000000Y-104960000D03*
X79500000Y-106250000D03*
X79500000Y-107750000D03*
X81000000Y-106250000D03*
X81000000Y-107750000D03*
X111500000Y-105750000D03*
X111500000Y-107250000D03*
X110000000Y-105750000D03*
X110000000Y-107250000D03*
X108500000Y-105750000D03*
X108500000Y-107250000D03*
X107000000Y-105750000D03*
X107000000Y-107250000D03*
X82500000Y-106250000D03*
X82500000Y-107750000D03*
X124500000Y-147250000D03*
X124500000Y-148750000D03*
X124500000Y-164250000D03*
X124500000Y-165750000D03*
X85500000Y-165250000D03*
X85500000Y-166750000D03*
X114500000Y-147250000D03*
X114500000Y-148750000D03*
D23*
X88750000Y-135000000D03*
X87250000Y-135000000D03*
D22*
X83500000Y-165250000D03*
X83500000Y-166750000D03*
D24*
X128500000Y-147500000D03*
X128500000Y-142500000D03*
X141000000Y-147500000D03*
X141000000Y-142500000D03*
X128500000Y-164500000D03*
X128500000Y-159500000D03*
X141000000Y-164500000D03*
X141000000Y-159500000D03*
D25*
X88628138Y-160628138D02*
X87694192Y-159694192D01*
X92163672Y-157092604D02*
X91229726Y-156158658D01*
X97466973Y-169466973D02*
X96533027Y-168533027D01*
X101002507Y-165931439D02*
X100068561Y-164997493D01*
X102628138Y-158371862D02*
X101694192Y-159305808D01*
X99092604Y-154836328D02*
X98158658Y-155770274D01*
X111466973Y-149533027D02*
X110533027Y-150466973D01*
X107931439Y-145997493D02*
X106997493Y-146931439D01*
X100371862Y-144371862D02*
X101305808Y-145305808D01*
X96836328Y-147907396D02*
X97770274Y-148841342D01*
X91533027Y-135533027D02*
X92466973Y-136466973D01*
X87997493Y-139068561D02*
X88931439Y-140002507D01*
X81628138Y-158371862D02*
X80694192Y-159305808D01*
X78092604Y-154836328D02*
X77158658Y-155770274D01*
X90466973Y-149533027D02*
X89533027Y-150466973D01*
X86931439Y-145997493D02*
X85997493Y-146931439D01*
D26*
X73500000Y-138000000D03*
D27*
X73500000Y-140000000D03*
X73500000Y-142000000D03*
D28*
X73500000Y-135900000D03*
X73500000Y-144100000D03*
D29*
X127550000Y-111310000D03*
X128500000Y-111310000D03*
X129450000Y-111310000D03*
X129450000Y-109110000D03*
X127550000Y-109110000D03*
X128500000Y-109110000D03*
D13*
X117320000Y-129780000D03*
D14*
X114780000Y-129780000D03*
X112240000Y-129780000D03*
X109700000Y-129780000D03*
X107160000Y-129780000D03*
X104620000Y-129780000D03*
X102080000Y-129780000D03*
X99540000Y-129780000D03*
X97000000Y-129780000D03*
X94460000Y-129780000D03*
X91920000Y-129780000D03*
X89380000Y-129780000D03*
X86840000Y-129780000D03*
X84300000Y-129780000D03*
X81760000Y-129780000D03*
X79220000Y-129780000D03*
D13*
X117320000Y-112000000D03*
D14*
X114780000Y-112000000D03*
X112240000Y-112000000D03*
X109700000Y-112000000D03*
X107160000Y-112000000D03*
X104620000Y-112000000D03*
X102080000Y-112000000D03*
X99540000Y-112000000D03*
X97000000Y-112000000D03*
X94460000Y-112000000D03*
X91920000Y-112000000D03*
X89380000Y-112000000D03*
X86840000Y-112000000D03*
X84300000Y-112000000D03*
X81760000Y-112000000D03*
X79220000Y-112000000D03*
X76680000Y-112000000D03*
X74140000Y-112000000D03*
D22*
X79500000Y-105250000D03*
X79500000Y-103750000D03*
X81000000Y-105250000D03*
X81000000Y-103750000D03*
X82500000Y-105250000D03*
X82500000Y-103750000D03*
D30*
X81580000Y-140900000D03*
X100830000Y-135170000D03*
X109060000Y-142970000D03*
X113060000Y-144480000D03*
X112530000Y-147620000D03*
X99450000Y-133790000D03*
X121070000Y-153250000D03*
X140900000Y-153470000D03*
X144000000Y-169390000D03*
X122870000Y-169450000D03*
X124500000Y-166600000D03*
X104550000Y-135170000D03*
X111650000Y-141040000D03*
X117400000Y-145010000D03*
X117630000Y-155790000D03*
X105520000Y-169100000D03*
X114520000Y-169450000D03*
X127190000Y-132930000D03*
X133730000Y-137300000D03*
X127060000Y-130640000D03*
X133650000Y-128730000D03*
X133850000Y-125730000D03*
X134780000Y-123790000D03*
X138460000Y-121360000D03*
X101040000Y-131330000D03*
X104320000Y-132630000D03*
X124070000Y-132650000D03*
X128460000Y-137360000D03*
X83950000Y-127590000D03*
X94710000Y-127410000D03*
X98510000Y-126590000D03*
X104810000Y-126430000D03*
X113750000Y-124180000D03*
X120700000Y-121700000D03*
X128300000Y-124330000D03*
X129530000Y-120060000D03*
X123080000Y-119000000D03*
X120230000Y-115620000D03*
X84470000Y-115440000D03*
X79190000Y-115850000D03*
X125580000Y-104470000D03*
X129500000Y-107500000D03*
X79250000Y-164750000D03*
X82500000Y-109000000D03*
X88500000Y-110000000D03*
X81000000Y-109000000D03*
X79500000Y-109000000D03*
X132500000Y-103500000D03*
X126500000Y-108000000D03*
X107500000Y-102500000D03*
X104500000Y-106000000D03*
X103000000Y-106000000D03*
X101500000Y-106000000D03*
X86850000Y-104950000D03*
X90800000Y-105950000D03*
X124450000Y-149550000D03*
X114500000Y-149600000D03*
X143390000Y-148420000D03*
X143360000Y-146660000D03*
D31*
X132750000Y-118020000D03*
X122460000Y-113480000D03*
X122540000Y-115970000D03*
X71860000Y-105050000D03*
X121920000Y-109500000D03*
X85480000Y-105520000D03*
X87930000Y-109030000D03*
X78680000Y-140010000D03*
D30*
X112920000Y-106570000D03*
X112920000Y-107970000D03*
X86910000Y-105750000D03*
X86840000Y-107880000D03*
X122590000Y-104970000D03*
X121660000Y-105890000D03*
X124640000Y-112520000D03*
X126220000Y-112550000D03*
X125320000Y-124860000D03*
X125260000Y-132820000D03*
X126090000Y-132850000D03*
X126130000Y-124880000D03*
X97360000Y-126640000D03*
D32*
X128500000Y-109110000D02*
X128500000Y-106460000D01*
X113000000Y-104000000D02*
X113000000Y-104470000D01*
X113000000Y-104470000D02*
X113780000Y-105250000D01*
X113780000Y-105250000D02*
X114230000Y-105250000D01*
X127550000Y-109110000D02*
X127550000Y-107590000D01*
X127000000Y-107040000D02*
X127000000Y-106460000D01*
X127550000Y-107590000D02*
X127000000Y-107040000D01*
X113500000Y-104000000D02*
X113500000Y-104520000D01*
X126040000Y-107420000D02*
X127000000Y-106460000D01*
X124050000Y-107420000D02*
X126040000Y-107420000D01*
X121880000Y-105250000D02*
X124050000Y-107420000D01*
X114230000Y-105250000D02*
X121880000Y-105250000D01*
X113500000Y-104520000D02*
X114230000Y-105250000D01*
D33*
X81580000Y-140900000D02*
X81640000Y-140900000D01*
X100830000Y-135170000D02*
X108630000Y-142970000D01*
X108630000Y-142970000D02*
X109060000Y-142970000D01*
X113060000Y-144480000D02*
X112530000Y-145010000D01*
X112530000Y-145010000D02*
X112530000Y-147620000D01*
X121070000Y-153250000D02*
X121290000Y-153470000D01*
X121290000Y-153470000D02*
X140900000Y-153470000D01*
X122870000Y-169450000D02*
X122880000Y-169460000D01*
X124500000Y-165750000D02*
X124500000Y-166600000D01*
X104550000Y-135170000D02*
X110420000Y-141040000D01*
X110420000Y-141040000D02*
X111650000Y-141040000D01*
X117400000Y-145010000D02*
X117630000Y-145240000D01*
X117630000Y-145240000D02*
X117630000Y-155790000D01*
X105520000Y-169100000D02*
X105870000Y-169450000D01*
X105870000Y-169450000D02*
X114520000Y-169450000D01*
X127190000Y-132930000D02*
X131560000Y-137300000D01*
X131560000Y-137300000D02*
X133730000Y-137300000D01*
X133790000Y-128590000D02*
X133650000Y-128730000D01*
X133790000Y-125790000D02*
X133790000Y-128590000D01*
X133850000Y-125730000D02*
X133790000Y-125790000D01*
X136030000Y-123790000D02*
X134780000Y-123790000D01*
X138460000Y-121360000D02*
X136030000Y-123790000D01*
X102150000Y-132440000D02*
X101040000Y-131330000D01*
X104130000Y-132440000D02*
X102150000Y-132440000D01*
X104320000Y-132630000D02*
X104130000Y-132440000D01*
X124070000Y-132970000D02*
X124070000Y-132650000D01*
X128460000Y-137360000D02*
X124070000Y-132970000D01*
X83950000Y-127590000D02*
X81760000Y-129780000D01*
X94530000Y-127590000D02*
X83950000Y-127590000D01*
X94710000Y-127410000D02*
X94530000Y-127590000D01*
X104650000Y-126590000D02*
X98510000Y-126590000D01*
X104810000Y-126430000D02*
X104650000Y-126590000D01*
X118220000Y-124180000D02*
X113750000Y-124180000D01*
X120700000Y-121700000D02*
X118220000Y-124180000D01*
X74140000Y-112000000D02*
X74140000Y-114320000D01*
X128270000Y-124360000D02*
X128220000Y-124360000D01*
X128300000Y-124330000D02*
X128270000Y-124360000D01*
X124140000Y-120060000D02*
X129530000Y-120060000D01*
X123080000Y-119000000D02*
X124140000Y-120060000D01*
X94020000Y-115620000D02*
X120230000Y-115620000D01*
X93840000Y-115440000D02*
X94020000Y-115620000D01*
X84470000Y-115440000D02*
X93840000Y-115440000D01*
X75670000Y-115850000D02*
X79190000Y-115850000D01*
X74140000Y-114320000D02*
X75670000Y-115850000D01*
X127000000Y-104960000D02*
X126070000Y-104960000D01*
X126070000Y-104960000D02*
X125580000Y-104470000D01*
X128500000Y-104960000D02*
X127000000Y-104960000D01*
X128500000Y-104960000D02*
X129180000Y-104960000D01*
D34*
X129450000Y-107550000D02*
X129500000Y-107500000D01*
X129450000Y-107550000D02*
X129450000Y-109110000D01*
D33*
X129500000Y-105280000D02*
X129500000Y-107500000D01*
X129180000Y-104960000D02*
X129500000Y-105280000D01*
D35*
X81000000Y-166500000D02*
X79250000Y-164750000D01*
X81250000Y-166750000D02*
X81000000Y-166500000D01*
X83500000Y-166750000D02*
X81250000Y-166750000D01*
X82500000Y-107750000D02*
X82500000Y-109000000D01*
X81000000Y-107750000D02*
X81000000Y-109000000D01*
X79500000Y-107750000D02*
X79500000Y-109000000D01*
D34*
X132500000Y-104710000D02*
X132500000Y-103500000D01*
X125430000Y-109300000D02*
X125430000Y-109070000D01*
X125430000Y-109070000D02*
X126500000Y-108000000D01*
D35*
X108000000Y-103000000D02*
X107500000Y-102500000D01*
X108000000Y-104000000D02*
X108000000Y-103000000D01*
X107500000Y-103000000D02*
X107500000Y-104000000D01*
X107500000Y-102500000D02*
X107500000Y-103000000D01*
X106500000Y-105000000D02*
X107000000Y-105000000D01*
X107000000Y-105000000D02*
X107000000Y-104000000D01*
X106000000Y-105000000D02*
X106500000Y-105000000D01*
X106500000Y-105000000D02*
X106500000Y-104000000D01*
X106000000Y-105000000D02*
X106000000Y-105500000D01*
X106000000Y-105000000D02*
X106000000Y-105500000D01*
X106000000Y-104000000D02*
X106000000Y-105000000D01*
X105500000Y-106000000D02*
X105000000Y-106000000D01*
X106000000Y-105500000D02*
X105500000Y-106000000D01*
X105500000Y-105000000D02*
X105500000Y-105500000D01*
X105500000Y-104000000D02*
X105500000Y-105000000D01*
X105000000Y-106000000D02*
X104500000Y-106000000D01*
X105500000Y-105500000D02*
X105000000Y-106000000D01*
X105000000Y-105000000D02*
X105000000Y-105500000D01*
X105000000Y-104000000D02*
X105000000Y-105000000D01*
X105000000Y-105500000D02*
X104500000Y-106000000D01*
X104500000Y-105000000D02*
X104500000Y-106000000D01*
X104500000Y-104000000D02*
X104500000Y-105000000D01*
X104500000Y-106000000D02*
X103500000Y-106000000D01*
X104000000Y-105000000D02*
X104000000Y-105500000D01*
X104000000Y-104000000D02*
X104000000Y-105000000D01*
X103500000Y-106000000D02*
X103000000Y-106000000D01*
X104000000Y-105500000D02*
X103500000Y-106000000D01*
X103500000Y-105000000D02*
X103500000Y-105500000D01*
X103500000Y-104000000D02*
X103500000Y-105000000D01*
X103500000Y-105500000D02*
X103000000Y-106000000D01*
X101000000Y-105000000D02*
X101000000Y-105500000D01*
X101000000Y-104000000D02*
X101000000Y-105000000D01*
X101000000Y-105500000D02*
X101500000Y-106000000D01*
X102000000Y-106000000D02*
X102000000Y-105000000D01*
X102000000Y-105000000D02*
X102000000Y-104000000D01*
X102500000Y-105000000D02*
X102500000Y-105500000D01*
X102500000Y-104000000D02*
X102500000Y-105000000D01*
X102500000Y-105500000D02*
X103000000Y-106000000D01*
X103000000Y-105000000D02*
X103000000Y-106000000D01*
X103000000Y-104000000D02*
X103000000Y-105000000D01*
X103000000Y-106000000D02*
X102000000Y-106000000D01*
X102000000Y-106000000D02*
X101500000Y-106000000D01*
X101500000Y-105000000D02*
X101500000Y-106000000D01*
X101500000Y-104000000D02*
X101500000Y-105000000D01*
X100500000Y-105000000D02*
X100500000Y-104000000D01*
X101500000Y-106000000D02*
X100500000Y-105000000D01*
X87500000Y-104000000D02*
X87500000Y-104600000D01*
X87000000Y-104800000D02*
X86850000Y-104950000D01*
X87000000Y-104800000D02*
X87000000Y-104000000D01*
X87150000Y-104950000D02*
X86850000Y-104950000D01*
X87500000Y-104600000D02*
X87150000Y-104950000D01*
D33*
X92000000Y-106000000D02*
X90850000Y-106000000D01*
X90850000Y-106000000D02*
X90800000Y-105950000D01*
X124500000Y-148750000D02*
X124500000Y-149500000D01*
X124500000Y-149500000D02*
X124450000Y-149550000D01*
X114500000Y-148750000D02*
X114500000Y-149600000D01*
D34*
X129450000Y-111310000D02*
X129450000Y-114150000D01*
X130310000Y-115010000D02*
X131040000Y-115010000D01*
X129450000Y-114150000D02*
X130310000Y-115010000D01*
X131040000Y-115010000D02*
X131200000Y-115010000D01*
X131200000Y-115010000D02*
X132500000Y-113710000D01*
X132500000Y-113710000D02*
X132500000Y-111860000D01*
D35*
X100535534Y-165464466D02*
X100535534Y-165095534D01*
X100535534Y-165095534D02*
X93340000Y-157900000D01*
D33*
X79500000Y-103750000D02*
X79500000Y-103720000D01*
X79500000Y-103720000D02*
X80600000Y-102620000D01*
X81000000Y-103750000D02*
X81000000Y-103320000D01*
X81000000Y-103320000D02*
X81700000Y-102620000D01*
X82500000Y-103750000D02*
X82500000Y-103050000D01*
X82500000Y-103050000D02*
X82930000Y-102620000D01*
X128500000Y-159500000D02*
X124540000Y-159500000D01*
X76090000Y-156838932D02*
X77625631Y-155303301D01*
X76090000Y-162500000D02*
X76090000Y-156838932D01*
X81960000Y-168370000D02*
X76090000Y-162500000D01*
X94020000Y-168370000D02*
X81960000Y-168370000D01*
X96590000Y-170940000D02*
X94020000Y-168370000D01*
X98230000Y-170940000D02*
X96590000Y-170940000D01*
X98850000Y-170320000D02*
X98230000Y-170940000D01*
X115170000Y-170320000D02*
X98850000Y-170320000D01*
X122180000Y-163310000D02*
X115170000Y-170320000D01*
X122180000Y-161860000D02*
X122180000Y-163310000D01*
X124540000Y-159500000D02*
X122180000Y-161860000D01*
X141000000Y-159500000D02*
X128500000Y-159500000D01*
X143360000Y-144810000D02*
X143360000Y-146660000D01*
X141050000Y-142500000D02*
X143360000Y-144810000D01*
X143440000Y-157060000D02*
X141000000Y-159500000D01*
X143440000Y-148470000D02*
X143440000Y-157060000D01*
X143390000Y-148420000D02*
X143440000Y-148470000D01*
X141000000Y-142500000D02*
X141050000Y-142500000D01*
X141000000Y-142500000D02*
X128500000Y-142500000D01*
X86464466Y-146464466D02*
X86464466Y-143934466D01*
X80320000Y-141650000D02*
X78680000Y-140010000D01*
X84180000Y-141650000D02*
X80320000Y-141650000D01*
X86464466Y-143934466D02*
X84180000Y-141650000D01*
X77625631Y-155303301D02*
X86464466Y-146464466D01*
X91696699Y-156625631D02*
X92065631Y-156625631D01*
X92065631Y-156625631D02*
X93340000Y-157900000D01*
X93340000Y-157900000D02*
X96028932Y-157900000D01*
X96028932Y-157900000D02*
X98625631Y-155303301D01*
X97303301Y-148374369D02*
X97303301Y-153980971D01*
X97303301Y-153980971D02*
X98625631Y-155303301D01*
X97303301Y-148374369D02*
X105554563Y-148374369D01*
X105554563Y-148374369D02*
X107464466Y-146464466D01*
X88464466Y-139535534D02*
X97303301Y-148374369D01*
D34*
X122540000Y-115970000D02*
X125080000Y-118510000D01*
X125080000Y-118510000D02*
X132260000Y-118510000D01*
X132260000Y-118510000D02*
X132750000Y-118020000D01*
X121920000Y-112940000D02*
X122460000Y-113480000D01*
X121920000Y-109500000D02*
X121920000Y-112940000D01*
X121920000Y-109500000D02*
X123640000Y-109500000D01*
X123640000Y-109500000D02*
X123650000Y-109490000D01*
D36*
X71900000Y-105010000D02*
X71860000Y-105050000D01*
D34*
X121930000Y-109490000D02*
X122040000Y-109490000D01*
D36*
X121920000Y-109500000D02*
X121930000Y-109490000D01*
D33*
X93500000Y-104000000D02*
X93500000Y-104610000D01*
X94000000Y-105110000D02*
X94000000Y-106000000D01*
X93500000Y-104610000D02*
X94000000Y-105110000D01*
X94000000Y-106000000D02*
X94000000Y-105580000D01*
X94000000Y-105580000D02*
X93320000Y-104900000D01*
X93000000Y-104670000D02*
X93000000Y-104000000D01*
X93230000Y-104900000D02*
X93000000Y-104670000D01*
X93320000Y-104900000D02*
X93230000Y-104900000D01*
D36*
X71900000Y-105010000D02*
X74290000Y-102620000D01*
X74290000Y-102620000D02*
X80600000Y-102620000D01*
X80600000Y-102620000D02*
X81700000Y-102620000D01*
X81700000Y-102620000D02*
X82930000Y-102620000D01*
X82930000Y-102620000D02*
X83010000Y-102620000D01*
D34*
X83010000Y-102620000D02*
X85480000Y-105090000D01*
X85480000Y-105090000D02*
X85480000Y-105520000D01*
X79220000Y-129780000D02*
X76170000Y-129780000D01*
X71860000Y-125470000D02*
X71860000Y-110360000D01*
X76170000Y-129780000D02*
X71860000Y-125470000D01*
D36*
X71860000Y-110360000D02*
X71860000Y-105050000D01*
D34*
X94000000Y-106860000D02*
X94000000Y-106000000D01*
X93300000Y-107560000D02*
X94000000Y-106860000D01*
X89400000Y-107560000D02*
X93300000Y-107560000D01*
X87930000Y-109030000D02*
X89400000Y-107560000D01*
X78680000Y-140010000D02*
X78680000Y-132900000D01*
X78680000Y-132900000D02*
X79220000Y-132360000D01*
X79220000Y-132360000D02*
X79220000Y-129780000D01*
D37*
X111500000Y-107250000D02*
X119800000Y-107250000D01*
X122040000Y-109490000D02*
X123650000Y-109490000D01*
X119800000Y-107250000D02*
X122040000Y-109490000D01*
X110000000Y-107250000D02*
X111500000Y-107250000D01*
X108500000Y-107250000D02*
X110000000Y-107250000D01*
X107000000Y-107250000D02*
X108500000Y-107250000D01*
X123650000Y-109490000D02*
X123650000Y-109520000D01*
X123650000Y-109520000D02*
X125430000Y-111300000D01*
D34*
X127550000Y-111310000D02*
X125440000Y-111310000D01*
X125440000Y-111310000D02*
X125430000Y-111300000D01*
X125430000Y-111300000D02*
X125430000Y-114600000D01*
X125430000Y-114600000D02*
X125840000Y-115010000D01*
D38*
X82500000Y-105720000D02*
X83380000Y-105720000D01*
X89000000Y-104630000D02*
X89000000Y-104000000D01*
X87250000Y-106380000D02*
X89000000Y-104630000D01*
X84040000Y-106380000D02*
X87250000Y-106380000D01*
X83380000Y-105720000D02*
X84040000Y-106380000D01*
X82500000Y-105250000D02*
X82500000Y-105720000D01*
X82500000Y-105720000D02*
X82500000Y-105790000D01*
X82500000Y-105790000D02*
X82500000Y-106250000D01*
D33*
X117320000Y-112000000D02*
X117320000Y-110630000D01*
X112100000Y-105750000D02*
X111500000Y-105750000D01*
X112920000Y-106570000D02*
X112100000Y-105750000D01*
X114660000Y-107970000D02*
X112920000Y-107970000D01*
X117320000Y-110630000D02*
X114660000Y-107970000D01*
D35*
X110000000Y-104000000D02*
X110000000Y-104670000D01*
X110770000Y-105020000D02*
X111500000Y-105750000D01*
X110350000Y-105020000D02*
X110770000Y-105020000D01*
X110000000Y-104670000D02*
X110350000Y-105020000D01*
D38*
X81000000Y-106250000D02*
X81000000Y-105250000D01*
X89500000Y-104000000D02*
X89500000Y-104710000D01*
X81540000Y-106790000D02*
X81000000Y-106250000D01*
X87420000Y-106790000D02*
X81540000Y-106790000D01*
X89500000Y-104710000D02*
X87420000Y-106790000D01*
X83250000Y-107122402D02*
X87777598Y-107122402D01*
X79500000Y-106660000D02*
X79962402Y-107122402D01*
X79962402Y-107122402D02*
X83250000Y-107122402D01*
X79500000Y-106250000D02*
X79500000Y-106660000D01*
X90000000Y-104900000D02*
X90000000Y-104000000D01*
X87777598Y-107122402D02*
X90000000Y-104900000D01*
X79500000Y-105250000D02*
X79500000Y-106250000D01*
D35*
X88000000Y-104000000D02*
X88000000Y-104880000D01*
X87130000Y-105750000D02*
X86910000Y-105750000D01*
X88000000Y-104880000D02*
X87130000Y-105750000D01*
D33*
X86840000Y-112000000D02*
X86840000Y-107880000D01*
X86840000Y-107880000D02*
X86820000Y-107860000D01*
X89380000Y-112000000D02*
X89380000Y-110680000D01*
X95000000Y-107000000D02*
X95000000Y-104000000D01*
X93570000Y-108430000D02*
X95000000Y-107000000D01*
X91630000Y-108430000D02*
X93570000Y-108430000D01*
X89380000Y-110680000D02*
X91630000Y-108430000D01*
X95500000Y-104000000D02*
X95500000Y-107210000D01*
X91920000Y-109230000D02*
X91920000Y-112000000D01*
X92300000Y-108850000D02*
X91920000Y-109230000D01*
X93860000Y-108850000D02*
X92300000Y-108850000D01*
X95500000Y-107210000D02*
X93860000Y-108850000D01*
X94460000Y-112000000D02*
X94460000Y-109110000D01*
X96000000Y-107570000D02*
X96000000Y-104000000D01*
X94460000Y-109110000D02*
X96000000Y-107570000D01*
X100000000Y-104000000D02*
X100000000Y-105140000D01*
X111840000Y-109060000D02*
X114780000Y-112000000D01*
X106710000Y-109060000D02*
X111840000Y-109060000D01*
X104990000Y-107340000D02*
X106710000Y-109060000D01*
X101330000Y-107340000D02*
X104990000Y-107340000D01*
X100870000Y-106880000D02*
X101330000Y-107340000D01*
X100870000Y-106010000D02*
X100870000Y-106880000D01*
X100000000Y-105140000D02*
X100870000Y-106010000D01*
X99000000Y-104000000D02*
X99000000Y-105720000D01*
X107750000Y-110050000D02*
X109700000Y-112000000D01*
X106250000Y-110050000D02*
X107750000Y-110050000D01*
X104530000Y-108330000D02*
X106250000Y-110050000D01*
X100370000Y-108330000D02*
X104530000Y-108330000D01*
X99780000Y-107740000D02*
X100370000Y-108330000D01*
X99780000Y-106500000D02*
X99780000Y-107740000D01*
X99000000Y-105720000D02*
X99780000Y-106500000D01*
X98500000Y-104000000D02*
X98500000Y-106090000D01*
X104130000Y-108970000D02*
X107160000Y-112000000D01*
X100060000Y-108970000D02*
X104130000Y-108970000D01*
X99210000Y-108120000D02*
X100060000Y-108970000D01*
X99210000Y-106800000D02*
X99210000Y-108120000D01*
X98500000Y-106090000D02*
X99210000Y-106800000D01*
X98000000Y-104000000D02*
X98000000Y-106370000D01*
X102130000Y-109510000D02*
X104620000Y-112000000D01*
X99800000Y-109510000D02*
X102130000Y-109510000D01*
X98740000Y-108450000D02*
X99800000Y-109510000D01*
X98740000Y-107110000D02*
X98740000Y-108450000D01*
X98000000Y-106370000D02*
X98740000Y-107110000D01*
X97500000Y-104000000D02*
X97500000Y-106800000D01*
X100130000Y-110050000D02*
X102080000Y-112000000D01*
X99519082Y-110050000D02*
X100130000Y-110050000D01*
X98190000Y-108720918D02*
X99519082Y-110050000D01*
X98190000Y-107490000D02*
X98190000Y-108720918D01*
X97500000Y-106800000D02*
X98190000Y-107490000D01*
X97000000Y-104000000D02*
X97000000Y-107120000D01*
X99540000Y-110640000D02*
X99540000Y-112000000D01*
X97640000Y-108740000D02*
X99540000Y-110640000D01*
X97640000Y-107760000D02*
X97640000Y-108740000D01*
X97000000Y-107120000D02*
X97640000Y-107760000D01*
X96500000Y-104000000D02*
X96500000Y-107690000D01*
X97000000Y-108190000D02*
X97000000Y-112000000D01*
X96500000Y-107690000D02*
X97000000Y-108190000D01*
D37*
X132500000Y-106710000D02*
X132500000Y-108560000D01*
D32*
X115920000Y-105740000D02*
X121510000Y-105740000D01*
X131040000Y-106710000D02*
X132500000Y-106710000D01*
X129960000Y-105630000D02*
X131040000Y-106710000D01*
X129960000Y-104630000D02*
X129960000Y-105630000D01*
X129240000Y-103910000D02*
X129960000Y-104630000D01*
X123650000Y-103910000D02*
X129240000Y-103910000D01*
X122590000Y-104970000D02*
X123650000Y-103910000D01*
X121510000Y-105740000D02*
X121660000Y-105890000D01*
X113410000Y-105740000D02*
X115920000Y-105740000D01*
X115920000Y-105740000D02*
X115930000Y-105740000D01*
X112000000Y-104000000D02*
X112000000Y-104840000D01*
X112900000Y-105740000D02*
X113410000Y-105740000D01*
X112000000Y-104840000D02*
X112900000Y-105740000D01*
X112500000Y-104000000D02*
X112500000Y-104830000D01*
X112500000Y-104830000D02*
X113410000Y-105740000D01*
D34*
X73000000Y-147960000D02*
X74540000Y-147960000D01*
X76720000Y-138000000D02*
X73500000Y-138000000D01*
X77340000Y-138620000D02*
X76720000Y-138000000D01*
X77340000Y-145160000D02*
X77340000Y-138620000D01*
X74540000Y-147960000D02*
X77340000Y-145160000D01*
D33*
X140000000Y-106000000D02*
X138910000Y-106000000D01*
X96920000Y-127320000D02*
X94460000Y-129780000D01*
X105200000Y-127320000D02*
X96920000Y-127320000D01*
X107640000Y-124880000D02*
X105200000Y-127320000D01*
X121050000Y-124880000D02*
X107640000Y-124880000D01*
X121900000Y-125730000D02*
X121050000Y-124880000D01*
X128510000Y-125730000D02*
X121900000Y-125730000D01*
X129160000Y-125080000D02*
X128510000Y-125730000D01*
X129160000Y-122120000D02*
X129160000Y-125080000D01*
X132160000Y-119120000D02*
X129160000Y-122120000D01*
X133140000Y-119120000D02*
X132160000Y-119120000D01*
X133510000Y-118750000D02*
X133140000Y-119120000D01*
X133510000Y-114170000D02*
X133510000Y-118750000D01*
X136700000Y-110980000D02*
X133510000Y-114170000D01*
X136700000Y-108210000D02*
X136700000Y-110980000D01*
X138910000Y-106000000D02*
X136700000Y-108210000D01*
X99540000Y-129780000D02*
X99540000Y-129370000D01*
X99540000Y-129370000D02*
X101170000Y-127740000D01*
X101170000Y-127740000D02*
X105570000Y-127740000D01*
X105570000Y-127740000D02*
X107980000Y-125330000D01*
X107980000Y-125330000D02*
X120610000Y-125330000D01*
X120610000Y-125330000D02*
X121550000Y-126270000D01*
X121550000Y-126270000D02*
X129110000Y-126270000D01*
X129110000Y-126270000D02*
X129640000Y-125740000D01*
X129640000Y-125740000D02*
X129640000Y-122340000D01*
X129640000Y-122340000D02*
X132380000Y-119600000D01*
X132380000Y-119600000D02*
X133710000Y-119600000D01*
X133710000Y-119600000D02*
X134090000Y-119220000D01*
X134090000Y-119220000D02*
X134090000Y-114280000D01*
X134090000Y-114280000D02*
X137220000Y-111150000D01*
X137220000Y-111150000D02*
X137220000Y-108750000D01*
X137220000Y-108750000D02*
X138650000Y-107320000D01*
X138650000Y-107320000D02*
X141220000Y-107320000D01*
X141220000Y-107320000D02*
X142540000Y-106000000D01*
X104620000Y-129780000D02*
X104620000Y-129490000D01*
X104620000Y-129490000D02*
X108300000Y-125810000D01*
X108300000Y-125810000D02*
X120280000Y-125810000D01*
X120280000Y-125810000D02*
X121320000Y-126850000D01*
X121320000Y-126850000D02*
X129610000Y-126850000D01*
X129610000Y-126850000D02*
X130310000Y-126150000D01*
X130310000Y-126150000D02*
X130310000Y-122380000D01*
X130310000Y-122380000D02*
X132550000Y-120140000D01*
X132550000Y-120140000D02*
X134157598Y-120140000D01*
X134157598Y-120140000D02*
X134530000Y-119767598D01*
X134530000Y-119767598D02*
X134530000Y-114460000D01*
X134530000Y-114460000D02*
X137680000Y-111310000D01*
X137680000Y-111310000D02*
X137680000Y-109710000D01*
X137680000Y-109710000D02*
X138850000Y-108540000D01*
X138850000Y-108540000D02*
X140000000Y-108540000D01*
X107160000Y-129780000D02*
X107160000Y-129430000D01*
X107160000Y-129430000D02*
X110100000Y-126490000D01*
X110100000Y-126490000D02*
X120030000Y-126490000D01*
X120030000Y-126490000D02*
X120990000Y-127450000D01*
X120990000Y-127450000D02*
X129640000Y-127450000D01*
X129640000Y-127450000D02*
X130850000Y-126240000D01*
X130850000Y-126240000D02*
X130850000Y-122760000D01*
X130850000Y-122760000D02*
X132710000Y-120900000D01*
X132710000Y-120900000D02*
X134830000Y-120900000D01*
X134830000Y-120900000D02*
X135090000Y-120640000D01*
X135090000Y-120640000D02*
X135090000Y-114710000D01*
X135090000Y-114710000D02*
X138220000Y-111580000D01*
X138220000Y-111580000D02*
X138220000Y-110720000D01*
X138220000Y-110720000D02*
X139130000Y-109810000D01*
X139130000Y-109810000D02*
X141270000Y-109810000D01*
X141270000Y-109810000D02*
X142540000Y-108540000D01*
X109700000Y-129780000D02*
X109700000Y-129040000D01*
X109700000Y-129040000D02*
X111810000Y-126930000D01*
X111810000Y-126930000D02*
X119550000Y-126930000D01*
X119550000Y-126930000D02*
X120530000Y-127910000D01*
X120530000Y-127910000D02*
X130030000Y-127910000D01*
X130030000Y-127910000D02*
X131430000Y-126510000D01*
X131430000Y-126510000D02*
X131430000Y-123140000D01*
X131430000Y-123140000D02*
X133130000Y-121440000D01*
X133130000Y-121440000D02*
X135180000Y-121440000D01*
X135180000Y-121440000D02*
X135590000Y-121030000D01*
X135590000Y-121030000D02*
X135590000Y-114860000D01*
X135590000Y-114860000D02*
X139370000Y-111080000D01*
X139370000Y-111080000D02*
X140000000Y-111080000D01*
X112240000Y-129780000D02*
X112240000Y-129760000D01*
X112240000Y-129760000D02*
X114460000Y-127540000D01*
X141270000Y-112350000D02*
X142540000Y-111080000D01*
X138780000Y-112350000D02*
X141270000Y-112350000D01*
X136100000Y-115030000D02*
X138780000Y-112350000D01*
X136100000Y-121610918D02*
X136100000Y-115030000D01*
X135750918Y-121960000D02*
X136100000Y-121610918D01*
X133310000Y-121960000D02*
X135750918Y-121960000D01*
X132050000Y-123220000D02*
X133310000Y-121960000D01*
X132050000Y-126940000D02*
X132050000Y-123220000D01*
X130360000Y-128630000D02*
X132050000Y-126940000D01*
X120270000Y-128630000D02*
X130360000Y-128630000D01*
X119180000Y-127540000D02*
X120270000Y-128630000D01*
X114460000Y-127540000D02*
X119180000Y-127540000D01*
X112240000Y-129780000D02*
X112480000Y-129780000D01*
X114780000Y-129780000D02*
X114780000Y-129450000D01*
X114780000Y-129450000D02*
X116210000Y-128020000D01*
X139000000Y-113620000D02*
X140000000Y-113620000D01*
X136860000Y-115760000D02*
X139000000Y-113620000D01*
X136860000Y-121420000D02*
X136860000Y-115760000D01*
X135770000Y-122510000D02*
X136860000Y-121420000D01*
X133940000Y-122510000D02*
X135770000Y-122510000D01*
X132630000Y-123820000D02*
X133940000Y-122510000D01*
X132630000Y-126950000D02*
X132630000Y-123820000D01*
X130380000Y-129200000D02*
X132630000Y-126950000D01*
X119810000Y-129200000D02*
X130380000Y-129200000D01*
X118630000Y-128020000D02*
X119810000Y-129200000D01*
X116210000Y-128020000D02*
X118630000Y-128020000D01*
X114780000Y-129780000D02*
X114780000Y-129770000D01*
X117320000Y-129780000D02*
X130630000Y-129780000D01*
X141210000Y-114950000D02*
X142540000Y-113620000D01*
X138460000Y-114950000D02*
X141210000Y-114950000D01*
X137410000Y-116000000D02*
X138460000Y-114950000D01*
X137410000Y-121540000D02*
X137410000Y-116000000D01*
X135960000Y-122990000D02*
X137410000Y-121540000D01*
X134170000Y-122990000D02*
X135960000Y-122990000D01*
X133220000Y-123940000D02*
X134170000Y-122990000D01*
X133220000Y-127190000D02*
X133220000Y-123940000D01*
X130630000Y-129780000D02*
X133220000Y-127190000D01*
D37*
X102080000Y-129780000D02*
X102080000Y-130690000D01*
X134640000Y-131740000D02*
X135430000Y-132530000D01*
X103130000Y-131740000D02*
X134640000Y-131740000D01*
X102080000Y-130690000D02*
X103130000Y-131740000D01*
D34*
X137000000Y-133500000D02*
X136400000Y-133500000D01*
X136400000Y-133500000D02*
X135430000Y-132530000D01*
X135430000Y-129140000D02*
X136070000Y-128500000D01*
X135430000Y-132530000D02*
X135430000Y-129140000D01*
X136070000Y-128500000D02*
X137000000Y-128500000D01*
X137000000Y-136000000D02*
X137000000Y-133500000D01*
X137000000Y-126000000D02*
X137000000Y-128500000D01*
D35*
X107000000Y-105750000D02*
X107000000Y-105550000D01*
X107000000Y-105550000D02*
X107610000Y-104940000D01*
X107610000Y-104940000D02*
X108190000Y-104940000D01*
X108190000Y-104940000D02*
X108500000Y-104630000D01*
X108500000Y-104630000D02*
X108500000Y-104000000D01*
X108500000Y-105750000D02*
X108500000Y-105280000D01*
X109000000Y-104780000D02*
X109000000Y-104000000D01*
X108500000Y-105280000D02*
X109000000Y-104780000D01*
X109500000Y-104000000D02*
X109500000Y-104780000D01*
X110000000Y-105280000D02*
X110000000Y-105750000D01*
X109500000Y-104780000D02*
X110000000Y-105280000D01*
D33*
X84300000Y-112000000D02*
X84300000Y-112890000D01*
X122840000Y-114320000D02*
X124640000Y-112520000D01*
X85730000Y-114320000D02*
X122840000Y-114320000D01*
X84300000Y-112890000D02*
X85730000Y-114320000D01*
D32*
X123650000Y-110990000D02*
X123650000Y-111530000D01*
X123650000Y-111530000D02*
X124640000Y-112520000D01*
X128500000Y-111310000D02*
X128500000Y-111980000D01*
X126620000Y-112150000D02*
X126220000Y-112550000D01*
X128330000Y-112150000D02*
X126620000Y-112150000D01*
X128500000Y-111980000D02*
X128330000Y-112150000D01*
D33*
X124500000Y-147250000D02*
X128250000Y-147250000D01*
X128250000Y-147250000D02*
X128500000Y-147500000D01*
X141000000Y-147500000D02*
X128500000Y-147500000D01*
X144260000Y-141570000D02*
X144260000Y-146990000D01*
X79220000Y-113530000D02*
X82790000Y-117100000D01*
X82790000Y-117100000D02*
X118180000Y-117100000D01*
X118180000Y-117100000D02*
X125320000Y-124240000D01*
X125320000Y-124240000D02*
X125320000Y-124860000D01*
X125260000Y-132820000D02*
X125280000Y-132840000D01*
X125280000Y-132840000D02*
X125280000Y-132880000D01*
X125280000Y-132880000D02*
X130990000Y-138590000D01*
X130990000Y-138590000D02*
X141280000Y-138590000D01*
X141280000Y-138590000D02*
X144260000Y-141570000D01*
X79220000Y-112000000D02*
X79220000Y-113530000D01*
X143750000Y-147500000D02*
X141000000Y-147500000D01*
X144260000Y-146990000D02*
X143750000Y-147500000D01*
X124500000Y-164250000D02*
X128250000Y-164250000D01*
X128250000Y-164250000D02*
X128500000Y-164500000D01*
X141000000Y-164500000D02*
X143610000Y-164500000D01*
X131380000Y-138140000D02*
X126090000Y-132850000D01*
X141820000Y-138140000D02*
X131380000Y-138140000D01*
X144890000Y-141210000D02*
X141820000Y-138140000D01*
X144890000Y-163220000D02*
X144890000Y-141210000D01*
X143610000Y-164500000D02*
X144890000Y-163220000D01*
X128500000Y-164500000D02*
X141000000Y-164500000D01*
X81760000Y-112000000D02*
X81760000Y-115400000D01*
X126130000Y-124340000D02*
X126130000Y-124880000D01*
X118470000Y-116680000D02*
X126130000Y-124340000D01*
X83040000Y-116680000D02*
X118470000Y-116680000D01*
X81760000Y-115400000D02*
X83040000Y-116680000D01*
X126090000Y-132850000D02*
X126120000Y-132880000D01*
X85500000Y-165250000D02*
X85500000Y-162990000D01*
X85500000Y-162990000D02*
X88161165Y-160328835D01*
X88161165Y-160328835D02*
X88161165Y-160161165D01*
X97000000Y-169000000D02*
X88161165Y-160161165D01*
X91920000Y-129780000D02*
X91920000Y-131020000D01*
X104150000Y-169000000D02*
X97000000Y-169000000D01*
X116680000Y-156470000D02*
X104150000Y-169000000D01*
X116680000Y-145740000D02*
X116680000Y-156470000D01*
X112980000Y-142040000D02*
X116680000Y-145740000D01*
X110030000Y-142040000D02*
X112980000Y-142040000D01*
X100120000Y-132130000D02*
X110030000Y-142040000D01*
X93030000Y-132130000D02*
X100120000Y-132130000D01*
X91920000Y-131020000D02*
X93030000Y-132130000D01*
X91370000Y-132690000D02*
X91070000Y-132690000D01*
X114500000Y-144200000D02*
X112960000Y-142660000D01*
X112960000Y-142660000D02*
X109890000Y-142660000D01*
X109890000Y-142660000D02*
X99920000Y-132690000D01*
X99920000Y-132690000D02*
X91370000Y-132690000D01*
X114500000Y-147250000D02*
X114500000Y-144200000D01*
X89380000Y-131000000D02*
X89380000Y-129780000D01*
X91070000Y-132690000D02*
X89380000Y-131000000D01*
X111000000Y-150000000D02*
X111160000Y-150000000D01*
X111160000Y-150000000D02*
X113910000Y-147250000D01*
X113910000Y-147250000D02*
X114500000Y-147250000D01*
X102161165Y-158838835D02*
X111000000Y-150000000D01*
X92000000Y-136000000D02*
X100838835Y-144838835D01*
X88750000Y-133210000D02*
X89210000Y-133210000D01*
X89210000Y-133210000D02*
X92000000Y-136000000D01*
X86840000Y-129780000D02*
X86840000Y-131250000D01*
X88750000Y-133160000D02*
X88750000Y-133210000D01*
X88750000Y-133210000D02*
X88750000Y-135000000D01*
X86840000Y-131250000D02*
X88750000Y-133160000D01*
X83500000Y-165250000D02*
X83500000Y-162620000D01*
X81161165Y-160281165D02*
X81161165Y-158838835D01*
X83500000Y-162620000D02*
X81161165Y-160281165D01*
X90000000Y-150000000D02*
X90000000Y-146180000D01*
X85460000Y-130940000D02*
X84300000Y-129780000D01*
X85460000Y-141640000D02*
X85460000Y-130940000D01*
X90000000Y-146180000D02*
X85460000Y-141640000D01*
X81161165Y-158838835D02*
X90000000Y-150000000D01*
X76680000Y-112000000D02*
X76680000Y-112360000D01*
X76680000Y-112360000D02*
X82000000Y-117680000D01*
X82000000Y-117680000D02*
X94320000Y-117680000D01*
X94320000Y-117680000D02*
X97360000Y-120720000D01*
X97360000Y-120720000D02*
X97360000Y-126640000D01*
X99500000Y-104000000D02*
X99500000Y-105370000D01*
X109830000Y-109590000D02*
X112240000Y-112000000D01*
X106540000Y-109590000D02*
X109830000Y-109590000D01*
X104800000Y-107850000D02*
X106540000Y-109590000D01*
X100660000Y-107850000D02*
X104800000Y-107850000D01*
X100340000Y-107530000D02*
X100660000Y-107850000D01*
X100340000Y-106210000D02*
X100340000Y-107530000D01*
X99500000Y-105370000D02*
X100340000Y-106210000D01*
D37*
G36*
X71035000Y-105279194D02*
X71035000Y-110360000D01*
X71097799Y-110675714D01*
X71160000Y-110768804D01*
X71160000Y-125470000D01*
X71213284Y-125737879D01*
X71365025Y-125964975D01*
X75675023Y-130274972D01*
X75675025Y-130274975D01*
X75902122Y-130426716D01*
X76170000Y-130480000D01*
X78137253Y-130480000D01*
X78300761Y-130724708D01*
X78520000Y-130871198D01*
X78520000Y-132070050D01*
X78185025Y-132405025D01*
X78033284Y-132632121D01*
X78025457Y-132671470D01*
X77980000Y-132900000D01*
X77980000Y-138342071D01*
X77834975Y-138125025D01*
X77834972Y-138125023D01*
X77214975Y-137505025D01*
X76987879Y-137353284D01*
X76720000Y-137300000D01*
X75208816Y-137300000D01*
X75208816Y-137250000D01*
X75177438Y-137083240D01*
X75171767Y-137074427D01*
X75289117Y-136996016D01*
X75625114Y-136493159D01*
X75743101Y-135900000D01*
X75625114Y-135306841D01*
X75289117Y-134803984D01*
X74786260Y-134467987D01*
X74193101Y-134350000D01*
X72806899Y-134350000D01*
X72213740Y-134467987D01*
X71710883Y-134803984D01*
X71374886Y-135306841D01*
X71256899Y-135900000D01*
X71374886Y-136493159D01*
X71710883Y-136996016D01*
X71826917Y-137073547D01*
X71791184Y-137250000D01*
X71791184Y-138750000D01*
X71822562Y-138916760D01*
X71921117Y-139069919D01*
X72071495Y-139172668D01*
X72100130Y-139178467D01*
X71858040Y-139540780D01*
X71766695Y-140000000D01*
X71858040Y-140459220D01*
X72118167Y-140848528D01*
X72344861Y-141000000D01*
X72118167Y-141151472D01*
X71858040Y-141540780D01*
X71766695Y-142000000D01*
X71858040Y-142459220D01*
X72064267Y-142767861D01*
X71710883Y-143003984D01*
X71374886Y-143506841D01*
X71256899Y-144100000D01*
X71374886Y-144693159D01*
X71710883Y-145196016D01*
X72213740Y-145532013D01*
X72806899Y-145650000D01*
X74193101Y-145650000D01*
X74786260Y-145532013D01*
X75289117Y-145196016D01*
X75625114Y-144693159D01*
X75743101Y-144100000D01*
X75625114Y-143506841D01*
X75289117Y-143003984D01*
X74935733Y-142767861D01*
X75141960Y-142459220D01*
X75233305Y-142000000D01*
X75141960Y-141540780D01*
X74881833Y-141151472D01*
X74655139Y-141000000D01*
X74881833Y-140848528D01*
X75141960Y-140459220D01*
X75233305Y-140000000D01*
X75141960Y-139540780D01*
X74901146Y-139180376D01*
X74916760Y-139177438D01*
X75069919Y-139078883D01*
X75172668Y-138928505D01*
X75208816Y-138750000D01*
X75208816Y-138700000D01*
X76430050Y-138700000D01*
X76640000Y-138909949D01*
X76640000Y-144870050D01*
X74250050Y-147260000D01*
X74091198Y-147260000D01*
X73944708Y-147040761D01*
X73522957Y-146758957D01*
X73025469Y-146660000D01*
X72974531Y-146660000D01*
X72477043Y-146758957D01*
X72055292Y-147040761D01*
X71773488Y-147462512D01*
X71674531Y-147960000D01*
X71773488Y-148457488D01*
X72055292Y-148879239D01*
X72224051Y-148992000D01*
X72019116Y-148992000D01*
X71777273Y-149092174D01*
X71592175Y-149277273D01*
X71492000Y-149519115D01*
X71492000Y-150231500D01*
X71656500Y-150396000D01*
X72896000Y-150396000D01*
X72896000Y-150376000D01*
X73104000Y-150376000D01*
X73104000Y-150396000D01*
X74343500Y-150396000D01*
X74508000Y-150231500D01*
X74508000Y-149519115D01*
X74407825Y-149277273D01*
X74222727Y-149092174D01*
X73980884Y-148992000D01*
X73775949Y-148992000D01*
X73944708Y-148879239D01*
X74091198Y-148660000D01*
X74540000Y-148660000D01*
X74807879Y-148606716D01*
X75034975Y-148454975D01*
X77834975Y-145654975D01*
X77986716Y-145427879D01*
X78040000Y-145160000D01*
X78040000Y-140572013D01*
X78197885Y-140730174D01*
X78510183Y-140859852D01*
X78716860Y-140860032D01*
X79913413Y-142056586D01*
X80045732Y-142144999D01*
X80099957Y-142181231D01*
X80320000Y-142225000D01*
X83941828Y-142225000D01*
X85889466Y-144172639D01*
X85889466Y-145181755D01*
X85041292Y-146029930D01*
X84756539Y-146456092D01*
X84656548Y-146958785D01*
X84739573Y-147376186D01*
X78537351Y-153578409D01*
X78119950Y-153495383D01*
X77617257Y-153595374D01*
X77191094Y-153880127D01*
X76202457Y-154868765D01*
X75917704Y-155294927D01*
X75817713Y-155797620D01*
X75900739Y-156215021D01*
X75683414Y-156432346D01*
X75558769Y-156618889D01*
X75515000Y-156838932D01*
X75515000Y-162500000D01*
X75552548Y-162688769D01*
X75558769Y-162720043D01*
X75683414Y-162906586D01*
X81553414Y-168776587D01*
X81739957Y-168901231D01*
X81960000Y-168945000D01*
X93781828Y-168945000D01*
X96183414Y-171346587D01*
X96369957Y-171471231D01*
X96388905Y-171475000D01*
X71551706Y-171475000D01*
X71322163Y-171429341D01*
X71171396Y-171328602D01*
X71070659Y-171177838D01*
X71025000Y-170948294D01*
X71025000Y-150768500D01*
X71492000Y-150768500D01*
X71492000Y-151480885D01*
X71592175Y-151722727D01*
X71777273Y-151907826D01*
X72019116Y-152008000D01*
X72731500Y-152008000D01*
X72896000Y-151843500D01*
X72896000Y-150604000D01*
X73104000Y-150604000D01*
X73104000Y-151843500D01*
X73268500Y-152008000D01*
X73980884Y-152008000D01*
X74222727Y-151907826D01*
X74407825Y-151722727D01*
X74508000Y-151480885D01*
X74508000Y-150768500D01*
X74343500Y-150604000D01*
X73104000Y-150604000D01*
X72896000Y-150604000D01*
X71656500Y-150604000D01*
X71492000Y-150768500D01*
X71025000Y-150768500D01*
X71025000Y-105254993D01*
X71035000Y-105279194D01*
X71035000Y-105279194D01*
G37*
X71035000Y-105279194D02*
X71035000Y-110360000D01*
X71097799Y-110675714D01*
X71160000Y-110768804D01*
X71160000Y-125470000D01*
X71213284Y-125737879D01*
X71365025Y-125964975D01*
X75675023Y-130274972D01*
X75675025Y-130274975D01*
X75902122Y-130426716D01*
X76170000Y-130480000D01*
X78137253Y-130480000D01*
X78300761Y-130724708D01*
X78520000Y-130871198D01*
X78520000Y-132070050D01*
X78185025Y-132405025D01*
X78033284Y-132632121D01*
X78025457Y-132671470D01*
X77980000Y-132900000D01*
X77980000Y-138342071D01*
X77834975Y-138125025D01*
X77834972Y-138125023D01*
X77214975Y-137505025D01*
X76987879Y-137353284D01*
X76720000Y-137300000D01*
X75208816Y-137300000D01*
X75208816Y-137250000D01*
X75177438Y-137083240D01*
X75171767Y-137074427D01*
X75289117Y-136996016D01*
X75625114Y-136493159D01*
X75743101Y-135900000D01*
X75625114Y-135306841D01*
X75289117Y-134803984D01*
X74786260Y-134467987D01*
X74193101Y-134350000D01*
X72806899Y-134350000D01*
X72213740Y-134467987D01*
X71710883Y-134803984D01*
X71374886Y-135306841D01*
X71256899Y-135900000D01*
X71374886Y-136493159D01*
X71710883Y-136996016D01*
X71826917Y-137073547D01*
X71791184Y-137250000D01*
X71791184Y-138750000D01*
X71822562Y-138916760D01*
X71921117Y-139069919D01*
X72071495Y-139172668D01*
X72100130Y-139178467D01*
X71858040Y-139540780D01*
X71766695Y-140000000D01*
X71858040Y-140459220D01*
X72118167Y-140848528D01*
X72344861Y-141000000D01*
X72118167Y-141151472D01*
X71858040Y-141540780D01*
X71766695Y-142000000D01*
X71858040Y-142459220D01*
X72064267Y-142767861D01*
X71710883Y-143003984D01*
X71374886Y-143506841D01*
X71256899Y-144100000D01*
X71374886Y-144693159D01*
X71710883Y-145196016D01*
X72213740Y-145532013D01*
X72806899Y-145650000D01*
X74193101Y-145650000D01*
X74786260Y-145532013D01*
X75289117Y-145196016D01*
X75625114Y-144693159D01*
X75743101Y-144100000D01*
X75625114Y-143506841D01*
X75289117Y-143003984D01*
X74935733Y-142767861D01*
X75141960Y-142459220D01*
X75233305Y-142000000D01*
X75141960Y-141540780D01*
X74881833Y-141151472D01*
X74655139Y-141000000D01*
X74881833Y-140848528D01*
X75141960Y-140459220D01*
X75233305Y-140000000D01*
X75141960Y-139540780D01*
X74901146Y-139180376D01*
X74916760Y-139177438D01*
X75069919Y-139078883D01*
X75172668Y-138928505D01*
X75208816Y-138750000D01*
X75208816Y-138700000D01*
X76430050Y-138700000D01*
X76640000Y-138909949D01*
X76640000Y-144870050D01*
X74250050Y-147260000D01*
X74091198Y-147260000D01*
X73944708Y-147040761D01*
X73522957Y-146758957D01*
X73025469Y-146660000D01*
X72974531Y-146660000D01*
X72477043Y-146758957D01*
X72055292Y-147040761D01*
X71773488Y-147462512D01*
X71674531Y-147960000D01*
X71773488Y-148457488D01*
X72055292Y-148879239D01*
X72224051Y-148992000D01*
X72019116Y-148992000D01*
X71777273Y-149092174D01*
X71592175Y-149277273D01*
X71492000Y-149519115D01*
X71492000Y-150231500D01*
X71656500Y-150396000D01*
X72896000Y-150396000D01*
X72896000Y-150376000D01*
X73104000Y-150376000D01*
X73104000Y-150396000D01*
X74343500Y-150396000D01*
X74508000Y-150231500D01*
X74508000Y-149519115D01*
X74407825Y-149277273D01*
X74222727Y-149092174D01*
X73980884Y-148992000D01*
X73775949Y-148992000D01*
X73944708Y-148879239D01*
X74091198Y-148660000D01*
X74540000Y-148660000D01*
X74807879Y-148606716D01*
X75034975Y-148454975D01*
X77834975Y-145654975D01*
X77986716Y-145427879D01*
X78040000Y-145160000D01*
X78040000Y-140572013D01*
X78197885Y-140730174D01*
X78510183Y-140859852D01*
X78716860Y-140860032D01*
X79913413Y-142056586D01*
X80045732Y-142144999D01*
X80099957Y-142181231D01*
X80320000Y-142225000D01*
X83941828Y-142225000D01*
X85889466Y-144172639D01*
X85889466Y-145181755D01*
X85041292Y-146029930D01*
X84756539Y-146456092D01*
X84656548Y-146958785D01*
X84739573Y-147376186D01*
X78537351Y-153578409D01*
X78119950Y-153495383D01*
X77617257Y-153595374D01*
X77191094Y-153880127D01*
X76202457Y-154868765D01*
X75917704Y-155294927D01*
X75817713Y-155797620D01*
X75900739Y-156215021D01*
X75683414Y-156432346D01*
X75558769Y-156618889D01*
X75515000Y-156838932D01*
X75515000Y-162500000D01*
X75552548Y-162688769D01*
X75558769Y-162720043D01*
X75683414Y-162906586D01*
X81553414Y-168776587D01*
X81739957Y-168901231D01*
X81960000Y-168945000D01*
X93781828Y-168945000D01*
X96183414Y-171346587D01*
X96369957Y-171471231D01*
X96388905Y-171475000D01*
X71551706Y-171475000D01*
X71322163Y-171429341D01*
X71171396Y-171328602D01*
X71070659Y-171177838D01*
X71025000Y-170948294D01*
X71025000Y-150768500D01*
X71492000Y-150768500D01*
X71492000Y-151480885D01*
X71592175Y-151722727D01*
X71777273Y-151907826D01*
X72019116Y-152008000D01*
X72731500Y-152008000D01*
X72896000Y-151843500D01*
X72896000Y-150604000D01*
X73104000Y-150604000D01*
X73104000Y-151843500D01*
X73268500Y-152008000D01*
X73980884Y-152008000D01*
X74222727Y-151907826D01*
X74407825Y-151722727D01*
X74508000Y-151480885D01*
X74508000Y-150768500D01*
X74343500Y-150604000D01*
X73104000Y-150604000D01*
X72896000Y-150604000D01*
X71656500Y-150604000D01*
X71492000Y-150768500D01*
X71025000Y-150768500D01*
X71025000Y-105254993D01*
X71035000Y-105279194D01*
G36*
X144315000Y-162981827D02*
X143371828Y-163925000D01*
X142864367Y-163925000D01*
X142627928Y-163571145D01*
X142201766Y-163286392D01*
X141699073Y-163186400D01*
X140300927Y-163186400D01*
X139798234Y-163286392D01*
X139372072Y-163571145D01*
X139135633Y-163925000D01*
X130364367Y-163925000D01*
X130127928Y-163571145D01*
X129701766Y-163286392D01*
X129199073Y-163186400D01*
X127800927Y-163186400D01*
X127298234Y-163286392D01*
X126872072Y-163571145D01*
X126802678Y-163675000D01*
X125271447Y-163675000D01*
X125128505Y-163577332D01*
X124950000Y-163541184D01*
X124050000Y-163541184D01*
X123883240Y-163572562D01*
X123730081Y-163671117D01*
X123627332Y-163821495D01*
X123591184Y-164000000D01*
X123591184Y-164500000D01*
X123622562Y-164666760D01*
X123721117Y-164819919D01*
X123815965Y-164884726D01*
X123677273Y-164942175D01*
X123492174Y-165127273D01*
X123392000Y-165369116D01*
X123392000Y-165481500D01*
X123556500Y-165646000D01*
X124396000Y-165646000D01*
X124396000Y-165626000D01*
X124604000Y-165626000D01*
X124604000Y-165646000D01*
X125443500Y-165646000D01*
X125608000Y-165481500D01*
X125608000Y-165369116D01*
X125507826Y-165127273D01*
X125322727Y-164942175D01*
X125183488Y-164884500D01*
X125269919Y-164828883D01*
X125272572Y-164825000D01*
X126551974Y-164825000D01*
X126587319Y-165002693D01*
X126872072Y-165428855D01*
X127298234Y-165713608D01*
X127800927Y-165813600D01*
X129199073Y-165813600D01*
X129701766Y-165713608D01*
X130127928Y-165428855D01*
X130364367Y-165075000D01*
X139135633Y-165075000D01*
X139372072Y-165428855D01*
X139798234Y-165713608D01*
X140300927Y-165813600D01*
X141699073Y-165813600D01*
X142201766Y-165713608D01*
X142627928Y-165428855D01*
X142864367Y-165075000D01*
X143610000Y-165075000D01*
X143830043Y-165031231D01*
X144016586Y-164906586D01*
X144975000Y-163948173D01*
X144975000Y-170948294D01*
X144929341Y-171177837D01*
X144828602Y-171328604D01*
X144677838Y-171429341D01*
X144448294Y-171475000D01*
X98431095Y-171475000D01*
X98450043Y-171471231D01*
X98636586Y-171346586D01*
X99088173Y-170895000D01*
X115170000Y-170895000D01*
X115390043Y-170851231D01*
X115576586Y-170726586D01*
X120284672Y-166018500D01*
X123392000Y-166018500D01*
X123392000Y-166130884D01*
X123492174Y-166372727D01*
X123677273Y-166557825D01*
X123919115Y-166658000D01*
X124231500Y-166658000D01*
X124396000Y-166493500D01*
X124396000Y-165854000D01*
X124604000Y-165854000D01*
X124604000Y-166493500D01*
X124768500Y-166658000D01*
X125080885Y-166658000D01*
X125322727Y-166557825D01*
X125507826Y-166372727D01*
X125608000Y-166130884D01*
X125608000Y-166018500D01*
X125443500Y-165854000D01*
X124604000Y-165854000D01*
X124396000Y-165854000D01*
X123556500Y-165854000D01*
X123392000Y-166018500D01*
X120284672Y-166018500D01*
X122586586Y-163716586D01*
X122711231Y-163530043D01*
X122729133Y-163440043D01*
X122755000Y-163310000D01*
X122755000Y-162098172D01*
X124778172Y-160075000D01*
X126635633Y-160075000D01*
X126872072Y-160428855D01*
X127298234Y-160713608D01*
X127800927Y-160813600D01*
X129199073Y-160813600D01*
X129701766Y-160713608D01*
X130127928Y-160428855D01*
X130364367Y-160075000D01*
X139135633Y-160075000D01*
X139372072Y-160428855D01*
X139798234Y-160713608D01*
X140300927Y-160813600D01*
X141699073Y-160813600D01*
X142201766Y-160713608D01*
X142627928Y-160428855D01*
X142912681Y-160002693D01*
X143012673Y-159500000D01*
X142912681Y-158997307D01*
X142673630Y-158639542D01*
X143846586Y-157466586D01*
X143971231Y-157280043D01*
X143995733Y-157156862D01*
X144015000Y-157060000D01*
X144015000Y-148855825D01*
X144025448Y-148845395D01*
X144139869Y-148569839D01*
X144140130Y-148271470D01*
X144026189Y-147995714D01*
X144024992Y-147994515D01*
X144156586Y-147906586D01*
X144315000Y-147748172D01*
X144315000Y-162981827D01*
X144315000Y-162981827D01*
G37*
X144315000Y-162981827D02*
X143371828Y-163925000D01*
X142864367Y-163925000D01*
X142627928Y-163571145D01*
X142201766Y-163286392D01*
X141699073Y-163186400D01*
X140300927Y-163186400D01*
X139798234Y-163286392D01*
X139372072Y-163571145D01*
X139135633Y-163925000D01*
X130364367Y-163925000D01*
X130127928Y-163571145D01*
X129701766Y-163286392D01*
X129199073Y-163186400D01*
X127800927Y-163186400D01*
X127298234Y-163286392D01*
X126872072Y-163571145D01*
X126802678Y-163675000D01*
X125271447Y-163675000D01*
X125128505Y-163577332D01*
X124950000Y-163541184D01*
X124050000Y-163541184D01*
X123883240Y-163572562D01*
X123730081Y-163671117D01*
X123627332Y-163821495D01*
X123591184Y-164000000D01*
X123591184Y-164500000D01*
X123622562Y-164666760D01*
X123721117Y-164819919D01*
X123815965Y-164884726D01*
X123677273Y-164942175D01*
X123492174Y-165127273D01*
X123392000Y-165369116D01*
X123392000Y-165481500D01*
X123556500Y-165646000D01*
X124396000Y-165646000D01*
X124396000Y-165626000D01*
X124604000Y-165626000D01*
X124604000Y-165646000D01*
X125443500Y-165646000D01*
X125608000Y-165481500D01*
X125608000Y-165369116D01*
X125507826Y-165127273D01*
X125322727Y-164942175D01*
X125183488Y-164884500D01*
X125269919Y-164828883D01*
X125272572Y-164825000D01*
X126551974Y-164825000D01*
X126587319Y-165002693D01*
X126872072Y-165428855D01*
X127298234Y-165713608D01*
X127800927Y-165813600D01*
X129199073Y-165813600D01*
X129701766Y-165713608D01*
X130127928Y-165428855D01*
X130364367Y-165075000D01*
X139135633Y-165075000D01*
X139372072Y-165428855D01*
X139798234Y-165713608D01*
X140300927Y-165813600D01*
X141699073Y-165813600D01*
X142201766Y-165713608D01*
X142627928Y-165428855D01*
X142864367Y-165075000D01*
X143610000Y-165075000D01*
X143830043Y-165031231D01*
X144016586Y-164906586D01*
X144975000Y-163948173D01*
X144975000Y-170948294D01*
X144929341Y-171177837D01*
X144828602Y-171328604D01*
X144677838Y-171429341D01*
X144448294Y-171475000D01*
X98431095Y-171475000D01*
X98450043Y-171471231D01*
X98636586Y-171346586D01*
X99088173Y-170895000D01*
X115170000Y-170895000D01*
X115390043Y-170851231D01*
X115576586Y-170726586D01*
X120284672Y-166018500D01*
X123392000Y-166018500D01*
X123392000Y-166130884D01*
X123492174Y-166372727D01*
X123677273Y-166557825D01*
X123919115Y-166658000D01*
X124231500Y-166658000D01*
X124396000Y-166493500D01*
X124396000Y-165854000D01*
X124604000Y-165854000D01*
X124604000Y-166493500D01*
X124768500Y-166658000D01*
X125080885Y-166658000D01*
X125322727Y-166557825D01*
X125507826Y-166372727D01*
X125608000Y-166130884D01*
X125608000Y-166018500D01*
X125443500Y-165854000D01*
X124604000Y-165854000D01*
X124396000Y-165854000D01*
X123556500Y-165854000D01*
X123392000Y-166018500D01*
X120284672Y-166018500D01*
X122586586Y-163716586D01*
X122711231Y-163530043D01*
X122729133Y-163440043D01*
X122755000Y-163310000D01*
X122755000Y-162098172D01*
X124778172Y-160075000D01*
X126635633Y-160075000D01*
X126872072Y-160428855D01*
X127298234Y-160713608D01*
X127800927Y-160813600D01*
X129199073Y-160813600D01*
X129701766Y-160713608D01*
X130127928Y-160428855D01*
X130364367Y-160075000D01*
X139135633Y-160075000D01*
X139372072Y-160428855D01*
X139798234Y-160713608D01*
X140300927Y-160813600D01*
X141699073Y-160813600D01*
X142201766Y-160713608D01*
X142627928Y-160428855D01*
X142912681Y-160002693D01*
X143012673Y-159500000D01*
X142912681Y-158997307D01*
X142673630Y-158639542D01*
X143846586Y-157466586D01*
X143971231Y-157280043D01*
X143995733Y-157156862D01*
X144015000Y-157060000D01*
X144015000Y-148855825D01*
X144025448Y-148845395D01*
X144139869Y-148569839D01*
X144140130Y-148271470D01*
X144026189Y-147995714D01*
X144024992Y-147994515D01*
X144156586Y-147906586D01*
X144315000Y-147748172D01*
X144315000Y-162981827D01*
G36*
X100878957Y-130302957D02*
X101160761Y-130724708D01*
X101582512Y-131006512D01*
X101583926Y-131006793D01*
X101655736Y-131114264D01*
X102705736Y-132164264D01*
X102900390Y-132294328D01*
X103130000Y-132340000D01*
X124679252Y-132340000D01*
X124624552Y-132394605D01*
X124510131Y-132670161D01*
X124509870Y-132968530D01*
X124623811Y-133244286D01*
X124834605Y-133455448D01*
X125110161Y-133569869D01*
X125156738Y-133569910D01*
X130583413Y-138996586D01*
X130706579Y-139078883D01*
X130769957Y-139121231D01*
X130990000Y-139165000D01*
X141041828Y-139165000D01*
X143685000Y-141808173D01*
X143685000Y-144321827D01*
X142693657Y-143330485D01*
X142912681Y-143002693D01*
X143012673Y-142500000D01*
X142912681Y-141997307D01*
X142627928Y-141571145D01*
X142201766Y-141286392D01*
X141699073Y-141186400D01*
X140300927Y-141186400D01*
X139798234Y-141286392D01*
X139372072Y-141571145D01*
X139135633Y-141925000D01*
X130364367Y-141925000D01*
X130127928Y-141571145D01*
X129701766Y-141286392D01*
X129199073Y-141186400D01*
X127800927Y-141186400D01*
X127298234Y-141286392D01*
X126872072Y-141571145D01*
X126587319Y-141997307D01*
X126487327Y-142500000D01*
X126587319Y-143002693D01*
X126872072Y-143428855D01*
X127298234Y-143713608D01*
X127800927Y-143813600D01*
X129199073Y-143813600D01*
X129701766Y-143713608D01*
X130127928Y-143428855D01*
X130364367Y-143075000D01*
X139135633Y-143075000D01*
X139372072Y-143428855D01*
X139798234Y-143713608D01*
X140300927Y-143813600D01*
X141550428Y-143813600D01*
X142785000Y-145048173D01*
X142785000Y-146174262D01*
X142724552Y-146234605D01*
X142610131Y-146510161D01*
X142610088Y-146559225D01*
X142201766Y-146286392D01*
X141699073Y-146186400D01*
X140300927Y-146186400D01*
X139798234Y-146286392D01*
X139372072Y-146571145D01*
X139135633Y-146925000D01*
X130364367Y-146925000D01*
X130127928Y-146571145D01*
X129701766Y-146286392D01*
X129199073Y-146186400D01*
X127800927Y-146186400D01*
X127298234Y-146286392D01*
X126872072Y-146571145D01*
X126802678Y-146675000D01*
X125271447Y-146675000D01*
X125128505Y-146577332D01*
X124950000Y-146541184D01*
X124050000Y-146541184D01*
X123883240Y-146572562D01*
X123730081Y-146671117D01*
X123627332Y-146821495D01*
X123591184Y-147000000D01*
X123591184Y-147500000D01*
X123622562Y-147666760D01*
X123721117Y-147819919D01*
X123815965Y-147884726D01*
X123677273Y-147942175D01*
X123492174Y-148127273D01*
X123392000Y-148369116D01*
X123392000Y-148481500D01*
X123556500Y-148646000D01*
X124396000Y-148646000D01*
X124396000Y-148626000D01*
X124604000Y-148626000D01*
X124604000Y-148646000D01*
X125443500Y-148646000D01*
X125608000Y-148481500D01*
X125608000Y-148369116D01*
X125507826Y-148127273D01*
X125322727Y-147942175D01*
X125183488Y-147884500D01*
X125269919Y-147828883D01*
X125272572Y-147825000D01*
X126551974Y-147825000D01*
X126587319Y-148002693D01*
X126872072Y-148428855D01*
X127298234Y-148713608D01*
X127800927Y-148813600D01*
X129199073Y-148813600D01*
X129701766Y-148713608D01*
X130127928Y-148428855D01*
X130364367Y-148075000D01*
X139135633Y-148075000D01*
X139372072Y-148428855D01*
X139798234Y-148713608D01*
X140300927Y-148813600D01*
X141699073Y-148813600D01*
X142201766Y-148713608D01*
X142627928Y-148428855D01*
X142640008Y-148410776D01*
X142639870Y-148568530D01*
X142753811Y-148844286D01*
X142865000Y-148955669D01*
X142865000Y-156821828D01*
X141500428Y-158186400D01*
X140300927Y-158186400D01*
X139798234Y-158286392D01*
X139372072Y-158571145D01*
X139135633Y-158925000D01*
X130364367Y-158925000D01*
X130127928Y-158571145D01*
X129701766Y-158286392D01*
X129199073Y-158186400D01*
X127800927Y-158186400D01*
X127298234Y-158286392D01*
X126872072Y-158571145D01*
X126635633Y-158925000D01*
X124540000Y-158925000D01*
X124319957Y-158968769D01*
X124133414Y-159093414D01*
X121773414Y-161453414D01*
X121648769Y-161639957D01*
X121605000Y-161860000D01*
X121605000Y-163071828D01*
X114931828Y-169745000D01*
X98850000Y-169745000D01*
X98754267Y-169764042D01*
X98791870Y-169575000D01*
X104150000Y-169575000D01*
X104370043Y-169531231D01*
X104556586Y-169406586D01*
X117086586Y-156876586D01*
X117211231Y-156690043D01*
X117218517Y-156653414D01*
X117255000Y-156470000D01*
X117255000Y-149018500D01*
X123392000Y-149018500D01*
X123392000Y-149130884D01*
X123492174Y-149372727D01*
X123677273Y-149557825D01*
X123919115Y-149658000D01*
X124231500Y-149658000D01*
X124396000Y-149493500D01*
X124396000Y-148854000D01*
X124604000Y-148854000D01*
X124604000Y-149493500D01*
X124768500Y-149658000D01*
X125080885Y-149658000D01*
X125322727Y-149557825D01*
X125507826Y-149372727D01*
X125608000Y-149130884D01*
X125608000Y-149018500D01*
X125443500Y-148854000D01*
X124604000Y-148854000D01*
X124396000Y-148854000D01*
X123556500Y-148854000D01*
X123392000Y-149018500D01*
X117255000Y-149018500D01*
X117255000Y-145740000D01*
X117211231Y-145519957D01*
X117086586Y-145333413D01*
X113386586Y-141633414D01*
X113200043Y-141508769D01*
X112980000Y-141465000D01*
X110268173Y-141465000D01*
X100526586Y-131723414D01*
X100340043Y-131598769D01*
X100323880Y-131595554D01*
X100120000Y-131555000D01*
X93268172Y-131555000D01*
X92598642Y-130885470D01*
X92839239Y-130724708D01*
X93121043Y-130302957D01*
X93190000Y-129956288D01*
X93258957Y-130302957D01*
X93540761Y-130724708D01*
X93962512Y-131006512D01*
X94460000Y-131105469D01*
X94957488Y-131006512D01*
X95379239Y-130724708D01*
X95661043Y-130302957D01*
X95730000Y-129956288D01*
X95798957Y-130302957D01*
X96080761Y-130724708D01*
X96502512Y-131006512D01*
X97000000Y-131105469D01*
X97497488Y-131006512D01*
X97919239Y-130724708D01*
X98201043Y-130302957D01*
X98270000Y-129956288D01*
X98338957Y-130302957D01*
X98620761Y-130724708D01*
X99042512Y-131006512D01*
X99540000Y-131105469D01*
X100037488Y-131006512D01*
X100459239Y-130724708D01*
X100741043Y-130302957D01*
X100810000Y-129956288D01*
X100878957Y-130302957D01*
X100878957Y-130302957D01*
G37*
X100878957Y-130302957D02*
X101160761Y-130724708D01*
X101582512Y-131006512D01*
X101583926Y-131006793D01*
X101655736Y-131114264D01*
X102705736Y-132164264D01*
X102900390Y-132294328D01*
X103130000Y-132340000D01*
X124679252Y-132340000D01*
X124624552Y-132394605D01*
X124510131Y-132670161D01*
X124509870Y-132968530D01*
X124623811Y-133244286D01*
X124834605Y-133455448D01*
X125110161Y-133569869D01*
X125156738Y-133569910D01*
X130583413Y-138996586D01*
X130706579Y-139078883D01*
X130769957Y-139121231D01*
X130990000Y-139165000D01*
X141041828Y-139165000D01*
X143685000Y-141808173D01*
X143685000Y-144321827D01*
X142693657Y-143330485D01*
X142912681Y-143002693D01*
X143012673Y-142500000D01*
X142912681Y-141997307D01*
X142627928Y-141571145D01*
X142201766Y-141286392D01*
X141699073Y-141186400D01*
X140300927Y-141186400D01*
X139798234Y-141286392D01*
X139372072Y-141571145D01*
X139135633Y-141925000D01*
X130364367Y-141925000D01*
X130127928Y-141571145D01*
X129701766Y-141286392D01*
X129199073Y-141186400D01*
X127800927Y-141186400D01*
X127298234Y-141286392D01*
X126872072Y-141571145D01*
X126587319Y-141997307D01*
X126487327Y-142500000D01*
X126587319Y-143002693D01*
X126872072Y-143428855D01*
X127298234Y-143713608D01*
X127800927Y-143813600D01*
X129199073Y-143813600D01*
X129701766Y-143713608D01*
X130127928Y-143428855D01*
X130364367Y-143075000D01*
X139135633Y-143075000D01*
X139372072Y-143428855D01*
X139798234Y-143713608D01*
X140300927Y-143813600D01*
X141550428Y-143813600D01*
X142785000Y-145048173D01*
X142785000Y-146174262D01*
X142724552Y-146234605D01*
X142610131Y-146510161D01*
X142610088Y-146559225D01*
X142201766Y-146286392D01*
X141699073Y-146186400D01*
X140300927Y-146186400D01*
X139798234Y-146286392D01*
X139372072Y-146571145D01*
X139135633Y-146925000D01*
X130364367Y-146925000D01*
X130127928Y-146571145D01*
X129701766Y-146286392D01*
X129199073Y-146186400D01*
X127800927Y-146186400D01*
X127298234Y-146286392D01*
X126872072Y-146571145D01*
X126802678Y-146675000D01*
X125271447Y-146675000D01*
X125128505Y-146577332D01*
X124950000Y-146541184D01*
X124050000Y-146541184D01*
X123883240Y-146572562D01*
X123730081Y-146671117D01*
X123627332Y-146821495D01*
X123591184Y-147000000D01*
X123591184Y-147500000D01*
X123622562Y-147666760D01*
X123721117Y-147819919D01*
X123815965Y-147884726D01*
X123677273Y-147942175D01*
X123492174Y-148127273D01*
X123392000Y-148369116D01*
X123392000Y-148481500D01*
X123556500Y-148646000D01*
X124396000Y-148646000D01*
X124396000Y-148626000D01*
X124604000Y-148626000D01*
X124604000Y-148646000D01*
X125443500Y-148646000D01*
X125608000Y-148481500D01*
X125608000Y-148369116D01*
X125507826Y-148127273D01*
X125322727Y-147942175D01*
X125183488Y-147884500D01*
X125269919Y-147828883D01*
X125272572Y-147825000D01*
X126551974Y-147825000D01*
X126587319Y-148002693D01*
X126872072Y-148428855D01*
X127298234Y-148713608D01*
X127800927Y-148813600D01*
X129199073Y-148813600D01*
X129701766Y-148713608D01*
X130127928Y-148428855D01*
X130364367Y-148075000D01*
X139135633Y-148075000D01*
X139372072Y-148428855D01*
X139798234Y-148713608D01*
X140300927Y-148813600D01*
X141699073Y-148813600D01*
X142201766Y-148713608D01*
X142627928Y-148428855D01*
X142640008Y-148410776D01*
X142639870Y-148568530D01*
X142753811Y-148844286D01*
X142865000Y-148955669D01*
X142865000Y-156821828D01*
X141500428Y-158186400D01*
X140300927Y-158186400D01*
X139798234Y-158286392D01*
X139372072Y-158571145D01*
X139135633Y-158925000D01*
X130364367Y-158925000D01*
X130127928Y-158571145D01*
X129701766Y-158286392D01*
X129199073Y-158186400D01*
X127800927Y-158186400D01*
X127298234Y-158286392D01*
X126872072Y-158571145D01*
X126635633Y-158925000D01*
X124540000Y-158925000D01*
X124319957Y-158968769D01*
X124133414Y-159093414D01*
X121773414Y-161453414D01*
X121648769Y-161639957D01*
X121605000Y-161860000D01*
X121605000Y-163071828D01*
X114931828Y-169745000D01*
X98850000Y-169745000D01*
X98754267Y-169764042D01*
X98791870Y-169575000D01*
X104150000Y-169575000D01*
X104370043Y-169531231D01*
X104556586Y-169406586D01*
X117086586Y-156876586D01*
X117211231Y-156690043D01*
X117218517Y-156653414D01*
X117255000Y-156470000D01*
X117255000Y-149018500D01*
X123392000Y-149018500D01*
X123392000Y-149130884D01*
X123492174Y-149372727D01*
X123677273Y-149557825D01*
X123919115Y-149658000D01*
X124231500Y-149658000D01*
X124396000Y-149493500D01*
X124396000Y-148854000D01*
X124604000Y-148854000D01*
X124604000Y-149493500D01*
X124768500Y-149658000D01*
X125080885Y-149658000D01*
X125322727Y-149557825D01*
X125507826Y-149372727D01*
X125608000Y-149130884D01*
X125608000Y-149018500D01*
X125443500Y-148854000D01*
X124604000Y-148854000D01*
X124396000Y-148854000D01*
X123556500Y-148854000D01*
X123392000Y-149018500D01*
X117255000Y-149018500D01*
X117255000Y-145740000D01*
X117211231Y-145519957D01*
X117086586Y-145333413D01*
X113386586Y-141633414D01*
X113200043Y-141508769D01*
X112980000Y-141465000D01*
X110268173Y-141465000D01*
X100526586Y-131723414D01*
X100340043Y-131598769D01*
X100323880Y-131595554D01*
X100120000Y-131555000D01*
X93268172Y-131555000D01*
X92598642Y-130885470D01*
X92839239Y-130724708D01*
X93121043Y-130302957D01*
X93190000Y-129956288D01*
X93258957Y-130302957D01*
X93540761Y-130724708D01*
X93962512Y-131006512D01*
X94460000Y-131105469D01*
X94957488Y-131006512D01*
X95379239Y-130724708D01*
X95661043Y-130302957D01*
X95730000Y-129956288D01*
X95798957Y-130302957D01*
X96080761Y-130724708D01*
X96502512Y-131006512D01*
X97000000Y-131105469D01*
X97497488Y-131006512D01*
X97919239Y-130724708D01*
X98201043Y-130302957D01*
X98270000Y-129956288D01*
X98338957Y-130302957D01*
X98620761Y-130724708D01*
X99042512Y-131006512D01*
X99540000Y-131105469D01*
X100037488Y-131006512D01*
X100459239Y-130724708D01*
X100741043Y-130302957D01*
X100810000Y-129956288D01*
X100878957Y-130302957D01*
G36*
X89425000Y-146418173D02*
X89425000Y-148717289D01*
X88576826Y-149565464D01*
X88292073Y-149991626D01*
X88192082Y-150494319D01*
X88275107Y-150911720D01*
X82072885Y-157113943D01*
X81655484Y-157030917D01*
X81152791Y-157130908D01*
X80726628Y-157415661D01*
X79737991Y-158404299D01*
X79453238Y-158830461D01*
X79353247Y-159333154D01*
X79453238Y-159835847D01*
X79737991Y-160262009D01*
X80164153Y-160546762D01*
X80666846Y-160646753D01*
X80720106Y-160636159D01*
X80754579Y-160687751D01*
X82925000Y-162858173D01*
X82925000Y-164564704D01*
X82883240Y-164572562D01*
X82730081Y-164671117D01*
X82627332Y-164821495D01*
X82591184Y-165000000D01*
X82591184Y-165500000D01*
X82622562Y-165666760D01*
X82721117Y-165819919D01*
X82815965Y-165884726D01*
X82677273Y-165942175D01*
X82492174Y-166127273D01*
X82392000Y-166369116D01*
X82392000Y-166481500D01*
X82556500Y-166646000D01*
X83396000Y-166646000D01*
X83396000Y-166626000D01*
X83604000Y-166626000D01*
X83604000Y-166646000D01*
X84443500Y-166646000D01*
X84500000Y-166589500D01*
X84556500Y-166646000D01*
X85396000Y-166646000D01*
X85396000Y-166626000D01*
X85604000Y-166626000D01*
X85604000Y-166646000D01*
X86443500Y-166646000D01*
X86608000Y-166481500D01*
X86608000Y-166369116D01*
X86507826Y-166127273D01*
X86322727Y-165942175D01*
X86183488Y-165884500D01*
X86269919Y-165828883D01*
X86372668Y-165678505D01*
X86408816Y-165500000D01*
X86408816Y-165000000D01*
X86377438Y-164833240D01*
X86278883Y-164680081D01*
X86128505Y-164577332D01*
X86075000Y-164566497D01*
X86075000Y-163228172D01*
X87722731Y-161580442D01*
X87726628Y-161584339D01*
X88152791Y-161869092D01*
X88655484Y-161969083D01*
X89072885Y-161886057D01*
X95275107Y-168088280D01*
X95192082Y-168505681D01*
X95247510Y-168784337D01*
X94426586Y-167963414D01*
X94240043Y-167838769D01*
X94020000Y-167795000D01*
X82198173Y-167795000D01*
X81421673Y-167018500D01*
X82392000Y-167018500D01*
X82392000Y-167130884D01*
X82492174Y-167372727D01*
X82677273Y-167557825D01*
X82919115Y-167658000D01*
X83231500Y-167658000D01*
X83396000Y-167493500D01*
X83396000Y-166854000D01*
X83604000Y-166854000D01*
X83604000Y-167493500D01*
X83768500Y-167658000D01*
X84080885Y-167658000D01*
X84322727Y-167557825D01*
X84500000Y-167380553D01*
X84677273Y-167557825D01*
X84919115Y-167658000D01*
X85231500Y-167658000D01*
X85396000Y-167493500D01*
X85396000Y-166854000D01*
X85604000Y-166854000D01*
X85604000Y-167493500D01*
X85768500Y-167658000D01*
X86080885Y-167658000D01*
X86322727Y-167557825D01*
X86507826Y-167372727D01*
X86608000Y-167130884D01*
X86608000Y-167018500D01*
X86443500Y-166854000D01*
X85604000Y-166854000D01*
X85396000Y-166854000D01*
X84556500Y-166854000D01*
X84500000Y-166910500D01*
X84443500Y-166854000D01*
X83604000Y-166854000D01*
X83396000Y-166854000D01*
X82556500Y-166854000D01*
X82392000Y-167018500D01*
X81421673Y-167018500D01*
X76665000Y-162261828D01*
X76665000Y-157077104D01*
X76713911Y-157028193D01*
X77131312Y-157111219D01*
X77634005Y-157011228D01*
X78060167Y-156726475D01*
X79048805Y-155737838D01*
X79333558Y-155311675D01*
X79433549Y-154808982D01*
X79350523Y-154391581D01*
X85552746Y-148189359D01*
X85970147Y-148272384D01*
X86472840Y-148172393D01*
X86899002Y-147887640D01*
X87887640Y-146899003D01*
X88172393Y-146472840D01*
X88272384Y-145970147D01*
X88172393Y-145467454D01*
X87887640Y-145041292D01*
X87461478Y-144756539D01*
X87039466Y-144672596D01*
X87039466Y-144032638D01*
X89425000Y-146418173D01*
X89425000Y-146418173D01*
G37*
X89425000Y-146418173D02*
X89425000Y-148717289D01*
X88576826Y-149565464D01*
X88292073Y-149991626D01*
X88192082Y-150494319D01*
X88275107Y-150911720D01*
X82072885Y-157113943D01*
X81655484Y-157030917D01*
X81152791Y-157130908D01*
X80726628Y-157415661D01*
X79737991Y-158404299D01*
X79453238Y-158830461D01*
X79353247Y-159333154D01*
X79453238Y-159835847D01*
X79737991Y-160262009D01*
X80164153Y-160546762D01*
X80666846Y-160646753D01*
X80720106Y-160636159D01*
X80754579Y-160687751D01*
X82925000Y-162858173D01*
X82925000Y-164564704D01*
X82883240Y-164572562D01*
X82730081Y-164671117D01*
X82627332Y-164821495D01*
X82591184Y-165000000D01*
X82591184Y-165500000D01*
X82622562Y-165666760D01*
X82721117Y-165819919D01*
X82815965Y-165884726D01*
X82677273Y-165942175D01*
X82492174Y-166127273D01*
X82392000Y-166369116D01*
X82392000Y-166481500D01*
X82556500Y-166646000D01*
X83396000Y-166646000D01*
X83396000Y-166626000D01*
X83604000Y-166626000D01*
X83604000Y-166646000D01*
X84443500Y-166646000D01*
X84500000Y-166589500D01*
X84556500Y-166646000D01*
X85396000Y-166646000D01*
X85396000Y-166626000D01*
X85604000Y-166626000D01*
X85604000Y-166646000D01*
X86443500Y-166646000D01*
X86608000Y-166481500D01*
X86608000Y-166369116D01*
X86507826Y-166127273D01*
X86322727Y-165942175D01*
X86183488Y-165884500D01*
X86269919Y-165828883D01*
X86372668Y-165678505D01*
X86408816Y-165500000D01*
X86408816Y-165000000D01*
X86377438Y-164833240D01*
X86278883Y-164680081D01*
X86128505Y-164577332D01*
X86075000Y-164566497D01*
X86075000Y-163228172D01*
X87722731Y-161580442D01*
X87726628Y-161584339D01*
X88152791Y-161869092D01*
X88655484Y-161969083D01*
X89072885Y-161886057D01*
X95275107Y-168088280D01*
X95192082Y-168505681D01*
X95247510Y-168784337D01*
X94426586Y-167963414D01*
X94240043Y-167838769D01*
X94020000Y-167795000D01*
X82198173Y-167795000D01*
X81421673Y-167018500D01*
X82392000Y-167018500D01*
X82392000Y-167130884D01*
X82492174Y-167372727D01*
X82677273Y-167557825D01*
X82919115Y-167658000D01*
X83231500Y-167658000D01*
X83396000Y-167493500D01*
X83396000Y-166854000D01*
X83604000Y-166854000D01*
X83604000Y-167493500D01*
X83768500Y-167658000D01*
X84080885Y-167658000D01*
X84322727Y-167557825D01*
X84500000Y-167380553D01*
X84677273Y-167557825D01*
X84919115Y-167658000D01*
X85231500Y-167658000D01*
X85396000Y-167493500D01*
X85396000Y-166854000D01*
X85604000Y-166854000D01*
X85604000Y-167493500D01*
X85768500Y-167658000D01*
X86080885Y-167658000D01*
X86322727Y-167557825D01*
X86507826Y-167372727D01*
X86608000Y-167130884D01*
X86608000Y-167018500D01*
X86443500Y-166854000D01*
X85604000Y-166854000D01*
X85396000Y-166854000D01*
X84556500Y-166854000D01*
X84500000Y-166910500D01*
X84443500Y-166854000D01*
X83604000Y-166854000D01*
X83396000Y-166854000D01*
X82556500Y-166854000D01*
X82392000Y-167018500D01*
X81421673Y-167018500D01*
X76665000Y-162261828D01*
X76665000Y-157077104D01*
X76713911Y-157028193D01*
X77131312Y-157111219D01*
X77634005Y-157011228D01*
X78060167Y-156726475D01*
X79048805Y-155737838D01*
X79333558Y-155311675D01*
X79433549Y-154808982D01*
X79350523Y-154391581D01*
X85552746Y-148189359D01*
X85970147Y-148272384D01*
X86472840Y-148172393D01*
X86899002Y-147887640D01*
X87887640Y-146899003D01*
X88172393Y-146472840D01*
X88272384Y-145970147D01*
X88172393Y-145467454D01*
X87887640Y-145041292D01*
X87461478Y-144756539D01*
X87039466Y-144672596D01*
X87039466Y-144032638D01*
X89425000Y-146418173D01*
G36*
X88178957Y-130302957D02*
X88460761Y-130724708D01*
X88805000Y-130954720D01*
X88805000Y-131000000D01*
X88841932Y-131185672D01*
X88848769Y-131220043D01*
X88973414Y-131406586D01*
X90663414Y-133096586D01*
X90849957Y-133221231D01*
X91070000Y-133265000D01*
X99681828Y-133265000D01*
X109483413Y-143066586D01*
X109669957Y-143191231D01*
X109890000Y-143235000D01*
X112721828Y-143235000D01*
X113925000Y-144438172D01*
X113925000Y-146564704D01*
X113883240Y-146572562D01*
X113730081Y-146671117D01*
X113698712Y-146717028D01*
X113689957Y-146718769D01*
X113503413Y-146843414D01*
X112031626Y-148315201D01*
X111997012Y-148292073D01*
X111494319Y-148192082D01*
X110991626Y-148292073D01*
X110565463Y-148576826D01*
X109576826Y-149565464D01*
X109292073Y-149991626D01*
X109192082Y-150494319D01*
X109275107Y-150911720D01*
X103072885Y-157113943D01*
X102655484Y-157030917D01*
X102152791Y-157130908D01*
X101726628Y-157415661D01*
X100737991Y-158404299D01*
X100453238Y-158830461D01*
X100353247Y-159333154D01*
X100453238Y-159835847D01*
X100737991Y-160262009D01*
X101164153Y-160546762D01*
X101666846Y-160646753D01*
X102169539Y-160546762D01*
X102595701Y-160262009D01*
X103584339Y-159273372D01*
X103869092Y-158847209D01*
X103969083Y-158344516D01*
X103886057Y-157927115D01*
X110088280Y-151724893D01*
X110505681Y-151807918D01*
X111008374Y-151707927D01*
X111434536Y-151423174D01*
X112423174Y-150434537D01*
X112707927Y-150008374D01*
X112807918Y-149505681D01*
X112751438Y-149221734D01*
X112954672Y-149018500D01*
X113392000Y-149018500D01*
X113392000Y-149130884D01*
X113492174Y-149372727D01*
X113677273Y-149557825D01*
X113919115Y-149658000D01*
X114231500Y-149658000D01*
X114396000Y-149493500D01*
X114396000Y-148854000D01*
X114604000Y-148854000D01*
X114604000Y-149493500D01*
X114768500Y-149658000D01*
X115080885Y-149658000D01*
X115322727Y-149557825D01*
X115507826Y-149372727D01*
X115608000Y-149130884D01*
X115608000Y-149018500D01*
X115443500Y-148854000D01*
X114604000Y-148854000D01*
X114396000Y-148854000D01*
X113556500Y-148854000D01*
X113392000Y-149018500D01*
X112954672Y-149018500D01*
X113441836Y-148531336D01*
X113556500Y-148646000D01*
X114396000Y-148646000D01*
X114396000Y-148626000D01*
X114604000Y-148626000D01*
X114604000Y-148646000D01*
X115443500Y-148646000D01*
X115608000Y-148481500D01*
X115608000Y-148369116D01*
X115507826Y-148127273D01*
X115322727Y-147942175D01*
X115183488Y-147884500D01*
X115269919Y-147828883D01*
X115372668Y-147678505D01*
X115408816Y-147500000D01*
X115408816Y-147000000D01*
X115377438Y-146833240D01*
X115278883Y-146680081D01*
X115128505Y-146577332D01*
X115075000Y-146566497D01*
X115075000Y-144948173D01*
X116105000Y-145978173D01*
X116105000Y-156231828D01*
X103911828Y-168425000D01*
X98282711Y-168425000D01*
X97434536Y-167576826D01*
X97008374Y-167292073D01*
X96505681Y-167192082D01*
X96088280Y-167275107D01*
X89886057Y-161072885D01*
X89969083Y-160655484D01*
X89869092Y-160152791D01*
X89584339Y-159726628D01*
X88595701Y-158737991D01*
X88169539Y-158453238D01*
X87666846Y-158353247D01*
X87164153Y-158453238D01*
X86737991Y-158737991D01*
X86453238Y-159164153D01*
X86353247Y-159666846D01*
X86453238Y-160169539D01*
X86737991Y-160595701D01*
X86909559Y-160767269D01*
X85093414Y-162583414D01*
X84968769Y-162769957D01*
X84925000Y-162990000D01*
X84925000Y-164564704D01*
X84883240Y-164572562D01*
X84730081Y-164671117D01*
X84627332Y-164821495D01*
X84591184Y-165000000D01*
X84591184Y-165500000D01*
X84622562Y-165666760D01*
X84721117Y-165819919D01*
X84815965Y-165884726D01*
X84677273Y-165942175D01*
X84500000Y-166119447D01*
X84322727Y-165942175D01*
X84183488Y-165884500D01*
X84269919Y-165828883D01*
X84372668Y-165678505D01*
X84408816Y-165500000D01*
X84408816Y-165000000D01*
X84377438Y-164833240D01*
X84278883Y-164680081D01*
X84128505Y-164577332D01*
X84075000Y-164566497D01*
X84075000Y-162620000D01*
X84031231Y-162399957D01*
X83942115Y-162266586D01*
X83906586Y-162213413D01*
X81775441Y-160082269D01*
X82584339Y-159273372D01*
X82869092Y-158847209D01*
X82969083Y-158344516D01*
X82886057Y-157927115D01*
X89088280Y-151724893D01*
X89505681Y-151807918D01*
X90008374Y-151707927D01*
X90434536Y-151423174D01*
X91423174Y-150434537D01*
X91707927Y-150008374D01*
X91807918Y-149505681D01*
X91707927Y-149002988D01*
X91423174Y-148576826D01*
X90997012Y-148292073D01*
X90575000Y-148208130D01*
X90575000Y-146180000D01*
X90531231Y-145959957D01*
X90484130Y-145889466D01*
X90406587Y-145773414D01*
X86035000Y-141401828D01*
X86035000Y-139041215D01*
X86656548Y-139041215D01*
X86756539Y-139543908D01*
X87041292Y-139970070D01*
X88029929Y-140958708D01*
X88456092Y-141243461D01*
X88958785Y-141343452D01*
X89376186Y-141260426D01*
X95578408Y-147462649D01*
X95495383Y-147880050D01*
X95595374Y-148382743D01*
X95880127Y-148808905D01*
X96728301Y-149657080D01*
X96728301Y-153980971D01*
X96772070Y-154201014D01*
X96896715Y-154387557D01*
X97290190Y-154781032D01*
X97202457Y-154868765D01*
X96917704Y-155294927D01*
X96817713Y-155797620D01*
X96900739Y-156215021D01*
X95790760Y-157325000D01*
X93578172Y-157325000D01*
X93482801Y-157229629D01*
X93504617Y-157119950D01*
X93404626Y-156617257D01*
X93119873Y-156191094D01*
X92131235Y-155202457D01*
X91705073Y-154917704D01*
X91202380Y-154817713D01*
X90699687Y-154917704D01*
X90273525Y-155202457D01*
X89988772Y-155628619D01*
X89888781Y-156131312D01*
X89988772Y-156634005D01*
X90273525Y-157060167D01*
X91262162Y-158048805D01*
X91688325Y-158333558D01*
X92191018Y-158433549D01*
X92693711Y-158333558D01*
X92853571Y-158226743D01*
X92933414Y-158306586D01*
X93119957Y-158431231D01*
X93128837Y-158432997D01*
X98962065Y-164266224D01*
X98827607Y-164467454D01*
X98727616Y-164970147D01*
X98827607Y-165472840D01*
X99112360Y-165899002D01*
X100100997Y-166887640D01*
X100527160Y-167172393D01*
X101029853Y-167272384D01*
X101532546Y-167172393D01*
X101958708Y-166887640D01*
X102243461Y-166461478D01*
X102343452Y-165958785D01*
X102243461Y-165456092D01*
X101958708Y-165029929D01*
X100970070Y-164041292D01*
X100543908Y-163756539D01*
X100041215Y-163656548D01*
X99873973Y-163689814D01*
X94659160Y-158475000D01*
X96028932Y-158475000D01*
X96248975Y-158431231D01*
X96435518Y-158306586D01*
X97713911Y-157028193D01*
X98131312Y-157111219D01*
X98634005Y-157011228D01*
X99060167Y-156726475D01*
X100048805Y-155737838D01*
X100333558Y-155311675D01*
X100433549Y-154808982D01*
X100333558Y-154306289D01*
X100048805Y-153880127D01*
X99622643Y-153595374D01*
X99119950Y-153495383D01*
X98617257Y-153595374D01*
X98191094Y-153880127D01*
X98103362Y-153967860D01*
X97878301Y-153742799D01*
X97878301Y-150166239D01*
X98300313Y-150082296D01*
X98726475Y-149797543D01*
X99011228Y-149371381D01*
X99095171Y-148949369D01*
X105554563Y-148949369D01*
X105774606Y-148905600D01*
X105961149Y-148780955D01*
X106552746Y-148189358D01*
X106970147Y-148272384D01*
X107472840Y-148172393D01*
X107899002Y-147887640D01*
X108887640Y-146899003D01*
X109172393Y-146472840D01*
X109272384Y-145970147D01*
X109172393Y-145467454D01*
X108887640Y-145041292D01*
X108461478Y-144756539D01*
X107958785Y-144656548D01*
X107456092Y-144756539D01*
X107029929Y-145041292D01*
X106041292Y-146029930D01*
X105756539Y-146456092D01*
X105656548Y-146958785D01*
X105739574Y-147376186D01*
X105316391Y-147799369D01*
X98586012Y-147799369D01*
X97737837Y-146951195D01*
X97311675Y-146666442D01*
X96808982Y-146566451D01*
X96391581Y-146649476D01*
X90189358Y-140447254D01*
X90272384Y-140029853D01*
X90172393Y-139527160D01*
X89887640Y-139100997D01*
X88899002Y-138112360D01*
X88472840Y-137827607D01*
X87970147Y-137727616D01*
X87467454Y-137827607D01*
X87041292Y-138112360D01*
X86756539Y-138538522D01*
X86656548Y-139041215D01*
X86035000Y-139041215D01*
X86035000Y-135268500D01*
X86342000Y-135268500D01*
X86342000Y-135580885D01*
X86442175Y-135822727D01*
X86627273Y-136007826D01*
X86869116Y-136108000D01*
X86981500Y-136108000D01*
X87146000Y-135943500D01*
X87146000Y-135104000D01*
X86506500Y-135104000D01*
X86342000Y-135268500D01*
X86035000Y-135268500D01*
X86035000Y-134419115D01*
X86342000Y-134419115D01*
X86342000Y-134731500D01*
X86506500Y-134896000D01*
X87146000Y-134896000D01*
X87146000Y-134056500D01*
X86981500Y-133892000D01*
X86869116Y-133892000D01*
X86627273Y-133992174D01*
X86442175Y-134177273D01*
X86342000Y-134419115D01*
X86035000Y-134419115D01*
X86035000Y-130940000D01*
X86003123Y-130779740D01*
X86265000Y-130954720D01*
X86265000Y-131250000D01*
X86296147Y-131406586D01*
X86308769Y-131470043D01*
X86433414Y-131656586D01*
X88175000Y-133398172D01*
X88175000Y-134228553D01*
X88115274Y-134315965D01*
X88057825Y-134177273D01*
X87872727Y-133992174D01*
X87630884Y-133892000D01*
X87518500Y-133892000D01*
X87354000Y-134056500D01*
X87354000Y-134896000D01*
X87374000Y-134896000D01*
X87374000Y-135104000D01*
X87354000Y-135104000D01*
X87354000Y-135943500D01*
X87518500Y-136108000D01*
X87630884Y-136108000D01*
X87872727Y-136007826D01*
X88057825Y-135822727D01*
X88115500Y-135683488D01*
X88171117Y-135769919D01*
X88321495Y-135872668D01*
X88500000Y-135908816D01*
X89000000Y-135908816D01*
X89166760Y-135877438D01*
X89319919Y-135778883D01*
X89422668Y-135628505D01*
X89458816Y-135450000D01*
X89458816Y-134550000D01*
X89427438Y-134383240D01*
X89328883Y-134230081D01*
X89325000Y-134227428D01*
X89325000Y-134138172D01*
X90275108Y-135088280D01*
X90192082Y-135505681D01*
X90292073Y-136008374D01*
X90576826Y-136434536D01*
X91565463Y-137423174D01*
X91991626Y-137707927D01*
X92494319Y-137807918D01*
X92911720Y-137724892D01*
X99113942Y-143927115D01*
X99030917Y-144344516D01*
X99130908Y-144847209D01*
X99415661Y-145273371D01*
X100404298Y-146262009D01*
X100830461Y-146546762D01*
X101333154Y-146646753D01*
X101835847Y-146546762D01*
X102262009Y-146262009D01*
X102546762Y-145835847D01*
X102646753Y-145333154D01*
X102546762Y-144830461D01*
X102262009Y-144404298D01*
X101273371Y-143415661D01*
X100847209Y-143130908D01*
X100344516Y-143030917D01*
X99927115Y-143113942D01*
X93724892Y-136911720D01*
X93807918Y-136494319D01*
X93707927Y-135991626D01*
X93423174Y-135565463D01*
X92434536Y-134576826D01*
X92008374Y-134292073D01*
X91505681Y-134192082D01*
X91088280Y-134275108D01*
X89616586Y-132803414D01*
X89430043Y-132678769D01*
X89424010Y-132677569D01*
X89210000Y-132635000D01*
X89038172Y-132635000D01*
X87415000Y-131011828D01*
X87415000Y-130954720D01*
X87759239Y-130724708D01*
X88041043Y-130302957D01*
X88110000Y-129956288D01*
X88178957Y-130302957D01*
X88178957Y-130302957D01*
G37*
X88178957Y-130302957D02*
X88460761Y-130724708D01*
X88805000Y-130954720D01*
X88805000Y-131000000D01*
X88841932Y-131185672D01*
X88848769Y-131220043D01*
X88973414Y-131406586D01*
X90663414Y-133096586D01*
X90849957Y-133221231D01*
X91070000Y-133265000D01*
X99681828Y-133265000D01*
X109483413Y-143066586D01*
X109669957Y-143191231D01*
X109890000Y-143235000D01*
X112721828Y-143235000D01*
X113925000Y-144438172D01*
X113925000Y-146564704D01*
X113883240Y-146572562D01*
X113730081Y-146671117D01*
X113698712Y-146717028D01*
X113689957Y-146718769D01*
X113503413Y-146843414D01*
X112031626Y-148315201D01*
X111997012Y-148292073D01*
X111494319Y-148192082D01*
X110991626Y-148292073D01*
X110565463Y-148576826D01*
X109576826Y-149565464D01*
X109292073Y-149991626D01*
X109192082Y-150494319D01*
X109275107Y-150911720D01*
X103072885Y-157113943D01*
X102655484Y-157030917D01*
X102152791Y-157130908D01*
X101726628Y-157415661D01*
X100737991Y-158404299D01*
X100453238Y-158830461D01*
X100353247Y-159333154D01*
X100453238Y-159835847D01*
X100737991Y-160262009D01*
X101164153Y-160546762D01*
X101666846Y-160646753D01*
X102169539Y-160546762D01*
X102595701Y-160262009D01*
X103584339Y-159273372D01*
X103869092Y-158847209D01*
X103969083Y-158344516D01*
X103886057Y-157927115D01*
X110088280Y-151724893D01*
X110505681Y-151807918D01*
X111008374Y-151707927D01*
X111434536Y-151423174D01*
X112423174Y-150434537D01*
X112707927Y-150008374D01*
X112807918Y-149505681D01*
X112751438Y-149221734D01*
X112954672Y-149018500D01*
X113392000Y-149018500D01*
X113392000Y-149130884D01*
X113492174Y-149372727D01*
X113677273Y-149557825D01*
X113919115Y-149658000D01*
X114231500Y-149658000D01*
X114396000Y-149493500D01*
X114396000Y-148854000D01*
X114604000Y-148854000D01*
X114604000Y-149493500D01*
X114768500Y-149658000D01*
X115080885Y-149658000D01*
X115322727Y-149557825D01*
X115507826Y-149372727D01*
X115608000Y-149130884D01*
X115608000Y-149018500D01*
X115443500Y-148854000D01*
X114604000Y-148854000D01*
X114396000Y-148854000D01*
X113556500Y-148854000D01*
X113392000Y-149018500D01*
X112954672Y-149018500D01*
X113441836Y-148531336D01*
X113556500Y-148646000D01*
X114396000Y-148646000D01*
X114396000Y-148626000D01*
X114604000Y-148626000D01*
X114604000Y-148646000D01*
X115443500Y-148646000D01*
X115608000Y-148481500D01*
X115608000Y-148369116D01*
X115507826Y-148127273D01*
X115322727Y-147942175D01*
X115183488Y-147884500D01*
X115269919Y-147828883D01*
X115372668Y-147678505D01*
X115408816Y-147500000D01*
X115408816Y-147000000D01*
X115377438Y-146833240D01*
X115278883Y-146680081D01*
X115128505Y-146577332D01*
X115075000Y-146566497D01*
X115075000Y-144948173D01*
X116105000Y-145978173D01*
X116105000Y-156231828D01*
X103911828Y-168425000D01*
X98282711Y-168425000D01*
X97434536Y-167576826D01*
X97008374Y-167292073D01*
X96505681Y-167192082D01*
X96088280Y-167275107D01*
X89886057Y-161072885D01*
X89969083Y-160655484D01*
X89869092Y-160152791D01*
X89584339Y-159726628D01*
X88595701Y-158737991D01*
X88169539Y-158453238D01*
X87666846Y-158353247D01*
X87164153Y-158453238D01*
X86737991Y-158737991D01*
X86453238Y-159164153D01*
X86353247Y-159666846D01*
X86453238Y-160169539D01*
X86737991Y-160595701D01*
X86909559Y-160767269D01*
X85093414Y-162583414D01*
X84968769Y-162769957D01*
X84925000Y-162990000D01*
X84925000Y-164564704D01*
X84883240Y-164572562D01*
X84730081Y-164671117D01*
X84627332Y-164821495D01*
X84591184Y-165000000D01*
X84591184Y-165500000D01*
X84622562Y-165666760D01*
X84721117Y-165819919D01*
X84815965Y-165884726D01*
X84677273Y-165942175D01*
X84500000Y-166119447D01*
X84322727Y-165942175D01*
X84183488Y-165884500D01*
X84269919Y-165828883D01*
X84372668Y-165678505D01*
X84408816Y-165500000D01*
X84408816Y-165000000D01*
X84377438Y-164833240D01*
X84278883Y-164680081D01*
X84128505Y-164577332D01*
X84075000Y-164566497D01*
X84075000Y-162620000D01*
X84031231Y-162399957D01*
X83942115Y-162266586D01*
X83906586Y-162213413D01*
X81775441Y-160082269D01*
X82584339Y-159273372D01*
X82869092Y-158847209D01*
X82969083Y-158344516D01*
X82886057Y-157927115D01*
X89088280Y-151724893D01*
X89505681Y-151807918D01*
X90008374Y-151707927D01*
X90434536Y-151423174D01*
X91423174Y-150434537D01*
X91707927Y-150008374D01*
X91807918Y-149505681D01*
X91707927Y-149002988D01*
X91423174Y-148576826D01*
X90997012Y-148292073D01*
X90575000Y-148208130D01*
X90575000Y-146180000D01*
X90531231Y-145959957D01*
X90484130Y-145889466D01*
X90406587Y-145773414D01*
X86035000Y-141401828D01*
X86035000Y-139041215D01*
X86656548Y-139041215D01*
X86756539Y-139543908D01*
X87041292Y-139970070D01*
X88029929Y-140958708D01*
X88456092Y-141243461D01*
X88958785Y-141343452D01*
X89376186Y-141260426D01*
X95578408Y-147462649D01*
X95495383Y-147880050D01*
X95595374Y-148382743D01*
X95880127Y-148808905D01*
X96728301Y-149657080D01*
X96728301Y-153980971D01*
X96772070Y-154201014D01*
X96896715Y-154387557D01*
X97290190Y-154781032D01*
X97202457Y-154868765D01*
X96917704Y-155294927D01*
X96817713Y-155797620D01*
X96900739Y-156215021D01*
X95790760Y-157325000D01*
X93578172Y-157325000D01*
X93482801Y-157229629D01*
X93504617Y-157119950D01*
X93404626Y-156617257D01*
X93119873Y-156191094D01*
X92131235Y-155202457D01*
X91705073Y-154917704D01*
X91202380Y-154817713D01*
X90699687Y-154917704D01*
X90273525Y-155202457D01*
X89988772Y-155628619D01*
X89888781Y-156131312D01*
X89988772Y-156634005D01*
X90273525Y-157060167D01*
X91262162Y-158048805D01*
X91688325Y-158333558D01*
X92191018Y-158433549D01*
X92693711Y-158333558D01*
X92853571Y-158226743D01*
X92933414Y-158306586D01*
X93119957Y-158431231D01*
X93128837Y-158432997D01*
X98962065Y-164266224D01*
X98827607Y-164467454D01*
X98727616Y-164970147D01*
X98827607Y-165472840D01*
X99112360Y-165899002D01*
X100100997Y-166887640D01*
X100527160Y-167172393D01*
X101029853Y-167272384D01*
X101532546Y-167172393D01*
X101958708Y-166887640D01*
X102243461Y-166461478D01*
X102343452Y-165958785D01*
X102243461Y-165456092D01*
X101958708Y-165029929D01*
X100970070Y-164041292D01*
X100543908Y-163756539D01*
X100041215Y-163656548D01*
X99873973Y-163689814D01*
X94659160Y-158475000D01*
X96028932Y-158475000D01*
X96248975Y-158431231D01*
X96435518Y-158306586D01*
X97713911Y-157028193D01*
X98131312Y-157111219D01*
X98634005Y-157011228D01*
X99060167Y-156726475D01*
X100048805Y-155737838D01*
X100333558Y-155311675D01*
X100433549Y-154808982D01*
X100333558Y-154306289D01*
X100048805Y-153880127D01*
X99622643Y-153595374D01*
X99119950Y-153495383D01*
X98617257Y-153595374D01*
X98191094Y-153880127D01*
X98103362Y-153967860D01*
X97878301Y-153742799D01*
X97878301Y-150166239D01*
X98300313Y-150082296D01*
X98726475Y-149797543D01*
X99011228Y-149371381D01*
X99095171Y-148949369D01*
X105554563Y-148949369D01*
X105774606Y-148905600D01*
X105961149Y-148780955D01*
X106552746Y-148189358D01*
X106970147Y-148272384D01*
X107472840Y-148172393D01*
X107899002Y-147887640D01*
X108887640Y-146899003D01*
X109172393Y-146472840D01*
X109272384Y-145970147D01*
X109172393Y-145467454D01*
X108887640Y-145041292D01*
X108461478Y-144756539D01*
X107958785Y-144656548D01*
X107456092Y-144756539D01*
X107029929Y-145041292D01*
X106041292Y-146029930D01*
X105756539Y-146456092D01*
X105656548Y-146958785D01*
X105739574Y-147376186D01*
X105316391Y-147799369D01*
X98586012Y-147799369D01*
X97737837Y-146951195D01*
X97311675Y-146666442D01*
X96808982Y-146566451D01*
X96391581Y-146649476D01*
X90189358Y-140447254D01*
X90272384Y-140029853D01*
X90172393Y-139527160D01*
X89887640Y-139100997D01*
X88899002Y-138112360D01*
X88472840Y-137827607D01*
X87970147Y-137727616D01*
X87467454Y-137827607D01*
X87041292Y-138112360D01*
X86756539Y-138538522D01*
X86656548Y-139041215D01*
X86035000Y-139041215D01*
X86035000Y-135268500D01*
X86342000Y-135268500D01*
X86342000Y-135580885D01*
X86442175Y-135822727D01*
X86627273Y-136007826D01*
X86869116Y-136108000D01*
X86981500Y-136108000D01*
X87146000Y-135943500D01*
X87146000Y-135104000D01*
X86506500Y-135104000D01*
X86342000Y-135268500D01*
X86035000Y-135268500D01*
X86035000Y-134419115D01*
X86342000Y-134419115D01*
X86342000Y-134731500D01*
X86506500Y-134896000D01*
X87146000Y-134896000D01*
X87146000Y-134056500D01*
X86981500Y-133892000D01*
X86869116Y-133892000D01*
X86627273Y-133992174D01*
X86442175Y-134177273D01*
X86342000Y-134419115D01*
X86035000Y-134419115D01*
X86035000Y-130940000D01*
X86003123Y-130779740D01*
X86265000Y-130954720D01*
X86265000Y-131250000D01*
X86296147Y-131406586D01*
X86308769Y-131470043D01*
X86433414Y-131656586D01*
X88175000Y-133398172D01*
X88175000Y-134228553D01*
X88115274Y-134315965D01*
X88057825Y-134177273D01*
X87872727Y-133992174D01*
X87630884Y-133892000D01*
X87518500Y-133892000D01*
X87354000Y-134056500D01*
X87354000Y-134896000D01*
X87374000Y-134896000D01*
X87374000Y-135104000D01*
X87354000Y-135104000D01*
X87354000Y-135943500D01*
X87518500Y-136108000D01*
X87630884Y-136108000D01*
X87872727Y-136007826D01*
X88057825Y-135822727D01*
X88115500Y-135683488D01*
X88171117Y-135769919D01*
X88321495Y-135872668D01*
X88500000Y-135908816D01*
X89000000Y-135908816D01*
X89166760Y-135877438D01*
X89319919Y-135778883D01*
X89422668Y-135628505D01*
X89458816Y-135450000D01*
X89458816Y-134550000D01*
X89427438Y-134383240D01*
X89328883Y-134230081D01*
X89325000Y-134227428D01*
X89325000Y-134138172D01*
X90275108Y-135088280D01*
X90192082Y-135505681D01*
X90292073Y-136008374D01*
X90576826Y-136434536D01*
X91565463Y-137423174D01*
X91991626Y-137707927D01*
X92494319Y-137807918D01*
X92911720Y-137724892D01*
X99113942Y-143927115D01*
X99030917Y-144344516D01*
X99130908Y-144847209D01*
X99415661Y-145273371D01*
X100404298Y-146262009D01*
X100830461Y-146546762D01*
X101333154Y-146646753D01*
X101835847Y-146546762D01*
X102262009Y-146262009D01*
X102546762Y-145835847D01*
X102646753Y-145333154D01*
X102546762Y-144830461D01*
X102262009Y-144404298D01*
X101273371Y-143415661D01*
X100847209Y-143130908D01*
X100344516Y-143030917D01*
X99927115Y-143113942D01*
X93724892Y-136911720D01*
X93807918Y-136494319D01*
X93707927Y-135991626D01*
X93423174Y-135565463D01*
X92434536Y-134576826D01*
X92008374Y-134292073D01*
X91505681Y-134192082D01*
X91088280Y-134275108D01*
X89616586Y-132803414D01*
X89430043Y-132678769D01*
X89424010Y-132677569D01*
X89210000Y-132635000D01*
X89038172Y-132635000D01*
X87415000Y-131011828D01*
X87415000Y-130954720D01*
X87759239Y-130724708D01*
X88041043Y-130302957D01*
X88110000Y-129956288D01*
X88178957Y-130302957D01*
G36*
X78591184Y-103500000D02*
X78591184Y-104000000D01*
X78622562Y-104166760D01*
X78721117Y-104319919D01*
X78871495Y-104422668D01*
X79050000Y-104458816D01*
X79950000Y-104458816D01*
X80116760Y-104427438D01*
X80251543Y-104340708D01*
X80371495Y-104422668D01*
X80550000Y-104458816D01*
X81450000Y-104458816D01*
X81616760Y-104427438D01*
X81751543Y-104340708D01*
X81871495Y-104422668D01*
X82050000Y-104458816D01*
X82950000Y-104458816D01*
X83116760Y-104427438D01*
X83269919Y-104328883D01*
X83372668Y-104178505D01*
X83407340Y-104007289D01*
X84665382Y-105265331D01*
X84630148Y-105350183D01*
X84629853Y-105688334D01*
X84692520Y-105840000D01*
X84263676Y-105840000D01*
X83761838Y-105338162D01*
X83586649Y-105221105D01*
X83408816Y-105185732D01*
X83408816Y-105000000D01*
X83377438Y-104833240D01*
X83278883Y-104680081D01*
X83128505Y-104577332D01*
X82950000Y-104541184D01*
X82050000Y-104541184D01*
X81883240Y-104572562D01*
X81748457Y-104659292D01*
X81628505Y-104577332D01*
X81450000Y-104541184D01*
X80550000Y-104541184D01*
X80383240Y-104572562D01*
X80248457Y-104659292D01*
X80128505Y-104577332D01*
X79950000Y-104541184D01*
X79050000Y-104541184D01*
X78883240Y-104572562D01*
X78730081Y-104671117D01*
X78627332Y-104821495D01*
X78591184Y-105000000D01*
X78591184Y-105500000D01*
X78622562Y-105666760D01*
X78676153Y-105750043D01*
X78627332Y-105821495D01*
X78591184Y-106000000D01*
X78591184Y-106500000D01*
X78622562Y-106666760D01*
X78721117Y-106819919D01*
X78815965Y-106884726D01*
X78677273Y-106942175D01*
X78492174Y-107127273D01*
X78392000Y-107369116D01*
X78392000Y-107481500D01*
X78556500Y-107646000D01*
X79396000Y-107646000D01*
X79396000Y-107626000D01*
X79604000Y-107626000D01*
X79604000Y-107646000D01*
X79879943Y-107646000D01*
X79962402Y-107662402D01*
X86118267Y-107662402D01*
X86090131Y-107730161D01*
X86089870Y-108028530D01*
X86203811Y-108304286D01*
X86265000Y-108365582D01*
X86265000Y-110825280D01*
X85920761Y-111055292D01*
X85638957Y-111477043D01*
X85570000Y-111823712D01*
X85501043Y-111477043D01*
X85219239Y-111055292D01*
X84797488Y-110773488D01*
X84300000Y-110674531D01*
X83802512Y-110773488D01*
X83380761Y-111055292D01*
X83098957Y-111477043D01*
X83030000Y-111823712D01*
X82961043Y-111477043D01*
X82679239Y-111055292D01*
X82257488Y-110773488D01*
X81760000Y-110674531D01*
X81262512Y-110773488D01*
X80840761Y-111055292D01*
X80558957Y-111477043D01*
X80490000Y-111823712D01*
X80421043Y-111477043D01*
X80139239Y-111055292D01*
X79717488Y-110773488D01*
X79220000Y-110674531D01*
X78722512Y-110773488D01*
X78300761Y-111055292D01*
X78018957Y-111477043D01*
X77950000Y-111823712D01*
X77881043Y-111477043D01*
X77599239Y-111055292D01*
X77177488Y-110773488D01*
X76680000Y-110674531D01*
X76182512Y-110773488D01*
X75760761Y-111055292D01*
X75507387Y-111434494D01*
X75368387Y-111125270D01*
X74940137Y-110721772D01*
X74478061Y-110530381D01*
X74244000Y-110660531D01*
X74244000Y-111896000D01*
X74264000Y-111896000D01*
X74264000Y-112104000D01*
X74244000Y-112104000D01*
X74244000Y-113339469D01*
X74478061Y-113469619D01*
X74940137Y-113278228D01*
X75368387Y-112874730D01*
X75507387Y-112565506D01*
X75760761Y-112944708D01*
X76182512Y-113226512D01*
X76680000Y-113325469D01*
X76807029Y-113300201D01*
X81593413Y-118086586D01*
X81725735Y-118175001D01*
X81779957Y-118211231D01*
X82000000Y-118255000D01*
X94081828Y-118255000D01*
X96785000Y-120958173D01*
X96785000Y-126154262D01*
X96724552Y-126214605D01*
X96610131Y-126490161D01*
X96609870Y-126788530D01*
X96629438Y-126835888D01*
X96513413Y-126913414D01*
X94887301Y-128539527D01*
X94460000Y-128454531D01*
X93962512Y-128553488D01*
X93540761Y-128835292D01*
X93258957Y-129257043D01*
X93190000Y-129603712D01*
X93121043Y-129257043D01*
X92839239Y-128835292D01*
X92417488Y-128553488D01*
X91920000Y-128454531D01*
X91422512Y-128553488D01*
X91000761Y-128835292D01*
X90718957Y-129257043D01*
X90650000Y-129603712D01*
X90581043Y-129257043D01*
X90299239Y-128835292D01*
X89877488Y-128553488D01*
X89380000Y-128454531D01*
X88882512Y-128553488D01*
X88460761Y-128835292D01*
X88178957Y-129257043D01*
X88110000Y-129603712D01*
X88041043Y-129257043D01*
X87759239Y-128835292D01*
X87337488Y-128553488D01*
X86840000Y-128454531D01*
X86342512Y-128553488D01*
X85920761Y-128835292D01*
X85638957Y-129257043D01*
X85570000Y-129603712D01*
X85501043Y-129257043D01*
X85219239Y-128835292D01*
X84797488Y-128553488D01*
X84300000Y-128454531D01*
X83802512Y-128553488D01*
X83380761Y-128835292D01*
X83127387Y-129214494D01*
X82988387Y-128905270D01*
X82560137Y-128501772D01*
X82098061Y-128310381D01*
X81864000Y-128440531D01*
X81864000Y-129676000D01*
X81884000Y-129676000D01*
X81884000Y-129884000D01*
X81864000Y-129884000D01*
X81864000Y-131119469D01*
X82098061Y-131249619D01*
X82560137Y-131058228D01*
X82988387Y-130654730D01*
X83127387Y-130345506D01*
X83380761Y-130724708D01*
X83802512Y-131006512D01*
X84300000Y-131105469D01*
X84727301Y-131020473D01*
X84885000Y-131178173D01*
X84885000Y-141541828D01*
X84586586Y-141243414D01*
X84400043Y-141118769D01*
X84180000Y-141075000D01*
X80558173Y-141075000D01*
X79529968Y-140046796D01*
X79530147Y-139841666D01*
X79401015Y-139529143D01*
X79380000Y-139508091D01*
X79380000Y-133189950D01*
X79714975Y-132854975D01*
X79815185Y-132705000D01*
X79866716Y-132627878D01*
X79920000Y-132360000D01*
X79920000Y-130871198D01*
X80139239Y-130724708D01*
X80392613Y-130345506D01*
X80531613Y-130654730D01*
X80959863Y-131058228D01*
X81421939Y-131249619D01*
X81656000Y-131119469D01*
X81656000Y-129884000D01*
X81636000Y-129884000D01*
X81636000Y-129676000D01*
X81656000Y-129676000D01*
X81656000Y-128440531D01*
X81421939Y-128310381D01*
X80959863Y-128501772D01*
X80531613Y-128905270D01*
X80392613Y-129214494D01*
X80139239Y-128835292D01*
X79717488Y-128553488D01*
X79220000Y-128454531D01*
X78722512Y-128553488D01*
X78300761Y-128835292D01*
X78137253Y-129080000D01*
X76459949Y-129080000D01*
X72560000Y-125180050D01*
X72560000Y-112338062D01*
X72670374Y-112338062D01*
X72911613Y-112874730D01*
X73339863Y-113278228D01*
X73801939Y-113469619D01*
X74036000Y-113339469D01*
X74036000Y-112104000D01*
X72800083Y-112104000D01*
X72670374Y-112338062D01*
X72560000Y-112338062D01*
X72560000Y-111661938D01*
X72670374Y-111661938D01*
X72800083Y-111896000D01*
X74036000Y-111896000D01*
X74036000Y-110660531D01*
X73801939Y-110530381D01*
X73339863Y-110721772D01*
X72911613Y-111125270D01*
X72670374Y-111661938D01*
X72560000Y-111661938D01*
X72560000Y-110768804D01*
X72622201Y-110675714D01*
X72685000Y-110360000D01*
X72685000Y-108018500D01*
X78392000Y-108018500D01*
X78392000Y-108130884D01*
X78492174Y-108372727D01*
X78677273Y-108557825D01*
X78919115Y-108658000D01*
X79231500Y-108658000D01*
X79396000Y-108493500D01*
X79396000Y-107854000D01*
X79604000Y-107854000D01*
X79604000Y-108493500D01*
X79768500Y-108658000D01*
X80080885Y-108658000D01*
X80250000Y-108587950D01*
X80419115Y-108658000D01*
X80731500Y-108658000D01*
X80896000Y-108493500D01*
X80896000Y-107854000D01*
X81104000Y-107854000D01*
X81104000Y-108493500D01*
X81268500Y-108658000D01*
X81580885Y-108658000D01*
X81750000Y-108587950D01*
X81919115Y-108658000D01*
X82231500Y-108658000D01*
X82396000Y-108493500D01*
X82396000Y-107854000D01*
X82604000Y-107854000D01*
X82604000Y-108493500D01*
X82768500Y-108658000D01*
X83080885Y-108658000D01*
X83322727Y-108557825D01*
X83507826Y-108372727D01*
X83608000Y-108130884D01*
X83608000Y-108018500D01*
X83443500Y-107854000D01*
X82604000Y-107854000D01*
X82396000Y-107854000D01*
X81104000Y-107854000D01*
X80896000Y-107854000D01*
X79604000Y-107854000D01*
X79396000Y-107854000D01*
X78556500Y-107854000D01*
X78392000Y-108018500D01*
X72685000Y-108018500D01*
X72685000Y-105391726D01*
X74631726Y-103445000D01*
X78602322Y-103445000D01*
X78591184Y-103500000D01*
X78591184Y-103500000D01*
G37*
X78591184Y-103500000D02*
X78591184Y-104000000D01*
X78622562Y-104166760D01*
X78721117Y-104319919D01*
X78871495Y-104422668D01*
X79050000Y-104458816D01*
X79950000Y-104458816D01*
X80116760Y-104427438D01*
X80251543Y-104340708D01*
X80371495Y-104422668D01*
X80550000Y-104458816D01*
X81450000Y-104458816D01*
X81616760Y-104427438D01*
X81751543Y-104340708D01*
X81871495Y-104422668D01*
X82050000Y-104458816D01*
X82950000Y-104458816D01*
X83116760Y-104427438D01*
X83269919Y-104328883D01*
X83372668Y-104178505D01*
X83407340Y-104007289D01*
X84665382Y-105265331D01*
X84630148Y-105350183D01*
X84629853Y-105688334D01*
X84692520Y-105840000D01*
X84263676Y-105840000D01*
X83761838Y-105338162D01*
X83586649Y-105221105D01*
X83408816Y-105185732D01*
X83408816Y-105000000D01*
X83377438Y-104833240D01*
X83278883Y-104680081D01*
X83128505Y-104577332D01*
X82950000Y-104541184D01*
X82050000Y-104541184D01*
X81883240Y-104572562D01*
X81748457Y-104659292D01*
X81628505Y-104577332D01*
X81450000Y-104541184D01*
X80550000Y-104541184D01*
X80383240Y-104572562D01*
X80248457Y-104659292D01*
X80128505Y-104577332D01*
X79950000Y-104541184D01*
X79050000Y-104541184D01*
X78883240Y-104572562D01*
X78730081Y-104671117D01*
X78627332Y-104821495D01*
X78591184Y-105000000D01*
X78591184Y-105500000D01*
X78622562Y-105666760D01*
X78676153Y-105750043D01*
X78627332Y-105821495D01*
X78591184Y-106000000D01*
X78591184Y-106500000D01*
X78622562Y-106666760D01*
X78721117Y-106819919D01*
X78815965Y-106884726D01*
X78677273Y-106942175D01*
X78492174Y-107127273D01*
X78392000Y-107369116D01*
X78392000Y-107481500D01*
X78556500Y-107646000D01*
X79396000Y-107646000D01*
X79396000Y-107626000D01*
X79604000Y-107626000D01*
X79604000Y-107646000D01*
X79879943Y-107646000D01*
X79962402Y-107662402D01*
X86118267Y-107662402D01*
X86090131Y-107730161D01*
X86089870Y-108028530D01*
X86203811Y-108304286D01*
X86265000Y-108365582D01*
X86265000Y-110825280D01*
X85920761Y-111055292D01*
X85638957Y-111477043D01*
X85570000Y-111823712D01*
X85501043Y-111477043D01*
X85219239Y-111055292D01*
X84797488Y-110773488D01*
X84300000Y-110674531D01*
X83802512Y-110773488D01*
X83380761Y-111055292D01*
X83098957Y-111477043D01*
X83030000Y-111823712D01*
X82961043Y-111477043D01*
X82679239Y-111055292D01*
X82257488Y-110773488D01*
X81760000Y-110674531D01*
X81262512Y-110773488D01*
X80840761Y-111055292D01*
X80558957Y-111477043D01*
X80490000Y-111823712D01*
X80421043Y-111477043D01*
X80139239Y-111055292D01*
X79717488Y-110773488D01*
X79220000Y-110674531D01*
X78722512Y-110773488D01*
X78300761Y-111055292D01*
X78018957Y-111477043D01*
X77950000Y-111823712D01*
X77881043Y-111477043D01*
X77599239Y-111055292D01*
X77177488Y-110773488D01*
X76680000Y-110674531D01*
X76182512Y-110773488D01*
X75760761Y-111055292D01*
X75507387Y-111434494D01*
X75368387Y-111125270D01*
X74940137Y-110721772D01*
X74478061Y-110530381D01*
X74244000Y-110660531D01*
X74244000Y-111896000D01*
X74264000Y-111896000D01*
X74264000Y-112104000D01*
X74244000Y-112104000D01*
X74244000Y-113339469D01*
X74478061Y-113469619D01*
X74940137Y-113278228D01*
X75368387Y-112874730D01*
X75507387Y-112565506D01*
X75760761Y-112944708D01*
X76182512Y-113226512D01*
X76680000Y-113325469D01*
X76807029Y-113300201D01*
X81593413Y-118086586D01*
X81725735Y-118175001D01*
X81779957Y-118211231D01*
X82000000Y-118255000D01*
X94081828Y-118255000D01*
X96785000Y-120958173D01*
X96785000Y-126154262D01*
X96724552Y-126214605D01*
X96610131Y-126490161D01*
X96609870Y-126788530D01*
X96629438Y-126835888D01*
X96513413Y-126913414D01*
X94887301Y-128539527D01*
X94460000Y-128454531D01*
X93962512Y-128553488D01*
X93540761Y-128835292D01*
X93258957Y-129257043D01*
X93190000Y-129603712D01*
X93121043Y-129257043D01*
X92839239Y-128835292D01*
X92417488Y-128553488D01*
X91920000Y-128454531D01*
X91422512Y-128553488D01*
X91000761Y-128835292D01*
X90718957Y-129257043D01*
X90650000Y-129603712D01*
X90581043Y-129257043D01*
X90299239Y-128835292D01*
X89877488Y-128553488D01*
X89380000Y-128454531D01*
X88882512Y-128553488D01*
X88460761Y-128835292D01*
X88178957Y-129257043D01*
X88110000Y-129603712D01*
X88041043Y-129257043D01*
X87759239Y-128835292D01*
X87337488Y-128553488D01*
X86840000Y-128454531D01*
X86342512Y-128553488D01*
X85920761Y-128835292D01*
X85638957Y-129257043D01*
X85570000Y-129603712D01*
X85501043Y-129257043D01*
X85219239Y-128835292D01*
X84797488Y-128553488D01*
X84300000Y-128454531D01*
X83802512Y-128553488D01*
X83380761Y-128835292D01*
X83127387Y-129214494D01*
X82988387Y-128905270D01*
X82560137Y-128501772D01*
X82098061Y-128310381D01*
X81864000Y-128440531D01*
X81864000Y-129676000D01*
X81884000Y-129676000D01*
X81884000Y-129884000D01*
X81864000Y-129884000D01*
X81864000Y-131119469D01*
X82098061Y-131249619D01*
X82560137Y-131058228D01*
X82988387Y-130654730D01*
X83127387Y-130345506D01*
X83380761Y-130724708D01*
X83802512Y-131006512D01*
X84300000Y-131105469D01*
X84727301Y-131020473D01*
X84885000Y-131178173D01*
X84885000Y-141541828D01*
X84586586Y-141243414D01*
X84400043Y-141118769D01*
X84180000Y-141075000D01*
X80558173Y-141075000D01*
X79529968Y-140046796D01*
X79530147Y-139841666D01*
X79401015Y-139529143D01*
X79380000Y-139508091D01*
X79380000Y-133189950D01*
X79714975Y-132854975D01*
X79815185Y-132705000D01*
X79866716Y-132627878D01*
X79920000Y-132360000D01*
X79920000Y-130871198D01*
X80139239Y-130724708D01*
X80392613Y-130345506D01*
X80531613Y-130654730D01*
X80959863Y-131058228D01*
X81421939Y-131249619D01*
X81656000Y-131119469D01*
X81656000Y-129884000D01*
X81636000Y-129884000D01*
X81636000Y-129676000D01*
X81656000Y-129676000D01*
X81656000Y-128440531D01*
X81421939Y-128310381D01*
X80959863Y-128501772D01*
X80531613Y-128905270D01*
X80392613Y-129214494D01*
X80139239Y-128835292D01*
X79717488Y-128553488D01*
X79220000Y-128454531D01*
X78722512Y-128553488D01*
X78300761Y-128835292D01*
X78137253Y-129080000D01*
X76459949Y-129080000D01*
X72560000Y-125180050D01*
X72560000Y-112338062D01*
X72670374Y-112338062D01*
X72911613Y-112874730D01*
X73339863Y-113278228D01*
X73801939Y-113469619D01*
X74036000Y-113339469D01*
X74036000Y-112104000D01*
X72800083Y-112104000D01*
X72670374Y-112338062D01*
X72560000Y-112338062D01*
X72560000Y-111661938D01*
X72670374Y-111661938D01*
X72800083Y-111896000D01*
X74036000Y-111896000D01*
X74036000Y-110660531D01*
X73801939Y-110530381D01*
X73339863Y-110721772D01*
X72911613Y-111125270D01*
X72670374Y-111661938D01*
X72560000Y-111661938D01*
X72560000Y-110768804D01*
X72622201Y-110675714D01*
X72685000Y-110360000D01*
X72685000Y-108018500D01*
X78392000Y-108018500D01*
X78392000Y-108130884D01*
X78492174Y-108372727D01*
X78677273Y-108557825D01*
X78919115Y-108658000D01*
X79231500Y-108658000D01*
X79396000Y-108493500D01*
X79396000Y-107854000D01*
X79604000Y-107854000D01*
X79604000Y-108493500D01*
X79768500Y-108658000D01*
X80080885Y-108658000D01*
X80250000Y-108587950D01*
X80419115Y-108658000D01*
X80731500Y-108658000D01*
X80896000Y-108493500D01*
X80896000Y-107854000D01*
X81104000Y-107854000D01*
X81104000Y-108493500D01*
X81268500Y-108658000D01*
X81580885Y-108658000D01*
X81750000Y-108587950D01*
X81919115Y-108658000D01*
X82231500Y-108658000D01*
X82396000Y-108493500D01*
X82396000Y-107854000D01*
X82604000Y-107854000D01*
X82604000Y-108493500D01*
X82768500Y-108658000D01*
X83080885Y-108658000D01*
X83322727Y-108557825D01*
X83507826Y-108372727D01*
X83608000Y-108130884D01*
X83608000Y-108018500D01*
X83443500Y-107854000D01*
X82604000Y-107854000D01*
X82396000Y-107854000D01*
X81104000Y-107854000D01*
X80896000Y-107854000D01*
X79604000Y-107854000D01*
X79396000Y-107854000D01*
X78556500Y-107854000D01*
X78392000Y-108018500D01*
X72685000Y-108018500D01*
X72685000Y-105391726D01*
X74631726Y-103445000D01*
X78602322Y-103445000D01*
X78591184Y-103500000D01*
G36*
X144369179Y-32608720D02*
X144682156Y-32817844D01*
X144891280Y-33130821D01*
X144975000Y-33551707D01*
X144975000Y-34411646D01*
X144738919Y-33840285D01*
X144162748Y-33263108D01*
X143409559Y-32950357D01*
X142594019Y-32949645D01*
X141840285Y-33261081D01*
X141263108Y-33837252D01*
X140950357Y-34590441D01*
X140949645Y-35405981D01*
X141261081Y-36159715D01*
X141837252Y-36736892D01*
X142590441Y-37049643D01*
X143405981Y-37050355D01*
X144159715Y-36738919D01*
X144736892Y-36162748D01*
X144975000Y-35589320D01*
X144975000Y-125060314D01*
X144709774Y-124950182D01*
X144292058Y-124949818D01*
X143906000Y-125109334D01*
X143610372Y-125404446D01*
X143450182Y-125790226D01*
X143449818Y-126207942D01*
X143609334Y-126594000D01*
X143904446Y-126889628D01*
X144290226Y-127049818D01*
X144707942Y-127050182D01*
X144975000Y-126939836D01*
X144975000Y-135060314D01*
X144709774Y-134950182D01*
X144292058Y-134949818D01*
X143906000Y-135109334D01*
X143610372Y-135404446D01*
X143450182Y-135790226D01*
X143449818Y-136207942D01*
X143609334Y-136594000D01*
X143904446Y-136889628D01*
X144290226Y-137049818D01*
X144707942Y-137050182D01*
X144975000Y-136939836D01*
X144975000Y-140481827D01*
X142226586Y-137733414D01*
X142040043Y-137608769D01*
X141820000Y-137565000D01*
X131618173Y-137565000D01*
X126840055Y-132786883D01*
X126840130Y-132701470D01*
X126726189Y-132425714D01*
X126640624Y-132340000D01*
X134391472Y-132340000D01*
X134766880Y-132715408D01*
X134783284Y-132797879D01*
X134935025Y-133024975D01*
X135549877Y-133639827D01*
X135549749Y-133787157D01*
X135770033Y-134320286D01*
X136177569Y-134728533D01*
X136228734Y-134749779D01*
X136179714Y-134770033D01*
X135771467Y-135177569D01*
X135550252Y-135710312D01*
X135549749Y-136287157D01*
X135770033Y-136820286D01*
X136177569Y-137228533D01*
X136710312Y-137449748D01*
X137287157Y-137450251D01*
X137820286Y-137229967D01*
X138228533Y-136822431D01*
X138449748Y-136289688D01*
X138449819Y-136207942D01*
X140949818Y-136207942D01*
X141109334Y-136594000D01*
X141404446Y-136889628D01*
X141790226Y-137049818D01*
X142207942Y-137050182D01*
X142594000Y-136890666D01*
X142889628Y-136595554D01*
X143049818Y-136209774D01*
X143050182Y-135792058D01*
X142890666Y-135406000D01*
X142595554Y-135110372D01*
X142209774Y-134950182D01*
X141792058Y-134949818D01*
X141406000Y-135109334D01*
X141110372Y-135404446D01*
X140950182Y-135790226D01*
X140949818Y-136207942D01*
X138449819Y-136207942D01*
X138450251Y-135712843D01*
X138229967Y-135179714D01*
X137822431Y-134771467D01*
X137771266Y-134750221D01*
X137820286Y-134729967D01*
X138228533Y-134322431D01*
X138449748Y-133789688D01*
X138450251Y-133212843D01*
X138229967Y-132679714D01*
X137881524Y-132330663D01*
X140816416Y-132330663D01*
X140942308Y-132632724D01*
X141647636Y-132913202D01*
X142406608Y-132902412D01*
X143057692Y-132632724D01*
X143183584Y-132330663D01*
X142000000Y-131147078D01*
X140816416Y-132330663D01*
X137881524Y-132330663D01*
X137822431Y-132271467D01*
X137289688Y-132050252D01*
X137207945Y-132050181D01*
X137594000Y-131890666D01*
X137889628Y-131595554D01*
X138049818Y-131209774D01*
X138050182Y-130792058D01*
X137990509Y-130647636D01*
X140086798Y-130647636D01*
X140097588Y-131406608D01*
X140367276Y-132057692D01*
X140669337Y-132183584D01*
X141852922Y-131000000D01*
X142147078Y-131000000D01*
X143330663Y-132183584D01*
X143632724Y-132057692D01*
X143913202Y-131352364D01*
X143902412Y-130593392D01*
X143632724Y-129942308D01*
X143330663Y-129816416D01*
X142147078Y-131000000D01*
X141852922Y-131000000D01*
X140669337Y-129816416D01*
X140367276Y-129942308D01*
X140086798Y-130647636D01*
X137990509Y-130647636D01*
X137890666Y-130406000D01*
X137595554Y-130110372D01*
X137209778Y-129950184D01*
X137287157Y-129950251D01*
X137820286Y-129729967D01*
X137881021Y-129669337D01*
X140816416Y-129669337D01*
X142000000Y-130852922D01*
X143183584Y-129669337D01*
X143057692Y-129367276D01*
X142352364Y-129086798D01*
X141593392Y-129097588D01*
X140942308Y-129367276D01*
X140816416Y-129669337D01*
X137881021Y-129669337D01*
X138228533Y-129322431D01*
X138449748Y-128789688D01*
X138450251Y-128212843D01*
X138229967Y-127679714D01*
X137822431Y-127271467D01*
X137771266Y-127250221D01*
X137820286Y-127229967D01*
X138228533Y-126822431D01*
X138449748Y-126289688D01*
X138449819Y-126207942D01*
X140949818Y-126207942D01*
X141109334Y-126594000D01*
X141404446Y-126889628D01*
X141790226Y-127049818D01*
X142207942Y-127050182D01*
X142594000Y-126890666D01*
X142889628Y-126595554D01*
X143049818Y-126209774D01*
X143050182Y-125792058D01*
X142890666Y-125406000D01*
X142595554Y-125110372D01*
X142209774Y-124950182D01*
X141792058Y-124949818D01*
X141406000Y-125109334D01*
X141110372Y-125404446D01*
X140950182Y-125790226D01*
X140949818Y-126207942D01*
X138449819Y-126207942D01*
X138450251Y-125712843D01*
X138229967Y-125179714D01*
X137822431Y-124771467D01*
X137289688Y-124550252D01*
X136712843Y-124549749D01*
X136179714Y-124770033D01*
X135771467Y-125177569D01*
X135550252Y-125710312D01*
X135549749Y-126287157D01*
X135770033Y-126820286D01*
X136177569Y-127228533D01*
X136228734Y-127249779D01*
X136179714Y-127270033D01*
X135771467Y-127677569D01*
X135658715Y-127949105D01*
X135575025Y-128005025D01*
X134935025Y-128645025D01*
X134783284Y-128872121D01*
X134776690Y-128905270D01*
X134730000Y-129140000D01*
X134730000Y-131157902D01*
X134640000Y-131140000D01*
X103378528Y-131140000D01*
X102977657Y-130739129D01*
X102999239Y-130724708D01*
X103281043Y-130302957D01*
X103350000Y-129956288D01*
X103418957Y-130302957D01*
X103700761Y-130724708D01*
X104122512Y-131006512D01*
X104620000Y-131105469D01*
X105117488Y-131006512D01*
X105539239Y-130724708D01*
X105821043Y-130302957D01*
X105890000Y-129956288D01*
X105958957Y-130302957D01*
X106240761Y-130724708D01*
X106662512Y-131006512D01*
X107160000Y-131105469D01*
X107657488Y-131006512D01*
X108079239Y-130724708D01*
X108361043Y-130302957D01*
X108430000Y-129956288D01*
X108498957Y-130302957D01*
X108780761Y-130724708D01*
X109202512Y-131006512D01*
X109700000Y-131105469D01*
X110197488Y-131006512D01*
X110619239Y-130724708D01*
X110901043Y-130302957D01*
X110970000Y-129956288D01*
X111038957Y-130302957D01*
X111320761Y-130724708D01*
X111742512Y-131006512D01*
X112240000Y-131105469D01*
X112737488Y-131006512D01*
X113159239Y-130724708D01*
X113441043Y-130302957D01*
X113510000Y-129956288D01*
X113578957Y-130302957D01*
X113860761Y-130724708D01*
X114282512Y-131006512D01*
X114780000Y-131105469D01*
X115277488Y-131006512D01*
X115699239Y-130724708D01*
X115981043Y-130302957D01*
X116011184Y-130151429D01*
X116011184Y-130630000D01*
X116042562Y-130796760D01*
X116141117Y-130949919D01*
X116291495Y-131052668D01*
X116470000Y-131088816D01*
X118170000Y-131088816D01*
X118336760Y-131057438D01*
X118489919Y-130958883D01*
X118592668Y-130808505D01*
X118628816Y-130630000D01*
X118628816Y-130355000D01*
X130630000Y-130355000D01*
X130850043Y-130311231D01*
X131036586Y-130186586D01*
X133626586Y-127596586D01*
X133751231Y-127410043D01*
X133766473Y-127333414D01*
X133795000Y-127190000D01*
X133795000Y-124178172D01*
X134408172Y-123565000D01*
X135960000Y-123565000D01*
X136180043Y-123521231D01*
X136366586Y-123396586D01*
X137816587Y-121946586D01*
X137941231Y-121760043D01*
X137985000Y-121540000D01*
X137985000Y-116498061D01*
X138530381Y-116498061D01*
X138721772Y-116960137D01*
X139125270Y-117388387D01*
X139434494Y-117527387D01*
X139055292Y-117780761D01*
X138773488Y-118202512D01*
X138674531Y-118700000D01*
X138773488Y-119197488D01*
X139055292Y-119619239D01*
X139477043Y-119901043D01*
X139974531Y-120000000D01*
X140025469Y-120000000D01*
X140522957Y-119901043D01*
X140944708Y-119619239D01*
X141226512Y-119197488D01*
X141270000Y-118978860D01*
X141313488Y-119197488D01*
X141595292Y-119619239D01*
X142017043Y-119901043D01*
X142514531Y-120000000D01*
X142565469Y-120000000D01*
X143062957Y-119901043D01*
X143484708Y-119619239D01*
X143766512Y-119197488D01*
X143865469Y-118700000D01*
X143766512Y-118202512D01*
X143484708Y-117780761D01*
X143105506Y-117527387D01*
X143414730Y-117388387D01*
X143818228Y-116960137D01*
X144009619Y-116498061D01*
X143879469Y-116264000D01*
X142644000Y-116264000D01*
X142644000Y-116284000D01*
X142436000Y-116284000D01*
X142436000Y-116264000D01*
X140104000Y-116264000D01*
X140104000Y-116284000D01*
X139896000Y-116284000D01*
X139896000Y-116264000D01*
X138660531Y-116264000D01*
X138530381Y-116498061D01*
X137985000Y-116498061D01*
X137985000Y-116238172D01*
X138621696Y-115601477D01*
X138530381Y-115821939D01*
X138660531Y-116056000D01*
X139896000Y-116056000D01*
X139896000Y-116036000D01*
X140104000Y-116036000D01*
X140104000Y-116056000D01*
X142436000Y-116056000D01*
X142436000Y-116036000D01*
X142644000Y-116036000D01*
X142644000Y-116056000D01*
X143879469Y-116056000D01*
X144009619Y-115821939D01*
X143818228Y-115359863D01*
X143414730Y-114931613D01*
X143105506Y-114792613D01*
X143484708Y-114539239D01*
X143766512Y-114117488D01*
X143865469Y-113620000D01*
X143766512Y-113122512D01*
X143484708Y-112700761D01*
X143062957Y-112418957D01*
X142716288Y-112350000D01*
X143062957Y-112281043D01*
X143484708Y-111999239D01*
X143766512Y-111577488D01*
X143865469Y-111080000D01*
X143766512Y-110582512D01*
X143484708Y-110160761D01*
X143062957Y-109878957D01*
X142716288Y-109810000D01*
X143062957Y-109741043D01*
X143484708Y-109459239D01*
X143766512Y-109037488D01*
X143865469Y-108540000D01*
X143766512Y-108042512D01*
X143484708Y-107620761D01*
X143062957Y-107338957D01*
X142716288Y-107270000D01*
X143062957Y-107201043D01*
X143484708Y-106919239D01*
X143766512Y-106497488D01*
X143865469Y-106000000D01*
X143766512Y-105502512D01*
X143484708Y-105080761D01*
X143062957Y-104798957D01*
X142565469Y-104700000D01*
X142514531Y-104700000D01*
X142017043Y-104798957D01*
X141595292Y-105080761D01*
X141313488Y-105502512D01*
X141308816Y-105526000D01*
X141308816Y-105150000D01*
X141277438Y-104983240D01*
X141178883Y-104830081D01*
X141028505Y-104727332D01*
X140850000Y-104691184D01*
X139150000Y-104691184D01*
X138983240Y-104722562D01*
X138830081Y-104821117D01*
X138727332Y-104971495D01*
X138691184Y-105150000D01*
X138691184Y-105468525D01*
X138689957Y-105468769D01*
X138503414Y-105593414D01*
X136293414Y-107803414D01*
X136168769Y-107989957D01*
X136125000Y-108210000D01*
X136125000Y-110741827D01*
X133200000Y-113666828D01*
X133200000Y-112750000D01*
X133266760Y-112737438D01*
X133419919Y-112638883D01*
X133522668Y-112488505D01*
X133558816Y-112310000D01*
X133558816Y-111410000D01*
X133527438Y-111243240D01*
X133428883Y-111090081D01*
X133278505Y-110987332D01*
X133100000Y-110951184D01*
X131900000Y-110951184D01*
X131733240Y-110982562D01*
X131580081Y-111081117D01*
X131477332Y-111231495D01*
X131441184Y-111410000D01*
X131441184Y-112310000D01*
X131472562Y-112476760D01*
X131571117Y-112629919D01*
X131721495Y-112732668D01*
X131800000Y-112748566D01*
X131800000Y-113420051D01*
X131368867Y-113851184D01*
X130540000Y-113851184D01*
X130373240Y-113882562D01*
X130251104Y-113961154D01*
X130150000Y-113860050D01*
X130150000Y-112088269D01*
X130197668Y-112018505D01*
X130233816Y-111840000D01*
X130233816Y-110780000D01*
X130202438Y-110613240D01*
X130103883Y-110460081D01*
X129953505Y-110357332D01*
X129775000Y-110321184D01*
X129125000Y-110321184D01*
X128969493Y-110350445D01*
X128825000Y-110321184D01*
X128175000Y-110321184D01*
X128019493Y-110350445D01*
X127875000Y-110321184D01*
X127225000Y-110321184D01*
X127058240Y-110352562D01*
X126905081Y-110451117D01*
X126802332Y-110601495D01*
X126800610Y-110610000D01*
X126467483Y-110610000D01*
X126383883Y-110480081D01*
X126289035Y-110415274D01*
X126427727Y-110357825D01*
X126612826Y-110172727D01*
X126713000Y-109930884D01*
X126713000Y-109568500D01*
X126548500Y-109404000D01*
X125534000Y-109404000D01*
X125534000Y-109424000D01*
X125326000Y-109424000D01*
X125326000Y-109404000D01*
X125306000Y-109404000D01*
X125306000Y-109196000D01*
X125326000Y-109196000D01*
X125326000Y-108306500D01*
X125534000Y-108306500D01*
X125534000Y-109196000D01*
X126548500Y-109196000D01*
X126713000Y-109031500D01*
X126713000Y-108669116D01*
X126612826Y-108427273D01*
X126427727Y-108242175D01*
X126185885Y-108142000D01*
X125698500Y-108142000D01*
X125534000Y-108306500D01*
X125326000Y-108306500D01*
X125161500Y-108142000D01*
X124674115Y-108142000D01*
X124432273Y-108242175D01*
X124247174Y-108427273D01*
X124147000Y-108669116D01*
X124147000Y-108790702D01*
X124100000Y-108781184D01*
X123200000Y-108781184D01*
X123100001Y-108800000D01*
X122422254Y-108800000D01*
X122402115Y-108779826D01*
X122089817Y-108650148D01*
X122048640Y-108650112D01*
X120224264Y-106825736D01*
X120029610Y-106695672D01*
X119800000Y-106650000D01*
X113669930Y-106650000D01*
X113670130Y-106421470D01*
X113615807Y-106290000D01*
X121013776Y-106290000D01*
X121023811Y-106314286D01*
X121234605Y-106525448D01*
X121510161Y-106639869D01*
X121808530Y-106640130D01*
X122084286Y-106526189D01*
X122231457Y-106379275D01*
X123661089Y-107808906D01*
X123661091Y-107808909D01*
X123792309Y-107896586D01*
X123839524Y-107928134D01*
X124050000Y-107970000D01*
X126040000Y-107970000D01*
X126250476Y-107928134D01*
X126428909Y-107808909D01*
X126710000Y-107527818D01*
X127000000Y-107817817D01*
X127000000Y-108190038D01*
X126905081Y-108251117D01*
X126802332Y-108401495D01*
X126766184Y-108580000D01*
X126766184Y-109640000D01*
X126797562Y-109806760D01*
X126896117Y-109959919D01*
X127046495Y-110062668D01*
X127225000Y-110098816D01*
X127875000Y-110098816D01*
X128030507Y-110069555D01*
X128175000Y-110098816D01*
X128653263Y-110098816D01*
X128752273Y-110197825D01*
X128994115Y-110298000D01*
X129181500Y-110298000D01*
X129346000Y-110133500D01*
X129346000Y-109214000D01*
X129554000Y-109214000D01*
X129554000Y-110133500D01*
X129718500Y-110298000D01*
X129905885Y-110298000D01*
X130147727Y-110197825D01*
X130332826Y-110012727D01*
X130433000Y-109770884D01*
X130433000Y-109378500D01*
X130268500Y-109214000D01*
X129554000Y-109214000D01*
X129346000Y-109214000D01*
X129326000Y-109214000D01*
X129326000Y-109006000D01*
X129346000Y-109006000D01*
X129346000Y-108086500D01*
X129554000Y-108086500D01*
X129554000Y-109006000D01*
X130268500Y-109006000D01*
X130433000Y-108841500D01*
X130433000Y-108449116D01*
X130332826Y-108207273D01*
X130147727Y-108022175D01*
X129905885Y-107922000D01*
X129718500Y-107922000D01*
X129554000Y-108086500D01*
X129346000Y-108086500D01*
X129181500Y-107922000D01*
X129050000Y-107922000D01*
X129050000Y-107282136D01*
X129194919Y-107188883D01*
X129297668Y-107038505D01*
X129333816Y-106860000D01*
X129333816Y-106606231D01*
X129371231Y-106581231D01*
X129485037Y-106410909D01*
X129525000Y-106210000D01*
X129485037Y-106009091D01*
X129371231Y-105838769D01*
X129344587Y-105820966D01*
X129430830Y-105734723D01*
X129451866Y-105840476D01*
X129571091Y-106018909D01*
X130651089Y-107098906D01*
X130651091Y-107098909D01*
X130804017Y-107201091D01*
X130829524Y-107218134D01*
X131040000Y-107260001D01*
X131040005Y-107260000D01*
X131425592Y-107260000D01*
X131447562Y-107376760D01*
X131546117Y-107529919D01*
X131696495Y-107632668D01*
X131841908Y-107662115D01*
X131733240Y-107682562D01*
X131580081Y-107781117D01*
X131477332Y-107931495D01*
X131441184Y-108110000D01*
X131441184Y-109010000D01*
X131472562Y-109176760D01*
X131571117Y-109329919D01*
X131721495Y-109432668D01*
X131900000Y-109468816D01*
X133100000Y-109468816D01*
X133266760Y-109437438D01*
X133419919Y-109338883D01*
X133522668Y-109188505D01*
X133558816Y-109010000D01*
X133558816Y-108110000D01*
X133527438Y-107943240D01*
X133428883Y-107790081D01*
X133278505Y-107687332D01*
X133157174Y-107662762D01*
X133291760Y-107637438D01*
X133444919Y-107538883D01*
X133547668Y-107388505D01*
X133583816Y-107210000D01*
X133583816Y-106210000D01*
X133552438Y-106043240D01*
X133453883Y-105890081D01*
X133359035Y-105825274D01*
X133497727Y-105767825D01*
X133682826Y-105582727D01*
X133783000Y-105340884D01*
X133783000Y-104978500D01*
X133618500Y-104814000D01*
X132604000Y-104814000D01*
X132604000Y-104834000D01*
X132396000Y-104834000D01*
X132396000Y-104814000D01*
X131381500Y-104814000D01*
X131217000Y-104978500D01*
X131217000Y-105340884D01*
X131317174Y-105582727D01*
X131502273Y-105767825D01*
X131641512Y-105825500D01*
X131555081Y-105881117D01*
X131452332Y-106031495D01*
X131426309Y-106160000D01*
X131267817Y-106160000D01*
X130510000Y-105402182D01*
X130510000Y-104630005D01*
X130510001Y-104630000D01*
X130468134Y-104419524D01*
X130348909Y-104241091D01*
X130186934Y-104079116D01*
X131217000Y-104079116D01*
X131217000Y-104441500D01*
X131381500Y-104606000D01*
X132396000Y-104606000D01*
X132396000Y-103716500D01*
X132604000Y-103716500D01*
X132604000Y-104606000D01*
X133618500Y-104606000D01*
X133783000Y-104441500D01*
X133783000Y-104079116D01*
X133682826Y-103837273D01*
X133497727Y-103652175D01*
X133255885Y-103552000D01*
X132768500Y-103552000D01*
X132604000Y-103716500D01*
X132396000Y-103716500D01*
X132231500Y-103552000D01*
X131744115Y-103552000D01*
X131502273Y-103652175D01*
X131317174Y-103837273D01*
X131217000Y-104079116D01*
X130186934Y-104079116D01*
X129628909Y-103521091D01*
X129450476Y-103401866D01*
X129240000Y-103360000D01*
X123650000Y-103360000D01*
X123439524Y-103401866D01*
X123261091Y-103521091D01*
X123261089Y-103521094D01*
X122562207Y-104219976D01*
X122441470Y-104219870D01*
X122165714Y-104333811D01*
X121954552Y-104544605D01*
X121889261Y-104701842D01*
X121880000Y-104700000D01*
X114457818Y-104700000D01*
X114150000Y-104392182D01*
X114150000Y-103500000D01*
X114138182Y-103441642D01*
X114104591Y-103392479D01*
X114086379Y-103380760D01*
X114077438Y-103333240D01*
X113978883Y-103180081D01*
X113828505Y-103077332D01*
X113650000Y-103041184D01*
X113350000Y-103041184D01*
X113246329Y-103060691D01*
X113150000Y-103041184D01*
X112850000Y-103041184D01*
X112746329Y-103060691D01*
X112650000Y-103041184D01*
X112350000Y-103041184D01*
X112246329Y-103060691D01*
X112150000Y-103041184D01*
X111850000Y-103041184D01*
X111746329Y-103060691D01*
X111650000Y-103041184D01*
X111350000Y-103041184D01*
X111246329Y-103060691D01*
X111150000Y-103041184D01*
X110850000Y-103041184D01*
X110746329Y-103060691D01*
X110650000Y-103041184D01*
X110350000Y-103041184D01*
X110246329Y-103060691D01*
X110150000Y-103041184D01*
X109850000Y-103041184D01*
X109746329Y-103060691D01*
X109650000Y-103041184D01*
X109350000Y-103041184D01*
X109246329Y-103060691D01*
X109150000Y-103041184D01*
X108850000Y-103041184D01*
X108746329Y-103060691D01*
X108650000Y-103041184D01*
X108621736Y-103041184D01*
X108522727Y-102942174D01*
X108280884Y-102842000D01*
X108239500Y-102842000D01*
X108081026Y-103000474D01*
X108022727Y-102942174D01*
X107780884Y-102842000D01*
X107719116Y-102842000D01*
X107500000Y-102932760D01*
X107280884Y-102842000D01*
X107219116Y-102842000D01*
X107000000Y-102932760D01*
X106780884Y-102842000D01*
X106719116Y-102842000D01*
X106500000Y-102932760D01*
X106280884Y-102842000D01*
X106219116Y-102842000D01*
X106000000Y-102932760D01*
X105780884Y-102842000D01*
X105719116Y-102842000D01*
X105500000Y-102932760D01*
X105280884Y-102842000D01*
X105219116Y-102842000D01*
X105000000Y-102932760D01*
X104780884Y-102842000D01*
X104719116Y-102842000D01*
X104500000Y-102932760D01*
X104280884Y-102842000D01*
X104219116Y-102842000D01*
X104000000Y-102932760D01*
X103780884Y-102842000D01*
X103719116Y-102842000D01*
X103500000Y-102932760D01*
X103280884Y-102842000D01*
X103219116Y-102842000D01*
X103000000Y-102932760D01*
X102780884Y-102842000D01*
X102719116Y-102842000D01*
X102500000Y-102932760D01*
X102280884Y-102842000D01*
X102219116Y-102842000D01*
X102000000Y-102932760D01*
X101780884Y-102842000D01*
X101719116Y-102842000D01*
X101500000Y-102932760D01*
X101280884Y-102842000D01*
X101219116Y-102842000D01*
X101000000Y-102932760D01*
X100780884Y-102842000D01*
X100719116Y-102842000D01*
X100477273Y-102942174D01*
X100418974Y-103000474D01*
X100260500Y-102842000D01*
X100219116Y-102842000D01*
X99977273Y-102942174D01*
X99878264Y-103041184D01*
X99850000Y-103041184D01*
X99746329Y-103060691D01*
X99650000Y-103041184D01*
X99350000Y-103041184D01*
X99246329Y-103060691D01*
X99150000Y-103041184D01*
X98850000Y-103041184D01*
X98746329Y-103060691D01*
X98650000Y-103041184D01*
X98350000Y-103041184D01*
X98246329Y-103060691D01*
X98150000Y-103041184D01*
X97850000Y-103041184D01*
X97746329Y-103060691D01*
X97650000Y-103041184D01*
X97350000Y-103041184D01*
X97246329Y-103060691D01*
X97150000Y-103041184D01*
X96850000Y-103041184D01*
X96746329Y-103060691D01*
X96650000Y-103041184D01*
X96350000Y-103041184D01*
X96246329Y-103060691D01*
X96150000Y-103041184D01*
X95850000Y-103041184D01*
X95746329Y-103060691D01*
X95650000Y-103041184D01*
X95350000Y-103041184D01*
X95246329Y-103060691D01*
X95150000Y-103041184D01*
X94850000Y-103041184D01*
X94746329Y-103060691D01*
X94650000Y-103041184D01*
X94350000Y-103041184D01*
X94246329Y-103060691D01*
X94150000Y-103041184D01*
X93850000Y-103041184D01*
X93746329Y-103060691D01*
X93650000Y-103041184D01*
X93350000Y-103041184D01*
X93246329Y-103060691D01*
X93150000Y-103041184D01*
X92850000Y-103041184D01*
X92746329Y-103060691D01*
X92650000Y-103041184D01*
X92350000Y-103041184D01*
X92246329Y-103060691D01*
X92150000Y-103041184D01*
X91850000Y-103041184D01*
X91746329Y-103060691D01*
X91650000Y-103041184D01*
X91350000Y-103041184D01*
X91246329Y-103060691D01*
X91150000Y-103041184D01*
X90850000Y-103041184D01*
X90746329Y-103060691D01*
X90650000Y-103041184D01*
X90350000Y-103041184D01*
X90246329Y-103060691D01*
X90150000Y-103041184D01*
X89850000Y-103041184D01*
X89746329Y-103060691D01*
X89650000Y-103041184D01*
X89350000Y-103041184D01*
X89246329Y-103060691D01*
X89150000Y-103041184D01*
X88850000Y-103041184D01*
X88746329Y-103060691D01*
X88650000Y-103041184D01*
X88350000Y-103041184D01*
X88246329Y-103060691D01*
X88150000Y-103041184D01*
X88121736Y-103041184D01*
X88022727Y-102942174D01*
X87780884Y-102842000D01*
X87739500Y-102842000D01*
X87581026Y-103000474D01*
X87522727Y-102942174D01*
X87280884Y-102842000D01*
X87219116Y-102842000D01*
X86977273Y-102942174D01*
X86918974Y-103000474D01*
X86760500Y-102842000D01*
X86719116Y-102842000D01*
X86477273Y-102942174D01*
X86292175Y-103127273D01*
X86192000Y-103369115D01*
X86192000Y-103731500D01*
X86350000Y-103889500D01*
X86350000Y-104110500D01*
X86192000Y-104268500D01*
X86192000Y-104630885D01*
X86292175Y-104872727D01*
X86477273Y-105057826D01*
X86549152Y-105087599D01*
X86485714Y-105113811D01*
X86305996Y-105293216D01*
X86201015Y-105039143D01*
X86162137Y-105000197D01*
X86126716Y-104822122D01*
X85974975Y-104595025D01*
X85974972Y-104595023D01*
X83794043Y-102414093D01*
X83772201Y-102304286D01*
X83593363Y-102036637D01*
X83325714Y-101857799D01*
X83010000Y-101795000D01*
X74290000Y-101795000D01*
X73974286Y-101857799D01*
X73706637Y-102036637D01*
X71439037Y-104304237D01*
X71379143Y-104328985D01*
X71139826Y-104567885D01*
X71025000Y-104844416D01*
X71025000Y-100100000D01*
X84291184Y-100100000D01*
X84291184Y-101600000D01*
X84322562Y-101766760D01*
X84421117Y-101919919D01*
X84571495Y-102022668D01*
X84750000Y-102058816D01*
X86150000Y-102058816D01*
X86316760Y-102027438D01*
X86469919Y-101928883D01*
X86572668Y-101778505D01*
X86608816Y-101600000D01*
X86608816Y-100100000D01*
X113891184Y-100100000D01*
X113891184Y-101600000D01*
X113922562Y-101766760D01*
X114021117Y-101919919D01*
X114171495Y-102022668D01*
X114350000Y-102058816D01*
X115750000Y-102058816D01*
X115916760Y-102027438D01*
X116069919Y-101928883D01*
X116172668Y-101778505D01*
X116208816Y-101600000D01*
X116208816Y-100100000D01*
X116177438Y-99933240D01*
X116078883Y-99780081D01*
X115928505Y-99677332D01*
X115750000Y-99641184D01*
X114350000Y-99641184D01*
X114183240Y-99672562D01*
X114030081Y-99771117D01*
X113927332Y-99921495D01*
X113891184Y-100100000D01*
X86608816Y-100100000D01*
X86577438Y-99933240D01*
X86478883Y-99780081D01*
X86328505Y-99677332D01*
X86150000Y-99641184D01*
X84750000Y-99641184D01*
X84583240Y-99672562D01*
X84430081Y-99771117D01*
X84327332Y-99921495D01*
X84291184Y-100100000D01*
X71025000Y-100100000D01*
X71025000Y-35588354D01*
X71261081Y-36159715D01*
X71837252Y-36736892D01*
X72590441Y-37049643D01*
X73405981Y-37050355D01*
X74159715Y-36738919D01*
X74736892Y-36162748D01*
X75049643Y-35409559D01*
X75050355Y-34594019D01*
X74738919Y-33840285D01*
X74162748Y-33263108D01*
X73409559Y-32950357D01*
X72594019Y-32949645D01*
X71840285Y-33261081D01*
X71263108Y-33837252D01*
X71025000Y-34410680D01*
X71025000Y-33051706D01*
X71070659Y-32822162D01*
X71171396Y-32671398D01*
X71322163Y-32570659D01*
X71551706Y-32525000D01*
X143948293Y-32525000D01*
X144369179Y-32608720D01*
X144369179Y-32608720D01*
G37*
X144369179Y-32608720D02*
X144682156Y-32817844D01*
X144891280Y-33130821D01*
X144975000Y-33551707D01*
X144975000Y-34411646D01*
X144738919Y-33840285D01*
X144162748Y-33263108D01*
X143409559Y-32950357D01*
X142594019Y-32949645D01*
X141840285Y-33261081D01*
X141263108Y-33837252D01*
X140950357Y-34590441D01*
X140949645Y-35405981D01*
X141261081Y-36159715D01*
X141837252Y-36736892D01*
X142590441Y-37049643D01*
X143405981Y-37050355D01*
X144159715Y-36738919D01*
X144736892Y-36162748D01*
X144975000Y-35589320D01*
X144975000Y-125060314D01*
X144709774Y-124950182D01*
X144292058Y-124949818D01*
X143906000Y-125109334D01*
X143610372Y-125404446D01*
X143450182Y-125790226D01*
X143449818Y-126207942D01*
X143609334Y-126594000D01*
X143904446Y-126889628D01*
X144290226Y-127049818D01*
X144707942Y-127050182D01*
X144975000Y-126939836D01*
X144975000Y-135060314D01*
X144709774Y-134950182D01*
X144292058Y-134949818D01*
X143906000Y-135109334D01*
X143610372Y-135404446D01*
X143450182Y-135790226D01*
X143449818Y-136207942D01*
X143609334Y-136594000D01*
X143904446Y-136889628D01*
X144290226Y-137049818D01*
X144707942Y-137050182D01*
X144975000Y-136939836D01*
X144975000Y-140481827D01*
X142226586Y-137733414D01*
X142040043Y-137608769D01*
X141820000Y-137565000D01*
X131618173Y-137565000D01*
X126840055Y-132786883D01*
X126840130Y-132701470D01*
X126726189Y-132425714D01*
X126640624Y-132340000D01*
X134391472Y-132340000D01*
X134766880Y-132715408D01*
X134783284Y-132797879D01*
X134935025Y-133024975D01*
X135549877Y-133639827D01*
X135549749Y-133787157D01*
X135770033Y-134320286D01*
X136177569Y-134728533D01*
X136228734Y-134749779D01*
X136179714Y-134770033D01*
X135771467Y-135177569D01*
X135550252Y-135710312D01*
X135549749Y-136287157D01*
X135770033Y-136820286D01*
X136177569Y-137228533D01*
X136710312Y-137449748D01*
X137287157Y-137450251D01*
X137820286Y-137229967D01*
X138228533Y-136822431D01*
X138449748Y-136289688D01*
X138449819Y-136207942D01*
X140949818Y-136207942D01*
X141109334Y-136594000D01*
X141404446Y-136889628D01*
X141790226Y-137049818D01*
X142207942Y-137050182D01*
X142594000Y-136890666D01*
X142889628Y-136595554D01*
X143049818Y-136209774D01*
X143050182Y-135792058D01*
X142890666Y-135406000D01*
X142595554Y-135110372D01*
X142209774Y-134950182D01*
X141792058Y-134949818D01*
X141406000Y-135109334D01*
X141110372Y-135404446D01*
X140950182Y-135790226D01*
X140949818Y-136207942D01*
X138449819Y-136207942D01*
X138450251Y-135712843D01*
X138229967Y-135179714D01*
X137822431Y-134771467D01*
X137771266Y-134750221D01*
X137820286Y-134729967D01*
X138228533Y-134322431D01*
X138449748Y-133789688D01*
X138450251Y-133212843D01*
X138229967Y-132679714D01*
X137881524Y-132330663D01*
X140816416Y-132330663D01*
X140942308Y-132632724D01*
X141647636Y-132913202D01*
X142406608Y-132902412D01*
X143057692Y-132632724D01*
X143183584Y-132330663D01*
X142000000Y-131147078D01*
X140816416Y-132330663D01*
X137881524Y-132330663D01*
X137822431Y-132271467D01*
X137289688Y-132050252D01*
X137207945Y-132050181D01*
X137594000Y-131890666D01*
X137889628Y-131595554D01*
X138049818Y-131209774D01*
X138050182Y-130792058D01*
X137990509Y-130647636D01*
X140086798Y-130647636D01*
X140097588Y-131406608D01*
X140367276Y-132057692D01*
X140669337Y-132183584D01*
X141852922Y-131000000D01*
X142147078Y-131000000D01*
X143330663Y-132183584D01*
X143632724Y-132057692D01*
X143913202Y-131352364D01*
X143902412Y-130593392D01*
X143632724Y-129942308D01*
X143330663Y-129816416D01*
X142147078Y-131000000D01*
X141852922Y-131000000D01*
X140669337Y-129816416D01*
X140367276Y-129942308D01*
X140086798Y-130647636D01*
X137990509Y-130647636D01*
X137890666Y-130406000D01*
X137595554Y-130110372D01*
X137209778Y-129950184D01*
X137287157Y-129950251D01*
X137820286Y-129729967D01*
X137881021Y-129669337D01*
X140816416Y-129669337D01*
X142000000Y-130852922D01*
X143183584Y-129669337D01*
X143057692Y-129367276D01*
X142352364Y-129086798D01*
X141593392Y-129097588D01*
X140942308Y-129367276D01*
X140816416Y-129669337D01*
X137881021Y-129669337D01*
X138228533Y-129322431D01*
X138449748Y-128789688D01*
X138450251Y-128212843D01*
X138229967Y-127679714D01*
X137822431Y-127271467D01*
X137771266Y-127250221D01*
X137820286Y-127229967D01*
X138228533Y-126822431D01*
X138449748Y-126289688D01*
X138449819Y-126207942D01*
X140949818Y-126207942D01*
X141109334Y-126594000D01*
X141404446Y-126889628D01*
X141790226Y-127049818D01*
X142207942Y-127050182D01*
X142594000Y-126890666D01*
X142889628Y-126595554D01*
X143049818Y-126209774D01*
X143050182Y-125792058D01*
X142890666Y-125406000D01*
X142595554Y-125110372D01*
X142209774Y-124950182D01*
X141792058Y-124949818D01*
X141406000Y-125109334D01*
X141110372Y-125404446D01*
X140950182Y-125790226D01*
X140949818Y-126207942D01*
X138449819Y-126207942D01*
X138450251Y-125712843D01*
X138229967Y-125179714D01*
X137822431Y-124771467D01*
X137289688Y-124550252D01*
X136712843Y-124549749D01*
X136179714Y-124770033D01*
X135771467Y-125177569D01*
X135550252Y-125710312D01*
X135549749Y-126287157D01*
X135770033Y-126820286D01*
X136177569Y-127228533D01*
X136228734Y-127249779D01*
X136179714Y-127270033D01*
X135771467Y-127677569D01*
X135658715Y-127949105D01*
X135575025Y-128005025D01*
X134935025Y-128645025D01*
X134783284Y-128872121D01*
X134776690Y-128905270D01*
X134730000Y-129140000D01*
X134730000Y-131157902D01*
X134640000Y-131140000D01*
X103378528Y-131140000D01*
X102977657Y-130739129D01*
X102999239Y-130724708D01*
X103281043Y-130302957D01*
X103350000Y-129956288D01*
X103418957Y-130302957D01*
X103700761Y-130724708D01*
X104122512Y-131006512D01*
X104620000Y-131105469D01*
X105117488Y-131006512D01*
X105539239Y-130724708D01*
X105821043Y-130302957D01*
X105890000Y-129956288D01*
X105958957Y-130302957D01*
X106240761Y-130724708D01*
X106662512Y-131006512D01*
X107160000Y-131105469D01*
X107657488Y-131006512D01*
X108079239Y-130724708D01*
X108361043Y-130302957D01*
X108430000Y-129956288D01*
X108498957Y-130302957D01*
X108780761Y-130724708D01*
X109202512Y-131006512D01*
X109700000Y-131105469D01*
X110197488Y-131006512D01*
X110619239Y-130724708D01*
X110901043Y-130302957D01*
X110970000Y-129956288D01*
X111038957Y-130302957D01*
X111320761Y-130724708D01*
X111742512Y-131006512D01*
X112240000Y-131105469D01*
X112737488Y-131006512D01*
X113159239Y-130724708D01*
X113441043Y-130302957D01*
X113510000Y-129956288D01*
X113578957Y-130302957D01*
X113860761Y-130724708D01*
X114282512Y-131006512D01*
X114780000Y-131105469D01*
X115277488Y-131006512D01*
X115699239Y-130724708D01*
X115981043Y-130302957D01*
X116011184Y-130151429D01*
X116011184Y-130630000D01*
X116042562Y-130796760D01*
X116141117Y-130949919D01*
X116291495Y-131052668D01*
X116470000Y-131088816D01*
X118170000Y-131088816D01*
X118336760Y-131057438D01*
X118489919Y-130958883D01*
X118592668Y-130808505D01*
X118628816Y-130630000D01*
X118628816Y-130355000D01*
X130630000Y-130355000D01*
X130850043Y-130311231D01*
X131036586Y-130186586D01*
X133626586Y-127596586D01*
X133751231Y-127410043D01*
X133766473Y-127333414D01*
X133795000Y-127190000D01*
X133795000Y-124178172D01*
X134408172Y-123565000D01*
X135960000Y-123565000D01*
X136180043Y-123521231D01*
X136366586Y-123396586D01*
X137816587Y-121946586D01*
X137941231Y-121760043D01*
X137985000Y-121540000D01*
X137985000Y-116498061D01*
X138530381Y-116498061D01*
X138721772Y-116960137D01*
X139125270Y-117388387D01*
X139434494Y-117527387D01*
X139055292Y-117780761D01*
X138773488Y-118202512D01*
X138674531Y-118700000D01*
X138773488Y-119197488D01*
X139055292Y-119619239D01*
X139477043Y-119901043D01*
X139974531Y-120000000D01*
X140025469Y-120000000D01*
X140522957Y-119901043D01*
X140944708Y-119619239D01*
X141226512Y-119197488D01*
X141270000Y-118978860D01*
X141313488Y-119197488D01*
X141595292Y-119619239D01*
X142017043Y-119901043D01*
X142514531Y-120000000D01*
X142565469Y-120000000D01*
X143062957Y-119901043D01*
X143484708Y-119619239D01*
X143766512Y-119197488D01*
X143865469Y-118700000D01*
X143766512Y-118202512D01*
X143484708Y-117780761D01*
X143105506Y-117527387D01*
X143414730Y-117388387D01*
X143818228Y-116960137D01*
X144009619Y-116498061D01*
X143879469Y-116264000D01*
X142644000Y-116264000D01*
X142644000Y-116284000D01*
X142436000Y-116284000D01*
X142436000Y-116264000D01*
X140104000Y-116264000D01*
X140104000Y-116284000D01*
X139896000Y-116284000D01*
X139896000Y-116264000D01*
X138660531Y-116264000D01*
X138530381Y-116498061D01*
X137985000Y-116498061D01*
X137985000Y-116238172D01*
X138621696Y-115601477D01*
X138530381Y-115821939D01*
X138660531Y-116056000D01*
X139896000Y-116056000D01*
X139896000Y-116036000D01*
X140104000Y-116036000D01*
X140104000Y-116056000D01*
X142436000Y-116056000D01*
X142436000Y-116036000D01*
X142644000Y-116036000D01*
X142644000Y-116056000D01*
X143879469Y-116056000D01*
X144009619Y-115821939D01*
X143818228Y-115359863D01*
X143414730Y-114931613D01*
X143105506Y-114792613D01*
X143484708Y-114539239D01*
X143766512Y-114117488D01*
X143865469Y-113620000D01*
X143766512Y-113122512D01*
X143484708Y-112700761D01*
X143062957Y-112418957D01*
X142716288Y-112350000D01*
X143062957Y-112281043D01*
X143484708Y-111999239D01*
X143766512Y-111577488D01*
X143865469Y-111080000D01*
X143766512Y-110582512D01*
X143484708Y-110160761D01*
X143062957Y-109878957D01*
X142716288Y-109810000D01*
X143062957Y-109741043D01*
X143484708Y-109459239D01*
X143766512Y-109037488D01*
X143865469Y-108540000D01*
X143766512Y-108042512D01*
X143484708Y-107620761D01*
X143062957Y-107338957D01*
X142716288Y-107270000D01*
X143062957Y-107201043D01*
X143484708Y-106919239D01*
X143766512Y-106497488D01*
X143865469Y-106000000D01*
X143766512Y-105502512D01*
X143484708Y-105080761D01*
X143062957Y-104798957D01*
X142565469Y-104700000D01*
X142514531Y-104700000D01*
X142017043Y-104798957D01*
X141595292Y-105080761D01*
X141313488Y-105502512D01*
X141308816Y-105526000D01*
X141308816Y-105150000D01*
X141277438Y-104983240D01*
X141178883Y-104830081D01*
X141028505Y-104727332D01*
X140850000Y-104691184D01*
X139150000Y-104691184D01*
X138983240Y-104722562D01*
X138830081Y-104821117D01*
X138727332Y-104971495D01*
X138691184Y-105150000D01*
X138691184Y-105468525D01*
X138689957Y-105468769D01*
X138503414Y-105593414D01*
X136293414Y-107803414D01*
X136168769Y-107989957D01*
X136125000Y-108210000D01*
X136125000Y-110741827D01*
X133200000Y-113666828D01*
X133200000Y-112750000D01*
X133266760Y-112737438D01*
X133419919Y-112638883D01*
X133522668Y-112488505D01*
X133558816Y-112310000D01*
X133558816Y-111410000D01*
X133527438Y-111243240D01*
X133428883Y-111090081D01*
X133278505Y-110987332D01*
X133100000Y-110951184D01*
X131900000Y-110951184D01*
X131733240Y-110982562D01*
X131580081Y-111081117D01*
X131477332Y-111231495D01*
X131441184Y-111410000D01*
X131441184Y-112310000D01*
X131472562Y-112476760D01*
X131571117Y-112629919D01*
X131721495Y-112732668D01*
X131800000Y-112748566D01*
X131800000Y-113420051D01*
X131368867Y-113851184D01*
X130540000Y-113851184D01*
X130373240Y-113882562D01*
X130251104Y-113961154D01*
X130150000Y-113860050D01*
X130150000Y-112088269D01*
X130197668Y-112018505D01*
X130233816Y-111840000D01*
X130233816Y-110780000D01*
X130202438Y-110613240D01*
X130103883Y-110460081D01*
X129953505Y-110357332D01*
X129775000Y-110321184D01*
X129125000Y-110321184D01*
X128969493Y-110350445D01*
X128825000Y-110321184D01*
X128175000Y-110321184D01*
X128019493Y-110350445D01*
X127875000Y-110321184D01*
X127225000Y-110321184D01*
X127058240Y-110352562D01*
X126905081Y-110451117D01*
X126802332Y-110601495D01*
X126800610Y-110610000D01*
X126467483Y-110610000D01*
X126383883Y-110480081D01*
X126289035Y-110415274D01*
X126427727Y-110357825D01*
X126612826Y-110172727D01*
X126713000Y-109930884D01*
X126713000Y-109568500D01*
X126548500Y-109404000D01*
X125534000Y-109404000D01*
X125534000Y-109424000D01*
X125326000Y-109424000D01*
X125326000Y-109404000D01*
X125306000Y-109404000D01*
X125306000Y-109196000D01*
X125326000Y-109196000D01*
X125326000Y-108306500D01*
X125534000Y-108306500D01*
X125534000Y-109196000D01*
X126548500Y-109196000D01*
X126713000Y-109031500D01*
X126713000Y-108669116D01*
X126612826Y-108427273D01*
X126427727Y-108242175D01*
X126185885Y-108142000D01*
X125698500Y-108142000D01*
X125534000Y-108306500D01*
X125326000Y-108306500D01*
X125161500Y-108142000D01*
X124674115Y-108142000D01*
X124432273Y-108242175D01*
X124247174Y-108427273D01*
X124147000Y-108669116D01*
X124147000Y-108790702D01*
X124100000Y-108781184D01*
X123200000Y-108781184D01*
X123100001Y-108800000D01*
X122422254Y-108800000D01*
X122402115Y-108779826D01*
X122089817Y-108650148D01*
X122048640Y-108650112D01*
X120224264Y-106825736D01*
X120029610Y-106695672D01*
X119800000Y-106650000D01*
X113669930Y-106650000D01*
X113670130Y-106421470D01*
X113615807Y-106290000D01*
X121013776Y-106290000D01*
X121023811Y-106314286D01*
X121234605Y-106525448D01*
X121510161Y-106639869D01*
X121808530Y-106640130D01*
X122084286Y-106526189D01*
X122231457Y-106379275D01*
X123661089Y-107808906D01*
X123661091Y-107808909D01*
X123792309Y-107896586D01*
X123839524Y-107928134D01*
X124050000Y-107970000D01*
X126040000Y-107970000D01*
X126250476Y-107928134D01*
X126428909Y-107808909D01*
X126710000Y-107527818D01*
X127000000Y-107817817D01*
X127000000Y-108190038D01*
X126905081Y-108251117D01*
X126802332Y-108401495D01*
X126766184Y-108580000D01*
X126766184Y-109640000D01*
X126797562Y-109806760D01*
X126896117Y-109959919D01*
X127046495Y-110062668D01*
X127225000Y-110098816D01*
X127875000Y-110098816D01*
X128030507Y-110069555D01*
X128175000Y-110098816D01*
X128653263Y-110098816D01*
X128752273Y-110197825D01*
X128994115Y-110298000D01*
X129181500Y-110298000D01*
X129346000Y-110133500D01*
X129346000Y-109214000D01*
X129554000Y-109214000D01*
X129554000Y-110133500D01*
X129718500Y-110298000D01*
X129905885Y-110298000D01*
X130147727Y-110197825D01*
X130332826Y-110012727D01*
X130433000Y-109770884D01*
X130433000Y-109378500D01*
X130268500Y-109214000D01*
X129554000Y-109214000D01*
X129346000Y-109214000D01*
X129326000Y-109214000D01*
X129326000Y-109006000D01*
X129346000Y-109006000D01*
X129346000Y-108086500D01*
X129554000Y-108086500D01*
X129554000Y-109006000D01*
X130268500Y-109006000D01*
X130433000Y-108841500D01*
X130433000Y-108449116D01*
X130332826Y-108207273D01*
X130147727Y-108022175D01*
X129905885Y-107922000D01*
X129718500Y-107922000D01*
X129554000Y-108086500D01*
X129346000Y-108086500D01*
X129181500Y-107922000D01*
X129050000Y-107922000D01*
X129050000Y-107282136D01*
X129194919Y-107188883D01*
X129297668Y-107038505D01*
X129333816Y-106860000D01*
X129333816Y-106606231D01*
X129371231Y-106581231D01*
X129485037Y-106410909D01*
X129525000Y-106210000D01*
X129485037Y-106009091D01*
X129371231Y-105838769D01*
X129344587Y-105820966D01*
X129430830Y-105734723D01*
X129451866Y-105840476D01*
X129571091Y-106018909D01*
X130651089Y-107098906D01*
X130651091Y-107098909D01*
X130804017Y-107201091D01*
X130829524Y-107218134D01*
X131040000Y-107260001D01*
X131040005Y-107260000D01*
X131425592Y-107260000D01*
X131447562Y-107376760D01*
X131546117Y-107529919D01*
X131696495Y-107632668D01*
X131841908Y-107662115D01*
X131733240Y-107682562D01*
X131580081Y-107781117D01*
X131477332Y-107931495D01*
X131441184Y-108110000D01*
X131441184Y-109010000D01*
X131472562Y-109176760D01*
X131571117Y-109329919D01*
X131721495Y-109432668D01*
X131900000Y-109468816D01*
X133100000Y-109468816D01*
X133266760Y-109437438D01*
X133419919Y-109338883D01*
X133522668Y-109188505D01*
X133558816Y-109010000D01*
X133558816Y-108110000D01*
X133527438Y-107943240D01*
X133428883Y-107790081D01*
X133278505Y-107687332D01*
X133157174Y-107662762D01*
X133291760Y-107637438D01*
X133444919Y-107538883D01*
X133547668Y-107388505D01*
X133583816Y-107210000D01*
X133583816Y-106210000D01*
X133552438Y-106043240D01*
X133453883Y-105890081D01*
X133359035Y-105825274D01*
X133497727Y-105767825D01*
X133682826Y-105582727D01*
X133783000Y-105340884D01*
X133783000Y-104978500D01*
X133618500Y-104814000D01*
X132604000Y-104814000D01*
X132604000Y-104834000D01*
X132396000Y-104834000D01*
X132396000Y-104814000D01*
X131381500Y-104814000D01*
X131217000Y-104978500D01*
X131217000Y-105340884D01*
X131317174Y-105582727D01*
X131502273Y-105767825D01*
X131641512Y-105825500D01*
X131555081Y-105881117D01*
X131452332Y-106031495D01*
X131426309Y-106160000D01*
X131267817Y-106160000D01*
X130510000Y-105402182D01*
X130510000Y-104630005D01*
X130510001Y-104630000D01*
X130468134Y-104419524D01*
X130348909Y-104241091D01*
X130186934Y-104079116D01*
X131217000Y-104079116D01*
X131217000Y-104441500D01*
X131381500Y-104606000D01*
X132396000Y-104606000D01*
X132396000Y-103716500D01*
X132604000Y-103716500D01*
X132604000Y-104606000D01*
X133618500Y-104606000D01*
X133783000Y-104441500D01*
X133783000Y-104079116D01*
X133682826Y-103837273D01*
X133497727Y-103652175D01*
X133255885Y-103552000D01*
X132768500Y-103552000D01*
X132604000Y-103716500D01*
X132396000Y-103716500D01*
X132231500Y-103552000D01*
X131744115Y-103552000D01*
X131502273Y-103652175D01*
X131317174Y-103837273D01*
X131217000Y-104079116D01*
X130186934Y-104079116D01*
X129628909Y-103521091D01*
X129450476Y-103401866D01*
X129240000Y-103360000D01*
X123650000Y-103360000D01*
X123439524Y-103401866D01*
X123261091Y-103521091D01*
X123261089Y-103521094D01*
X122562207Y-104219976D01*
X122441470Y-104219870D01*
X122165714Y-104333811D01*
X121954552Y-104544605D01*
X121889261Y-104701842D01*
X121880000Y-104700000D01*
X114457818Y-104700000D01*
X114150000Y-104392182D01*
X114150000Y-103500000D01*
X114138182Y-103441642D01*
X114104591Y-103392479D01*
X114086379Y-103380760D01*
X114077438Y-103333240D01*
X113978883Y-103180081D01*
X113828505Y-103077332D01*
X113650000Y-103041184D01*
X113350000Y-103041184D01*
X113246329Y-103060691D01*
X113150000Y-103041184D01*
X112850000Y-103041184D01*
X112746329Y-103060691D01*
X112650000Y-103041184D01*
X112350000Y-103041184D01*
X112246329Y-103060691D01*
X112150000Y-103041184D01*
X111850000Y-103041184D01*
X111746329Y-103060691D01*
X111650000Y-103041184D01*
X111350000Y-103041184D01*
X111246329Y-103060691D01*
X111150000Y-103041184D01*
X110850000Y-103041184D01*
X110746329Y-103060691D01*
X110650000Y-103041184D01*
X110350000Y-103041184D01*
X110246329Y-103060691D01*
X110150000Y-103041184D01*
X109850000Y-103041184D01*
X109746329Y-103060691D01*
X109650000Y-103041184D01*
X109350000Y-103041184D01*
X109246329Y-103060691D01*
X109150000Y-103041184D01*
X108850000Y-103041184D01*
X108746329Y-103060691D01*
X108650000Y-103041184D01*
X108621736Y-103041184D01*
X108522727Y-102942174D01*
X108280884Y-102842000D01*
X108239500Y-102842000D01*
X108081026Y-103000474D01*
X108022727Y-102942174D01*
X107780884Y-102842000D01*
X107719116Y-102842000D01*
X107500000Y-102932760D01*
X107280884Y-102842000D01*
X107219116Y-102842000D01*
X107000000Y-102932760D01*
X106780884Y-102842000D01*
X106719116Y-102842000D01*
X106500000Y-102932760D01*
X106280884Y-102842000D01*
X106219116Y-102842000D01*
X106000000Y-102932760D01*
X105780884Y-102842000D01*
X105719116Y-102842000D01*
X105500000Y-102932760D01*
X105280884Y-102842000D01*
X105219116Y-102842000D01*
X105000000Y-102932760D01*
X104780884Y-102842000D01*
X104719116Y-102842000D01*
X104500000Y-102932760D01*
X104280884Y-102842000D01*
X104219116Y-102842000D01*
X104000000Y-102932760D01*
X103780884Y-102842000D01*
X103719116Y-102842000D01*
X103500000Y-102932760D01*
X103280884Y-102842000D01*
X103219116Y-102842000D01*
X103000000Y-102932760D01*
X102780884Y-102842000D01*
X102719116Y-102842000D01*
X102500000Y-102932760D01*
X102280884Y-102842000D01*
X102219116Y-102842000D01*
X102000000Y-102932760D01*
X101780884Y-102842000D01*
X101719116Y-102842000D01*
X101500000Y-102932760D01*
X101280884Y-102842000D01*
X101219116Y-102842000D01*
X101000000Y-102932760D01*
X100780884Y-102842000D01*
X100719116Y-102842000D01*
X100477273Y-102942174D01*
X100418974Y-103000474D01*
X100260500Y-102842000D01*
X100219116Y-102842000D01*
X99977273Y-102942174D01*
X99878264Y-103041184D01*
X99850000Y-103041184D01*
X99746329Y-103060691D01*
X99650000Y-103041184D01*
X99350000Y-103041184D01*
X99246329Y-103060691D01*
X99150000Y-103041184D01*
X98850000Y-103041184D01*
X98746329Y-103060691D01*
X98650000Y-103041184D01*
X98350000Y-103041184D01*
X98246329Y-103060691D01*
X98150000Y-103041184D01*
X97850000Y-103041184D01*
X97746329Y-103060691D01*
X97650000Y-103041184D01*
X97350000Y-103041184D01*
X97246329Y-103060691D01*
X97150000Y-103041184D01*
X96850000Y-103041184D01*
X96746329Y-103060691D01*
X96650000Y-103041184D01*
X96350000Y-103041184D01*
X96246329Y-103060691D01*
X96150000Y-103041184D01*
X95850000Y-103041184D01*
X95746329Y-103060691D01*
X95650000Y-103041184D01*
X95350000Y-103041184D01*
X95246329Y-103060691D01*
X95150000Y-103041184D01*
X94850000Y-103041184D01*
X94746329Y-103060691D01*
X94650000Y-103041184D01*
X94350000Y-103041184D01*
X94246329Y-103060691D01*
X94150000Y-103041184D01*
X93850000Y-103041184D01*
X93746329Y-103060691D01*
X93650000Y-103041184D01*
X93350000Y-103041184D01*
X93246329Y-103060691D01*
X93150000Y-103041184D01*
X92850000Y-103041184D01*
X92746329Y-103060691D01*
X92650000Y-103041184D01*
X92350000Y-103041184D01*
X92246329Y-103060691D01*
X92150000Y-103041184D01*
X91850000Y-103041184D01*
X91746329Y-103060691D01*
X91650000Y-103041184D01*
X91350000Y-103041184D01*
X91246329Y-103060691D01*
X91150000Y-103041184D01*
X90850000Y-103041184D01*
X90746329Y-103060691D01*
X90650000Y-103041184D01*
X90350000Y-103041184D01*
X90246329Y-103060691D01*
X90150000Y-103041184D01*
X89850000Y-103041184D01*
X89746329Y-103060691D01*
X89650000Y-103041184D01*
X89350000Y-103041184D01*
X89246329Y-103060691D01*
X89150000Y-103041184D01*
X88850000Y-103041184D01*
X88746329Y-103060691D01*
X88650000Y-103041184D01*
X88350000Y-103041184D01*
X88246329Y-103060691D01*
X88150000Y-103041184D01*
X88121736Y-103041184D01*
X88022727Y-102942174D01*
X87780884Y-102842000D01*
X87739500Y-102842000D01*
X87581026Y-103000474D01*
X87522727Y-102942174D01*
X87280884Y-102842000D01*
X87219116Y-102842000D01*
X86977273Y-102942174D01*
X86918974Y-103000474D01*
X86760500Y-102842000D01*
X86719116Y-102842000D01*
X86477273Y-102942174D01*
X86292175Y-103127273D01*
X86192000Y-103369115D01*
X86192000Y-103731500D01*
X86350000Y-103889500D01*
X86350000Y-104110500D01*
X86192000Y-104268500D01*
X86192000Y-104630885D01*
X86292175Y-104872727D01*
X86477273Y-105057826D01*
X86549152Y-105087599D01*
X86485714Y-105113811D01*
X86305996Y-105293216D01*
X86201015Y-105039143D01*
X86162137Y-105000197D01*
X86126716Y-104822122D01*
X85974975Y-104595025D01*
X85974972Y-104595023D01*
X83794043Y-102414093D01*
X83772201Y-102304286D01*
X83593363Y-102036637D01*
X83325714Y-101857799D01*
X83010000Y-101795000D01*
X74290000Y-101795000D01*
X73974286Y-101857799D01*
X73706637Y-102036637D01*
X71439037Y-104304237D01*
X71379143Y-104328985D01*
X71139826Y-104567885D01*
X71025000Y-104844416D01*
X71025000Y-100100000D01*
X84291184Y-100100000D01*
X84291184Y-101600000D01*
X84322562Y-101766760D01*
X84421117Y-101919919D01*
X84571495Y-102022668D01*
X84750000Y-102058816D01*
X86150000Y-102058816D01*
X86316760Y-102027438D01*
X86469919Y-101928883D01*
X86572668Y-101778505D01*
X86608816Y-101600000D01*
X86608816Y-100100000D01*
X113891184Y-100100000D01*
X113891184Y-101600000D01*
X113922562Y-101766760D01*
X114021117Y-101919919D01*
X114171495Y-102022668D01*
X114350000Y-102058816D01*
X115750000Y-102058816D01*
X115916760Y-102027438D01*
X116069919Y-101928883D01*
X116172668Y-101778505D01*
X116208816Y-101600000D01*
X116208816Y-100100000D01*
X116177438Y-99933240D01*
X116078883Y-99780081D01*
X115928505Y-99677332D01*
X115750000Y-99641184D01*
X114350000Y-99641184D01*
X114183240Y-99672562D01*
X114030081Y-99771117D01*
X113927332Y-99921495D01*
X113891184Y-100100000D01*
X86608816Y-100100000D01*
X86577438Y-99933240D01*
X86478883Y-99780081D01*
X86328505Y-99677332D01*
X86150000Y-99641184D01*
X84750000Y-99641184D01*
X84583240Y-99672562D01*
X84430081Y-99771117D01*
X84327332Y-99921495D01*
X84291184Y-100100000D01*
X71025000Y-100100000D01*
X71025000Y-35588354D01*
X71261081Y-36159715D01*
X71837252Y-36736892D01*
X72590441Y-37049643D01*
X73405981Y-37050355D01*
X74159715Y-36738919D01*
X74736892Y-36162748D01*
X75049643Y-35409559D01*
X75050355Y-34594019D01*
X74738919Y-33840285D01*
X74162748Y-33263108D01*
X73409559Y-32950357D01*
X72594019Y-32949645D01*
X71840285Y-33261081D01*
X71263108Y-33837252D01*
X71025000Y-34410680D01*
X71025000Y-33051706D01*
X71070659Y-32822162D01*
X71171396Y-32671398D01*
X71322163Y-32570659D01*
X71551706Y-32525000D01*
X143948293Y-32525000D01*
X144369179Y-32608720D01*
G36*
X124692999Y-124426172D02*
X124684552Y-124434605D01*
X124570131Y-124710161D01*
X124569870Y-125008530D01*
X124630391Y-125155000D01*
X122138173Y-125155000D01*
X121456586Y-124473414D01*
X121270043Y-124348769D01*
X121259068Y-124346586D01*
X121050000Y-124305000D01*
X107640000Y-124305000D01*
X107430932Y-124346586D01*
X107419957Y-124348769D01*
X107233414Y-124473414D01*
X104961828Y-126745000D01*
X98109908Y-126745000D01*
X98110130Y-126491470D01*
X97996189Y-126215714D01*
X97935000Y-126154418D01*
X97935000Y-120720000D01*
X97891231Y-120499957D01*
X97886859Y-120493414D01*
X97766586Y-120313413D01*
X95128172Y-117675000D01*
X117941828Y-117675000D01*
X124692999Y-124426172D01*
X124692999Y-124426172D01*
G37*
X124692999Y-124426172D02*
X124684552Y-124434605D01*
X124570131Y-124710161D01*
X124569870Y-125008530D01*
X124630391Y-125155000D01*
X122138173Y-125155000D01*
X121456586Y-124473414D01*
X121270043Y-124348769D01*
X121259068Y-124346586D01*
X121050000Y-124305000D01*
X107640000Y-124305000D01*
X107430932Y-124346586D01*
X107419957Y-124348769D01*
X107233414Y-124473414D01*
X104961828Y-126745000D01*
X98109908Y-126745000D01*
X98110130Y-126491470D01*
X97996189Y-126215714D01*
X97935000Y-126154418D01*
X97935000Y-120720000D01*
X97891231Y-120499957D01*
X97886859Y-120493414D01*
X97766586Y-120313413D01*
X95128172Y-117675000D01*
X117941828Y-117675000D01*
X124692999Y-124426172D01*
G36*
X83098957Y-112522957D02*
X83380761Y-112944708D01*
X83802512Y-113226512D01*
X83853348Y-113236624D01*
X83893414Y-113296586D01*
X85323413Y-114726586D01*
X85450093Y-114811231D01*
X85509957Y-114851231D01*
X85730000Y-114895000D01*
X122840000Y-114895000D01*
X123060043Y-114851231D01*
X123246586Y-114726586D01*
X124703118Y-113270055D01*
X124730000Y-113270079D01*
X124730000Y-114600000D01*
X124783284Y-114867879D01*
X124881184Y-115014396D01*
X124881184Y-115710000D01*
X124912562Y-115876760D01*
X125011117Y-116029919D01*
X125161495Y-116132668D01*
X125340000Y-116168816D01*
X126340000Y-116168816D01*
X126506760Y-116137438D01*
X126659919Y-116038883D01*
X126762668Y-115888505D01*
X126798816Y-115710000D01*
X126798816Y-114310000D01*
X126767438Y-114143240D01*
X126668883Y-113990081D01*
X126518505Y-113887332D01*
X126340000Y-113851184D01*
X126130000Y-113851184D01*
X126130000Y-113299921D01*
X126368530Y-113300130D01*
X126644286Y-113186189D01*
X126855448Y-112975395D01*
X126969802Y-112700000D01*
X128330000Y-112700000D01*
X128540476Y-112658134D01*
X128718909Y-112538909D01*
X128750000Y-112507818D01*
X128750000Y-114150000D01*
X128803284Y-114417879D01*
X128955025Y-114644975D01*
X129815025Y-115504975D01*
X130042121Y-115656716D01*
X130081184Y-115664486D01*
X130081184Y-115710000D01*
X130112562Y-115876760D01*
X130211117Y-116029919D01*
X130361495Y-116132668D01*
X130540000Y-116168816D01*
X131540000Y-116168816D01*
X131706760Y-116137438D01*
X131859919Y-116038883D01*
X131962668Y-115888505D01*
X131998816Y-115710000D01*
X131998816Y-115201134D01*
X132935000Y-114264949D01*
X132935000Y-117176453D01*
X132919817Y-117170148D01*
X132581666Y-117169853D01*
X132269143Y-117298985D01*
X132029826Y-117537885D01*
X131916834Y-117810000D01*
X125369949Y-117810000D01*
X123390122Y-115830172D01*
X123390147Y-115801666D01*
X123261015Y-115489143D01*
X123022115Y-115249826D01*
X122709817Y-115120148D01*
X122371666Y-115119853D01*
X122059143Y-115248985D01*
X121819826Y-115487885D01*
X121690148Y-115800183D01*
X121689853Y-116138334D01*
X121818985Y-116450857D01*
X122057885Y-116690174D01*
X122370183Y-116819852D01*
X122399928Y-116819878D01*
X124585023Y-119004972D01*
X124585025Y-119004975D01*
X124812122Y-119156716D01*
X125080000Y-119210000D01*
X131256827Y-119210000D01*
X128753414Y-121713414D01*
X128628769Y-121899957D01*
X128585000Y-122120000D01*
X128585000Y-124841827D01*
X128271828Y-125155000D01*
X126827898Y-125155000D01*
X126879869Y-125029839D01*
X126880130Y-124731470D01*
X126766189Y-124455714D01*
X126705000Y-124394418D01*
X126705000Y-124340000D01*
X126661231Y-124119957D01*
X126536586Y-123933414D01*
X118876586Y-116273414D01*
X118690043Y-116148769D01*
X118470000Y-116105000D01*
X83278173Y-116105000D01*
X82335000Y-115161828D01*
X82335000Y-113174720D01*
X82679239Y-112944708D01*
X82961043Y-112522957D01*
X83030000Y-112176288D01*
X83098957Y-112522957D01*
X83098957Y-112522957D01*
G37*
X83098957Y-112522957D02*
X83380761Y-112944708D01*
X83802512Y-113226512D01*
X83853348Y-113236624D01*
X83893414Y-113296586D01*
X85323413Y-114726586D01*
X85450093Y-114811231D01*
X85509957Y-114851231D01*
X85730000Y-114895000D01*
X122840000Y-114895000D01*
X123060043Y-114851231D01*
X123246586Y-114726586D01*
X124703118Y-113270055D01*
X124730000Y-113270079D01*
X124730000Y-114600000D01*
X124783284Y-114867879D01*
X124881184Y-115014396D01*
X124881184Y-115710000D01*
X124912562Y-115876760D01*
X125011117Y-116029919D01*
X125161495Y-116132668D01*
X125340000Y-116168816D01*
X126340000Y-116168816D01*
X126506760Y-116137438D01*
X126659919Y-116038883D01*
X126762668Y-115888505D01*
X126798816Y-115710000D01*
X126798816Y-114310000D01*
X126767438Y-114143240D01*
X126668883Y-113990081D01*
X126518505Y-113887332D01*
X126340000Y-113851184D01*
X126130000Y-113851184D01*
X126130000Y-113299921D01*
X126368530Y-113300130D01*
X126644286Y-113186189D01*
X126855448Y-112975395D01*
X126969802Y-112700000D01*
X128330000Y-112700000D01*
X128540476Y-112658134D01*
X128718909Y-112538909D01*
X128750000Y-112507818D01*
X128750000Y-114150000D01*
X128803284Y-114417879D01*
X128955025Y-114644975D01*
X129815025Y-115504975D01*
X130042121Y-115656716D01*
X130081184Y-115664486D01*
X130081184Y-115710000D01*
X130112562Y-115876760D01*
X130211117Y-116029919D01*
X130361495Y-116132668D01*
X130540000Y-116168816D01*
X131540000Y-116168816D01*
X131706760Y-116137438D01*
X131859919Y-116038883D01*
X131962668Y-115888505D01*
X131998816Y-115710000D01*
X131998816Y-115201134D01*
X132935000Y-114264949D01*
X132935000Y-117176453D01*
X132919817Y-117170148D01*
X132581666Y-117169853D01*
X132269143Y-117298985D01*
X132029826Y-117537885D01*
X131916834Y-117810000D01*
X125369949Y-117810000D01*
X123390122Y-115830172D01*
X123390147Y-115801666D01*
X123261015Y-115489143D01*
X123022115Y-115249826D01*
X122709817Y-115120148D01*
X122371666Y-115119853D01*
X122059143Y-115248985D01*
X121819826Y-115487885D01*
X121690148Y-115800183D01*
X121689853Y-116138334D01*
X121818985Y-116450857D01*
X122057885Y-116690174D01*
X122370183Y-116819852D01*
X122399928Y-116819878D01*
X124585023Y-119004972D01*
X124585025Y-119004975D01*
X124812122Y-119156716D01*
X125080000Y-119210000D01*
X131256827Y-119210000D01*
X128753414Y-121713414D01*
X128628769Y-121899957D01*
X128585000Y-122120000D01*
X128585000Y-124841827D01*
X128271828Y-125155000D01*
X126827898Y-125155000D01*
X126879869Y-125029839D01*
X126880130Y-124731470D01*
X126766189Y-124455714D01*
X126705000Y-124394418D01*
X126705000Y-124340000D01*
X126661231Y-124119957D01*
X126536586Y-123933414D01*
X118876586Y-116273414D01*
X118690043Y-116148769D01*
X118470000Y-116105000D01*
X83278173Y-116105000D01*
X82335000Y-115161828D01*
X82335000Y-113174720D01*
X82679239Y-112944708D01*
X82961043Y-112522957D01*
X83030000Y-112176288D01*
X83098957Y-112522957D01*
G36*
X88973414Y-110273414D02*
X88848769Y-110459957D01*
X88805000Y-110680000D01*
X88805000Y-110825280D01*
X88460761Y-111055292D01*
X88178957Y-111477043D01*
X88110000Y-111823712D01*
X88041043Y-111477043D01*
X87759239Y-111055292D01*
X87415000Y-110825280D01*
X87415000Y-109717232D01*
X87447885Y-109750174D01*
X87760183Y-109879852D01*
X88098334Y-109880147D01*
X88410857Y-109751015D01*
X88650174Y-109512115D01*
X88779852Y-109199817D01*
X88779878Y-109170072D01*
X89689950Y-108260000D01*
X90986827Y-108260000D01*
X88973414Y-110273414D01*
X88973414Y-110273414D01*
G37*
X88973414Y-110273414D02*
X88848769Y-110459957D01*
X88805000Y-110680000D01*
X88805000Y-110825280D01*
X88460761Y-111055292D01*
X88178957Y-111477043D01*
X88110000Y-111823712D01*
X88041043Y-111477043D01*
X87759239Y-111055292D01*
X87415000Y-110825280D01*
X87415000Y-109717232D01*
X87447885Y-109750174D01*
X87760183Y-109879852D01*
X88098334Y-109880147D01*
X88410857Y-109751015D01*
X88650174Y-109512115D01*
X88779852Y-109199817D01*
X88779878Y-109170072D01*
X89689950Y-108260000D01*
X90986827Y-108260000D01*
X88973414Y-110273414D01*
G36*
X90850000Y-104958816D02*
X90985632Y-104958816D01*
X90942175Y-105002273D01*
X90842000Y-105244115D01*
X90842000Y-105731500D01*
X91006500Y-105896000D01*
X91896000Y-105896000D01*
X91896000Y-105876000D01*
X92104000Y-105876000D01*
X92104000Y-105896000D01*
X92124000Y-105896000D01*
X92124000Y-106104000D01*
X92104000Y-106104000D01*
X92104000Y-106124000D01*
X91896000Y-106124000D01*
X91896000Y-106104000D01*
X91006500Y-106104000D01*
X90842000Y-106268500D01*
X90842000Y-106755885D01*
X90885126Y-106860000D01*
X89400000Y-106860000D01*
X89132121Y-106913284D01*
X88905025Y-107065025D01*
X87790172Y-108179878D01*
X87761666Y-108179853D01*
X87479096Y-108296608D01*
X87589869Y-108029839D01*
X87590130Y-107731470D01*
X87561591Y-107662402D01*
X87777598Y-107662402D01*
X87984247Y-107621297D01*
X88159436Y-107504240D01*
X90381838Y-105281838D01*
X90498895Y-105106649D01*
X90528301Y-104958816D01*
X90650000Y-104958816D01*
X90753671Y-104939309D01*
X90850000Y-104958816D01*
X90850000Y-104958816D01*
G37*
X90850000Y-104958816D02*
X90985632Y-104958816D01*
X90942175Y-105002273D01*
X90842000Y-105244115D01*
X90842000Y-105731500D01*
X91006500Y-105896000D01*
X91896000Y-105896000D01*
X91896000Y-105876000D01*
X92104000Y-105876000D01*
X92104000Y-105896000D01*
X92124000Y-105896000D01*
X92124000Y-106104000D01*
X92104000Y-106104000D01*
X92104000Y-106124000D01*
X91896000Y-106124000D01*
X91896000Y-106104000D01*
X91006500Y-106104000D01*
X90842000Y-106268500D01*
X90842000Y-106755885D01*
X90885126Y-106860000D01*
X89400000Y-106860000D01*
X89132121Y-106913284D01*
X88905025Y-107065025D01*
X87790172Y-108179878D01*
X87761666Y-108179853D01*
X87479096Y-108296608D01*
X87589869Y-108029839D01*
X87590130Y-107731470D01*
X87561591Y-107662402D01*
X87777598Y-107662402D01*
X87984247Y-107621297D01*
X88159436Y-107504240D01*
X90381838Y-105281838D01*
X90498895Y-105106649D01*
X90528301Y-104958816D01*
X90650000Y-104958816D01*
X90753671Y-104939309D01*
X90850000Y-104958816D01*
G36*
X106219116Y-105158000D02*
X106250465Y-105158000D01*
X106230081Y-105171117D01*
X106127332Y-105321495D01*
X106091184Y-105500000D01*
X106091184Y-106000000D01*
X106122562Y-106166760D01*
X106221117Y-106319919D01*
X106371495Y-106422668D01*
X106550000Y-106458816D01*
X107450000Y-106458816D01*
X107616760Y-106427438D01*
X107751543Y-106340708D01*
X107871495Y-106422668D01*
X108050000Y-106458816D01*
X108950000Y-106458816D01*
X109116760Y-106427438D01*
X109251543Y-106340708D01*
X109371495Y-106422668D01*
X109550000Y-106458816D01*
X110450000Y-106458816D01*
X110616760Y-106427438D01*
X110751543Y-106340708D01*
X110871495Y-106422668D01*
X111050000Y-106458816D01*
X111950000Y-106458816D01*
X111988416Y-106451588D01*
X112110517Y-106573689D01*
X111950000Y-106541184D01*
X111050000Y-106541184D01*
X110883240Y-106572562D01*
X110762898Y-106650000D01*
X110734858Y-106650000D01*
X110628505Y-106577332D01*
X110450000Y-106541184D01*
X109550000Y-106541184D01*
X109383240Y-106572562D01*
X109262898Y-106650000D01*
X109234858Y-106650000D01*
X109128505Y-106577332D01*
X108950000Y-106541184D01*
X108050000Y-106541184D01*
X107883240Y-106572562D01*
X107762898Y-106650000D01*
X107734858Y-106650000D01*
X107628505Y-106577332D01*
X107450000Y-106541184D01*
X106550000Y-106541184D01*
X106383240Y-106572562D01*
X106230081Y-106671117D01*
X106127332Y-106821495D01*
X106091184Y-107000000D01*
X106091184Y-107500000D01*
X106120854Y-107657681D01*
X105396586Y-106933414D01*
X105210043Y-106808769D01*
X104990000Y-106765000D01*
X101568173Y-106765000D01*
X101445000Y-106641828D01*
X101445000Y-106010000D01*
X101401231Y-105789957D01*
X101385320Y-105766145D01*
X101276587Y-105603414D01*
X100816443Y-105143271D01*
X101000000Y-105067240D01*
X101219116Y-105158000D01*
X101280884Y-105158000D01*
X101500000Y-105067240D01*
X101719116Y-105158000D01*
X101780884Y-105158000D01*
X102000000Y-105067240D01*
X102219116Y-105158000D01*
X102280884Y-105158000D01*
X102500000Y-105067240D01*
X102719116Y-105158000D01*
X102780884Y-105158000D01*
X103000000Y-105067240D01*
X103219116Y-105158000D01*
X103280884Y-105158000D01*
X103500000Y-105067240D01*
X103719116Y-105158000D01*
X103780884Y-105158000D01*
X104000000Y-105067240D01*
X104219116Y-105158000D01*
X104280884Y-105158000D01*
X104500000Y-105067240D01*
X104719116Y-105158000D01*
X104780884Y-105158000D01*
X105000000Y-105067240D01*
X105219116Y-105158000D01*
X105280884Y-105158000D01*
X105500000Y-105067240D01*
X105719116Y-105158000D01*
X105780884Y-105158000D01*
X106000000Y-105067240D01*
X106219116Y-105158000D01*
X106219116Y-105158000D01*
G37*
X106219116Y-105158000D02*
X106250465Y-105158000D01*
X106230081Y-105171117D01*
X106127332Y-105321495D01*
X106091184Y-105500000D01*
X106091184Y-106000000D01*
X106122562Y-106166760D01*
X106221117Y-106319919D01*
X106371495Y-106422668D01*
X106550000Y-106458816D01*
X107450000Y-106458816D01*
X107616760Y-106427438D01*
X107751543Y-106340708D01*
X107871495Y-106422668D01*
X108050000Y-106458816D01*
X108950000Y-106458816D01*
X109116760Y-106427438D01*
X109251543Y-106340708D01*
X109371495Y-106422668D01*
X109550000Y-106458816D01*
X110450000Y-106458816D01*
X110616760Y-106427438D01*
X110751543Y-106340708D01*
X110871495Y-106422668D01*
X111050000Y-106458816D01*
X111950000Y-106458816D01*
X111988416Y-106451588D01*
X112110517Y-106573689D01*
X111950000Y-106541184D01*
X111050000Y-106541184D01*
X110883240Y-106572562D01*
X110762898Y-106650000D01*
X110734858Y-106650000D01*
X110628505Y-106577332D01*
X110450000Y-106541184D01*
X109550000Y-106541184D01*
X109383240Y-106572562D01*
X109262898Y-106650000D01*
X109234858Y-106650000D01*
X109128505Y-106577332D01*
X108950000Y-106541184D01*
X108050000Y-106541184D01*
X107883240Y-106572562D01*
X107762898Y-106650000D01*
X107734858Y-106650000D01*
X107628505Y-106577332D01*
X107450000Y-106541184D01*
X106550000Y-106541184D01*
X106383240Y-106572562D01*
X106230081Y-106671117D01*
X106127332Y-106821495D01*
X106091184Y-107000000D01*
X106091184Y-107500000D01*
X106120854Y-107657681D01*
X105396586Y-106933414D01*
X105210043Y-106808769D01*
X104990000Y-106765000D01*
X101568173Y-106765000D01*
X101445000Y-106641828D01*
X101445000Y-106010000D01*
X101401231Y-105789957D01*
X101385320Y-105766145D01*
X101276587Y-105603414D01*
X100816443Y-105143271D01*
X101000000Y-105067240D01*
X101219116Y-105158000D01*
X101280884Y-105158000D01*
X101500000Y-105067240D01*
X101719116Y-105158000D01*
X101780884Y-105158000D01*
X102000000Y-105067240D01*
X102219116Y-105158000D01*
X102280884Y-105158000D01*
X102500000Y-105067240D01*
X102719116Y-105158000D01*
X102780884Y-105158000D01*
X103000000Y-105067240D01*
X103219116Y-105158000D01*
X103280884Y-105158000D01*
X103500000Y-105067240D01*
X103719116Y-105158000D01*
X103780884Y-105158000D01*
X104000000Y-105067240D01*
X104219116Y-105158000D01*
X104280884Y-105158000D01*
X104500000Y-105067240D01*
X104719116Y-105158000D01*
X104780884Y-105158000D01*
X105000000Y-105067240D01*
X105219116Y-105158000D01*
X105280884Y-105158000D01*
X105500000Y-105067240D01*
X105719116Y-105158000D01*
X105780884Y-105158000D01*
X106000000Y-105067240D01*
X106219116Y-105158000D01*
G36*
X125892000Y-104579116D02*
X125892000Y-104691500D01*
X126056500Y-104856000D01*
X126896000Y-104856000D01*
X126896000Y-104836000D01*
X127104000Y-104836000D01*
X127104000Y-104856000D01*
X128396000Y-104856000D01*
X128396000Y-104836000D01*
X128604000Y-104836000D01*
X128604000Y-104856000D01*
X128624000Y-104856000D01*
X128624000Y-105064000D01*
X128604000Y-105064000D01*
X128604000Y-105084000D01*
X128396000Y-105084000D01*
X128396000Y-105064000D01*
X127104000Y-105064000D01*
X127104000Y-105084000D01*
X126896000Y-105084000D01*
X126896000Y-105064000D01*
X126056500Y-105064000D01*
X125892000Y-105228500D01*
X125892000Y-105340884D01*
X125992174Y-105582727D01*
X126177273Y-105767825D01*
X126316512Y-105825500D01*
X126230081Y-105881117D01*
X126127332Y-106031495D01*
X126091184Y-106210000D01*
X126091184Y-106590998D01*
X125812182Y-106870000D01*
X124277817Y-106870000D01*
X123014088Y-105606271D01*
X123014286Y-105606189D01*
X123225448Y-105395395D01*
X123339869Y-105119839D01*
X123339976Y-104997842D01*
X123877817Y-104460000D01*
X125941339Y-104460000D01*
X125892000Y-104579116D01*
X125892000Y-104579116D01*
G37*
X125892000Y-104579116D02*
X125892000Y-104691500D01*
X126056500Y-104856000D01*
X126896000Y-104856000D01*
X126896000Y-104836000D01*
X127104000Y-104836000D01*
X127104000Y-104856000D01*
X128396000Y-104856000D01*
X128396000Y-104836000D01*
X128604000Y-104836000D01*
X128604000Y-104856000D01*
X128624000Y-104856000D01*
X128624000Y-105064000D01*
X128604000Y-105064000D01*
X128604000Y-105084000D01*
X128396000Y-105084000D01*
X128396000Y-105064000D01*
X127104000Y-105064000D01*
X127104000Y-105084000D01*
X126896000Y-105084000D01*
X126896000Y-105064000D01*
X126056500Y-105064000D01*
X125892000Y-105228500D01*
X125892000Y-105340884D01*
X125992174Y-105582727D01*
X126177273Y-105767825D01*
X126316512Y-105825500D01*
X126230081Y-105881117D01*
X126127332Y-106031495D01*
X126091184Y-106210000D01*
X126091184Y-106590998D01*
X125812182Y-106870000D01*
X124277817Y-106870000D01*
X123014088Y-105606271D01*
X123014286Y-105606189D01*
X123225448Y-105395395D01*
X123339869Y-105119839D01*
X123339976Y-104997842D01*
X123877817Y-104460000D01*
X125941339Y-104460000D01*
X125892000Y-104579116D01*
M02*
