G04 #@! TF.FileFunction,Legend,Top*
%FSLAX46Y46*%
G04 Gerber Fmt 4.6, Leading zero omitted, Abs format (unit mm)*
G04 Created by KiCad (PCBNEW 4.0.7) date Mon Feb 12 17:44:01 2018*
%MOMM*%
%LPD*%
G01*
G04 APERTURE LIST*
%ADD10C,0.100000*%
%ADD11C,0.200000*%
%ADD12C,0.500000*%
%ADD13C,0.150000*%
%ADD14C,0.120000*%
G04 APERTURE END LIST*
D10*
D11*
X75250000Y-148500000D02*
X75250000Y-147500000D01*
X74750000Y-148000000D02*
X75750000Y-148000000D01*
X74750000Y-150500000D02*
X75750000Y-150500000D01*
D12*
X81964285Y-34807143D02*
X81064285Y-34807143D01*
X81064285Y-36221429D02*
X81064285Y-33521429D01*
X82349999Y-33521429D01*
X83378571Y-36221429D02*
X83378571Y-33521429D01*
X84407143Y-33521429D01*
X84664285Y-33650000D01*
X84792857Y-33778571D01*
X84921428Y-34035714D01*
X84921428Y-34421429D01*
X84792857Y-34678571D01*
X84664285Y-34807143D01*
X84407143Y-34935714D01*
X83378571Y-34935714D01*
X87492857Y-33650000D02*
X87235714Y-33521429D01*
X86850000Y-33521429D01*
X86464285Y-33650000D01*
X86207143Y-33907143D01*
X86078571Y-34164286D01*
X85950000Y-34678571D01*
X85950000Y-35064286D01*
X86078571Y-35578571D01*
X86207143Y-35835714D01*
X86464285Y-36092857D01*
X86850000Y-36221429D01*
X87107143Y-36221429D01*
X87492857Y-36092857D01*
X87621428Y-35964286D01*
X87621428Y-35064286D01*
X87107143Y-35064286D01*
X88650000Y-35450000D02*
X89935714Y-35450000D01*
X88392857Y-36221429D02*
X89292857Y-33521429D01*
X90192857Y-36221429D01*
X94564286Y-36221429D02*
X93021429Y-36221429D01*
X93792857Y-36221429D02*
X93792857Y-33521429D01*
X93535714Y-33907143D01*
X93278572Y-34164286D01*
X93021429Y-34292857D01*
X96235715Y-33521429D02*
X96492858Y-33521429D01*
X96750001Y-33650000D01*
X96878572Y-33778571D01*
X97007143Y-34035714D01*
X97135715Y-34550000D01*
X97135715Y-35192857D01*
X97007143Y-35707143D01*
X96878572Y-35964286D01*
X96750001Y-36092857D01*
X96492858Y-36221429D01*
X96235715Y-36221429D01*
X95978572Y-36092857D01*
X95850001Y-35964286D01*
X95721429Y-35707143D01*
X95592858Y-35192857D01*
X95592858Y-34550000D01*
X95721429Y-34035714D01*
X95850001Y-33778571D01*
X95978572Y-33650000D01*
X96235715Y-33521429D01*
X99707144Y-36221429D02*
X98164287Y-36221429D01*
X98935715Y-36221429D02*
X98935715Y-33521429D01*
X98678572Y-33907143D01*
X98421430Y-34164286D01*
X98164287Y-34292857D01*
X102664287Y-33521429D02*
X103307144Y-36221429D01*
X103821430Y-34292857D01*
X104335716Y-36221429D01*
X104978573Y-33521429D01*
X106392858Y-36221429D02*
X106135716Y-36092857D01*
X106007144Y-35964286D01*
X105878573Y-35707143D01*
X105878573Y-34935714D01*
X106007144Y-34678571D01*
X106135716Y-34550000D01*
X106392858Y-34421429D01*
X106778573Y-34421429D01*
X107035716Y-34550000D01*
X107164287Y-34678571D01*
X107292858Y-34935714D01*
X107292858Y-35707143D01*
X107164287Y-35964286D01*
X107035716Y-36092857D01*
X106778573Y-36221429D01*
X106392858Y-36221429D01*
X108450001Y-36221429D02*
X108450001Y-34421429D01*
X108450001Y-34935714D02*
X108578573Y-34678571D01*
X108707144Y-34550000D01*
X108964287Y-34421429D01*
X109221430Y-34421429D01*
X110121430Y-36221429D02*
X110121430Y-33521429D01*
X110378573Y-35192857D02*
X111150002Y-36221429D01*
X111150002Y-34421429D02*
X110121430Y-35450000D01*
X112178573Y-36092857D02*
X112435716Y-36221429D01*
X112950001Y-36221429D01*
X113207144Y-36092857D01*
X113335716Y-35835714D01*
X113335716Y-35707143D01*
X113207144Y-35450000D01*
X112950001Y-35321429D01*
X112564287Y-35321429D01*
X112307144Y-35192857D01*
X112178573Y-34935714D01*
X112178573Y-34807143D01*
X112307144Y-34550000D01*
X112564287Y-34421429D01*
X112950001Y-34421429D01*
X113207144Y-34550000D01*
X114492858Y-36221429D02*
X114492858Y-33521429D01*
X115650001Y-36221429D02*
X115650001Y-34807143D01*
X115521430Y-34550000D01*
X115264287Y-34421429D01*
X114878572Y-34421429D01*
X114621430Y-34550000D01*
X114492858Y-34678571D01*
X117321429Y-36221429D02*
X117064287Y-36092857D01*
X116935715Y-35964286D01*
X116807144Y-35707143D01*
X116807144Y-34935714D01*
X116935715Y-34678571D01*
X117064287Y-34550000D01*
X117321429Y-34421429D01*
X117707144Y-34421429D01*
X117964287Y-34550000D01*
X118092858Y-34678571D01*
X118221429Y-34935714D01*
X118221429Y-35707143D01*
X118092858Y-35964286D01*
X117964287Y-36092857D01*
X117707144Y-36221429D01*
X117321429Y-36221429D01*
X119378572Y-34421429D02*
X119378572Y-37121429D01*
X119378572Y-34550000D02*
X119635715Y-34421429D01*
X120150001Y-34421429D01*
X120407144Y-34550000D01*
X120535715Y-34678571D01*
X120664286Y-34935714D01*
X120664286Y-35707143D01*
X120535715Y-35964286D01*
X120407144Y-36092857D01*
X120150001Y-36221429D01*
X119635715Y-36221429D01*
X119378572Y-36092857D01*
X124778572Y-34807143D02*
X125164286Y-34935714D01*
X125292858Y-35064286D01*
X125421429Y-35321429D01*
X125421429Y-35707143D01*
X125292858Y-35964286D01*
X125164286Y-36092857D01*
X124907144Y-36221429D01*
X123878572Y-36221429D01*
X123878572Y-33521429D01*
X124778572Y-33521429D01*
X125035715Y-33650000D01*
X125164286Y-33778571D01*
X125292858Y-34035714D01*
X125292858Y-34292857D01*
X125164286Y-34550000D01*
X125035715Y-34678571D01*
X124778572Y-34807143D01*
X123878572Y-34807143D01*
X127735715Y-36221429D02*
X127735715Y-34807143D01*
X127607144Y-34550000D01*
X127350001Y-34421429D01*
X126835715Y-34421429D01*
X126578572Y-34550000D01*
X127735715Y-36092857D02*
X127478572Y-36221429D01*
X126835715Y-36221429D01*
X126578572Y-36092857D01*
X126450001Y-35835714D01*
X126450001Y-35578571D01*
X126578572Y-35321429D01*
X126835715Y-35192857D01*
X127478572Y-35192857D01*
X127735715Y-35064286D01*
X130178572Y-36221429D02*
X130178572Y-33521429D01*
X130178572Y-36092857D02*
X129921429Y-36221429D01*
X129407143Y-36221429D01*
X129150001Y-36092857D01*
X129021429Y-35964286D01*
X128892858Y-35707143D01*
X128892858Y-34935714D01*
X129021429Y-34678571D01*
X129150001Y-34550000D01*
X129407143Y-34421429D01*
X129921429Y-34421429D01*
X130178572Y-34550000D01*
X132621429Y-34421429D02*
X132621429Y-36607143D01*
X132492858Y-36864286D01*
X132364286Y-36992857D01*
X132107143Y-37121429D01*
X131721429Y-37121429D01*
X131464286Y-36992857D01*
X132621429Y-36092857D02*
X132364286Y-36221429D01*
X131850000Y-36221429D01*
X131592858Y-36092857D01*
X131464286Y-35964286D01*
X131335715Y-35707143D01*
X131335715Y-34935714D01*
X131464286Y-34678571D01*
X131592858Y-34550000D01*
X131850000Y-34421429D01*
X132364286Y-34421429D01*
X132621429Y-34550000D01*
X134935715Y-36092857D02*
X134678572Y-36221429D01*
X134164286Y-36221429D01*
X133907143Y-36092857D01*
X133778572Y-35835714D01*
X133778572Y-34807143D01*
X133907143Y-34550000D01*
X134164286Y-34421429D01*
X134678572Y-34421429D01*
X134935715Y-34550000D01*
X135064286Y-34807143D01*
X135064286Y-35064286D01*
X133778572Y-35321429D01*
D13*
X86750000Y-103600000D02*
X86250000Y-103600000D01*
X86250000Y-103600000D02*
X85450000Y-103600000D01*
X85450000Y-103600000D02*
X85450000Y-102700000D01*
X84900000Y-102700000D02*
X84900000Y-101700000D01*
X85450000Y-102700000D02*
X84900000Y-102700000D01*
X86250000Y-100100000D02*
X86450000Y-100100000D01*
X113900000Y-100100000D02*
X114250000Y-100100000D01*
X113900000Y-99800000D02*
X113900000Y-100100000D01*
X86600000Y-99800000D02*
X113900000Y-99800000D01*
X86600000Y-100100000D02*
X86600000Y-99800000D01*
X86450000Y-100100000D02*
X86600000Y-100100000D01*
X115600000Y-101700000D02*
X115600000Y-102500000D01*
X115600000Y-102500000D02*
X115600000Y-102700000D01*
X115050000Y-102700000D02*
X115600000Y-102700000D01*
X115050000Y-103600000D02*
X113750000Y-103600000D01*
X115050000Y-102700000D02*
X115050000Y-103600000D01*
D14*
X74330000Y-146630000D02*
X71670000Y-146630000D01*
X74330000Y-149230000D02*
X74330000Y-146630000D01*
X71670000Y-149230000D02*
X71670000Y-146630000D01*
X74330000Y-149230000D02*
X71670000Y-149230000D01*
X74330000Y-150500000D02*
X74330000Y-151830000D01*
X74330000Y-151830000D02*
X73000000Y-151830000D01*
X124580000Y-109800000D02*
X124580000Y-110800000D01*
X126280000Y-110800000D02*
X126280000Y-109800000D01*
X129100000Y-105360000D02*
X129100000Y-106060000D01*
X127900000Y-106060000D02*
X127900000Y-105360000D01*
X131650000Y-105210000D02*
X131650000Y-106210000D01*
X133350000Y-106210000D02*
X133350000Y-105210000D01*
X92500000Y-106850000D02*
X93500000Y-106850000D01*
X93500000Y-105150000D02*
X92500000Y-105150000D01*
X133500000Y-107960000D02*
X131500000Y-107960000D01*
X131500000Y-107960000D02*
X131500000Y-111860000D01*
X133500000Y-107960000D02*
X133500000Y-111860000D01*
X143980000Y-104670000D02*
X143980000Y-120030000D01*
X143980000Y-120030000D02*
X150640270Y-120030000D01*
X150640000Y-120030000D02*
X150640000Y-104670000D01*
X150640120Y-104670000D02*
X143980000Y-104670000D01*
X143582929Y-105620000D02*
X143980000Y-105620000D01*
X143582929Y-106380000D02*
X143980000Y-106380000D01*
X141110000Y-105620000D02*
X141497071Y-105620000D01*
X141110000Y-106380000D02*
X141497071Y-106380000D01*
X143582929Y-108160000D02*
X143980000Y-108160000D01*
X143582929Y-108920000D02*
X143980000Y-108920000D01*
X141042929Y-108160000D02*
X141497071Y-108160000D01*
X141042929Y-108920000D02*
X141497071Y-108920000D01*
X143582929Y-110700000D02*
X143980000Y-110700000D01*
X143582929Y-111460000D02*
X143980000Y-111460000D01*
X141042929Y-110700000D02*
X141497071Y-110700000D01*
X141042929Y-111460000D02*
X141497071Y-111460000D01*
X143582929Y-113240000D02*
X143980000Y-113240000D01*
X143582929Y-114000000D02*
X143980000Y-114000000D01*
X141042929Y-113240000D02*
X141497071Y-113240000D01*
X141042929Y-114000000D02*
X141497071Y-114000000D01*
X143582929Y-115780000D02*
X143980000Y-115780000D01*
X143582929Y-116540000D02*
X143980000Y-116540000D01*
X141042929Y-115780000D02*
X141497071Y-115780000D01*
X141042929Y-116540000D02*
X141497071Y-116540000D01*
X143582929Y-118320000D02*
X143980000Y-118320000D01*
X143582929Y-119080000D02*
X143980000Y-119080000D01*
X141042929Y-118320000D02*
X141497071Y-118320000D01*
X141042929Y-119080000D02*
X141497071Y-119080000D01*
X138730000Y-106000000D02*
X138730000Y-104730000D01*
X138730000Y-104730000D02*
X140000000Y-104730000D01*
D13*
X145500000Y-134000000D02*
X148500000Y-134000000D01*
X148500000Y-134000000D02*
X148500000Y-128000000D01*
X148500000Y-128000000D02*
X145500000Y-128000000D01*
X138000000Y-125000000D02*
X145500000Y-125000000D01*
X145500000Y-125000000D02*
X145500000Y-126000000D01*
X136000000Y-137000000D02*
X134500000Y-137000000D01*
X134500000Y-137000000D02*
X134500000Y-125000000D01*
X134500000Y-125000000D02*
X136000000Y-125000000D01*
X145500000Y-136000000D02*
X145500000Y-137000000D01*
X145500000Y-137000000D02*
X138000000Y-137000000D01*
X145500000Y-126000000D02*
X145500000Y-136000000D01*
X129840000Y-117610000D02*
X131040000Y-115810000D01*
X127040000Y-117610000D02*
X129840000Y-117610000D01*
X125840000Y-115810000D02*
X127040000Y-117610000D01*
X127040000Y-112410000D02*
X125840000Y-114210000D01*
X129840000Y-112410000D02*
X127040000Y-112410000D01*
X131040000Y-114210000D02*
X129840000Y-112410000D01*
D14*
X124330000Y-109740000D02*
X124330000Y-110740000D01*
X122970000Y-110740000D02*
X122970000Y-109740000D01*
X127680000Y-105210000D02*
X127680000Y-106210000D01*
X126320000Y-106210000D02*
X126320000Y-105210000D01*
X78820000Y-107500000D02*
X78820000Y-106500000D01*
X80180000Y-106500000D02*
X80180000Y-107500000D01*
X80320000Y-107500000D02*
X80320000Y-106500000D01*
X81680000Y-106500000D02*
X81680000Y-107500000D01*
X110820000Y-107000000D02*
X110820000Y-106000000D01*
X112180000Y-106000000D02*
X112180000Y-107000000D01*
X109320000Y-107000000D02*
X109320000Y-106000000D01*
X110680000Y-106000000D02*
X110680000Y-107000000D01*
X107820000Y-107000000D02*
X107820000Y-106000000D01*
X109180000Y-106000000D02*
X109180000Y-107000000D01*
X106320000Y-107000000D02*
X106320000Y-106000000D01*
X107680000Y-106000000D02*
X107680000Y-107000000D01*
X81820000Y-107500000D02*
X81820000Y-106500000D01*
X83180000Y-106500000D02*
X83180000Y-107500000D01*
X123820000Y-148500000D02*
X123820000Y-147500000D01*
X125180000Y-147500000D02*
X125180000Y-148500000D01*
X123820000Y-165500000D02*
X123820000Y-164500000D01*
X125180000Y-164500000D02*
X125180000Y-165500000D01*
X84820000Y-166500000D02*
X84820000Y-165500000D01*
X86180000Y-165500000D02*
X86180000Y-166500000D01*
X113820000Y-148500000D02*
X113820000Y-147500000D01*
X115180000Y-147500000D02*
X115180000Y-148500000D01*
X87500000Y-134320000D02*
X88500000Y-134320000D01*
X88500000Y-135680000D02*
X87500000Y-135680000D01*
X82820000Y-166500000D02*
X82820000Y-165500000D01*
X84180000Y-165500000D02*
X84180000Y-166500000D01*
X140900000Y-151150000D02*
X128600000Y-151150000D01*
X128600000Y-146570000D02*
X128600000Y-143430000D01*
X128600000Y-138850000D02*
X140900000Y-138850000D01*
X140900000Y-148430000D02*
X140900000Y-151150000D01*
X139229050Y-144960000D02*
G75*
G03X139229050Y-144960000I-4579050J0D01*
G01*
X140900000Y-138850000D02*
X140900000Y-141570000D01*
X140900000Y-143430000D02*
X140900000Y-146570000D01*
X128600000Y-141570000D02*
X128600000Y-138850000D01*
X128600000Y-151150000D02*
X128600000Y-148430000D01*
X140900000Y-168150000D02*
X128600000Y-168150000D01*
X128600000Y-163570000D02*
X128600000Y-160430000D01*
X128600000Y-155850000D02*
X140900000Y-155850000D01*
X140900000Y-165430000D02*
X140900000Y-168150000D01*
X139229050Y-161960000D02*
G75*
G03X139229050Y-161960000I-4579050J0D01*
G01*
X140900000Y-155850000D02*
X140900000Y-158570000D01*
X140900000Y-160430000D02*
X140900000Y-163570000D01*
X128600000Y-158570000D02*
X128600000Y-155850000D01*
X128600000Y-168150000D02*
X128600000Y-165430000D01*
X94348350Y-171510229D02*
X85650936Y-162812816D01*
X88889485Y-159574267D02*
X91109801Y-157353951D01*
X94348350Y-154115402D02*
X103045763Y-162812816D01*
X96271680Y-169586899D02*
X94348350Y-171510229D01*
X98884973Y-162713821D02*
G75*
G03X98884973Y-162713821I-4579050J0D01*
G01*
X103045763Y-162812816D02*
X101122433Y-164736146D01*
X99807214Y-166051365D02*
X97586899Y-168271680D01*
X92425019Y-156038733D02*
X94348350Y-154115402D01*
X85650936Y-162812816D02*
X87574267Y-160889485D01*
X113510229Y-152651650D02*
X104812816Y-161349064D01*
X101574267Y-158110515D02*
X99353951Y-155890199D01*
X96115402Y-152651650D02*
X104812816Y-143954237D01*
X111586899Y-150728320D02*
X113510229Y-152651650D01*
X109292871Y-152694077D02*
G75*
G03X109292871Y-152694077I-4579050J0D01*
G01*
X104812816Y-143954237D02*
X106736146Y-145877567D01*
X108051365Y-147192786D02*
X110271680Y-149413101D01*
X98038733Y-154574981D02*
X96115402Y-152651650D01*
X104812816Y-161349064D02*
X102889485Y-159425733D01*
X94651650Y-133489771D02*
X103349064Y-142187184D01*
X100110515Y-145425733D02*
X97890199Y-147646049D01*
X94651650Y-150884598D02*
X85954237Y-142187184D01*
X92728320Y-135413101D02*
X94651650Y-133489771D01*
X99273127Y-142286179D02*
G75*
G03X99273127Y-142286179I-4579050J0D01*
G01*
X85954237Y-142187184D02*
X87877567Y-140263854D01*
X89192786Y-138948635D02*
X91413101Y-136728320D01*
X96574981Y-148961267D02*
X94651650Y-150884598D01*
X103349064Y-142187184D02*
X101425733Y-144110515D01*
X92510229Y-152651650D02*
X83812816Y-161349064D01*
X80574267Y-158110515D02*
X78353951Y-155890199D01*
X75115402Y-152651650D02*
X83812816Y-143954237D01*
X90586899Y-150728320D02*
X92510229Y-152651650D01*
X88292871Y-152694077D02*
G75*
G03X88292871Y-152694077I-4579050J0D01*
G01*
X83812816Y-143954237D02*
X85736146Y-145877567D01*
X87051365Y-147192786D02*
X89271680Y-149413101D01*
X77038733Y-154574981D02*
X75115402Y-152651650D01*
X83812816Y-161349064D02*
X81889485Y-159425733D01*
D13*
X75800000Y-135700000D02*
X75800000Y-144300000D01*
X71200000Y-135700000D02*
X71200000Y-137900000D01*
X71200000Y-142000000D02*
X71200000Y-144300000D01*
D14*
X130110000Y-111110000D02*
X130110000Y-109310000D01*
X126890000Y-109310000D02*
X126890000Y-111760000D01*
X77890000Y-128450000D02*
X77890000Y-131110000D01*
X116050000Y-128450000D02*
X77890000Y-128450000D01*
X116050000Y-131110000D02*
X77890000Y-131110000D01*
X116050000Y-128450000D02*
X116050000Y-131110000D01*
X117320000Y-128450000D02*
X118650000Y-128450000D01*
X118650000Y-128450000D02*
X118650000Y-129780000D01*
X72810000Y-110670000D02*
X72810000Y-113330000D01*
X116050000Y-110670000D02*
X72810000Y-110670000D01*
X116050000Y-113330000D02*
X72810000Y-113330000D01*
X116050000Y-110670000D02*
X116050000Y-113330000D01*
X117320000Y-110670000D02*
X118650000Y-110670000D01*
X118650000Y-110670000D02*
X118650000Y-112000000D01*
X80180000Y-104000000D02*
X80180000Y-105000000D01*
X78820000Y-105000000D02*
X78820000Y-104000000D01*
X81680000Y-104000000D02*
X81680000Y-105000000D01*
X80320000Y-105000000D02*
X80320000Y-104000000D01*
X83180000Y-104000000D02*
X83180000Y-105000000D01*
X81820000Y-105000000D02*
X81820000Y-104000000D01*
D13*
X96583334Y-105952381D02*
X96107143Y-105952381D01*
X96107143Y-104952381D01*
X97488096Y-105857143D02*
X97440477Y-105904762D01*
X97297620Y-105952381D01*
X97202382Y-105952381D01*
X97059524Y-105904762D01*
X96964286Y-105809524D01*
X96916667Y-105714286D01*
X96869048Y-105523810D01*
X96869048Y-105380952D01*
X96916667Y-105190476D01*
X96964286Y-105095238D01*
X97059524Y-105000000D01*
X97202382Y-104952381D01*
X97297620Y-104952381D01*
X97440477Y-105000000D01*
X97488096Y-105047619D01*
X97916667Y-105952381D02*
X97916667Y-104952381D01*
X98154762Y-104952381D01*
X98297620Y-105000000D01*
X98392858Y-105095238D01*
X98440477Y-105190476D01*
X98488096Y-105380952D01*
X98488096Y-105523810D01*
X98440477Y-105714286D01*
X98392858Y-105809524D01*
X98297620Y-105904762D01*
X98154762Y-105952381D01*
X97916667Y-105952381D01*
X99440477Y-105952381D02*
X98869048Y-105952381D01*
X99154762Y-105952381D02*
X99154762Y-104952381D01*
X99059524Y-105095238D01*
X98964286Y-105190476D01*
X98869048Y-105238095D01*
X122607143Y-110916666D02*
X122654762Y-110964285D01*
X122702381Y-111107142D01*
X122702381Y-111202380D01*
X122654762Y-111345238D01*
X122559524Y-111440476D01*
X122464286Y-111488095D01*
X122273810Y-111535714D01*
X122130952Y-111535714D01*
X121940476Y-111488095D01*
X121845238Y-111440476D01*
X121750000Y-111345238D01*
X121702381Y-111202380D01*
X121702381Y-111107142D01*
X121750000Y-110964285D01*
X121797619Y-110916666D01*
X122702381Y-109964285D02*
X122702381Y-110535714D01*
X122702381Y-110250000D02*
X121702381Y-110250000D01*
X121845238Y-110345238D01*
X121940476Y-110440476D01*
X121988095Y-110535714D01*
X125857143Y-105916666D02*
X125904762Y-105964285D01*
X125952381Y-106107142D01*
X125952381Y-106202380D01*
X125904762Y-106345238D01*
X125809524Y-106440476D01*
X125714286Y-106488095D01*
X125523810Y-106535714D01*
X125380952Y-106535714D01*
X125190476Y-106488095D01*
X125095238Y-106440476D01*
X125000000Y-106345238D01*
X124952381Y-106202380D01*
X124952381Y-106107142D01*
X125000000Y-105964285D01*
X125047619Y-105916666D01*
X125047619Y-105535714D02*
X125000000Y-105488095D01*
X124952381Y-105392857D01*
X124952381Y-105154761D01*
X125000000Y-105059523D01*
X125047619Y-105011904D01*
X125142857Y-104964285D01*
X125238095Y-104964285D01*
X125380952Y-105011904D01*
X125952381Y-105583333D01*
X125952381Y-104964285D01*
X134857143Y-105916666D02*
X134904762Y-105964285D01*
X134952381Y-106107142D01*
X134952381Y-106202380D01*
X134904762Y-106345238D01*
X134809524Y-106440476D01*
X134714286Y-106488095D01*
X134523810Y-106535714D01*
X134380952Y-106535714D01*
X134190476Y-106488095D01*
X134095238Y-106440476D01*
X134000000Y-106345238D01*
X133952381Y-106202380D01*
X133952381Y-106107142D01*
X134000000Y-105964285D01*
X134047619Y-105916666D01*
X133952381Y-105583333D02*
X133952381Y-104964285D01*
X134333333Y-105297619D01*
X134333333Y-105154761D01*
X134380952Y-105059523D01*
X134428571Y-105011904D01*
X134523810Y-104964285D01*
X134761905Y-104964285D01*
X134857143Y-105011904D01*
X134904762Y-105059523D01*
X134952381Y-105154761D01*
X134952381Y-105440476D01*
X134904762Y-105535714D01*
X134857143Y-105583333D01*
X92833334Y-107857143D02*
X92785715Y-107904762D01*
X92642858Y-107952381D01*
X92547620Y-107952381D01*
X92404762Y-107904762D01*
X92309524Y-107809524D01*
X92261905Y-107714286D01*
X92214286Y-107523810D01*
X92214286Y-107380952D01*
X92261905Y-107190476D01*
X92309524Y-107095238D01*
X92404762Y-107000000D01*
X92547620Y-106952381D01*
X92642858Y-106952381D01*
X92785715Y-107000000D01*
X92833334Y-107047619D01*
X93690477Y-107285714D02*
X93690477Y-107952381D01*
X93452381Y-106904762D02*
X93214286Y-107619048D01*
X93833334Y-107619048D01*
X134952381Y-110988095D02*
X133952381Y-110988095D01*
X133952381Y-110750000D01*
X134000000Y-110607142D01*
X134095238Y-110511904D01*
X134190476Y-110464285D01*
X134380952Y-110416666D01*
X134523810Y-110416666D01*
X134714286Y-110464285D01*
X134809524Y-110511904D01*
X134904762Y-110607142D01*
X134952381Y-110750000D01*
X134952381Y-110988095D01*
X134952381Y-109464285D02*
X134952381Y-110035714D01*
X134952381Y-109750000D02*
X133952381Y-109750000D01*
X134095238Y-109845238D01*
X134190476Y-109940476D01*
X134238095Y-110035714D01*
X144166667Y-103202381D02*
X144166667Y-103916667D01*
X144119047Y-104059524D01*
X144023809Y-104154762D01*
X143880952Y-104202381D01*
X143785714Y-104202381D01*
X145166667Y-104202381D02*
X144595238Y-104202381D01*
X144880952Y-104202381D02*
X144880952Y-103202381D01*
X144785714Y-103345238D01*
X144690476Y-103440476D01*
X144595238Y-103488095D01*
X144166667Y-123452381D02*
X144166667Y-124166667D01*
X144119047Y-124309524D01*
X144023809Y-124404762D01*
X143880952Y-124452381D01*
X143785714Y-124452381D01*
X144595238Y-123547619D02*
X144642857Y-123500000D01*
X144738095Y-123452381D01*
X144976191Y-123452381D01*
X145071429Y-123500000D01*
X145119048Y-123547619D01*
X145166667Y-123642857D01*
X145166667Y-123738095D01*
X145119048Y-123880952D01*
X144547619Y-124452381D01*
X145166667Y-124452381D01*
X128273334Y-119162381D02*
X127797143Y-119162381D01*
X127797143Y-118162381D01*
X129130477Y-119162381D02*
X128559048Y-119162381D01*
X128844762Y-119162381D02*
X128844762Y-118162381D01*
X128749524Y-118305238D01*
X128654286Y-118400476D01*
X128559048Y-118448095D01*
X121452381Y-110916666D02*
X120976190Y-111250000D01*
X121452381Y-111488095D02*
X120452381Y-111488095D01*
X120452381Y-111107142D01*
X120500000Y-111011904D01*
X120547619Y-110964285D01*
X120642857Y-110916666D01*
X120785714Y-110916666D01*
X120880952Y-110964285D01*
X120928571Y-111011904D01*
X120976190Y-111107142D01*
X120976190Y-111488095D01*
X121452381Y-109964285D02*
X121452381Y-110535714D01*
X121452381Y-110250000D02*
X120452381Y-110250000D01*
X120595238Y-110345238D01*
X120690476Y-110440476D01*
X120738095Y-110535714D01*
X124452381Y-105916666D02*
X123976190Y-106250000D01*
X124452381Y-106488095D02*
X123452381Y-106488095D01*
X123452381Y-106107142D01*
X123500000Y-106011904D01*
X123547619Y-105964285D01*
X123642857Y-105916666D01*
X123785714Y-105916666D01*
X123880952Y-105964285D01*
X123928571Y-106011904D01*
X123976190Y-106107142D01*
X123976190Y-106488095D01*
X123547619Y-105535714D02*
X123500000Y-105488095D01*
X123452381Y-105392857D01*
X123452381Y-105154761D01*
X123500000Y-105059523D01*
X123547619Y-105011904D01*
X123642857Y-104964285D01*
X123738095Y-104964285D01*
X123880952Y-105011904D01*
X124452381Y-105583333D01*
X124452381Y-104964285D01*
X75202381Y-107416666D02*
X74726190Y-107750000D01*
X75202381Y-107988095D02*
X74202381Y-107988095D01*
X74202381Y-107607142D01*
X74250000Y-107511904D01*
X74297619Y-107464285D01*
X74392857Y-107416666D01*
X74535714Y-107416666D01*
X74630952Y-107464285D01*
X74678571Y-107511904D01*
X74726190Y-107607142D01*
X74726190Y-107988095D01*
X74202381Y-107083333D02*
X74202381Y-106464285D01*
X74583333Y-106797619D01*
X74583333Y-106654761D01*
X74630952Y-106559523D01*
X74678571Y-106511904D01*
X74773810Y-106464285D01*
X75011905Y-106464285D01*
X75107143Y-106511904D01*
X75154762Y-106559523D01*
X75202381Y-106654761D01*
X75202381Y-106940476D01*
X75154762Y-107035714D01*
X75107143Y-107083333D01*
X76702381Y-107416666D02*
X76226190Y-107750000D01*
X76702381Y-107988095D02*
X75702381Y-107988095D01*
X75702381Y-107607142D01*
X75750000Y-107511904D01*
X75797619Y-107464285D01*
X75892857Y-107416666D01*
X76035714Y-107416666D01*
X76130952Y-107464285D01*
X76178571Y-107511904D01*
X76226190Y-107607142D01*
X76226190Y-107988095D01*
X76035714Y-106559523D02*
X76702381Y-106559523D01*
X75654762Y-106797619D02*
X76369048Y-107035714D01*
X76369048Y-106416666D01*
X111952381Y-108916666D02*
X111476190Y-109250000D01*
X111952381Y-109488095D02*
X110952381Y-109488095D01*
X110952381Y-109107142D01*
X111000000Y-109011904D01*
X111047619Y-108964285D01*
X111142857Y-108916666D01*
X111285714Y-108916666D01*
X111380952Y-108964285D01*
X111428571Y-109011904D01*
X111476190Y-109107142D01*
X111476190Y-109488095D01*
X110952381Y-108011904D02*
X110952381Y-108488095D01*
X111428571Y-108535714D01*
X111380952Y-108488095D01*
X111333333Y-108392857D01*
X111333333Y-108154761D01*
X111380952Y-108059523D01*
X111428571Y-108011904D01*
X111523810Y-107964285D01*
X111761905Y-107964285D01*
X111857143Y-108011904D01*
X111904762Y-108059523D01*
X111952381Y-108154761D01*
X111952381Y-108392857D01*
X111904762Y-108488095D01*
X111857143Y-108535714D01*
X110452381Y-108916666D02*
X109976190Y-109250000D01*
X110452381Y-109488095D02*
X109452381Y-109488095D01*
X109452381Y-109107142D01*
X109500000Y-109011904D01*
X109547619Y-108964285D01*
X109642857Y-108916666D01*
X109785714Y-108916666D01*
X109880952Y-108964285D01*
X109928571Y-109011904D01*
X109976190Y-109107142D01*
X109976190Y-109488095D01*
X109452381Y-108059523D02*
X109452381Y-108250000D01*
X109500000Y-108345238D01*
X109547619Y-108392857D01*
X109690476Y-108488095D01*
X109880952Y-108535714D01*
X110261905Y-108535714D01*
X110357143Y-108488095D01*
X110404762Y-108440476D01*
X110452381Y-108345238D01*
X110452381Y-108154761D01*
X110404762Y-108059523D01*
X110357143Y-108011904D01*
X110261905Y-107964285D01*
X110023810Y-107964285D01*
X109928571Y-108011904D01*
X109880952Y-108059523D01*
X109833333Y-108154761D01*
X109833333Y-108345238D01*
X109880952Y-108440476D01*
X109928571Y-108488095D01*
X110023810Y-108535714D01*
X108952381Y-108916666D02*
X108476190Y-109250000D01*
X108952381Y-109488095D02*
X107952381Y-109488095D01*
X107952381Y-109107142D01*
X108000000Y-109011904D01*
X108047619Y-108964285D01*
X108142857Y-108916666D01*
X108285714Y-108916666D01*
X108380952Y-108964285D01*
X108428571Y-109011904D01*
X108476190Y-109107142D01*
X108476190Y-109488095D01*
X107952381Y-108583333D02*
X107952381Y-107916666D01*
X108952381Y-108345238D01*
X107452381Y-108916666D02*
X106976190Y-109250000D01*
X107452381Y-109488095D02*
X106452381Y-109488095D01*
X106452381Y-109107142D01*
X106500000Y-109011904D01*
X106547619Y-108964285D01*
X106642857Y-108916666D01*
X106785714Y-108916666D01*
X106880952Y-108964285D01*
X106928571Y-109011904D01*
X106976190Y-109107142D01*
X106976190Y-109488095D01*
X106880952Y-108345238D02*
X106833333Y-108440476D01*
X106785714Y-108488095D01*
X106690476Y-108535714D01*
X106642857Y-108535714D01*
X106547619Y-108488095D01*
X106500000Y-108440476D01*
X106452381Y-108345238D01*
X106452381Y-108154761D01*
X106500000Y-108059523D01*
X106547619Y-108011904D01*
X106642857Y-107964285D01*
X106690476Y-107964285D01*
X106785714Y-108011904D01*
X106833333Y-108059523D01*
X106880952Y-108154761D01*
X106880952Y-108345238D01*
X106928571Y-108440476D01*
X106976190Y-108488095D01*
X107071429Y-108535714D01*
X107261905Y-108535714D01*
X107357143Y-108488095D01*
X107404762Y-108440476D01*
X107452381Y-108345238D01*
X107452381Y-108154761D01*
X107404762Y-108059523D01*
X107357143Y-108011904D01*
X107261905Y-107964285D01*
X107071429Y-107964285D01*
X106976190Y-108011904D01*
X106928571Y-108059523D01*
X106880952Y-108154761D01*
X78202381Y-107416666D02*
X77726190Y-107750000D01*
X78202381Y-107988095D02*
X77202381Y-107988095D01*
X77202381Y-107607142D01*
X77250000Y-107511904D01*
X77297619Y-107464285D01*
X77392857Y-107416666D01*
X77535714Y-107416666D01*
X77630952Y-107464285D01*
X77678571Y-107511904D01*
X77726190Y-107607142D01*
X77726190Y-107988095D01*
X78202381Y-106940476D02*
X78202381Y-106750000D01*
X78154762Y-106654761D01*
X78107143Y-106607142D01*
X77964286Y-106511904D01*
X77773810Y-106464285D01*
X77392857Y-106464285D01*
X77297619Y-106511904D01*
X77250000Y-106559523D01*
X77202381Y-106654761D01*
X77202381Y-106845238D01*
X77250000Y-106940476D01*
X77297619Y-106988095D01*
X77392857Y-107035714D01*
X77630952Y-107035714D01*
X77726190Y-106988095D01*
X77773810Y-106940476D01*
X77821429Y-106845238D01*
X77821429Y-106654761D01*
X77773810Y-106559523D01*
X77726190Y-106511904D01*
X77630952Y-106464285D01*
X126402381Y-148642857D02*
X125926190Y-148976191D01*
X126402381Y-149214286D02*
X125402381Y-149214286D01*
X125402381Y-148833333D01*
X125450000Y-148738095D01*
X125497619Y-148690476D01*
X125592857Y-148642857D01*
X125735714Y-148642857D01*
X125830952Y-148690476D01*
X125878571Y-148738095D01*
X125926190Y-148833333D01*
X125926190Y-149214286D01*
X126402381Y-147690476D02*
X126402381Y-148261905D01*
X126402381Y-147976191D02*
X125402381Y-147976191D01*
X125545238Y-148071429D01*
X125640476Y-148166667D01*
X125688095Y-148261905D01*
X125402381Y-147071429D02*
X125402381Y-146976190D01*
X125450000Y-146880952D01*
X125497619Y-146833333D01*
X125592857Y-146785714D01*
X125783333Y-146738095D01*
X126021429Y-146738095D01*
X126211905Y-146785714D01*
X126307143Y-146833333D01*
X126354762Y-146880952D01*
X126402381Y-146976190D01*
X126402381Y-147071429D01*
X126354762Y-147166667D01*
X126307143Y-147214286D01*
X126211905Y-147261905D01*
X126021429Y-147309524D01*
X125783333Y-147309524D01*
X125592857Y-147261905D01*
X125497619Y-147214286D01*
X125450000Y-147166667D01*
X125402381Y-147071429D01*
X126402381Y-165642857D02*
X125926190Y-165976191D01*
X126402381Y-166214286D02*
X125402381Y-166214286D01*
X125402381Y-165833333D01*
X125450000Y-165738095D01*
X125497619Y-165690476D01*
X125592857Y-165642857D01*
X125735714Y-165642857D01*
X125830952Y-165690476D01*
X125878571Y-165738095D01*
X125926190Y-165833333D01*
X125926190Y-166214286D01*
X126402381Y-164690476D02*
X126402381Y-165261905D01*
X126402381Y-164976191D02*
X125402381Y-164976191D01*
X125545238Y-165071429D01*
X125640476Y-165166667D01*
X125688095Y-165261905D01*
X126402381Y-163738095D02*
X126402381Y-164309524D01*
X126402381Y-164023810D02*
X125402381Y-164023810D01*
X125545238Y-164119048D01*
X125640476Y-164214286D01*
X125688095Y-164309524D01*
X82452381Y-166392857D02*
X81976190Y-166726191D01*
X82452381Y-166964286D02*
X81452381Y-166964286D01*
X81452381Y-166583333D01*
X81500000Y-166488095D01*
X81547619Y-166440476D01*
X81642857Y-166392857D01*
X81785714Y-166392857D01*
X81880952Y-166440476D01*
X81928571Y-166488095D01*
X81976190Y-166583333D01*
X81976190Y-166964286D01*
X82452381Y-165440476D02*
X82452381Y-166011905D01*
X82452381Y-165726191D02*
X81452381Y-165726191D01*
X81595238Y-165821429D01*
X81690476Y-165916667D01*
X81738095Y-166011905D01*
X81547619Y-165059524D02*
X81500000Y-165011905D01*
X81452381Y-164916667D01*
X81452381Y-164678571D01*
X81500000Y-164583333D01*
X81547619Y-164535714D01*
X81642857Y-164488095D01*
X81738095Y-164488095D01*
X81880952Y-164535714D01*
X82452381Y-165107143D01*
X82452381Y-164488095D01*
X116402381Y-148642857D02*
X115926190Y-148976191D01*
X116402381Y-149214286D02*
X115402381Y-149214286D01*
X115402381Y-148833333D01*
X115450000Y-148738095D01*
X115497619Y-148690476D01*
X115592857Y-148642857D01*
X115735714Y-148642857D01*
X115830952Y-148690476D01*
X115878571Y-148738095D01*
X115926190Y-148833333D01*
X115926190Y-149214286D01*
X116402381Y-147690476D02*
X116402381Y-148261905D01*
X116402381Y-147976191D02*
X115402381Y-147976191D01*
X115545238Y-148071429D01*
X115640476Y-148166667D01*
X115688095Y-148261905D01*
X115402381Y-147357143D02*
X115402381Y-146738095D01*
X115783333Y-147071429D01*
X115783333Y-146928571D01*
X115830952Y-146833333D01*
X115878571Y-146785714D01*
X115973810Y-146738095D01*
X116211905Y-146738095D01*
X116307143Y-146785714D01*
X116354762Y-146833333D01*
X116402381Y-146928571D01*
X116402381Y-147214286D01*
X116354762Y-147309524D01*
X116307143Y-147357143D01*
X87357143Y-133952381D02*
X87023809Y-133476190D01*
X86785714Y-133952381D02*
X86785714Y-132952381D01*
X87166667Y-132952381D01*
X87261905Y-133000000D01*
X87309524Y-133047619D01*
X87357143Y-133142857D01*
X87357143Y-133285714D01*
X87309524Y-133380952D01*
X87261905Y-133428571D01*
X87166667Y-133476190D01*
X86785714Y-133476190D01*
X88309524Y-133952381D02*
X87738095Y-133952381D01*
X88023809Y-133952381D02*
X88023809Y-132952381D01*
X87928571Y-133095238D01*
X87833333Y-133190476D01*
X87738095Y-133238095D01*
X89166667Y-133285714D02*
X89166667Y-133952381D01*
X88928571Y-132904762D02*
X88690476Y-133619048D01*
X89309524Y-133619048D01*
X80952381Y-166392857D02*
X80476190Y-166726191D01*
X80952381Y-166964286D02*
X79952381Y-166964286D01*
X79952381Y-166583333D01*
X80000000Y-166488095D01*
X80047619Y-166440476D01*
X80142857Y-166392857D01*
X80285714Y-166392857D01*
X80380952Y-166440476D01*
X80428571Y-166488095D01*
X80476190Y-166583333D01*
X80476190Y-166964286D01*
X80952381Y-165440476D02*
X80952381Y-166011905D01*
X80952381Y-165726191D02*
X79952381Y-165726191D01*
X80095238Y-165821429D01*
X80190476Y-165916667D01*
X80238095Y-166011905D01*
X79952381Y-164535714D02*
X79952381Y-165011905D01*
X80428571Y-165059524D01*
X80380952Y-165011905D01*
X80333333Y-164916667D01*
X80333333Y-164678571D01*
X80380952Y-164583333D01*
X80428571Y-164535714D01*
X80523810Y-164488095D01*
X80761905Y-164488095D01*
X80857143Y-164535714D01*
X80904762Y-164583333D01*
X80952381Y-164678571D01*
X80952381Y-164916667D01*
X80904762Y-165011905D01*
X80857143Y-165059524D01*
X133586667Y-152564762D02*
X133729524Y-152612381D01*
X133967620Y-152612381D01*
X134062858Y-152564762D01*
X134110477Y-152517143D01*
X134158096Y-152421905D01*
X134158096Y-152326667D01*
X134110477Y-152231429D01*
X134062858Y-152183810D01*
X133967620Y-152136190D01*
X133777143Y-152088571D01*
X133681905Y-152040952D01*
X133634286Y-151993333D01*
X133586667Y-151898095D01*
X133586667Y-151802857D01*
X133634286Y-151707619D01*
X133681905Y-151660000D01*
X133777143Y-151612381D01*
X134015239Y-151612381D01*
X134158096Y-151660000D01*
X134491429Y-151612381D02*
X134729524Y-152612381D01*
X134920001Y-151898095D01*
X135110477Y-152612381D01*
X135348572Y-151612381D01*
X136253334Y-152612381D02*
X135681905Y-152612381D01*
X135967619Y-152612381D02*
X135967619Y-151612381D01*
X135872381Y-151755238D01*
X135777143Y-151850476D01*
X135681905Y-151898095D01*
X133586667Y-169564762D02*
X133729524Y-169612381D01*
X133967620Y-169612381D01*
X134062858Y-169564762D01*
X134110477Y-169517143D01*
X134158096Y-169421905D01*
X134158096Y-169326667D01*
X134110477Y-169231429D01*
X134062858Y-169183810D01*
X133967620Y-169136190D01*
X133777143Y-169088571D01*
X133681905Y-169040952D01*
X133634286Y-168993333D01*
X133586667Y-168898095D01*
X133586667Y-168802857D01*
X133634286Y-168707619D01*
X133681905Y-168660000D01*
X133777143Y-168612381D01*
X134015239Y-168612381D01*
X134158096Y-168660000D01*
X134491429Y-168612381D02*
X134729524Y-169612381D01*
X134920001Y-168898095D01*
X135110477Y-169612381D01*
X135348572Y-168612381D01*
X135681905Y-168707619D02*
X135729524Y-168660000D01*
X135824762Y-168612381D01*
X136062858Y-168612381D01*
X136158096Y-168660000D01*
X136205715Y-168707619D01*
X136253334Y-168802857D01*
X136253334Y-168898095D01*
X136205715Y-169040952D01*
X135634286Y-169612381D01*
X136253334Y-169612381D01*
X98843401Y-169229019D02*
X98978088Y-169161675D01*
X99146447Y-168993316D01*
X99180119Y-168892301D01*
X99180119Y-168824957D01*
X99146447Y-168723942D01*
X99079104Y-168656599D01*
X98978089Y-168622927D01*
X98910745Y-168622927D01*
X98809729Y-168656598D01*
X98641370Y-168757614D01*
X98540355Y-168791286D01*
X98473012Y-168791286D01*
X98371996Y-168757614D01*
X98304653Y-168690271D01*
X98270981Y-168589255D01*
X98270981Y-168521912D01*
X98304653Y-168420897D01*
X98473012Y-168252538D01*
X98607699Y-168185194D01*
X98809729Y-167915820D02*
X99685195Y-168454569D01*
X99314806Y-167814804D01*
X99954569Y-168185194D01*
X99415821Y-167309729D01*
X99617851Y-167107698D02*
X100055584Y-166669965D01*
X100089255Y-167175042D01*
X100190271Y-167074026D01*
X100291286Y-167040354D01*
X100358630Y-167040354D01*
X100459646Y-167074027D01*
X100628004Y-167242385D01*
X100661676Y-167343400D01*
X100661676Y-167410744D01*
X100628004Y-167511759D01*
X100425973Y-167713790D01*
X100324958Y-167747462D01*
X100257615Y-167747462D01*
X109339309Y-158823346D02*
X109473996Y-158756002D01*
X109642355Y-158587643D01*
X109676027Y-158486628D01*
X109676027Y-158419284D01*
X109642355Y-158318269D01*
X109575012Y-158250926D01*
X109473997Y-158217254D01*
X109406653Y-158217254D01*
X109305637Y-158250925D01*
X109137278Y-158351941D01*
X109036263Y-158385613D01*
X108968920Y-158385613D01*
X108867904Y-158351941D01*
X108800561Y-158284598D01*
X108766889Y-158183582D01*
X108766889Y-158116239D01*
X108800561Y-158015224D01*
X108968920Y-157846865D01*
X109103607Y-157779521D01*
X109305637Y-157510147D02*
X110181103Y-158048896D01*
X109810714Y-157409131D01*
X110450477Y-157779521D01*
X109911729Y-156904056D01*
X110719851Y-156567338D02*
X111191256Y-157038743D01*
X110282118Y-156466323D02*
X110618836Y-157139758D01*
X111056569Y-156702025D01*
X99093401Y-148479019D02*
X99228088Y-148411675D01*
X99396447Y-148243316D01*
X99430119Y-148142301D01*
X99430119Y-148074957D01*
X99396447Y-147973942D01*
X99329104Y-147906599D01*
X99228089Y-147872927D01*
X99160745Y-147872927D01*
X99059729Y-147906598D01*
X98891370Y-148007614D01*
X98790355Y-148041286D01*
X98723012Y-148041286D01*
X98621996Y-148007614D01*
X98554653Y-147940271D01*
X98520981Y-147839255D01*
X98520981Y-147771912D01*
X98554653Y-147670897D01*
X98723012Y-147502538D01*
X98857699Y-147435194D01*
X99059729Y-147165820D02*
X99935195Y-147704569D01*
X99564806Y-147064804D01*
X100204569Y-147435194D01*
X99665821Y-146559729D01*
X100271913Y-145953637D02*
X99935195Y-146290355D01*
X100238240Y-146660744D01*
X100238240Y-146593400D01*
X100271912Y-146492385D01*
X100440271Y-146324026D01*
X100541286Y-146290354D01*
X100608630Y-146290354D01*
X100709646Y-146324027D01*
X100878004Y-146492385D01*
X100911676Y-146593400D01*
X100911676Y-146660744D01*
X100878004Y-146761759D01*
X100709645Y-146930118D01*
X100608630Y-146963790D01*
X100541286Y-146963790D01*
X88593400Y-158979019D02*
X88728087Y-158911675D01*
X88896446Y-158743316D01*
X88930118Y-158642301D01*
X88930118Y-158574957D01*
X88896446Y-158473942D01*
X88829103Y-158406599D01*
X88728088Y-158372927D01*
X88660744Y-158372927D01*
X88559728Y-158406598D01*
X88391369Y-158507614D01*
X88290354Y-158541286D01*
X88223011Y-158541286D01*
X88121995Y-158507614D01*
X88054652Y-158440271D01*
X88020980Y-158339255D01*
X88020980Y-158271912D01*
X88054652Y-158170897D01*
X88223011Y-158002538D01*
X88357698Y-157935194D01*
X88559728Y-157665820D02*
X89435194Y-158204569D01*
X89064805Y-157564804D01*
X89704568Y-157935194D01*
X89165820Y-157059729D01*
X89738240Y-156487309D02*
X89603552Y-156621996D01*
X89569881Y-156723012D01*
X89569881Y-156790355D01*
X89603552Y-156958714D01*
X89704568Y-157127072D01*
X89973942Y-157396447D01*
X90074957Y-157430118D01*
X90142301Y-157430118D01*
X90243316Y-157396447D01*
X90378003Y-157261759D01*
X90411675Y-157160744D01*
X90411675Y-157093400D01*
X90378003Y-156992385D01*
X90209645Y-156824027D01*
X90108629Y-156790354D01*
X90041285Y-156790354D01*
X89940270Y-156824026D01*
X89805583Y-156958714D01*
X89771911Y-157059729D01*
X89771911Y-157127072D01*
X89805583Y-157228088D01*
X77154762Y-138333333D02*
X77202381Y-138190476D01*
X77202381Y-137952380D01*
X77154762Y-137857142D01*
X77107143Y-137809523D01*
X77011905Y-137761904D01*
X76916667Y-137761904D01*
X76821429Y-137809523D01*
X76773810Y-137857142D01*
X76726190Y-137952380D01*
X76678571Y-138142857D01*
X76630952Y-138238095D01*
X76583333Y-138285714D01*
X76488095Y-138333333D01*
X76392857Y-138333333D01*
X76297619Y-138285714D01*
X76250000Y-138238095D01*
X76202381Y-138142857D01*
X76202381Y-137904761D01*
X76250000Y-137761904D01*
X76202381Y-137428571D02*
X77202381Y-137190476D01*
X76488095Y-136999999D01*
X77202381Y-136809523D01*
X76202381Y-136571428D01*
X76202381Y-136285714D02*
X76202381Y-135619047D01*
X77202381Y-136047619D01*
X127488095Y-107202381D02*
X127488095Y-108011905D01*
X127535714Y-108107143D01*
X127583333Y-108154762D01*
X127678571Y-108202381D01*
X127869048Y-108202381D01*
X127964286Y-108154762D01*
X128011905Y-108107143D01*
X128059524Y-108011905D01*
X128059524Y-107202381D01*
X129059524Y-108202381D02*
X128488095Y-108202381D01*
X128773809Y-108202381D02*
X128773809Y-107202381D01*
X128678571Y-107345238D01*
X128583333Y-107440476D01*
X128488095Y-107488095D01*
X75202381Y-104892857D02*
X74726190Y-105226191D01*
X75202381Y-105464286D02*
X74202381Y-105464286D01*
X74202381Y-105083333D01*
X74250000Y-104988095D01*
X74297619Y-104940476D01*
X74392857Y-104892857D01*
X74535714Y-104892857D01*
X74630952Y-104940476D01*
X74678571Y-104988095D01*
X74726190Y-105083333D01*
X74726190Y-105464286D01*
X75202381Y-103940476D02*
X75202381Y-104511905D01*
X75202381Y-104226191D02*
X74202381Y-104226191D01*
X74345238Y-104321429D01*
X74440476Y-104416667D01*
X74488095Y-104511905D01*
X74202381Y-103083333D02*
X74202381Y-103273810D01*
X74250000Y-103369048D01*
X74297619Y-103416667D01*
X74440476Y-103511905D01*
X74630952Y-103559524D01*
X75011905Y-103559524D01*
X75107143Y-103511905D01*
X75154762Y-103464286D01*
X75202381Y-103369048D01*
X75202381Y-103178571D01*
X75154762Y-103083333D01*
X75107143Y-103035714D01*
X75011905Y-102988095D01*
X74773810Y-102988095D01*
X74678571Y-103035714D01*
X74630952Y-103083333D01*
X74583333Y-103178571D01*
X74583333Y-103369048D01*
X74630952Y-103464286D01*
X74678571Y-103511905D01*
X74773810Y-103559524D01*
X76702381Y-104892857D02*
X76226190Y-105226191D01*
X76702381Y-105464286D02*
X75702381Y-105464286D01*
X75702381Y-105083333D01*
X75750000Y-104988095D01*
X75797619Y-104940476D01*
X75892857Y-104892857D01*
X76035714Y-104892857D01*
X76130952Y-104940476D01*
X76178571Y-104988095D01*
X76226190Y-105083333D01*
X76226190Y-105464286D01*
X76702381Y-103940476D02*
X76702381Y-104511905D01*
X76702381Y-104226191D02*
X75702381Y-104226191D01*
X75845238Y-104321429D01*
X75940476Y-104416667D01*
X75988095Y-104511905D01*
X75702381Y-103607143D02*
X75702381Y-102940476D01*
X76702381Y-103369048D01*
X78202381Y-104892857D02*
X77726190Y-105226191D01*
X78202381Y-105464286D02*
X77202381Y-105464286D01*
X77202381Y-105083333D01*
X77250000Y-104988095D01*
X77297619Y-104940476D01*
X77392857Y-104892857D01*
X77535714Y-104892857D01*
X77630952Y-104940476D01*
X77678571Y-104988095D01*
X77726190Y-105083333D01*
X77726190Y-105464286D01*
X78202381Y-103940476D02*
X78202381Y-104511905D01*
X78202381Y-104226191D02*
X77202381Y-104226191D01*
X77345238Y-104321429D01*
X77440476Y-104416667D01*
X77488095Y-104511905D01*
X77630952Y-103369048D02*
X77583333Y-103464286D01*
X77535714Y-103511905D01*
X77440476Y-103559524D01*
X77392857Y-103559524D01*
X77297619Y-103511905D01*
X77250000Y-103464286D01*
X77202381Y-103369048D01*
X77202381Y-103178571D01*
X77250000Y-103083333D01*
X77297619Y-103035714D01*
X77392857Y-102988095D01*
X77440476Y-102988095D01*
X77535714Y-103035714D01*
X77583333Y-103083333D01*
X77630952Y-103178571D01*
X77630952Y-103369048D01*
X77678571Y-103464286D01*
X77726190Y-103511905D01*
X77821429Y-103559524D01*
X78011905Y-103559524D01*
X78107143Y-103511905D01*
X78154762Y-103464286D01*
X78202381Y-103369048D01*
X78202381Y-103178571D01*
X78154762Y-103083333D01*
X78107143Y-103035714D01*
X78011905Y-102988095D01*
X77821429Y-102988095D01*
X77726190Y-103035714D01*
X77678571Y-103083333D01*
X77630952Y-103178571D01*
X72666667Y-30252381D02*
X72666667Y-30966667D01*
X72619047Y-31109524D01*
X72523809Y-31204762D01*
X72380952Y-31252381D01*
X72285714Y-31252381D01*
X73047619Y-30252381D02*
X73666667Y-30252381D01*
X73333333Y-30633333D01*
X73476191Y-30633333D01*
X73571429Y-30680952D01*
X73619048Y-30728571D01*
X73666667Y-30823810D01*
X73666667Y-31061905D01*
X73619048Y-31157143D01*
X73571429Y-31204762D01*
X73476191Y-31252381D01*
X73190476Y-31252381D01*
X73095238Y-31204762D01*
X73047619Y-31157143D01*
X142666667Y-30252381D02*
X142666667Y-30966667D01*
X142619047Y-31109524D01*
X142523809Y-31204762D01*
X142380952Y-31252381D01*
X142285714Y-31252381D01*
X143571429Y-30585714D02*
X143571429Y-31252381D01*
X143333333Y-30204762D02*
X143095238Y-30919048D01*
X143714286Y-30919048D01*
M02*
