G04 #@! TF.FileFunction,Soldermask,Top*
%FSLAX46Y46*%
G04 Gerber Fmt 4.6, Leading zero omitted, Abs format (unit mm)*
G04 Created by KiCad (PCBNEW 4.0.7) date Mon Feb 12 17:44:01 2018*
%MOMM*%
%LPD*%
G01*
G04 APERTURE LIST*
%ADD10C,0.100000*%
%ADD11R,1.400000X1.500000*%
%ADD12R,0.300000X1.000000*%
%ADD13R,1.700000X1.700000*%
%ADD14O,1.700000X1.700000*%
%ADD15R,1.250000X1.000000*%
%ADD16R,0.750000X0.800000*%
%ADD17R,1.000000X1.250000*%
%ADD18R,1.200000X0.900000*%
%ADD19C,2.500000*%
%ADD20C,2.000000*%
%ADD21C,1.200000*%
%ADD22R,1.000000X1.400000*%
%ADD23R,0.900000X0.500000*%
%ADD24R,0.500000X0.900000*%
%ADD25O,3.048000X1.727200*%
%ADD26C,1.727200*%
%ADD27R,2.500000X1.500000*%
%ADD28O,2.500000X1.500000*%
%ADD29O,3.500000X2.200000*%
%ADD30R,0.650000X1.060000*%
%ADD31C,3.200000*%
G04 APERTURE END LIST*
D10*
D11*
X85450000Y-100850000D03*
X115050000Y-100850000D03*
D12*
X87000000Y-104000000D03*
X87500000Y-104000000D03*
X88000000Y-104000000D03*
X88500000Y-104000000D03*
X89000000Y-104000000D03*
X89500000Y-104000000D03*
X90000000Y-104000000D03*
X90500000Y-104000000D03*
X91000000Y-104000000D03*
X91500000Y-104000000D03*
X92000000Y-104000000D03*
X92500000Y-104000000D03*
X93000000Y-104000000D03*
X93500000Y-104000000D03*
X94000000Y-104000000D03*
X94500000Y-104000000D03*
X95000000Y-104000000D03*
X95500000Y-104000000D03*
X96000000Y-104000000D03*
X96500000Y-104000000D03*
X97000000Y-104000000D03*
X97500000Y-104000000D03*
X98000000Y-104000000D03*
X98500000Y-104000000D03*
X99000000Y-104000000D03*
X99500000Y-104000000D03*
X100000000Y-104000000D03*
X100500000Y-104000000D03*
X101000000Y-104000000D03*
X101500000Y-104000000D03*
X102000000Y-104000000D03*
X102500000Y-104000000D03*
X103000000Y-104000000D03*
X103500000Y-104000000D03*
X104000000Y-104000000D03*
X104500000Y-104000000D03*
X105000000Y-104000000D03*
X105500000Y-104000000D03*
X106000000Y-104000000D03*
X106500000Y-104000000D03*
X107000000Y-104000000D03*
X107500000Y-104000000D03*
X108000000Y-104000000D03*
X108500000Y-104000000D03*
X109000000Y-104000000D03*
X109500000Y-104000000D03*
X110000000Y-104000000D03*
X110500000Y-104000000D03*
X111000000Y-104000000D03*
X111500000Y-104000000D03*
X112000000Y-104000000D03*
X112500000Y-104000000D03*
X113000000Y-104000000D03*
X113500000Y-104000000D03*
D13*
X73000000Y-150500000D03*
D14*
X73000000Y-147960000D03*
D15*
X125430000Y-111300000D03*
X125430000Y-109300000D03*
D16*
X128500000Y-104960000D03*
X128500000Y-106460000D03*
D15*
X132500000Y-106710000D03*
X132500000Y-104710000D03*
D17*
X94000000Y-106000000D03*
X92000000Y-106000000D03*
D18*
X132500000Y-108560000D03*
X132500000Y-111860000D03*
D13*
X140000000Y-106000000D03*
D14*
X142540000Y-106000000D03*
X140000000Y-108540000D03*
X142540000Y-108540000D03*
X140000000Y-111080000D03*
X142540000Y-111080000D03*
X140000000Y-113620000D03*
X142540000Y-113620000D03*
X140000000Y-116160000D03*
X142540000Y-116160000D03*
X140000000Y-118700000D03*
X142540000Y-118700000D03*
D19*
X142000000Y-131000000D03*
D20*
X137000000Y-133500000D03*
X137000000Y-136000000D03*
X137000000Y-128500000D03*
X137000000Y-126000000D03*
D21*
X142000000Y-136000000D03*
X144500000Y-136000000D03*
X142000000Y-126000000D03*
X144500000Y-126000000D03*
X137000000Y-131000000D03*
D22*
X131040000Y-115010000D03*
X125840000Y-115010000D03*
D23*
X123650000Y-110990000D03*
X123650000Y-109490000D03*
X127000000Y-106460000D03*
X127000000Y-104960000D03*
X79500000Y-106250000D03*
X79500000Y-107750000D03*
X81000000Y-106250000D03*
X81000000Y-107750000D03*
X111500000Y-105750000D03*
X111500000Y-107250000D03*
X110000000Y-105750000D03*
X110000000Y-107250000D03*
X108500000Y-105750000D03*
X108500000Y-107250000D03*
X107000000Y-105750000D03*
X107000000Y-107250000D03*
X82500000Y-106250000D03*
X82500000Y-107750000D03*
X124500000Y-147250000D03*
X124500000Y-148750000D03*
X124500000Y-164250000D03*
X124500000Y-165750000D03*
X85500000Y-165250000D03*
X85500000Y-166750000D03*
X114500000Y-147250000D03*
X114500000Y-148750000D03*
D24*
X88750000Y-135000000D03*
X87250000Y-135000000D03*
D23*
X83500000Y-165250000D03*
X83500000Y-166750000D03*
D25*
X128500000Y-147500000D03*
X128500000Y-142500000D03*
X141000000Y-147500000D03*
X141000000Y-142500000D03*
X128500000Y-164500000D03*
X128500000Y-159500000D03*
X141000000Y-164500000D03*
X141000000Y-159500000D03*
D26*
X88628138Y-160628138D02*
X87694192Y-159694192D01*
X92163672Y-157092604D02*
X91229726Y-156158658D01*
X97466973Y-169466973D02*
X96533027Y-168533027D01*
X101002507Y-165931439D02*
X100068561Y-164997493D01*
X102628138Y-158371862D02*
X101694192Y-159305808D01*
X99092604Y-154836328D02*
X98158658Y-155770274D01*
X111466973Y-149533027D02*
X110533027Y-150466973D01*
X107931439Y-145997493D02*
X106997493Y-146931439D01*
X100371862Y-144371862D02*
X101305808Y-145305808D01*
X96836328Y-147907396D02*
X97770274Y-148841342D01*
X91533027Y-135533027D02*
X92466973Y-136466973D01*
X87997493Y-139068561D02*
X88931439Y-140002507D01*
X81628138Y-158371862D02*
X80694192Y-159305808D01*
X78092604Y-154836328D02*
X77158658Y-155770274D01*
X90466973Y-149533027D02*
X89533027Y-150466973D01*
X86931439Y-145997493D02*
X85997493Y-146931439D01*
D27*
X73500000Y-138000000D03*
D28*
X73500000Y-140000000D03*
X73500000Y-142000000D03*
D29*
X73500000Y-135900000D03*
X73500000Y-144100000D03*
D30*
X127550000Y-111310000D03*
X128500000Y-111310000D03*
X129450000Y-111310000D03*
X129450000Y-109110000D03*
X127550000Y-109110000D03*
X128500000Y-109110000D03*
D13*
X117320000Y-129780000D03*
D14*
X114780000Y-129780000D03*
X112240000Y-129780000D03*
X109700000Y-129780000D03*
X107160000Y-129780000D03*
X104620000Y-129780000D03*
X102080000Y-129780000D03*
X99540000Y-129780000D03*
X97000000Y-129780000D03*
X94460000Y-129780000D03*
X91920000Y-129780000D03*
X89380000Y-129780000D03*
X86840000Y-129780000D03*
X84300000Y-129780000D03*
X81760000Y-129780000D03*
X79220000Y-129780000D03*
D13*
X117320000Y-112000000D03*
D14*
X114780000Y-112000000D03*
X112240000Y-112000000D03*
X109700000Y-112000000D03*
X107160000Y-112000000D03*
X104620000Y-112000000D03*
X102080000Y-112000000D03*
X99540000Y-112000000D03*
X97000000Y-112000000D03*
X94460000Y-112000000D03*
X91920000Y-112000000D03*
X89380000Y-112000000D03*
X86840000Y-112000000D03*
X84300000Y-112000000D03*
X81760000Y-112000000D03*
X79220000Y-112000000D03*
X76680000Y-112000000D03*
X74140000Y-112000000D03*
D23*
X79500000Y-105250000D03*
X79500000Y-103750000D03*
X81000000Y-105250000D03*
X81000000Y-103750000D03*
X82500000Y-105250000D03*
X82500000Y-103750000D03*
D31*
X73000000Y-35000000D03*
X143000000Y-35000000D03*
M02*
