G04 #@! TF.FileFunction,Profile,NP*
%FSLAX46Y46*%
G04 Gerber Fmt 4.6, Leading zero omitted, Abs format (unit mm)*
G04 Created by KiCad (PCBNEW 4.0.7) date Mon Feb 12 17:44:01 2018*
%MOMM*%
%LPD*%
G01*
G04 APERTURE LIST*
%ADD10C,0.100000*%
%ADD11C,0.150000*%
G04 APERTURE END LIST*
D10*
D11*
X145500000Y-34000000D02*
X145500000Y-33500000D01*
X70500000Y-33500000D02*
X70500000Y-33000000D01*
X144500000Y-172000000D02*
G75*
G03X145500000Y-171000000I0J1000000D01*
G01*
X70500000Y-171000000D02*
G75*
G03X71500000Y-172000000I1000000J0D01*
G01*
X70500000Y-171000000D02*
X70500000Y-171000000D01*
X80000000Y-172000000D02*
X71500000Y-172000000D01*
X144500000Y-172000000D02*
X80000000Y-172000000D01*
X145500000Y-171000000D02*
X145500000Y-171000000D01*
X70500000Y-157500000D02*
X70500000Y-171000000D01*
X145500000Y-157500000D02*
X145500000Y-171000000D01*
X145500000Y-157500000D02*
X145500000Y-142500000D01*
X70500000Y-142500000D02*
X70500000Y-157500000D01*
X145500000Y-102500000D02*
X145500000Y-142500000D01*
X70500000Y-102500000D02*
X70500000Y-142500000D01*
X71500000Y-32000000D02*
G75*
G03X70500000Y-33000000I0J-1000000D01*
G01*
X145500000Y-33500000D02*
G75*
G03X144000000Y-32000000I-1500000J0D01*
G01*
X71500000Y-32000000D02*
X81800000Y-32000000D01*
X70500000Y-73500000D02*
X70500000Y-33500000D01*
X144000000Y-32000000D02*
X81800000Y-32000000D01*
X145500000Y-49200000D02*
X145500000Y-34000000D01*
X145500000Y-72500000D02*
X145500000Y-49200000D01*
X129000000Y-106210000D02*
X129000000Y-106210000D01*
X145500000Y-72500000D02*
X145500000Y-77500000D01*
X70500000Y-77500000D02*
X70500000Y-72500000D01*
X70500000Y-77500000D02*
X70500000Y-91500000D01*
X145500000Y-102500000D02*
X145500000Y-77500000D01*
X70500000Y-102500000D02*
X70500000Y-91500000D01*
M02*
