G04 #@! TF.FileFunction,Soldermask,Bot*
%FSLAX46Y46*%
G04 Gerber Fmt 4.6, Leading zero omitted, Abs format (unit mm)*
G04 Created by KiCad (PCBNEW 4.0.7) date Mon Feb 12 17:44:01 2018*
%MOMM*%
%LPD*%
G01*
G04 APERTURE LIST*
%ADD10C,0.100000*%
%ADD11R,1.700000X1.700000*%
%ADD12O,1.700000X1.700000*%
%ADD13C,2.500000*%
%ADD14C,2.000000*%
%ADD15C,1.200000*%
%ADD16O,3.048000X1.727200*%
%ADD17C,1.727200*%
%ADD18R,2.500000X1.500000*%
%ADD19O,2.500000X1.500000*%
%ADD20O,3.500000X2.200000*%
%ADD21C,3.200000*%
G04 APERTURE END LIST*
D10*
D11*
X73000000Y-150500000D03*
D12*
X73000000Y-147960000D03*
D11*
X140000000Y-106000000D03*
D12*
X142540000Y-106000000D03*
X140000000Y-108540000D03*
X142540000Y-108540000D03*
X140000000Y-111080000D03*
X142540000Y-111080000D03*
X140000000Y-113620000D03*
X142540000Y-113620000D03*
X140000000Y-116160000D03*
X142540000Y-116160000D03*
X140000000Y-118700000D03*
X142540000Y-118700000D03*
D13*
X142000000Y-131000000D03*
D14*
X137000000Y-133500000D03*
X137000000Y-136000000D03*
X137000000Y-128500000D03*
X137000000Y-126000000D03*
D15*
X142000000Y-136000000D03*
X144500000Y-136000000D03*
X142000000Y-126000000D03*
X144500000Y-126000000D03*
X137000000Y-131000000D03*
D16*
X128500000Y-147500000D03*
X128500000Y-142500000D03*
X141000000Y-147500000D03*
X141000000Y-142500000D03*
X128500000Y-164500000D03*
X128500000Y-159500000D03*
X141000000Y-164500000D03*
X141000000Y-159500000D03*
D17*
X88628138Y-160628138D02*
X87694192Y-159694192D01*
X92163672Y-157092604D02*
X91229726Y-156158658D01*
X97466973Y-169466973D02*
X96533027Y-168533027D01*
X101002507Y-165931439D02*
X100068561Y-164997493D01*
X102628138Y-158371862D02*
X101694192Y-159305808D01*
X99092604Y-154836328D02*
X98158658Y-155770274D01*
X111466973Y-149533027D02*
X110533027Y-150466973D01*
X107931439Y-145997493D02*
X106997493Y-146931439D01*
X100371862Y-144371862D02*
X101305808Y-145305808D01*
X96836328Y-147907396D02*
X97770274Y-148841342D01*
X91533027Y-135533027D02*
X92466973Y-136466973D01*
X87997493Y-139068561D02*
X88931439Y-140002507D01*
X81628138Y-158371862D02*
X80694192Y-159305808D01*
X78092604Y-154836328D02*
X77158658Y-155770274D01*
X90466973Y-149533027D02*
X89533027Y-150466973D01*
X86931439Y-145997493D02*
X85997493Y-146931439D01*
D18*
X73500000Y-138000000D03*
D19*
X73500000Y-140000000D03*
X73500000Y-142000000D03*
D20*
X73500000Y-135900000D03*
X73500000Y-144100000D03*
D11*
X117320000Y-129780000D03*
D12*
X114780000Y-129780000D03*
X112240000Y-129780000D03*
X109700000Y-129780000D03*
X107160000Y-129780000D03*
X104620000Y-129780000D03*
X102080000Y-129780000D03*
X99540000Y-129780000D03*
X97000000Y-129780000D03*
X94460000Y-129780000D03*
X91920000Y-129780000D03*
X89380000Y-129780000D03*
X86840000Y-129780000D03*
X84300000Y-129780000D03*
X81760000Y-129780000D03*
X79220000Y-129780000D03*
D11*
X117320000Y-112000000D03*
D12*
X114780000Y-112000000D03*
X112240000Y-112000000D03*
X109700000Y-112000000D03*
X107160000Y-112000000D03*
X104620000Y-112000000D03*
X102080000Y-112000000D03*
X99540000Y-112000000D03*
X97000000Y-112000000D03*
X94460000Y-112000000D03*
X91920000Y-112000000D03*
X89380000Y-112000000D03*
X86840000Y-112000000D03*
X84300000Y-112000000D03*
X81760000Y-112000000D03*
X79220000Y-112000000D03*
X76680000Y-112000000D03*
X74140000Y-112000000D03*
D21*
X73000000Y-35000000D03*
X143000000Y-35000000D03*
M02*
